G04 #@! TF.GenerationSoftware,KiCad,Pcbnew,(6.0.1)*
G04 #@! TF.CreationDate,2022-01-29T10:27:06+01:00*
G04 #@! TF.ProjectId,mico,6d69636f-2e6b-4696-9361-645f70636258,rev?*
G04 #@! TF.SameCoordinates,Original*
G04 #@! TF.FileFunction,Soldermask,Top*
G04 #@! TF.FilePolarity,Negative*
%FSLAX46Y46*%
G04 Gerber Fmt 4.6, Leading zero omitted, Abs format (unit mm)*
G04 Created by KiCad (PCBNEW (6.0.1)) date 2022-01-29 10:27:06*
%MOMM*%
%LPD*%
G01*
G04 APERTURE LIST*
%ADD10R,2.000000X2.000000*%
%ADD11C,2.000000*%
%ADD12R,3.000000X2.500000*%
%ADD13O,1.500000X1.500000*%
%ADD14O,1.800000X1.800000*%
%ADD15O,1.700000X1.700000*%
%ADD16R,1.700000X1.700000*%
G04 APERTURE END LIST*
D10*
X143550000Y-76500000D03*
D11*
X143550000Y-71500000D03*
X143550000Y-74000000D03*
D12*
X136050000Y-68400000D03*
X136050000Y-79600000D03*
D10*
X143550000Y-91000000D03*
D11*
X143550000Y-86000000D03*
X143550000Y-88500000D03*
D12*
X136050000Y-82900000D03*
X136050000Y-94100000D03*
D10*
X143550000Y-120000000D03*
D11*
X143550000Y-115000000D03*
X143550000Y-117500000D03*
D12*
X136050000Y-111900000D03*
X136050000Y-123100000D03*
D10*
X143550000Y-105500000D03*
D11*
X143550000Y-100500000D03*
X143550000Y-103000000D03*
D12*
X136050000Y-97400000D03*
X136050000Y-108600000D03*
D13*
X140425000Y-72030000D03*
D14*
X135275000Y-69000000D03*
X140725000Y-69000000D03*
D13*
X135575000Y-72030000D03*
D15*
X146890000Y-68870000D03*
X146890000Y-71410000D03*
D16*
X146890000Y-73950000D03*
D15*
X146890000Y-76490000D03*
X146890000Y-79030000D03*
X146890000Y-81570000D03*
X146890000Y-84110000D03*
D16*
X146890000Y-86650000D03*
D15*
X146890000Y-89190000D03*
X146890000Y-91730000D03*
X146890000Y-94270000D03*
X146890000Y-96810000D03*
D16*
X146890000Y-99350000D03*
D15*
X146890000Y-101890000D03*
X146890000Y-104430000D03*
X146890000Y-106970000D03*
X146890000Y-109510000D03*
D16*
X146890000Y-112050000D03*
D15*
X146890000Y-114590000D03*
X146890000Y-117130000D03*
X129110000Y-117130000D03*
X129110000Y-114590000D03*
D16*
X129110000Y-112050000D03*
D15*
X129110000Y-109510000D03*
X129110000Y-106970000D03*
X129110000Y-104430000D03*
X129110000Y-101890000D03*
D16*
X129110000Y-99350000D03*
D15*
X129110000Y-96810000D03*
X129110000Y-94270000D03*
X129110000Y-91730000D03*
X129110000Y-89190000D03*
D16*
X129110000Y-86650000D03*
D15*
X129110000Y-84110000D03*
X129110000Y-81570000D03*
X129110000Y-79030000D03*
X129110000Y-76490000D03*
D16*
X129110000Y-73950000D03*
D15*
X129110000Y-71410000D03*
X129110000Y-68870000D03*
X140540000Y-116900000D03*
D16*
X138000000Y-116900000D03*
D15*
X135460000Y-116900000D03*
M02*
