M48
; DRILL file {KiCad (6.0.1)} date Sat 29 Jan 2022 10:27:49 CET
; FORMAT={-:-/ absolute / metric / decimal}
; #@! TF.CreationDate,2022-01-29T10:27:49+01:00
; #@! TF.GenerationSoftware,Kicad,Pcbnew,(6.0.1)
; #@! TF.FileFunction,Plated,1,2,PTH
FMAT,2
METRIC
; #@! TA.AperFunction,Plated,PTH,ViaDrill
T1C0.400
; #@! TA.AperFunction,Plated,PTH,ComponentDrill
T2C1.000
; #@! TA.AperFunction,Plated,PTH,ComponentDrill
T3C1.020
; #@! TA.AperFunction,Plated,PTH,ComponentDrill
T4C2.000
%
G90
G05
T1
X130.5Y-95.5
X131.0Y-91.5
X131.225Y-94.017
X131.5Y-80.935
X131.5Y-99.0
X131.5Y-101.5
X131.5Y-112.0
X131.5Y-115.5
X132.0Y-69.0
X132.0Y-88.5
X132.0Y-96.5
X132.05Y-90.7
X132.949Y-98.774
X133.5Y-76.0
X134.0Y-77.0
X134.0Y-89.775
X134.0Y-114.5
X134.5Y-100.657
X134.5Y-91.5
X135.0Y-88.775
X135.5Y-85.0
X135.5Y-104.5
X137.0Y-88.0
X137.0Y-102.0
X137.989Y-99.988
X138.0Y-74.5
X138.292Y-89.708
X138.5Y-107.5
X139.049Y-95.405
X139.175Y-97.509
X139.507Y-112.543
X140.072Y-102.5
X140.485Y-95.418
X140.496Y-92.937
X140.5Y-105.0
X140.5Y-110.374
X141.0Y-90.425
X142.0Y-98.0
X142.5Y-95.5
X143.5Y-95.0
X143.5Y-108.5
X144.0Y-68.0
X144.0Y-69.0
X144.0Y-98.0
X144.0Y-112.0
X144.5Y-122.5
X145.0Y-83.0
T2
X143.55Y-71.5
X143.55Y-74.0
X143.55Y-76.5
X143.55Y-86.0
X143.55Y-88.5
X143.55Y-91.0
X143.55Y-100.5
X143.55Y-103.0
X143.55Y-105.5
X143.55Y-115.0
X143.55Y-117.5
X143.55Y-120.0
T3
X129.11Y-68.87
X129.11Y-71.41
X129.11Y-73.95
X129.11Y-76.49
X129.11Y-79.03
X129.11Y-81.57
X129.11Y-84.11
X129.11Y-86.65
X129.11Y-89.19
X129.11Y-91.73
X129.11Y-94.27
X129.11Y-96.81
X129.11Y-99.35
X129.11Y-101.89
X129.11Y-104.43
X129.11Y-106.97
X129.11Y-109.51
X129.11Y-112.05
X129.11Y-114.59
X129.11Y-117.13
X135.46Y-116.9
X138.0Y-116.9
X140.54Y-116.9
X146.89Y-68.87
X146.89Y-71.41
X146.89Y-73.95
X146.89Y-76.49
X146.89Y-79.03
X146.89Y-81.57
X146.89Y-84.11
X146.89Y-86.65
X146.89Y-89.19
X146.89Y-91.73
X146.89Y-94.27
X146.89Y-96.81
X146.89Y-99.35
X146.89Y-101.89
X146.89Y-104.43
X146.89Y-106.97
X146.89Y-109.51
X146.89Y-112.05
X146.89Y-114.59
X146.89Y-117.13
T4
X136.3Y-68.4G85X135.8Y-68.4
G05
X136.3Y-79.6G85X135.8Y-79.6
G05
X136.3Y-82.9G85X135.8Y-82.9
G05
X136.3Y-94.1G85X135.8Y-94.1
G05
X136.3Y-97.4G85X135.8Y-97.4
G05
X136.3Y-108.6G85X135.8Y-108.6
G05
X136.3Y-111.9G85X135.8Y-111.9
G05
X136.3Y-123.1G85X135.8Y-123.1
G05
T0
M30
