G04 #@! TF.GenerationSoftware,KiCad,Pcbnew,(6.0.1)*
G04 #@! TF.CreationDate,2022-01-29T10:27:05+01:00*
G04 #@! TF.ProjectId,mico,6d69636f-2e6b-4696-9361-645f70636258,rev?*
G04 #@! TF.SameCoordinates,Original*
G04 #@! TF.FileFunction,Copper,L1,Top*
G04 #@! TF.FilePolarity,Positive*
%FSLAX46Y46*%
G04 Gerber Fmt 4.6, Leading zero omitted, Abs format (unit mm)*
G04 Created by KiCad (PCBNEW (6.0.1)) date 2022-01-29 10:27:05*
%MOMM*%
%LPD*%
G01*
G04 APERTURE LIST*
G04 #@! TA.AperFunction,ComponentPad*
%ADD10R,2.000000X2.000000*%
G04 #@! TD*
G04 #@! TA.AperFunction,ComponentPad*
%ADD11C,2.000000*%
G04 #@! TD*
G04 #@! TA.AperFunction,ComponentPad*
%ADD12R,3.000000X2.500000*%
G04 #@! TD*
G04 #@! TA.AperFunction,ComponentPad*
%ADD13O,1.700000X1.700000*%
G04 #@! TD*
G04 #@! TA.AperFunction,ComponentPad*
%ADD14R,1.700000X1.700000*%
G04 #@! TD*
G04 #@! TA.AperFunction,ViaPad*
%ADD15C,0.800000*%
G04 #@! TD*
G04 #@! TA.AperFunction,Conductor*
%ADD16C,0.250000*%
G04 #@! TD*
G04 APERTURE END LIST*
D10*
X143550000Y-76500000D03*
D11*
X143550000Y-71500000D03*
X143550000Y-74000000D03*
D12*
X136050000Y-68400000D03*
X136050000Y-79600000D03*
D10*
X143550000Y-91000000D03*
D11*
X143550000Y-86000000D03*
X143550000Y-88500000D03*
D12*
X136050000Y-82900000D03*
X136050000Y-94100000D03*
D10*
X143550000Y-120000000D03*
D11*
X143550000Y-115000000D03*
X143550000Y-117500000D03*
D12*
X136050000Y-111900000D03*
X136050000Y-123100000D03*
D10*
X143550000Y-105500000D03*
D11*
X143550000Y-100500000D03*
X143550000Y-103000000D03*
D12*
X136050000Y-97400000D03*
X136050000Y-108600000D03*
D13*
X146890000Y-68870000D03*
X146890000Y-71410000D03*
D14*
X146890000Y-73950000D03*
D13*
X146890000Y-76490000D03*
X146890000Y-79030000D03*
X146890000Y-81570000D03*
X146890000Y-84110000D03*
D14*
X146890000Y-86650000D03*
D13*
X146890000Y-89190000D03*
X146890000Y-91730000D03*
X146890000Y-94270000D03*
X146890000Y-96810000D03*
D14*
X146890000Y-99350000D03*
D13*
X146890000Y-101890000D03*
X146890000Y-104430000D03*
X146890000Y-106970000D03*
X146890000Y-109510000D03*
D14*
X146890000Y-112050000D03*
D13*
X146890000Y-114590000D03*
X146890000Y-117130000D03*
X129110000Y-117130000D03*
X129110000Y-114590000D03*
D14*
X129110000Y-112050000D03*
D13*
X129110000Y-109510000D03*
X129110000Y-106970000D03*
X129110000Y-104430000D03*
X129110000Y-101890000D03*
D14*
X129110000Y-99350000D03*
D13*
X129110000Y-96810000D03*
X129110000Y-94270000D03*
X129110000Y-91730000D03*
X129110000Y-89190000D03*
D14*
X129110000Y-86650000D03*
D13*
X129110000Y-84110000D03*
X129110000Y-81570000D03*
X129110000Y-79030000D03*
X129110000Y-76490000D03*
D14*
X129110000Y-73950000D03*
D13*
X129110000Y-71410000D03*
X129110000Y-68870000D03*
X140540000Y-116900000D03*
D14*
X138000000Y-116900000D03*
D13*
X135460000Y-116900000D03*
D15*
X134000000Y-77000000D03*
X144500000Y-122500000D03*
X144000000Y-69000000D03*
X140071848Y-102500000D03*
X138000000Y-74500000D03*
X145000000Y-83000000D03*
X144000000Y-98000000D03*
X131500000Y-115500000D03*
X135500000Y-85000000D03*
X134500000Y-100657030D03*
X132000000Y-69000000D03*
X135500000Y-104500000D03*
X131500000Y-112000000D03*
X132000000Y-96500000D03*
X140485422Y-95417777D03*
X144000000Y-68000000D03*
X143500000Y-108500000D03*
X131500000Y-80935500D03*
X132000000Y-88500000D03*
X139507295Y-112543479D03*
X140500000Y-105000000D03*
X140500000Y-110374020D03*
X142000000Y-98000000D03*
X143500000Y-95000000D03*
X138291597Y-89708403D03*
X141000000Y-90425500D03*
X142500000Y-95500000D03*
X139048528Y-95405500D03*
X140495874Y-92937278D03*
X137000000Y-88000000D03*
X135000000Y-88775500D03*
X131224500Y-94017388D03*
X130500000Y-95500000D03*
X131000000Y-91500000D03*
X131500000Y-99000000D03*
X134000000Y-89775500D03*
X133500000Y-76000000D03*
X144000000Y-112000000D03*
X134000000Y-114500000D03*
X137000000Y-102000000D03*
X138500000Y-107500000D03*
X137988616Y-99987644D03*
X139174980Y-97508834D03*
X132949001Y-98774414D03*
X134500008Y-91499992D03*
X132050426Y-90700475D03*
X131500000Y-101500000D03*
D16*
X143345489Y-78025489D02*
X135025489Y-78025489D01*
X135025489Y-78025489D02*
X134000000Y-77000000D01*
X146890000Y-81570000D02*
X143345489Y-78025489D01*
X144874511Y-89824511D02*
X143550000Y-88500000D01*
X144874511Y-92324511D02*
X144874511Y-89824511D01*
X143578688Y-92324511D02*
X144874511Y-92324511D01*
X129110000Y-99350000D02*
X131960000Y-96500000D01*
X143550000Y-103000000D02*
X140181511Y-103000000D01*
X143550000Y-117500000D02*
X142550000Y-118500000D01*
X140181511Y-103000000D02*
X140071848Y-102890337D01*
X129110000Y-73950000D02*
X134225489Y-79065489D01*
X140071848Y-102500000D02*
X140571848Y-103000000D01*
X134225489Y-84474511D02*
X134750978Y-85000000D01*
X140485422Y-95417777D02*
X143578688Y-92324511D01*
X134225489Y-79065489D02*
X134225489Y-84474511D01*
X142550000Y-118500000D02*
X139600000Y-118500000D01*
X139600000Y-118500000D02*
X138000000Y-116900000D01*
X134750978Y-85000000D02*
X135500000Y-85000000D01*
X131960000Y-96500000D02*
X132000000Y-96500000D01*
X140571848Y-103000000D02*
X143550000Y-103000000D01*
X132000000Y-81435500D02*
X131500000Y-80935500D01*
X146890000Y-84110000D02*
X141110000Y-84110000D01*
X132000000Y-88500000D02*
X132000000Y-81435500D01*
X141110000Y-84110000D02*
X140745489Y-84474511D01*
X137525489Y-84474511D02*
X133500000Y-88500000D01*
X140745489Y-84474511D02*
X137525489Y-84474511D01*
X133500000Y-88500000D02*
X132000000Y-88500000D01*
X142324511Y-106824511D02*
X140500000Y-105000000D01*
X139507295Y-112543479D02*
X139507295Y-105992705D01*
X144550491Y-93433807D02*
X144550491Y-93806195D01*
X145324022Y-90755978D02*
X145324022Y-92660276D01*
X139507295Y-105992705D02*
X140500000Y-105000000D01*
X145324022Y-92660276D02*
X144550491Y-93433807D01*
X144550491Y-93806195D02*
X144874511Y-94130215D01*
X144874511Y-94130215D02*
X144874511Y-106824511D01*
X144874511Y-106824511D02*
X142324511Y-106824511D01*
X146890000Y-89190000D02*
X145324022Y-90755978D01*
X140874020Y-110000000D02*
X140500000Y-110374020D01*
X144500000Y-110000000D02*
X140874020Y-110000000D01*
X145324022Y-93944022D02*
X145324022Y-109175978D01*
X145324022Y-109175978D02*
X144500000Y-110000000D01*
X146890000Y-91730000D02*
X145000001Y-93620001D01*
X145000001Y-93620001D02*
X145324022Y-93944022D01*
X143500000Y-96500000D02*
X143500000Y-95000000D01*
X139008694Y-90425500D02*
X138291597Y-89708403D01*
X141000000Y-90425500D02*
X139008694Y-90425500D01*
X142000000Y-98000000D02*
X143500000Y-96500000D01*
X141857722Y-96142278D02*
X139785306Y-96142278D01*
X137000000Y-88000000D02*
X137000000Y-89441404D01*
X142500000Y-95500000D02*
X141857722Y-96142278D01*
X139785306Y-96142278D02*
X139048528Y-95405500D01*
X137000000Y-89441404D02*
X140495874Y-92937278D01*
X134256599Y-90718801D02*
X133775499Y-91199901D01*
X133775499Y-91360205D02*
X131224500Y-93911204D01*
X133775499Y-91199901D02*
X133775499Y-91360205D01*
X135000000Y-88775500D02*
X135000000Y-90135704D01*
X135000000Y-90135704D02*
X134416903Y-90718801D01*
X131224500Y-93911204D02*
X131224500Y-94017388D01*
X134416903Y-90718801D02*
X134256599Y-90718801D01*
X131500000Y-99000000D02*
X130949511Y-98449511D01*
X132300099Y-97224501D02*
X132724501Y-96800099D01*
X130949511Y-98449511D02*
X130949511Y-98186193D01*
X132300099Y-95775499D02*
X130775499Y-95775499D01*
X131000000Y-91500000D02*
X132275500Y-91500000D01*
X132275500Y-91500000D02*
X134000000Y-89775500D01*
X131911203Y-97224501D02*
X132300099Y-97224501D01*
X132724501Y-96199901D02*
X132300099Y-95775499D01*
X132724501Y-96800099D02*
X132724501Y-96199901D01*
X130949511Y-98186193D02*
X131911203Y-97224501D01*
X130775499Y-95775499D02*
X130500000Y-95500000D01*
X143550000Y-76500000D02*
X143050000Y-76000000D01*
X143050000Y-76000000D02*
X133500000Y-76000000D01*
X134000000Y-114500000D02*
X141500000Y-114500000D01*
X141500000Y-114500000D02*
X144000000Y-112000000D01*
X138500000Y-103500000D02*
X137000000Y-102000000D01*
X138500000Y-107500000D02*
X138500000Y-103500000D01*
X137988616Y-102352912D02*
X137988616Y-99987644D01*
X143550000Y-105500000D02*
X141863806Y-103813806D01*
X139449510Y-103813806D02*
X137988616Y-102352912D01*
X141863806Y-103813806D02*
X139449510Y-103813806D01*
X142274501Y-99224501D02*
X140890647Y-99224501D01*
X140890647Y-99224501D02*
X139174980Y-97508834D01*
X143550000Y-100500000D02*
X142274501Y-99224501D01*
X138983506Y-92449510D02*
X134301468Y-92449510D01*
X134301468Y-92449510D02*
X133623522Y-93127456D01*
X143550000Y-91000000D02*
X140888221Y-93661779D01*
X133623522Y-93127456D02*
X133623522Y-98099893D01*
X140195775Y-93661779D02*
X138983506Y-92449510D01*
X140888221Y-93661779D02*
X140195775Y-93661779D01*
X133623522Y-98099893D02*
X132949001Y-98774414D01*
X131949001Y-94050999D02*
X134500008Y-91499992D01*
X132097396Y-95325988D02*
X131949001Y-95177593D01*
X133174011Y-96986293D02*
X133174011Y-96013707D01*
X143550000Y-86000000D02*
X136750900Y-86000000D01*
X133174011Y-96013707D02*
X132486292Y-95325988D01*
X136750900Y-86000000D02*
X132050426Y-90700475D01*
X132224501Y-97935803D02*
X133174011Y-96986293D01*
X131949001Y-95177593D02*
X131949001Y-94050999D01*
X132486292Y-95325988D02*
X132097396Y-95325988D01*
X131500000Y-101500000D02*
X132224501Y-100775499D01*
X132224501Y-100775499D02*
X132224501Y-97935803D01*
G04 #@! TA.AperFunction,Conductor*
G36*
X133983621Y-67028002D02*
G01*
X134030114Y-67081658D01*
X134041500Y-67134000D01*
X134041500Y-68284032D01*
X134029789Y-68337080D01*
X133948602Y-68511981D01*
X133886707Y-68735169D01*
X133862095Y-68965469D01*
X133862392Y-68970622D01*
X133862392Y-68970625D01*
X133868067Y-69069041D01*
X133875427Y-69196697D01*
X133876564Y-69201743D01*
X133876565Y-69201749D01*
X133908741Y-69344523D01*
X133926346Y-69422642D01*
X133928288Y-69427424D01*
X133928289Y-69427428D01*
X134011540Y-69632450D01*
X134013484Y-69637237D01*
X134016181Y-69641638D01*
X134016184Y-69641644D01*
X134024719Y-69655571D01*
X134042550Y-69707799D01*
X134048255Y-69760316D01*
X134099385Y-69896705D01*
X134186739Y-70013261D01*
X134303295Y-70100615D01*
X134439684Y-70151745D01*
X134444917Y-70152314D01*
X134477262Y-70165276D01*
X134659860Y-70271977D01*
X134659863Y-70271979D01*
X134664322Y-70274584D01*
X134880694Y-70357209D01*
X134885760Y-70358240D01*
X134885761Y-70358240D01*
X134938846Y-70369040D01*
X135107656Y-70403385D01*
X135238324Y-70408176D01*
X135333949Y-70411683D01*
X135333953Y-70411683D01*
X135339113Y-70411872D01*
X135344233Y-70411216D01*
X135344235Y-70411216D01*
X135417270Y-70401860D01*
X135568847Y-70382442D01*
X135573795Y-70380957D01*
X135573802Y-70380956D01*
X135785747Y-70317369D01*
X135790690Y-70315886D01*
X135795324Y-70313616D01*
X135994049Y-70216262D01*
X135994052Y-70216260D01*
X135998684Y-70213991D01*
X136002882Y-70210996D01*
X136002888Y-70210993D01*
X136043645Y-70181921D01*
X136116813Y-70158500D01*
X137598134Y-70158500D01*
X137660316Y-70151745D01*
X137796705Y-70100615D01*
X137913261Y-70013261D01*
X138000615Y-69896705D01*
X138051745Y-69760316D01*
X138058500Y-69698134D01*
X138058500Y-68965469D01*
X139312095Y-68965469D01*
X139312392Y-68970622D01*
X139312392Y-68970625D01*
X139318067Y-69069041D01*
X139325427Y-69196697D01*
X139326564Y-69201743D01*
X139326565Y-69201749D01*
X139358741Y-69344523D01*
X139376346Y-69422642D01*
X139378288Y-69427424D01*
X139378289Y-69427428D01*
X139461540Y-69632450D01*
X139463484Y-69637237D01*
X139584501Y-69834719D01*
X139736147Y-70009784D01*
X139845554Y-70100615D01*
X139904876Y-70149865D01*
X139914349Y-70157730D01*
X140114322Y-70274584D01*
X140330694Y-70357209D01*
X140335760Y-70358240D01*
X140335761Y-70358240D01*
X140388846Y-70369040D01*
X140557656Y-70403385D01*
X140688324Y-70408176D01*
X140783949Y-70411683D01*
X140783953Y-70411683D01*
X140789113Y-70411872D01*
X140794233Y-70411216D01*
X140794235Y-70411216D01*
X140867270Y-70401860D01*
X141018847Y-70382442D01*
X141023795Y-70380957D01*
X141023802Y-70380956D01*
X141235747Y-70317369D01*
X141240690Y-70315886D01*
X141245324Y-70313616D01*
X141444049Y-70216262D01*
X141444052Y-70216260D01*
X141448684Y-70213991D01*
X141637243Y-70079494D01*
X141801303Y-69916005D01*
X141815172Y-69896705D01*
X141907860Y-69767715D01*
X141936458Y-69727917D01*
X141952867Y-69694717D01*
X142036784Y-69524922D01*
X142036785Y-69524920D01*
X142039078Y-69520280D01*
X142106408Y-69298671D01*
X142136640Y-69069041D01*
X142136722Y-69065691D01*
X142138245Y-69003365D01*
X142138245Y-69003361D01*
X142138327Y-69000000D01*
X142124479Y-68831562D01*
X142119773Y-68774318D01*
X142119772Y-68774312D01*
X142119349Y-68769167D01*
X142062925Y-68544533D01*
X142050934Y-68516955D01*
X141972630Y-68336868D01*
X141972628Y-68336865D01*
X141970570Y-68332131D01*
X141844764Y-68137665D01*
X141688887Y-67966358D01*
X141684836Y-67963159D01*
X141684832Y-67963155D01*
X141511177Y-67826011D01*
X141511172Y-67826008D01*
X141507123Y-67822810D01*
X141502607Y-67820317D01*
X141502604Y-67820315D01*
X141308879Y-67713373D01*
X141308875Y-67713371D01*
X141304355Y-67710876D01*
X141299486Y-67709152D01*
X141299482Y-67709150D01*
X141090903Y-67635288D01*
X141090899Y-67635287D01*
X141086028Y-67633562D01*
X141080935Y-67632655D01*
X141080932Y-67632654D01*
X140863095Y-67593851D01*
X140863089Y-67593850D01*
X140858006Y-67592945D01*
X140785096Y-67592054D01*
X140631581Y-67590179D01*
X140631579Y-67590179D01*
X140626411Y-67590116D01*
X140397464Y-67625150D01*
X140177314Y-67697106D01*
X140172726Y-67699494D01*
X140172722Y-67699496D01*
X140105292Y-67734598D01*
X139971872Y-67804052D01*
X139967739Y-67807155D01*
X139967736Y-67807157D01*
X139790790Y-67940012D01*
X139786655Y-67943117D01*
X139783083Y-67946855D01*
X139699369Y-68034457D01*
X139626639Y-68110564D01*
X139623725Y-68114836D01*
X139623724Y-68114837D01*
X139567895Y-68196680D01*
X139496119Y-68301899D01*
X139398602Y-68511981D01*
X139336707Y-68735169D01*
X139312095Y-68965469D01*
X138058500Y-68965469D01*
X138058500Y-67134000D01*
X138078502Y-67065879D01*
X138132158Y-67019386D01*
X138184500Y-67008000D01*
X149366000Y-67008000D01*
X149434121Y-67028002D01*
X149480614Y-67081658D01*
X149492000Y-67134000D01*
X149492000Y-124366000D01*
X149471998Y-124434121D01*
X149418342Y-124480614D01*
X149366000Y-124492000D01*
X138184500Y-124492000D01*
X138116379Y-124471998D01*
X138069886Y-124418342D01*
X138058500Y-124366000D01*
X138058500Y-121801866D01*
X138051745Y-121739684D01*
X138000615Y-121603295D01*
X137913261Y-121486739D01*
X137796705Y-121399385D01*
X137660316Y-121348255D01*
X137598134Y-121341500D01*
X134501866Y-121341500D01*
X134439684Y-121348255D01*
X134303295Y-121399385D01*
X134186739Y-121486739D01*
X134099385Y-121603295D01*
X134048255Y-121739684D01*
X134041500Y-121801866D01*
X134041500Y-124366000D01*
X134021498Y-124434121D01*
X133967842Y-124480614D01*
X133915500Y-124492000D01*
X125639441Y-124492000D01*
X125571320Y-124471998D01*
X125524827Y-124418342D01*
X125513446Y-124364923D01*
X125535323Y-121805283D01*
X125575567Y-117096695D01*
X127747251Y-117096695D01*
X127747548Y-117101848D01*
X127747548Y-117101851D01*
X127759123Y-117302596D01*
X127760110Y-117319715D01*
X127761247Y-117324761D01*
X127761248Y-117324767D01*
X127778611Y-117401811D01*
X127809222Y-117537639D01*
X127893266Y-117744616D01*
X128009987Y-117935088D01*
X128156250Y-118103938D01*
X128328126Y-118246632D01*
X128521000Y-118359338D01*
X128729692Y-118439030D01*
X128734760Y-118440061D01*
X128734763Y-118440062D01*
X128842017Y-118461883D01*
X128948597Y-118483567D01*
X128953772Y-118483757D01*
X128953774Y-118483757D01*
X129166673Y-118491564D01*
X129166677Y-118491564D01*
X129171837Y-118491753D01*
X129176957Y-118491097D01*
X129176959Y-118491097D01*
X129388288Y-118464025D01*
X129388289Y-118464025D01*
X129393416Y-118463368D01*
X129445510Y-118447739D01*
X129602429Y-118400661D01*
X129602434Y-118400659D01*
X129607384Y-118399174D01*
X129807994Y-118300896D01*
X129989860Y-118171173D01*
X130031842Y-118129338D01*
X130090488Y-118070896D01*
X130148096Y-118013489D01*
X130202679Y-117937529D01*
X130275435Y-117836277D01*
X130278453Y-117832077D01*
X130283341Y-117822188D01*
X130375136Y-117636453D01*
X130375137Y-117636451D01*
X130377430Y-117631811D01*
X130442370Y-117418069D01*
X130471529Y-117196590D01*
X130471737Y-117188069D01*
X130473074Y-117133365D01*
X130473074Y-117133361D01*
X130473156Y-117130000D01*
X130454852Y-116907361D01*
X130444637Y-116866695D01*
X134097251Y-116866695D01*
X134097548Y-116871848D01*
X134097548Y-116871851D01*
X134102536Y-116958363D01*
X134110110Y-117089715D01*
X134111247Y-117094761D01*
X134111248Y-117094767D01*
X134119461Y-117131210D01*
X134159222Y-117307639D01*
X134164126Y-117319715D01*
X134235328Y-117495066D01*
X134243266Y-117514616D01*
X134260307Y-117542425D01*
X134317928Y-117636453D01*
X134359987Y-117705088D01*
X134506250Y-117873938D01*
X134678126Y-118016632D01*
X134871000Y-118129338D01*
X135079692Y-118209030D01*
X135084760Y-118210061D01*
X135084763Y-118210062D01*
X135192017Y-118231883D01*
X135298597Y-118253567D01*
X135303772Y-118253757D01*
X135303774Y-118253757D01*
X135516673Y-118261564D01*
X135516677Y-118261564D01*
X135521837Y-118261753D01*
X135526957Y-118261097D01*
X135526959Y-118261097D01*
X135738288Y-118234025D01*
X135738289Y-118234025D01*
X135743416Y-118233368D01*
X135748366Y-118231883D01*
X135952429Y-118170661D01*
X135952434Y-118170659D01*
X135957384Y-118169174D01*
X136157994Y-118070896D01*
X136339860Y-117941173D01*
X136345967Y-117935088D01*
X136448479Y-117832933D01*
X136510851Y-117799017D01*
X136581658Y-117804205D01*
X136638419Y-117846851D01*
X136655401Y-117877954D01*
X136696676Y-117988054D01*
X136705214Y-118003649D01*
X136781715Y-118105724D01*
X136794276Y-118118285D01*
X136896351Y-118194786D01*
X136911946Y-118203324D01*
X137032394Y-118248478D01*
X137047649Y-118252105D01*
X137098514Y-118257631D01*
X137105328Y-118258000D01*
X137727885Y-118258000D01*
X137743124Y-118253525D01*
X137744329Y-118252135D01*
X137746000Y-118244452D01*
X137746000Y-118239884D01*
X138254000Y-118239884D01*
X138258475Y-118255123D01*
X138259865Y-118256328D01*
X138267548Y-118257999D01*
X138894669Y-118257999D01*
X138901490Y-118257629D01*
X138952352Y-118252105D01*
X138967604Y-118248479D01*
X139088054Y-118203324D01*
X139103649Y-118194786D01*
X139205724Y-118118285D01*
X139218285Y-118105724D01*
X139294786Y-118003649D01*
X139303324Y-117988054D01*
X139344225Y-117878952D01*
X139386867Y-117822188D01*
X139453428Y-117797488D01*
X139522777Y-117812696D01*
X139557444Y-117840684D01*
X139582865Y-117870031D01*
X139582869Y-117870035D01*
X139586250Y-117873938D01*
X139758126Y-118016632D01*
X139951000Y-118129338D01*
X140159692Y-118209030D01*
X140164760Y-118210061D01*
X140164763Y-118210062D01*
X140272017Y-118231883D01*
X140378597Y-118253567D01*
X140383772Y-118253757D01*
X140383774Y-118253757D01*
X140596673Y-118261564D01*
X140596677Y-118261564D01*
X140601837Y-118261753D01*
X140606957Y-118261097D01*
X140606959Y-118261097D01*
X140818288Y-118234025D01*
X140818289Y-118234025D01*
X140823416Y-118233368D01*
X140828366Y-118231883D01*
X141032429Y-118170661D01*
X141032434Y-118170659D01*
X141037384Y-118169174D01*
X141237994Y-118070896D01*
X141419860Y-117941173D01*
X141425967Y-117935088D01*
X141533993Y-117827438D01*
X141578096Y-117783489D01*
X141637594Y-117700689D01*
X141705435Y-117606277D01*
X141708453Y-117602077D01*
X141800169Y-117416503D01*
X141848280Y-117364299D01*
X141916981Y-117346392D01*
X141984458Y-117368470D01*
X142029286Y-117423524D01*
X142038736Y-117482216D01*
X142037725Y-117495066D01*
X142037725Y-117504930D01*
X142055572Y-117731699D01*
X142057115Y-117741446D01*
X142110217Y-117962627D01*
X142113266Y-117972012D01*
X142200313Y-118182163D01*
X142204795Y-118190958D01*
X142326230Y-118389121D01*
X142324149Y-118390396D01*
X142344720Y-118447739D01*
X142328758Y-118516918D01*
X142294503Y-118555974D01*
X142186739Y-118636739D01*
X142099385Y-118753295D01*
X142048255Y-118889684D01*
X142041500Y-118951866D01*
X142041500Y-121048134D01*
X142048255Y-121110316D01*
X142099385Y-121246705D01*
X142186739Y-121363261D01*
X142303295Y-121450615D01*
X142439684Y-121501745D01*
X142501866Y-121508500D01*
X144598134Y-121508500D01*
X144660316Y-121501745D01*
X144796705Y-121450615D01*
X144913261Y-121363261D01*
X145000615Y-121246705D01*
X145051745Y-121110316D01*
X145058500Y-121048134D01*
X145058500Y-118951866D01*
X145051745Y-118889684D01*
X145000615Y-118753295D01*
X144913261Y-118636739D01*
X144805497Y-118555974D01*
X144762982Y-118499115D01*
X144757956Y-118428296D01*
X144775176Y-118389983D01*
X144773770Y-118389121D01*
X144895205Y-118190958D01*
X144899687Y-118182163D01*
X144986734Y-117972012D01*
X144989783Y-117962627D01*
X145042885Y-117741446D01*
X145044428Y-117731699D01*
X145062275Y-117504930D01*
X145062275Y-117495070D01*
X145044428Y-117268301D01*
X145042885Y-117258554D01*
X145004025Y-117096695D01*
X145527251Y-117096695D01*
X145527548Y-117101848D01*
X145527548Y-117101851D01*
X145539123Y-117302596D01*
X145540110Y-117319715D01*
X145541247Y-117324761D01*
X145541248Y-117324767D01*
X145558611Y-117401811D01*
X145589222Y-117537639D01*
X145673266Y-117744616D01*
X145789987Y-117935088D01*
X145936250Y-118103938D01*
X146108126Y-118246632D01*
X146301000Y-118359338D01*
X146509692Y-118439030D01*
X146514760Y-118440061D01*
X146514763Y-118440062D01*
X146622017Y-118461883D01*
X146728597Y-118483567D01*
X146733772Y-118483757D01*
X146733774Y-118483757D01*
X146946673Y-118491564D01*
X146946677Y-118491564D01*
X146951837Y-118491753D01*
X146956957Y-118491097D01*
X146956959Y-118491097D01*
X147168288Y-118464025D01*
X147168289Y-118464025D01*
X147173416Y-118463368D01*
X147225510Y-118447739D01*
X147382429Y-118400661D01*
X147382434Y-118400659D01*
X147387384Y-118399174D01*
X147587994Y-118300896D01*
X147769860Y-118171173D01*
X147811842Y-118129338D01*
X147870488Y-118070896D01*
X147928096Y-118013489D01*
X147982679Y-117937529D01*
X148055435Y-117836277D01*
X148058453Y-117832077D01*
X148063341Y-117822188D01*
X148155136Y-117636453D01*
X148155137Y-117636451D01*
X148157430Y-117631811D01*
X148222370Y-117418069D01*
X148251529Y-117196590D01*
X148251737Y-117188069D01*
X148253074Y-117133365D01*
X148253074Y-117133361D01*
X148253156Y-117130000D01*
X148234852Y-116907361D01*
X148180431Y-116690702D01*
X148091354Y-116485840D01*
X147970014Y-116298277D01*
X147819670Y-116133051D01*
X147815619Y-116129852D01*
X147815615Y-116129848D01*
X147648414Y-115997800D01*
X147648410Y-115997798D01*
X147644359Y-115994598D01*
X147603053Y-115971796D01*
X147553084Y-115921364D01*
X147538312Y-115851921D01*
X147563428Y-115785516D01*
X147590780Y-115758909D01*
X147634603Y-115727650D01*
X147769860Y-115631173D01*
X147928096Y-115473489D01*
X147987594Y-115390689D01*
X148055435Y-115296277D01*
X148058453Y-115292077D01*
X148085817Y-115236711D01*
X148155136Y-115096453D01*
X148155137Y-115096451D01*
X148157430Y-115091811D01*
X148222370Y-114878069D01*
X148251529Y-114656590D01*
X148253156Y-114590000D01*
X148234852Y-114367361D01*
X148180431Y-114150702D01*
X148091354Y-113945840D01*
X147970014Y-113758277D01*
X147966540Y-113754459D01*
X147966533Y-113754450D01*
X147822435Y-113596088D01*
X147791383Y-113532242D01*
X147799779Y-113461744D01*
X147844956Y-113406976D01*
X147871400Y-113393307D01*
X147978052Y-113353325D01*
X147993649Y-113344786D01*
X148095724Y-113268285D01*
X148108285Y-113255724D01*
X148184786Y-113153649D01*
X148193324Y-113138054D01*
X148238478Y-113017606D01*
X148242105Y-113002351D01*
X148247631Y-112951486D01*
X148248000Y-112944672D01*
X148248000Y-112322115D01*
X148243525Y-112306876D01*
X148242135Y-112305671D01*
X148234452Y-112304000D01*
X145550116Y-112304000D01*
X145534877Y-112308475D01*
X145533672Y-112309865D01*
X145532001Y-112317548D01*
X145532001Y-112944669D01*
X145532371Y-112951490D01*
X145537895Y-113002352D01*
X145541521Y-113017604D01*
X145586676Y-113138054D01*
X145595214Y-113153649D01*
X145671715Y-113255724D01*
X145684276Y-113268285D01*
X145786351Y-113344786D01*
X145801946Y-113353324D01*
X145910827Y-113394142D01*
X145967591Y-113436784D01*
X145992291Y-113503345D01*
X145977083Y-113572694D01*
X145957691Y-113599175D01*
X145901488Y-113657988D01*
X145830629Y-113732138D01*
X145827715Y-113736410D01*
X145827714Y-113736411D01*
X145772569Y-113817251D01*
X145704743Y-113916680D01*
X145610688Y-114119305D01*
X145550989Y-114334570D01*
X145527251Y-114556695D01*
X145527548Y-114561848D01*
X145527548Y-114561851D01*
X145534933Y-114689928D01*
X145540110Y-114779715D01*
X145541247Y-114784761D01*
X145541248Y-114784767D01*
X145561119Y-114872939D01*
X145589222Y-114997639D01*
X145673266Y-115204616D01*
X145675965Y-115209020D01*
X145772229Y-115366109D01*
X145789987Y-115395088D01*
X145936250Y-115563938D01*
X146108126Y-115706632D01*
X146172276Y-115744118D01*
X146181445Y-115749476D01*
X146230169Y-115801114D01*
X146243240Y-115870897D01*
X146216509Y-115936669D01*
X146176055Y-115970027D01*
X146163607Y-115976507D01*
X146159474Y-115979610D01*
X146159471Y-115979612D01*
X146039127Y-116069969D01*
X145984965Y-116110635D01*
X145981393Y-116114373D01*
X145841665Y-116260590D01*
X145830629Y-116272138D01*
X145704743Y-116456680D01*
X145678524Y-116513165D01*
X145617528Y-116644570D01*
X145610688Y-116659305D01*
X145550989Y-116874570D01*
X145527251Y-117096695D01*
X145004025Y-117096695D01*
X144989783Y-117037373D01*
X144986734Y-117027988D01*
X144899687Y-116817837D01*
X144895205Y-116809042D01*
X144792568Y-116641555D01*
X144782110Y-116632093D01*
X144773334Y-116635876D01*
X143639095Y-117770115D01*
X143576783Y-117804141D01*
X143505968Y-117799076D01*
X143460905Y-117770115D01*
X142329710Y-116638920D01*
X142317330Y-116632160D01*
X142309680Y-116637887D01*
X142204795Y-116809042D01*
X142200313Y-116817837D01*
X142145495Y-116950181D01*
X142100947Y-117005462D01*
X142033584Y-117027883D01*
X141964792Y-117010325D01*
X141916414Y-116958363D01*
X141903138Y-116905592D01*
X141903074Y-116903365D01*
X141903156Y-116900000D01*
X141884852Y-116677361D01*
X141830431Y-116460702D01*
X141741354Y-116255840D01*
X141620014Y-116068277D01*
X141469670Y-115903051D01*
X141465619Y-115899852D01*
X141465615Y-115899848D01*
X141298414Y-115767800D01*
X141298410Y-115767798D01*
X141294359Y-115764598D01*
X141284054Y-115758909D01*
X141161367Y-115691183D01*
X141098789Y-115656638D01*
X141093920Y-115654914D01*
X141093916Y-115654912D01*
X140893087Y-115583795D01*
X140893083Y-115583794D01*
X140888212Y-115582069D01*
X140883119Y-115581162D01*
X140883116Y-115581161D01*
X140673373Y-115543800D01*
X140673367Y-115543799D01*
X140668284Y-115542894D01*
X140594452Y-115541992D01*
X140450081Y-115540228D01*
X140450079Y-115540228D01*
X140444911Y-115540165D01*
X140224091Y-115573955D01*
X140011756Y-115643357D01*
X139813607Y-115746507D01*
X139809474Y-115749610D01*
X139809471Y-115749612D01*
X139644658Y-115873357D01*
X139634965Y-115880635D01*
X139617283Y-115899138D01*
X139553898Y-115965466D01*
X139492374Y-116000895D01*
X139421462Y-115997438D01*
X139363676Y-115956192D01*
X139344823Y-115922644D01*
X139303324Y-115811946D01*
X139294786Y-115796351D01*
X139218285Y-115694276D01*
X139205724Y-115681715D01*
X139103649Y-115605214D01*
X139088054Y-115596676D01*
X138967606Y-115551522D01*
X138952351Y-115547895D01*
X138901486Y-115542369D01*
X138894672Y-115542000D01*
X138272115Y-115542000D01*
X138256876Y-115546475D01*
X138255671Y-115547865D01*
X138254000Y-115555548D01*
X138254000Y-118239884D01*
X137746000Y-118239884D01*
X137746000Y-115560116D01*
X137741525Y-115544877D01*
X137740135Y-115543672D01*
X137732452Y-115542001D01*
X137105331Y-115542001D01*
X137098510Y-115542371D01*
X137047648Y-115547895D01*
X137032396Y-115551521D01*
X136911946Y-115596676D01*
X136896351Y-115605214D01*
X136794276Y-115681715D01*
X136781715Y-115694276D01*
X136705214Y-115796351D01*
X136696676Y-115811946D01*
X136655297Y-115922322D01*
X136612655Y-115979087D01*
X136546093Y-116003786D01*
X136476744Y-115988578D01*
X136444121Y-115962891D01*
X136393151Y-115906876D01*
X136393145Y-115906870D01*
X136389670Y-115903051D01*
X136385619Y-115899852D01*
X136385615Y-115899848D01*
X136218414Y-115767800D01*
X136218410Y-115767798D01*
X136214359Y-115764598D01*
X136204054Y-115758909D01*
X136081367Y-115691183D01*
X136018789Y-115656638D01*
X136013920Y-115654914D01*
X136013916Y-115654912D01*
X135813087Y-115583795D01*
X135813083Y-115583794D01*
X135808212Y-115582069D01*
X135803119Y-115581162D01*
X135803116Y-115581161D01*
X135593373Y-115543800D01*
X135593367Y-115543799D01*
X135588284Y-115542894D01*
X135514452Y-115541992D01*
X135370081Y-115540228D01*
X135370079Y-115540228D01*
X135364911Y-115540165D01*
X135144091Y-115573955D01*
X134931756Y-115643357D01*
X134733607Y-115746507D01*
X134729474Y-115749610D01*
X134729471Y-115749612D01*
X134564658Y-115873357D01*
X134554965Y-115880635D01*
X134516043Y-115921364D01*
X134463348Y-115976507D01*
X134400629Y-116042138D01*
X134397715Y-116046410D01*
X134397714Y-116046411D01*
X134351354Y-116114373D01*
X134274743Y-116226680D01*
X134180688Y-116429305D01*
X134120989Y-116644570D01*
X134097251Y-116866695D01*
X130444637Y-116866695D01*
X130400431Y-116690702D01*
X130311354Y-116485840D01*
X130190014Y-116298277D01*
X130039670Y-116133051D01*
X130035619Y-116129852D01*
X130035615Y-116129848D01*
X129868414Y-115997800D01*
X129868410Y-115997798D01*
X129864359Y-115994598D01*
X129823053Y-115971796D01*
X129773084Y-115921364D01*
X129758312Y-115851921D01*
X129783428Y-115785516D01*
X129810780Y-115758909D01*
X129854603Y-115727650D01*
X129989860Y-115631173D01*
X130148096Y-115473489D01*
X130207594Y-115390689D01*
X130275435Y-115296277D01*
X130278453Y-115292077D01*
X130305817Y-115236711D01*
X130375136Y-115096453D01*
X130375137Y-115096451D01*
X130377430Y-115091811D01*
X130442370Y-114878069D01*
X130471529Y-114656590D01*
X130473156Y-114590000D01*
X130454852Y-114367361D01*
X130400431Y-114150702D01*
X130311354Y-113945840D01*
X130190014Y-113758277D01*
X130186532Y-113754450D01*
X130042798Y-113596488D01*
X130011746Y-113532642D01*
X130020141Y-113462143D01*
X130065317Y-113407375D01*
X130091761Y-113393706D01*
X130198297Y-113353767D01*
X130206705Y-113350615D01*
X130323261Y-113263261D01*
X130410615Y-113146705D01*
X130461745Y-113010316D01*
X130468500Y-112948134D01*
X130468500Y-111151866D01*
X130461745Y-111089684D01*
X130410615Y-110953295D01*
X130323261Y-110836739D01*
X130206705Y-110749385D01*
X130179905Y-110739338D01*
X130088203Y-110704960D01*
X130031439Y-110662318D01*
X130006739Y-110595756D01*
X130021947Y-110526408D01*
X130043493Y-110497727D01*
X130129818Y-110411703D01*
X130148096Y-110393489D01*
X130207594Y-110310689D01*
X130275435Y-110216277D01*
X130278453Y-110212077D01*
X130377430Y-110011811D01*
X130442370Y-109798069D01*
X130471529Y-109576590D01*
X130473156Y-109510000D01*
X130454852Y-109287361D01*
X130400431Y-109070702D01*
X130311354Y-108865840D01*
X130190014Y-108678277D01*
X130039670Y-108513051D01*
X130035619Y-108509852D01*
X130035615Y-108509848D01*
X129868414Y-108377800D01*
X129868410Y-108377798D01*
X129864359Y-108374598D01*
X129823053Y-108351796D01*
X129773084Y-108301364D01*
X129758312Y-108231921D01*
X129783428Y-108165516D01*
X129810780Y-108138909D01*
X129874480Y-108093472D01*
X129989860Y-108011173D01*
X130148096Y-107853489D01*
X130207594Y-107770689D01*
X130275435Y-107676277D01*
X130278453Y-107672077D01*
X130377430Y-107471811D01*
X130414179Y-107350857D01*
X130440865Y-107263023D01*
X130440865Y-107263021D01*
X130442370Y-107258069D01*
X130471529Y-107036590D01*
X130472747Y-106986739D01*
X130473074Y-106973365D01*
X130473074Y-106973361D01*
X130473156Y-106970000D01*
X130454852Y-106747361D01*
X130400431Y-106530702D01*
X130311354Y-106325840D01*
X130265596Y-106255109D01*
X130192822Y-106142617D01*
X130192820Y-106142614D01*
X130190014Y-106138277D01*
X130039670Y-105973051D01*
X130035619Y-105969852D01*
X130035615Y-105969848D01*
X129868414Y-105837800D01*
X129868410Y-105837798D01*
X129864359Y-105834598D01*
X129823053Y-105811796D01*
X129773084Y-105761364D01*
X129758312Y-105691921D01*
X129783428Y-105625516D01*
X129810780Y-105598909D01*
X129874480Y-105553472D01*
X129989860Y-105471173D01*
X130030676Y-105430500D01*
X130144435Y-105317137D01*
X130148096Y-105313489D01*
X130207594Y-105230689D01*
X130275435Y-105136277D01*
X130278453Y-105132077D01*
X130355941Y-104975292D01*
X130375136Y-104936453D01*
X130375137Y-104936451D01*
X130377430Y-104931811D01*
X130442370Y-104718069D01*
X130471529Y-104496590D01*
X130471823Y-104484558D01*
X130473074Y-104433365D01*
X130473074Y-104433361D01*
X130473156Y-104430000D01*
X130454852Y-104207361D01*
X130400431Y-103990702D01*
X130311354Y-103785840D01*
X130190014Y-103598277D01*
X130039670Y-103433051D01*
X130035619Y-103429852D01*
X130035615Y-103429848D01*
X129868414Y-103297800D01*
X129868410Y-103297798D01*
X129864359Y-103294598D01*
X129823053Y-103271796D01*
X129773084Y-103221364D01*
X129758312Y-103151921D01*
X129783428Y-103085516D01*
X129810780Y-103058909D01*
X129874480Y-103013472D01*
X129989860Y-102931173D01*
X130012613Y-102908500D01*
X130144435Y-102777137D01*
X130148096Y-102773489D01*
X130207594Y-102690689D01*
X130275435Y-102596277D01*
X130278453Y-102592077D01*
X130305702Y-102536944D01*
X130375136Y-102396453D01*
X130375137Y-102396451D01*
X130377430Y-102391811D01*
X130442370Y-102178069D01*
X130468209Y-101981808D01*
X130496932Y-101916881D01*
X130556197Y-101877790D01*
X130627189Y-101876945D01*
X130687367Y-101914616D01*
X130702249Y-101935253D01*
X130760960Y-102036944D01*
X130765378Y-102041851D01*
X130765379Y-102041852D01*
X130883410Y-102172939D01*
X130888747Y-102178866D01*
X131043248Y-102291118D01*
X131049276Y-102293802D01*
X131049278Y-102293803D01*
X131083506Y-102309042D01*
X131217712Y-102368794D01*
X131302691Y-102386857D01*
X131398056Y-102407128D01*
X131398061Y-102407128D01*
X131404513Y-102408500D01*
X131595487Y-102408500D01*
X131601939Y-102407128D01*
X131601944Y-102407128D01*
X131697309Y-102386857D01*
X131782288Y-102368794D01*
X131916494Y-102309042D01*
X131950722Y-102293803D01*
X131950724Y-102293802D01*
X131956752Y-102291118D01*
X132111253Y-102178866D01*
X132116590Y-102172939D01*
X132234621Y-102041852D01*
X132234622Y-102041851D01*
X132239040Y-102036944D01*
X132334527Y-101871556D01*
X132393542Y-101689928D01*
X132395372Y-101672522D01*
X132410907Y-101524707D01*
X132437920Y-101459050D01*
X132447122Y-101448782D01*
X132616748Y-101279156D01*
X132625038Y-101271612D01*
X132631519Y-101267499D01*
X132647398Y-101250590D01*
X132678159Y-101217832D01*
X132680914Y-101214990D01*
X132700635Y-101195269D01*
X132703113Y-101192074D01*
X132710819Y-101183052D01*
X132713276Y-101180436D01*
X132741087Y-101150820D01*
X132750847Y-101133067D01*
X132761700Y-101116544D01*
X132769254Y-101106805D01*
X132774114Y-101100540D01*
X132791677Y-101059956D01*
X132796884Y-101049326D01*
X132818196Y-101010559D01*
X132820167Y-101002882D01*
X132820169Y-101002877D01*
X132823233Y-100990941D01*
X132829639Y-100972229D01*
X132833728Y-100962782D01*
X132837682Y-100953644D01*
X132838922Y-100945816D01*
X132838924Y-100945809D01*
X132844600Y-100909975D01*
X132847006Y-100898355D01*
X132856029Y-100863210D01*
X132856029Y-100863209D01*
X132858001Y-100855529D01*
X132858001Y-100835275D01*
X132859552Y-100815564D01*
X132861481Y-100803385D01*
X132862721Y-100795556D01*
X132858560Y-100751537D01*
X132858001Y-100739680D01*
X132858001Y-99808914D01*
X132878003Y-99740793D01*
X132931659Y-99694300D01*
X132984001Y-99682914D01*
X133044488Y-99682914D01*
X133050940Y-99681542D01*
X133050945Y-99681542D01*
X133137889Y-99663061D01*
X133231289Y-99643208D01*
X133237320Y-99640523D01*
X133399723Y-99568217D01*
X133399725Y-99568216D01*
X133405753Y-99565532D01*
X133560254Y-99453280D01*
X133688041Y-99311358D01*
X133783528Y-99145970D01*
X133842543Y-98964342D01*
X133847352Y-98918587D01*
X133848513Y-98907543D01*
X133875527Y-98841886D01*
X133933748Y-98801257D01*
X134004694Y-98798554D01*
X134065838Y-98834637D01*
X134091806Y-98876487D01*
X134096233Y-98888296D01*
X134099385Y-98896705D01*
X134186739Y-99013261D01*
X134303295Y-99100615D01*
X134439684Y-99151745D01*
X134501866Y-99158500D01*
X137229674Y-99158500D01*
X137297795Y-99178502D01*
X137344288Y-99232158D01*
X137354392Y-99302432D01*
X137323310Y-99368810D01*
X137262129Y-99436759D01*
X137249576Y-99450700D01*
X137199783Y-99536944D01*
X137159408Y-99606876D01*
X137154089Y-99616088D01*
X137095074Y-99797716D01*
X137094384Y-99804277D01*
X137094384Y-99804279D01*
X137084859Y-99894906D01*
X137075112Y-99987644D01*
X137095074Y-100177572D01*
X137154089Y-100359200D01*
X137249576Y-100524588D01*
X137322753Y-100605859D01*
X137353469Y-100669865D01*
X137355116Y-100690168D01*
X137355116Y-100991089D01*
X137335114Y-101059210D01*
X137281458Y-101105703D01*
X137211184Y-101115807D01*
X137202918Y-101114335D01*
X137101951Y-101092873D01*
X137101942Y-101092872D01*
X137095487Y-101091500D01*
X136904513Y-101091500D01*
X136898061Y-101092872D01*
X136898056Y-101092872D01*
X136811112Y-101111353D01*
X136717712Y-101131206D01*
X136711682Y-101133891D01*
X136711681Y-101133891D01*
X136549278Y-101206197D01*
X136549276Y-101206198D01*
X136543248Y-101208882D01*
X136388747Y-101321134D01*
X136384326Y-101326044D01*
X136384325Y-101326045D01*
X136272084Y-101450702D01*
X136260960Y-101463056D01*
X136165473Y-101628444D01*
X136106458Y-101810072D01*
X136105768Y-101816633D01*
X136105768Y-101816635D01*
X136090710Y-101959908D01*
X136086496Y-102000000D01*
X136087186Y-102006565D01*
X136105212Y-102178069D01*
X136106458Y-102189928D01*
X136165473Y-102371556D01*
X136168776Y-102377278D01*
X136168777Y-102377279D01*
X136186803Y-102408500D01*
X136260960Y-102536944D01*
X136265378Y-102541851D01*
X136265379Y-102541852D01*
X136384325Y-102673955D01*
X136388747Y-102678866D01*
X136543248Y-102791118D01*
X136549276Y-102793802D01*
X136549278Y-102793803D01*
X136706805Y-102863938D01*
X136717712Y-102868794D01*
X136811112Y-102888647D01*
X136898056Y-102907128D01*
X136898061Y-102907128D01*
X136904513Y-102908500D01*
X136960406Y-102908500D01*
X137028527Y-102928502D01*
X137049501Y-102945405D01*
X137829595Y-103725499D01*
X137863621Y-103787811D01*
X137866500Y-103814594D01*
X137866500Y-106743752D01*
X137846498Y-106811873D01*
X137792842Y-106858366D01*
X137722568Y-106868470D01*
X137696276Y-106861736D01*
X137660316Y-106848255D01*
X137598134Y-106841500D01*
X134501866Y-106841500D01*
X134439684Y-106848255D01*
X134303295Y-106899385D01*
X134186739Y-106986739D01*
X134099385Y-107103295D01*
X134048255Y-107239684D01*
X134041500Y-107301866D01*
X134041500Y-109898134D01*
X134048255Y-109960316D01*
X134099385Y-110096705D01*
X134104770Y-110103890D01*
X134104771Y-110103892D01*
X134157640Y-110174435D01*
X134182488Y-110240942D01*
X134167435Y-110310324D01*
X134157640Y-110325565D01*
X134106734Y-110393489D01*
X134099385Y-110403295D01*
X134048255Y-110539684D01*
X134041500Y-110601866D01*
X134041500Y-113198134D01*
X134048255Y-113260316D01*
X134099385Y-113396705D01*
X134104766Y-113403884D01*
X134105372Y-113404992D01*
X134120541Y-113474349D01*
X134095804Y-113540897D01*
X134039016Y-113583507D01*
X133994852Y-113591500D01*
X133904513Y-113591500D01*
X133898061Y-113592872D01*
X133898056Y-113592872D01*
X133811112Y-113611353D01*
X133717712Y-113631206D01*
X133711682Y-113633891D01*
X133711681Y-113633891D01*
X133549278Y-113706197D01*
X133549276Y-113706198D01*
X133543248Y-113708882D01*
X133537907Y-113712762D01*
X133537906Y-113712763D01*
X133511239Y-113732138D01*
X133388747Y-113821134D01*
X133384326Y-113826044D01*
X133384325Y-113826045D01*
X133350492Y-113863621D01*
X133260960Y-113963056D01*
X133257659Y-113968774D01*
X133173352Y-114114798D01*
X133165473Y-114128444D01*
X133106458Y-114310072D01*
X133105768Y-114316633D01*
X133105768Y-114316635D01*
X133104407Y-114329588D01*
X133086496Y-114500000D01*
X133106458Y-114689928D01*
X133165473Y-114871556D01*
X133260960Y-115036944D01*
X133265378Y-115041851D01*
X133265379Y-115041852D01*
X133347452Y-115133003D01*
X133388747Y-115178866D01*
X133543248Y-115291118D01*
X133549276Y-115293802D01*
X133549278Y-115293803D01*
X133554835Y-115296277D01*
X133717712Y-115368794D01*
X133811112Y-115388647D01*
X133898056Y-115407128D01*
X133898061Y-115407128D01*
X133904513Y-115408500D01*
X134095487Y-115408500D01*
X134101939Y-115407128D01*
X134101944Y-115407128D01*
X134188888Y-115388647D01*
X134282288Y-115368794D01*
X134445165Y-115296277D01*
X134450722Y-115293803D01*
X134450724Y-115293802D01*
X134456752Y-115291118D01*
X134611253Y-115178866D01*
X134615668Y-115173963D01*
X134620580Y-115169540D01*
X134621705Y-115170789D01*
X134675014Y-115137949D01*
X134708200Y-115133500D01*
X141421233Y-115133500D01*
X141432416Y-115134027D01*
X141439909Y-115135702D01*
X141447835Y-115135453D01*
X141447836Y-115135453D01*
X141507986Y-115133562D01*
X141511945Y-115133500D01*
X141539856Y-115133500D01*
X141543791Y-115133003D01*
X141543856Y-115132995D01*
X141555693Y-115132062D01*
X141587951Y-115131048D01*
X141591970Y-115130922D01*
X141599889Y-115130673D01*
X141619343Y-115125021D01*
X141638700Y-115121013D01*
X141650930Y-115119468D01*
X141650931Y-115119468D01*
X141658797Y-115118474D01*
X141666168Y-115115555D01*
X141666170Y-115115555D01*
X141699912Y-115102196D01*
X141711142Y-115098351D01*
X141745983Y-115088229D01*
X141745984Y-115088229D01*
X141753593Y-115086018D01*
X141760412Y-115081985D01*
X141760417Y-115081983D01*
X141771028Y-115075707D01*
X141788776Y-115067012D01*
X141807617Y-115059552D01*
X141843387Y-115033564D01*
X141853292Y-115027057D01*
X141854185Y-115026529D01*
X141856792Y-115024987D01*
X141925604Y-115007517D01*
X141992939Y-115030024D01*
X142037416Y-115085362D01*
X142046558Y-115123544D01*
X142047515Y-115135702D01*
X142055465Y-115236711D01*
X142056619Y-115241518D01*
X142056620Y-115241524D01*
X142086531Y-115366109D01*
X142110895Y-115467594D01*
X142112788Y-115472165D01*
X142112789Y-115472167D01*
X142177142Y-115627529D01*
X142201760Y-115686963D01*
X142204346Y-115691183D01*
X142323241Y-115885202D01*
X142323245Y-115885208D01*
X142325824Y-115889416D01*
X142480031Y-116069969D01*
X142483787Y-116073177D01*
X142642526Y-116208753D01*
X142676402Y-116254686D01*
X142685878Y-116276668D01*
X143537188Y-117127978D01*
X143551132Y-117135592D01*
X143552965Y-117135461D01*
X143559580Y-117131210D01*
X144411080Y-116279710D01*
X144432026Y-116241352D01*
X144460782Y-116205928D01*
X144616213Y-116073177D01*
X144619969Y-116069969D01*
X144774176Y-115889416D01*
X144776755Y-115885208D01*
X144776759Y-115885202D01*
X144895654Y-115691183D01*
X144898240Y-115686963D01*
X144922859Y-115627529D01*
X144987211Y-115472167D01*
X144987212Y-115472165D01*
X144989105Y-115467594D01*
X145013469Y-115366109D01*
X145043380Y-115241524D01*
X145043381Y-115241518D01*
X145044535Y-115236711D01*
X145063165Y-115000000D01*
X145044535Y-114763289D01*
X145019716Y-114659908D01*
X144990260Y-114537218D01*
X144989105Y-114532406D01*
X144987211Y-114527833D01*
X144900135Y-114317611D01*
X144900133Y-114317607D01*
X144898240Y-114313037D01*
X144801836Y-114155720D01*
X144776759Y-114114798D01*
X144776755Y-114114792D01*
X144774176Y-114110584D01*
X144619969Y-113930031D01*
X144439416Y-113775824D01*
X144435208Y-113773245D01*
X144435202Y-113773241D01*
X144241183Y-113654346D01*
X144236963Y-113651760D01*
X144232393Y-113649867D01*
X144232389Y-113649865D01*
X144022167Y-113562789D01*
X144022165Y-113562788D01*
X144017594Y-113560895D01*
X143899912Y-113532642D01*
X143791524Y-113506620D01*
X143791518Y-113506619D01*
X143786711Y-113505465D01*
X143702966Y-113498874D01*
X143691824Y-113497997D01*
X143625483Y-113472711D01*
X143583343Y-113415573D01*
X143578784Y-113344723D01*
X143612615Y-113283289D01*
X143694374Y-113201531D01*
X143950501Y-112945404D01*
X144012813Y-112911379D01*
X144039596Y-112908500D01*
X144095487Y-112908500D01*
X144101939Y-112907128D01*
X144101944Y-112907128D01*
X144188887Y-112888647D01*
X144282288Y-112868794D01*
X144288319Y-112866109D01*
X144450722Y-112793803D01*
X144450724Y-112793802D01*
X144456752Y-112791118D01*
X144611253Y-112678866D01*
X144739040Y-112536944D01*
X144834527Y-112371556D01*
X144893542Y-112189928D01*
X144895435Y-112171923D01*
X144912814Y-112006565D01*
X144913504Y-112000000D01*
X144893542Y-111810072D01*
X144834527Y-111628444D01*
X144739040Y-111463056D01*
X144611253Y-111321134D01*
X144456752Y-111208882D01*
X144450724Y-111206198D01*
X144450722Y-111206197D01*
X144288319Y-111133891D01*
X144288318Y-111133891D01*
X144282288Y-111131206D01*
X144188888Y-111111353D01*
X144101944Y-111092872D01*
X144101939Y-111092872D01*
X144095487Y-111091500D01*
X143904513Y-111091500D01*
X143898061Y-111092872D01*
X143898056Y-111092872D01*
X143811112Y-111111353D01*
X143717712Y-111131206D01*
X143711682Y-111133891D01*
X143711681Y-111133891D01*
X143549278Y-111206197D01*
X143549276Y-111206198D01*
X143543248Y-111208882D01*
X143388747Y-111321134D01*
X143260960Y-111463056D01*
X143165473Y-111628444D01*
X143106458Y-111810072D01*
X143105768Y-111816633D01*
X143105768Y-111816635D01*
X143089093Y-111975293D01*
X143062080Y-112040950D01*
X143052878Y-112051218D01*
X141274500Y-113829595D01*
X141212188Y-113863621D01*
X141185405Y-113866500D01*
X137782509Y-113866500D01*
X137714388Y-113846498D01*
X137667895Y-113792842D01*
X137657791Y-113722568D01*
X137687285Y-113657988D01*
X137738279Y-113622518D01*
X137788297Y-113603767D01*
X137796705Y-113600615D01*
X137913261Y-113513261D01*
X138000615Y-113396705D01*
X138051745Y-113260316D01*
X138058500Y-113198134D01*
X138058500Y-110601866D01*
X138051745Y-110539684D01*
X138000615Y-110403295D01*
X137993266Y-110393489D01*
X137942360Y-110325565D01*
X137917512Y-110259058D01*
X137932565Y-110189676D01*
X137942360Y-110174435D01*
X137995229Y-110103892D01*
X137995230Y-110103890D01*
X138000615Y-110096705D01*
X138051745Y-109960316D01*
X138058500Y-109898134D01*
X138058500Y-108489762D01*
X138078502Y-108421641D01*
X138132158Y-108375148D01*
X138202432Y-108365044D01*
X138216786Y-108368382D01*
X138217712Y-108368794D01*
X138224168Y-108370166D01*
X138224167Y-108370166D01*
X138398056Y-108407128D01*
X138398061Y-108407128D01*
X138404513Y-108408500D01*
X138595487Y-108408500D01*
X138601939Y-108407128D01*
X138601944Y-108407128D01*
X138696357Y-108387059D01*
X138721598Y-108381694D01*
X138792389Y-108387096D01*
X138849021Y-108429913D01*
X138873515Y-108496550D01*
X138873795Y-108504941D01*
X138873795Y-111840955D01*
X138853793Y-111909076D01*
X138841437Y-111925258D01*
X138768255Y-112006535D01*
X138672768Y-112171923D01*
X138613753Y-112353551D01*
X138613063Y-112360112D01*
X138613063Y-112360114D01*
X138611259Y-112377279D01*
X138593791Y-112543479D01*
X138594481Y-112550044D01*
X138608021Y-112678866D01*
X138613753Y-112733407D01*
X138672768Y-112915035D01*
X138676071Y-112920757D01*
X138676072Y-112920758D01*
X138691878Y-112948134D01*
X138768255Y-113080423D01*
X138772673Y-113085330D01*
X138772674Y-113085331D01*
X138834188Y-113153649D01*
X138896042Y-113222345D01*
X139050543Y-113334597D01*
X139056571Y-113337281D01*
X139056573Y-113337282D01*
X139218976Y-113409588D01*
X139225007Y-113412273D01*
X139318407Y-113432126D01*
X139405351Y-113450607D01*
X139405356Y-113450607D01*
X139411808Y-113451979D01*
X139602782Y-113451979D01*
X139609234Y-113450607D01*
X139609239Y-113450607D01*
X139696183Y-113432126D01*
X139789583Y-113412273D01*
X139795614Y-113409588D01*
X139958017Y-113337282D01*
X139958019Y-113337281D01*
X139964047Y-113334597D01*
X140118548Y-113222345D01*
X140180402Y-113153649D01*
X140241916Y-113085331D01*
X140241917Y-113085330D01*
X140246335Y-113080423D01*
X140322712Y-112948134D01*
X140338518Y-112920758D01*
X140338519Y-112920757D01*
X140341822Y-112915035D01*
X140400837Y-112733407D01*
X140406570Y-112678866D01*
X140420109Y-112550044D01*
X140420799Y-112543479D01*
X140403331Y-112377279D01*
X140401527Y-112360114D01*
X140401527Y-112360112D01*
X140400837Y-112353551D01*
X140341822Y-112171923D01*
X140246335Y-112006535D01*
X140173158Y-111925264D01*
X140142442Y-111861258D01*
X140140795Y-111840955D01*
X140140795Y-111382062D01*
X140160797Y-111313941D01*
X140214453Y-111267448D01*
X140284727Y-111257344D01*
X140292992Y-111258816D01*
X140398047Y-111281147D01*
X140398060Y-111281148D01*
X140404513Y-111282520D01*
X140595487Y-111282520D01*
X140601939Y-111281148D01*
X140601944Y-111281148D01*
X140688888Y-111262667D01*
X140782288Y-111242814D01*
X140864532Y-111206197D01*
X140950722Y-111167823D01*
X140950724Y-111167822D01*
X140956752Y-111165138D01*
X140979639Y-111148510D01*
X141049642Y-111097649D01*
X141111253Y-111052886D01*
X141193136Y-110961946D01*
X141234621Y-110915872D01*
X141234622Y-110915871D01*
X141239040Y-110910964D01*
X141315129Y-110779174D01*
X141331223Y-110751299D01*
X141331224Y-110751298D01*
X141334527Y-110745576D01*
X141342655Y-110720562D01*
X141382728Y-110661958D01*
X141448125Y-110634321D01*
X141462487Y-110633500D01*
X144421233Y-110633500D01*
X144432416Y-110634027D01*
X144439909Y-110635702D01*
X144447835Y-110635453D01*
X144447836Y-110635453D01*
X144507986Y-110633562D01*
X144511945Y-110633500D01*
X144539856Y-110633500D01*
X144543791Y-110633003D01*
X144543856Y-110632995D01*
X144555693Y-110632062D01*
X144587951Y-110631048D01*
X144591970Y-110630922D01*
X144599889Y-110630673D01*
X144619343Y-110625021D01*
X144638700Y-110621013D01*
X144650930Y-110619468D01*
X144650931Y-110619468D01*
X144658797Y-110618474D01*
X144666168Y-110615555D01*
X144666170Y-110615555D01*
X144699912Y-110602196D01*
X144711142Y-110598351D01*
X144745983Y-110588229D01*
X144745984Y-110588229D01*
X144753593Y-110586018D01*
X144760412Y-110581985D01*
X144760417Y-110581983D01*
X144771028Y-110575707D01*
X144788776Y-110567012D01*
X144807617Y-110559552D01*
X144824151Y-110547540D01*
X144843387Y-110533564D01*
X144853307Y-110527048D01*
X144884535Y-110508580D01*
X144884538Y-110508578D01*
X144891362Y-110504542D01*
X144905683Y-110490221D01*
X144920717Y-110477380D01*
X144930694Y-110470131D01*
X144937107Y-110465472D01*
X144942158Y-110459367D01*
X144942163Y-110459362D01*
X144965294Y-110431402D01*
X144973281Y-110422624D01*
X145422825Y-109973080D01*
X145485137Y-109939055D01*
X145555952Y-109944119D01*
X145612788Y-109986666D01*
X145628663Y-110014771D01*
X145661933Y-110096705D01*
X145673266Y-110124616D01*
X145675965Y-110129020D01*
X145787068Y-110310324D01*
X145789987Y-110315088D01*
X145936250Y-110483938D01*
X145940225Y-110487238D01*
X145940231Y-110487244D01*
X145945425Y-110491556D01*
X145985059Y-110550460D01*
X145986555Y-110621441D01*
X145949439Y-110681962D01*
X145909168Y-110706480D01*
X145801946Y-110746676D01*
X145786351Y-110755214D01*
X145684276Y-110831715D01*
X145671715Y-110844276D01*
X145595214Y-110946351D01*
X145586676Y-110961946D01*
X145541522Y-111082394D01*
X145537895Y-111097649D01*
X145532369Y-111148514D01*
X145532000Y-111155328D01*
X145532000Y-111777885D01*
X145536475Y-111793124D01*
X145537865Y-111794329D01*
X145545548Y-111796000D01*
X148229884Y-111796000D01*
X148245123Y-111791525D01*
X148246328Y-111790135D01*
X148247999Y-111782452D01*
X148247999Y-111155331D01*
X148247629Y-111148510D01*
X148242105Y-111097648D01*
X148238479Y-111082396D01*
X148193324Y-110961946D01*
X148184786Y-110946351D01*
X148108285Y-110844276D01*
X148095724Y-110831715D01*
X147993649Y-110755214D01*
X147978054Y-110746676D01*
X147867813Y-110705348D01*
X147811049Y-110662706D01*
X147786349Y-110596145D01*
X147801557Y-110526796D01*
X147823104Y-110498115D01*
X147924430Y-110397144D01*
X147924440Y-110397132D01*
X147928096Y-110393489D01*
X147987594Y-110310689D01*
X148055435Y-110216277D01*
X148058453Y-110212077D01*
X148157430Y-110011811D01*
X148222370Y-109798069D01*
X148251529Y-109576590D01*
X148253156Y-109510000D01*
X148234852Y-109287361D01*
X148180431Y-109070702D01*
X148091354Y-108865840D01*
X147970014Y-108678277D01*
X147819670Y-108513051D01*
X147815619Y-108509852D01*
X147815615Y-108509848D01*
X147648414Y-108377800D01*
X147648410Y-108377798D01*
X147644359Y-108374598D01*
X147603053Y-108351796D01*
X147553084Y-108301364D01*
X147538312Y-108231921D01*
X147563428Y-108165516D01*
X147590780Y-108138909D01*
X147654480Y-108093472D01*
X147769860Y-108011173D01*
X147928096Y-107853489D01*
X147987594Y-107770689D01*
X148055435Y-107676277D01*
X148058453Y-107672077D01*
X148157430Y-107471811D01*
X148194179Y-107350857D01*
X148220865Y-107263023D01*
X148220865Y-107263021D01*
X148222370Y-107258069D01*
X148251529Y-107036590D01*
X148252747Y-106986739D01*
X148253074Y-106973365D01*
X148253074Y-106973361D01*
X148253156Y-106970000D01*
X148234852Y-106747361D01*
X148180431Y-106530702D01*
X148091354Y-106325840D01*
X148045596Y-106255109D01*
X147972822Y-106142617D01*
X147972820Y-106142614D01*
X147970014Y-106138277D01*
X147819670Y-105973051D01*
X147815619Y-105969852D01*
X147815615Y-105969848D01*
X147648414Y-105837800D01*
X147648410Y-105837798D01*
X147644359Y-105834598D01*
X147603053Y-105811796D01*
X147553084Y-105761364D01*
X147538312Y-105691921D01*
X147563428Y-105625516D01*
X147590780Y-105598909D01*
X147654480Y-105553472D01*
X147769860Y-105471173D01*
X147810676Y-105430500D01*
X147924435Y-105317137D01*
X147928096Y-105313489D01*
X147987594Y-105230689D01*
X148055435Y-105136277D01*
X148058453Y-105132077D01*
X148135941Y-104975292D01*
X148155136Y-104936453D01*
X148155137Y-104936451D01*
X148157430Y-104931811D01*
X148222370Y-104718069D01*
X148251529Y-104496590D01*
X148251823Y-104484558D01*
X148253074Y-104433365D01*
X148253074Y-104433361D01*
X148253156Y-104430000D01*
X148234852Y-104207361D01*
X148180431Y-103990702D01*
X148091354Y-103785840D01*
X147970014Y-103598277D01*
X147819670Y-103433051D01*
X147815619Y-103429852D01*
X147815615Y-103429848D01*
X147648414Y-103297800D01*
X147648410Y-103297798D01*
X147644359Y-103294598D01*
X147603053Y-103271796D01*
X147553084Y-103221364D01*
X147538312Y-103151921D01*
X147563428Y-103085516D01*
X147590780Y-103058909D01*
X147654480Y-103013472D01*
X147769860Y-102931173D01*
X147792613Y-102908500D01*
X147924435Y-102777137D01*
X147928096Y-102773489D01*
X147987594Y-102690689D01*
X148055435Y-102596277D01*
X148058453Y-102592077D01*
X148085702Y-102536944D01*
X148155136Y-102396453D01*
X148155137Y-102396451D01*
X148157430Y-102391811D01*
X148222370Y-102178069D01*
X148251529Y-101956590D01*
X148253156Y-101890000D01*
X148234852Y-101667361D01*
X148180431Y-101450702D01*
X148091354Y-101245840D01*
X147970014Y-101058277D01*
X147966540Y-101054459D01*
X147966533Y-101054450D01*
X147822435Y-100896088D01*
X147791383Y-100832242D01*
X147799779Y-100761744D01*
X147844956Y-100706976D01*
X147871400Y-100693307D01*
X147978052Y-100653325D01*
X147993649Y-100644786D01*
X148095724Y-100568285D01*
X148108285Y-100555724D01*
X148184786Y-100453649D01*
X148193324Y-100438054D01*
X148238478Y-100317606D01*
X148242105Y-100302351D01*
X148247631Y-100251486D01*
X148248000Y-100244672D01*
X148248000Y-99622115D01*
X148243525Y-99606876D01*
X148242135Y-99605671D01*
X148234452Y-99604000D01*
X146762000Y-99604000D01*
X146693879Y-99583998D01*
X146647386Y-99530342D01*
X146636000Y-99478000D01*
X146636000Y-99222000D01*
X146656002Y-99153879D01*
X146709658Y-99107386D01*
X146762000Y-99096000D01*
X148229884Y-99096000D01*
X148245123Y-99091525D01*
X148246328Y-99090135D01*
X148247999Y-99082452D01*
X148247999Y-98455331D01*
X148247629Y-98448510D01*
X148242105Y-98397648D01*
X148238479Y-98382396D01*
X148193324Y-98261946D01*
X148184786Y-98246351D01*
X148108285Y-98144276D01*
X148095724Y-98131715D01*
X147993649Y-98055214D01*
X147978054Y-98046676D01*
X147867813Y-98005348D01*
X147811049Y-97962706D01*
X147786349Y-97896145D01*
X147801557Y-97826796D01*
X147823104Y-97798115D01*
X147924430Y-97697144D01*
X147924440Y-97697132D01*
X147928096Y-97693489D01*
X147931476Y-97688786D01*
X148055435Y-97516277D01*
X148058453Y-97512077D01*
X148065540Y-97497739D01*
X148155136Y-97316453D01*
X148155137Y-97316451D01*
X148157430Y-97311811D01*
X148210457Y-97137278D01*
X148220865Y-97103023D01*
X148220865Y-97103021D01*
X148222370Y-97098069D01*
X148251529Y-96876590D01*
X148251611Y-96873240D01*
X148253074Y-96813365D01*
X148253074Y-96813361D01*
X148253156Y-96810000D01*
X148234852Y-96587361D01*
X148180431Y-96370702D01*
X148091354Y-96165840D01*
X148009740Y-96039684D01*
X147972822Y-95982617D01*
X147972820Y-95982614D01*
X147970014Y-95978277D01*
X147819670Y-95813051D01*
X147815619Y-95809852D01*
X147815615Y-95809848D01*
X147648414Y-95677800D01*
X147648410Y-95677798D01*
X147644359Y-95674598D01*
X147603053Y-95651796D01*
X147553084Y-95601364D01*
X147538312Y-95531921D01*
X147563428Y-95465516D01*
X147590780Y-95438909D01*
X147654480Y-95393472D01*
X147769860Y-95311173D01*
X147928096Y-95153489D01*
X147941577Y-95134729D01*
X148055435Y-94976277D01*
X148058453Y-94972077D01*
X148062912Y-94963056D01*
X148155136Y-94776453D01*
X148155137Y-94776451D01*
X148157430Y-94771811D01*
X148211796Y-94592872D01*
X148220865Y-94563023D01*
X148220865Y-94563021D01*
X148222370Y-94558069D01*
X148251529Y-94336590D01*
X148252441Y-94299253D01*
X148253074Y-94273365D01*
X148253074Y-94273361D01*
X148253156Y-94270000D01*
X148234852Y-94047361D01*
X148180431Y-93830702D01*
X148091354Y-93625840D01*
X147990295Y-93469626D01*
X147972822Y-93442617D01*
X147972820Y-93442614D01*
X147970014Y-93438277D01*
X147819670Y-93273051D01*
X147815619Y-93269852D01*
X147815615Y-93269848D01*
X147648414Y-93137800D01*
X147648410Y-93137798D01*
X147644359Y-93134598D01*
X147603053Y-93111796D01*
X147553084Y-93061364D01*
X147538312Y-92991921D01*
X147563428Y-92925516D01*
X147590780Y-92898909D01*
X147634603Y-92867650D01*
X147769860Y-92771173D01*
X147928096Y-92613489D01*
X147950610Y-92582158D01*
X148055435Y-92436277D01*
X148058453Y-92432077D01*
X148070106Y-92408500D01*
X148155136Y-92236453D01*
X148155137Y-92236451D01*
X148157430Y-92231811D01*
X148207470Y-92067112D01*
X148220865Y-92023023D01*
X148220865Y-92023021D01*
X148222370Y-92018069D01*
X148251529Y-91796590D01*
X148253156Y-91730000D01*
X148234852Y-91507361D01*
X148180431Y-91290702D01*
X148091354Y-91085840D01*
X148014701Y-90967352D01*
X147972822Y-90902617D01*
X147972820Y-90902614D01*
X147970014Y-90898277D01*
X147819670Y-90733051D01*
X147815619Y-90729852D01*
X147815615Y-90729848D01*
X147648414Y-90597800D01*
X147648410Y-90597798D01*
X147644359Y-90594598D01*
X147603053Y-90571796D01*
X147553084Y-90521364D01*
X147538312Y-90451921D01*
X147563428Y-90385516D01*
X147590780Y-90358909D01*
X147653952Y-90313849D01*
X147769860Y-90231173D01*
X147928096Y-90073489D01*
X147942141Y-90053944D01*
X148055435Y-89896277D01*
X148058453Y-89892077D01*
X148062662Y-89883562D01*
X148155136Y-89696453D01*
X148155137Y-89696451D01*
X148157430Y-89691811D01*
X148198895Y-89555334D01*
X148220865Y-89483023D01*
X148220865Y-89483021D01*
X148222370Y-89478069D01*
X148251529Y-89256590D01*
X148253156Y-89190000D01*
X148234852Y-88967361D01*
X148180431Y-88750702D01*
X148091354Y-88545840D01*
X148003623Y-88410229D01*
X147972822Y-88362617D01*
X147972820Y-88362614D01*
X147970014Y-88358277D01*
X147966540Y-88354459D01*
X147966533Y-88354450D01*
X147822435Y-88196088D01*
X147791383Y-88132242D01*
X147799779Y-88061744D01*
X147844956Y-88006976D01*
X147871400Y-87993307D01*
X147978052Y-87953325D01*
X147993649Y-87944786D01*
X148095724Y-87868285D01*
X148108285Y-87855724D01*
X148184786Y-87753649D01*
X148193324Y-87738054D01*
X148238478Y-87617606D01*
X148242105Y-87602351D01*
X148247631Y-87551486D01*
X148248000Y-87544672D01*
X148248000Y-86922115D01*
X148243525Y-86906876D01*
X148242135Y-86905671D01*
X148234452Y-86904000D01*
X145550116Y-86904000D01*
X145534877Y-86908475D01*
X145533672Y-86909865D01*
X145532001Y-86917548D01*
X145532001Y-87544669D01*
X145532371Y-87551490D01*
X145537895Y-87602352D01*
X145541521Y-87617604D01*
X145586676Y-87738054D01*
X145595214Y-87753649D01*
X145671715Y-87855724D01*
X145684276Y-87868285D01*
X145786351Y-87944786D01*
X145801946Y-87953324D01*
X145910827Y-87994142D01*
X145967591Y-88036784D01*
X145992291Y-88103345D01*
X145977083Y-88172694D01*
X145957691Y-88199175D01*
X145891633Y-88268301D01*
X145830629Y-88332138D01*
X145704743Y-88516680D01*
X145689003Y-88550590D01*
X145627371Y-88683365D01*
X145610688Y-88719305D01*
X145550989Y-88934570D01*
X145527251Y-89156695D01*
X145527548Y-89161848D01*
X145527548Y-89161851D01*
X145536231Y-89312444D01*
X145540110Y-89379715D01*
X145541247Y-89384761D01*
X145541248Y-89384767D01*
X145573453Y-89527668D01*
X145568917Y-89598520D01*
X145539631Y-89644464D01*
X145256293Y-89927802D01*
X145193981Y-89961828D01*
X145123166Y-89956763D01*
X145066330Y-89914216D01*
X145049216Y-89882937D01*
X145003767Y-89761703D01*
X145000615Y-89753295D01*
X144913261Y-89636739D01*
X144906080Y-89631357D01*
X144805497Y-89555974D01*
X144762982Y-89499115D01*
X144757956Y-89428296D01*
X144775176Y-89389983D01*
X144773770Y-89389121D01*
X144895205Y-89190958D01*
X144899687Y-89182163D01*
X144986734Y-88972012D01*
X144989783Y-88962627D01*
X145042885Y-88741446D01*
X145044428Y-88731699D01*
X145062275Y-88504930D01*
X145062275Y-88495070D01*
X145044428Y-88268301D01*
X145042885Y-88258554D01*
X144989783Y-88037373D01*
X144986734Y-88027988D01*
X144899687Y-87817837D01*
X144895205Y-87809042D01*
X144792568Y-87641555D01*
X144782110Y-87632093D01*
X144773334Y-87635876D01*
X143639095Y-88770115D01*
X143576783Y-88804141D01*
X143505968Y-88799076D01*
X143460905Y-88770115D01*
X142329710Y-87638920D01*
X142317330Y-87632160D01*
X142309680Y-87637887D01*
X142204795Y-87809042D01*
X142200313Y-87817837D01*
X142113266Y-88027988D01*
X142110217Y-88037373D01*
X142057115Y-88258554D01*
X142055572Y-88268301D01*
X142037725Y-88495070D01*
X142037725Y-88504930D01*
X142055572Y-88731699D01*
X142057115Y-88741446D01*
X142110217Y-88962627D01*
X142113266Y-88972012D01*
X142200313Y-89182163D01*
X142204795Y-89190958D01*
X142326230Y-89389121D01*
X142324149Y-89390396D01*
X142344720Y-89447739D01*
X142328758Y-89516918D01*
X142294503Y-89555974D01*
X142193920Y-89631357D01*
X142186739Y-89636739D01*
X142099385Y-89753295D01*
X142048255Y-89889684D01*
X142041500Y-89951866D01*
X142041093Y-89951822D01*
X142018139Y-90016775D01*
X141962048Y-90060299D01*
X141891331Y-90066589D01*
X141828439Y-90033647D01*
X141806860Y-90006023D01*
X141774595Y-89950139D01*
X141739040Y-89888556D01*
X141734544Y-89883562D01*
X141615675Y-89751545D01*
X141615674Y-89751544D01*
X141611253Y-89746634D01*
X141456752Y-89634382D01*
X141450724Y-89631698D01*
X141450722Y-89631697D01*
X141288319Y-89559391D01*
X141288318Y-89559391D01*
X141282288Y-89556706D01*
X141188887Y-89536853D01*
X141101944Y-89518372D01*
X141101939Y-89518372D01*
X141095487Y-89517000D01*
X140904513Y-89517000D01*
X140898061Y-89518372D01*
X140898056Y-89518372D01*
X140811112Y-89536853D01*
X140717712Y-89556706D01*
X140711682Y-89559391D01*
X140711681Y-89559391D01*
X140549278Y-89631697D01*
X140549276Y-89631698D01*
X140543248Y-89634382D01*
X140537907Y-89638262D01*
X140537906Y-89638263D01*
X140441367Y-89708403D01*
X140388747Y-89746634D01*
X140384332Y-89751537D01*
X140379420Y-89755960D01*
X140378295Y-89754711D01*
X140324986Y-89787551D01*
X140291800Y-89792000D01*
X139327339Y-89792000D01*
X139259218Y-89771998D01*
X139212725Y-89718342D01*
X139202029Y-89679171D01*
X139185829Y-89525038D01*
X139185829Y-89525036D01*
X139185139Y-89518475D01*
X139126124Y-89336847D01*
X139101273Y-89293803D01*
X139081703Y-89259908D01*
X139030637Y-89171459D01*
X139017344Y-89156695D01*
X138907272Y-89034448D01*
X138907271Y-89034447D01*
X138902850Y-89029537D01*
X138748349Y-88917285D01*
X138742321Y-88914601D01*
X138742319Y-88914600D01*
X138579916Y-88842294D01*
X138579915Y-88842294D01*
X138573885Y-88839609D01*
X138464141Y-88816282D01*
X138393541Y-88801275D01*
X138393536Y-88801275D01*
X138387084Y-88799903D01*
X138196110Y-88799903D01*
X138189658Y-88801275D01*
X138189653Y-88801275D01*
X138119053Y-88816282D01*
X138009309Y-88839609D01*
X138003279Y-88842294D01*
X138003278Y-88842294D01*
X137840875Y-88914600D01*
X137840873Y-88914601D01*
X137834845Y-88917285D01*
X137829504Y-88921166D01*
X137823786Y-88924467D01*
X137822463Y-88922176D01*
X137766701Y-88942076D01*
X137697548Y-88926000D01*
X137648065Y-88875089D01*
X137633500Y-88816282D01*
X137633500Y-88702524D01*
X137653502Y-88634403D01*
X137665858Y-88618221D01*
X137739040Y-88536944D01*
X137834527Y-88371556D01*
X137893542Y-88189928D01*
X137895354Y-88172694D01*
X137912814Y-88006565D01*
X137913504Y-88000000D01*
X137908598Y-87953324D01*
X137894232Y-87816635D01*
X137894232Y-87816633D01*
X137893542Y-87810072D01*
X137834527Y-87628444D01*
X137739040Y-87463056D01*
X137717475Y-87439105D01*
X137615675Y-87326045D01*
X137615674Y-87326044D01*
X137611253Y-87321134D01*
X137456752Y-87208882D01*
X137450724Y-87206198D01*
X137450722Y-87206197D01*
X137288319Y-87133891D01*
X137288318Y-87133891D01*
X137282288Y-87131206D01*
X137188888Y-87111353D01*
X137101944Y-87092872D01*
X137101939Y-87092872D01*
X137095487Y-87091500D01*
X136904513Y-87091500D01*
X136898058Y-87092872D01*
X136898049Y-87092873D01*
X136877115Y-87097323D01*
X136806324Y-87091922D01*
X136749691Y-87049106D01*
X136725197Y-86982468D01*
X136740618Y-86913167D01*
X136761822Y-86884982D01*
X136976399Y-86670405D01*
X137038711Y-86636379D01*
X137065494Y-86633500D01*
X142098434Y-86633500D01*
X142166555Y-86653502D01*
X142205867Y-86693665D01*
X142323241Y-86885202D01*
X142323245Y-86885208D01*
X142325824Y-86889416D01*
X142480031Y-87069969D01*
X142483787Y-87073177D01*
X142642526Y-87208753D01*
X142676402Y-87254686D01*
X142685878Y-87276668D01*
X143537188Y-88127978D01*
X143551132Y-88135592D01*
X143552965Y-88135461D01*
X143559580Y-88131210D01*
X144411080Y-87279710D01*
X144432026Y-87241352D01*
X144460782Y-87205928D01*
X144616213Y-87073177D01*
X144619969Y-87069969D01*
X144774176Y-86889416D01*
X144776755Y-86885208D01*
X144776759Y-86885202D01*
X144895654Y-86691183D01*
X144898240Y-86686963D01*
X144919193Y-86636379D01*
X144987211Y-86472167D01*
X144987212Y-86472165D01*
X144989105Y-86467594D01*
X145044535Y-86236711D01*
X145063165Y-86000000D01*
X145044535Y-85763289D01*
X145042625Y-85755331D01*
X144996197Y-85561946D01*
X144989105Y-85532406D01*
X144947250Y-85431358D01*
X144900135Y-85317611D01*
X144900133Y-85317607D01*
X144898240Y-85313037D01*
X144889182Y-85298255D01*
X144776759Y-85114798D01*
X144776755Y-85114792D01*
X144774176Y-85110584D01*
X144770969Y-85106830D01*
X144770961Y-85106818D01*
X144638161Y-84951330D01*
X144609130Y-84886541D01*
X144619735Y-84816341D01*
X144666610Y-84763018D01*
X144733972Y-84743500D01*
X145614274Y-84743500D01*
X145682395Y-84763502D01*
X145721707Y-84803665D01*
X145789987Y-84915088D01*
X145936250Y-85083938D01*
X145940225Y-85087238D01*
X145940231Y-85087244D01*
X145945425Y-85091556D01*
X145985059Y-85150460D01*
X145986555Y-85221441D01*
X145949439Y-85281962D01*
X145909168Y-85306480D01*
X145801946Y-85346676D01*
X145786351Y-85355214D01*
X145684276Y-85431715D01*
X145671715Y-85444276D01*
X145595214Y-85546351D01*
X145586676Y-85561946D01*
X145541522Y-85682394D01*
X145537895Y-85697649D01*
X145532369Y-85748514D01*
X145532000Y-85755328D01*
X145532000Y-86377885D01*
X145536475Y-86393124D01*
X145537865Y-86394329D01*
X145545548Y-86396000D01*
X148229884Y-86396000D01*
X148245123Y-86391525D01*
X148246328Y-86390135D01*
X148247999Y-86382452D01*
X148247999Y-85755331D01*
X148247629Y-85748510D01*
X148242105Y-85697648D01*
X148238479Y-85682396D01*
X148193324Y-85561946D01*
X148184786Y-85546351D01*
X148108285Y-85444276D01*
X148095724Y-85431715D01*
X147993649Y-85355214D01*
X147978054Y-85346676D01*
X147867813Y-85305348D01*
X147811049Y-85262706D01*
X147786349Y-85196145D01*
X147801557Y-85126796D01*
X147823104Y-85098115D01*
X147924430Y-84997144D01*
X147924440Y-84997132D01*
X147928096Y-84993489D01*
X147987594Y-84910689D01*
X148055435Y-84816277D01*
X148058453Y-84812077D01*
X148062611Y-84803665D01*
X148155136Y-84616453D01*
X148155137Y-84616451D01*
X148157430Y-84611811D01*
X148222370Y-84398069D01*
X148251529Y-84176590D01*
X148253156Y-84110000D01*
X148234852Y-83887361D01*
X148180431Y-83670702D01*
X148091354Y-83465840D01*
X147970014Y-83278277D01*
X147819670Y-83113051D01*
X147815619Y-83109852D01*
X147815615Y-83109848D01*
X147648414Y-82977800D01*
X147648410Y-82977798D01*
X147644359Y-82974598D01*
X147603053Y-82951796D01*
X147553084Y-82901364D01*
X147538312Y-82831921D01*
X147563428Y-82765516D01*
X147590780Y-82738909D01*
X147634603Y-82707650D01*
X147769860Y-82611173D01*
X147928096Y-82453489D01*
X147987594Y-82370689D01*
X148055435Y-82276277D01*
X148058453Y-82272077D01*
X148157430Y-82071811D01*
X148222370Y-81858069D01*
X148251529Y-81636590D01*
X148252294Y-81605283D01*
X148253074Y-81573365D01*
X148253074Y-81573361D01*
X148253156Y-81570000D01*
X148234852Y-81347361D01*
X148180431Y-81130702D01*
X148091354Y-80925840D01*
X147978979Y-80752135D01*
X147972822Y-80742617D01*
X147972820Y-80742614D01*
X147970014Y-80738277D01*
X147819670Y-80573051D01*
X147815619Y-80569852D01*
X147815615Y-80569848D01*
X147648414Y-80437800D01*
X147648410Y-80437798D01*
X147644359Y-80434598D01*
X147603053Y-80411796D01*
X147553084Y-80361364D01*
X147538312Y-80291921D01*
X147563428Y-80225516D01*
X147590780Y-80198909D01*
X147634603Y-80167650D01*
X147769860Y-80071173D01*
X147775720Y-80065334D01*
X147924435Y-79917137D01*
X147928096Y-79913489D01*
X147987594Y-79830689D01*
X148055435Y-79736277D01*
X148058453Y-79732077D01*
X148157430Y-79531811D01*
X148189900Y-79424940D01*
X148220865Y-79323023D01*
X148220865Y-79323021D01*
X148222370Y-79318069D01*
X148251529Y-79096590D01*
X148253156Y-79030000D01*
X148234852Y-78807361D01*
X148180431Y-78590702D01*
X148091354Y-78385840D01*
X148001884Y-78247540D01*
X147972822Y-78202617D01*
X147972820Y-78202614D01*
X147970014Y-78198277D01*
X147819670Y-78033051D01*
X147815619Y-78029852D01*
X147815615Y-78029848D01*
X147648414Y-77897800D01*
X147648410Y-77897798D01*
X147644359Y-77894598D01*
X147603053Y-77871796D01*
X147553084Y-77821364D01*
X147538312Y-77751921D01*
X147563428Y-77685516D01*
X147590780Y-77658909D01*
X147658905Y-77610316D01*
X147769860Y-77531173D01*
X147928096Y-77373489D01*
X147987594Y-77290689D01*
X148055435Y-77196277D01*
X148058453Y-77192077D01*
X148157430Y-76991811D01*
X148189900Y-76884940D01*
X148220865Y-76783023D01*
X148220865Y-76783021D01*
X148222370Y-76778069D01*
X148251529Y-76556590D01*
X148253156Y-76490000D01*
X148234852Y-76267361D01*
X148180431Y-76050702D01*
X148091354Y-75845840D01*
X147970014Y-75658277D01*
X147966540Y-75654459D01*
X147966533Y-75654450D01*
X147822435Y-75496088D01*
X147791383Y-75432242D01*
X147799779Y-75361744D01*
X147844956Y-75306976D01*
X147871400Y-75293307D01*
X147978052Y-75253325D01*
X147993649Y-75244786D01*
X148095724Y-75168285D01*
X148108285Y-75155724D01*
X148184786Y-75053649D01*
X148193324Y-75038054D01*
X148238478Y-74917606D01*
X148242105Y-74902351D01*
X148247631Y-74851486D01*
X148248000Y-74844672D01*
X148248000Y-74222115D01*
X148243525Y-74206876D01*
X148242135Y-74205671D01*
X148234452Y-74204000D01*
X145550116Y-74204000D01*
X145534877Y-74208475D01*
X145533672Y-74209865D01*
X145532001Y-74217548D01*
X145532001Y-74844669D01*
X145532371Y-74851490D01*
X145537895Y-74902352D01*
X145541521Y-74917604D01*
X145586676Y-75038054D01*
X145595214Y-75053649D01*
X145671715Y-75155724D01*
X145684276Y-75168285D01*
X145786351Y-75244786D01*
X145801946Y-75253324D01*
X145910827Y-75294142D01*
X145967591Y-75336784D01*
X145992291Y-75403345D01*
X145977083Y-75472694D01*
X145957691Y-75499175D01*
X145839628Y-75622721D01*
X145830629Y-75632138D01*
X145704743Y-75816680D01*
X145689003Y-75850590D01*
X145616602Y-76006565D01*
X145610688Y-76019305D01*
X145550989Y-76234570D01*
X145527251Y-76456695D01*
X145527548Y-76461848D01*
X145527548Y-76461851D01*
X145533011Y-76556590D01*
X145540110Y-76679715D01*
X145541247Y-76684761D01*
X145541248Y-76684767D01*
X145561119Y-76772939D01*
X145589222Y-76897639D01*
X145673266Y-77104616D01*
X145789987Y-77295088D01*
X145936250Y-77463938D01*
X146108126Y-77606632D01*
X146178595Y-77647811D01*
X146181445Y-77649476D01*
X146230169Y-77701114D01*
X146243240Y-77770897D01*
X146216509Y-77836669D01*
X146176055Y-77870027D01*
X146163607Y-77876507D01*
X146159474Y-77879610D01*
X146159471Y-77879612D01*
X146071843Y-77945405D01*
X145984965Y-78010635D01*
X145830629Y-78172138D01*
X145827715Y-78176410D01*
X145827714Y-78176411D01*
X145784552Y-78239684D01*
X145704743Y-78356680D01*
X145610688Y-78559305D01*
X145550989Y-78774570D01*
X145527251Y-78996695D01*
X145527548Y-79001851D01*
X145527422Y-79007024D01*
X145525914Y-79006987D01*
X145511410Y-79069485D01*
X145460518Y-79118988D01*
X145390942Y-79133118D01*
X145324771Y-79107389D01*
X145312583Y-79096679D01*
X144439498Y-78223593D01*
X144405474Y-78161283D01*
X144410539Y-78090467D01*
X144453086Y-78033632D01*
X144519606Y-78008821D01*
X144528595Y-78008500D01*
X144598134Y-78008500D01*
X144660316Y-78001745D01*
X144796705Y-77950615D01*
X144913261Y-77863261D01*
X145000615Y-77746705D01*
X145051745Y-77610316D01*
X145058500Y-77548134D01*
X145058500Y-75451866D01*
X145051745Y-75389684D01*
X145000615Y-75253295D01*
X144913261Y-75136739D01*
X144906080Y-75131357D01*
X144805497Y-75055974D01*
X144762982Y-74999115D01*
X144757956Y-74928296D01*
X144775176Y-74889983D01*
X144773770Y-74889121D01*
X144895205Y-74690958D01*
X144899687Y-74682163D01*
X144986734Y-74472012D01*
X144989783Y-74462627D01*
X145042885Y-74241446D01*
X145044428Y-74231699D01*
X145062275Y-74004930D01*
X145062275Y-73995070D01*
X145044428Y-73768301D01*
X145042885Y-73758554D01*
X144989783Y-73537373D01*
X144986734Y-73527988D01*
X144899687Y-73317837D01*
X144895205Y-73309042D01*
X144792568Y-73141555D01*
X144782110Y-73132093D01*
X144773334Y-73135876D01*
X143639095Y-74270115D01*
X143576783Y-74304141D01*
X143505968Y-74299076D01*
X143460905Y-74270115D01*
X142329710Y-73138920D01*
X142317330Y-73132160D01*
X142309680Y-73137887D01*
X142204795Y-73309042D01*
X142200313Y-73317837D01*
X142113266Y-73527988D01*
X142110217Y-73537373D01*
X142057115Y-73758554D01*
X142055572Y-73768301D01*
X142037725Y-73995070D01*
X142037725Y-74004930D01*
X142055572Y-74231699D01*
X142057115Y-74241446D01*
X142110217Y-74462627D01*
X142113266Y-74472012D01*
X142200313Y-74682163D01*
X142204795Y-74690958D01*
X142326230Y-74889121D01*
X142324149Y-74890396D01*
X142344720Y-74947739D01*
X142328758Y-75016918D01*
X142294503Y-75055974D01*
X142193920Y-75131357D01*
X142186739Y-75136739D01*
X142099385Y-75253295D01*
X142096233Y-75261703D01*
X142096231Y-75261707D01*
X142087599Y-75284731D01*
X142044957Y-75341495D01*
X141978395Y-75366194D01*
X141969618Y-75366500D01*
X134208200Y-75366500D01*
X134140079Y-75346498D01*
X134120853Y-75330157D01*
X134120580Y-75330460D01*
X134115668Y-75326037D01*
X134111253Y-75321134D01*
X134017881Y-75253295D01*
X133962094Y-75212763D01*
X133962093Y-75212762D01*
X133956752Y-75208882D01*
X133950724Y-75206198D01*
X133950722Y-75206197D01*
X133788319Y-75133891D01*
X133788318Y-75133891D01*
X133782288Y-75131206D01*
X133688888Y-75111353D01*
X133601944Y-75092872D01*
X133601939Y-75092872D01*
X133595487Y-75091500D01*
X133404513Y-75091500D01*
X133398061Y-75092872D01*
X133398056Y-75092872D01*
X133311112Y-75111353D01*
X133217712Y-75131206D01*
X133211682Y-75133891D01*
X133211681Y-75133891D01*
X133049278Y-75206197D01*
X133049276Y-75206198D01*
X133043248Y-75208882D01*
X132888747Y-75321134D01*
X132884326Y-75326044D01*
X132884325Y-75326045D01*
X132771036Y-75451866D01*
X132760960Y-75463056D01*
X132665473Y-75628444D01*
X132606458Y-75810072D01*
X132605768Y-75816633D01*
X132605768Y-75816635D01*
X132602699Y-75845840D01*
X132586496Y-76000000D01*
X132606458Y-76189928D01*
X132665473Y-76371556D01*
X132760960Y-76536944D01*
X132888747Y-76678866D01*
X132955646Y-76727471D01*
X133043248Y-76791118D01*
X133041768Y-76793156D01*
X133082935Y-76836338D01*
X133096246Y-76907233D01*
X133086496Y-77000000D01*
X133106458Y-77189928D01*
X133165473Y-77371556D01*
X133260960Y-77536944D01*
X133265378Y-77541851D01*
X133265379Y-77541852D01*
X133274094Y-77551531D01*
X133388747Y-77678866D01*
X133543248Y-77791118D01*
X133549276Y-77793802D01*
X133549278Y-77793803D01*
X133711681Y-77866109D01*
X133717712Y-77868794D01*
X133811113Y-77888647D01*
X133898056Y-77907128D01*
X133898061Y-77907128D01*
X133904513Y-77908500D01*
X133960406Y-77908500D01*
X134028527Y-77928502D01*
X134049501Y-77945405D01*
X134071760Y-77967664D01*
X134105786Y-78029976D01*
X134100721Y-78100791D01*
X134099874Y-78102642D01*
X134099385Y-78103295D01*
X134048255Y-78239684D01*
X134041500Y-78301866D01*
X134041500Y-80898134D01*
X134048255Y-80960316D01*
X134099385Y-81096705D01*
X134104770Y-81103890D01*
X134104771Y-81103892D01*
X134157640Y-81174435D01*
X134182488Y-81240942D01*
X134167435Y-81310324D01*
X134157640Y-81325565D01*
X134105119Y-81395644D01*
X134099385Y-81403295D01*
X134048255Y-81539684D01*
X134041500Y-81601866D01*
X134041500Y-84198134D01*
X134048255Y-84260316D01*
X134099385Y-84396705D01*
X134186739Y-84513261D01*
X134303295Y-84600615D01*
X134439684Y-84651745D01*
X134501866Y-84658500D01*
X136141406Y-84658500D01*
X136209527Y-84678502D01*
X136256020Y-84732158D01*
X136266124Y-84802432D01*
X136236630Y-84867012D01*
X136230501Y-84873595D01*
X133274500Y-87829595D01*
X133212188Y-87863621D01*
X133185405Y-87866500D01*
X132759500Y-87866500D01*
X132691379Y-87846498D01*
X132644886Y-87792842D01*
X132633500Y-87740500D01*
X132633500Y-81514268D01*
X132634027Y-81503085D01*
X132635702Y-81495592D01*
X132634975Y-81472444D01*
X132633562Y-81427502D01*
X132633500Y-81423544D01*
X132633500Y-81395644D01*
X132632996Y-81391653D01*
X132632063Y-81379811D01*
X132631206Y-81352522D01*
X132630674Y-81335611D01*
X132628462Y-81327997D01*
X132628461Y-81327992D01*
X132625023Y-81316159D01*
X132621012Y-81296795D01*
X132619467Y-81284564D01*
X132618474Y-81276703D01*
X132615557Y-81269336D01*
X132615556Y-81269331D01*
X132602198Y-81235592D01*
X132598354Y-81224365D01*
X132588230Y-81189522D01*
X132586018Y-81181907D01*
X132575707Y-81164472D01*
X132567012Y-81146724D01*
X132559552Y-81127883D01*
X132533564Y-81092113D01*
X132527048Y-81082193D01*
X132508580Y-81050965D01*
X132508578Y-81050962D01*
X132504542Y-81044138D01*
X132490221Y-81029817D01*
X132477380Y-81014783D01*
X132470132Y-81004807D01*
X132465472Y-80998393D01*
X132455414Y-80990072D01*
X132415676Y-80931238D01*
X132410420Y-80906158D01*
X132394232Y-80752135D01*
X132394232Y-80752133D01*
X132393542Y-80745572D01*
X132334527Y-80563944D01*
X132325051Y-80547530D01*
X132297314Y-80499490D01*
X132239040Y-80398556D01*
X132111253Y-80256634D01*
X131956752Y-80144382D01*
X131950724Y-80141698D01*
X131950722Y-80141697D01*
X131788319Y-80069391D01*
X131788318Y-80069391D01*
X131782288Y-80066706D01*
X131688887Y-80046853D01*
X131601944Y-80028372D01*
X131601939Y-80028372D01*
X131595487Y-80027000D01*
X131404513Y-80027000D01*
X131398061Y-80028372D01*
X131398056Y-80028372D01*
X131311113Y-80046853D01*
X131217712Y-80066706D01*
X131211682Y-80069391D01*
X131211681Y-80069391D01*
X131049278Y-80141697D01*
X131049276Y-80141698D01*
X131043248Y-80144382D01*
X130888747Y-80256634D01*
X130760960Y-80398556D01*
X130702686Y-80499490D01*
X130674950Y-80547530D01*
X130665473Y-80563944D01*
X130606458Y-80745572D01*
X130586496Y-80935500D01*
X130587186Y-80942065D01*
X130587296Y-80943112D01*
X130587186Y-80943713D01*
X130587186Y-80948670D01*
X130586279Y-80948670D01*
X130574523Y-81012951D01*
X130526021Y-81064797D01*
X130457188Y-81082191D01*
X130389879Y-81059609D01*
X130346437Y-81006525D01*
X130313419Y-80930589D01*
X130313419Y-80930588D01*
X130311354Y-80925840D01*
X130198979Y-80752135D01*
X130192822Y-80742617D01*
X130192820Y-80742614D01*
X130190014Y-80738277D01*
X130039670Y-80573051D01*
X130035619Y-80569852D01*
X130035615Y-80569848D01*
X129868414Y-80437800D01*
X129868410Y-80437798D01*
X129864359Y-80434598D01*
X129823053Y-80411796D01*
X129773084Y-80361364D01*
X129758312Y-80291921D01*
X129783428Y-80225516D01*
X129810780Y-80198909D01*
X129854603Y-80167650D01*
X129989860Y-80071173D01*
X129995720Y-80065334D01*
X130144435Y-79917137D01*
X130148096Y-79913489D01*
X130207594Y-79830689D01*
X130275435Y-79736277D01*
X130278453Y-79732077D01*
X130377430Y-79531811D01*
X130409900Y-79424940D01*
X130440865Y-79323023D01*
X130440865Y-79323021D01*
X130442370Y-79318069D01*
X130471529Y-79096590D01*
X130473156Y-79030000D01*
X130454852Y-78807361D01*
X130400431Y-78590702D01*
X130311354Y-78385840D01*
X130221884Y-78247540D01*
X130192822Y-78202617D01*
X130192820Y-78202614D01*
X130190014Y-78198277D01*
X130039670Y-78033051D01*
X130035619Y-78029852D01*
X130035615Y-78029848D01*
X129868414Y-77897800D01*
X129868410Y-77897798D01*
X129864359Y-77894598D01*
X129823053Y-77871796D01*
X129773084Y-77821364D01*
X129758312Y-77751921D01*
X129783428Y-77685516D01*
X129810780Y-77658909D01*
X129878905Y-77610316D01*
X129989860Y-77531173D01*
X130148096Y-77373489D01*
X130207594Y-77290689D01*
X130275435Y-77196277D01*
X130278453Y-77192077D01*
X130377430Y-76991811D01*
X130409900Y-76884940D01*
X130440865Y-76783023D01*
X130440865Y-76783021D01*
X130442370Y-76778069D01*
X130471529Y-76556590D01*
X130473156Y-76490000D01*
X130454852Y-76267361D01*
X130400431Y-76050702D01*
X130311354Y-75845840D01*
X130190014Y-75658277D01*
X130186540Y-75654459D01*
X130186533Y-75654450D01*
X130042435Y-75496088D01*
X130011383Y-75432242D01*
X130019779Y-75361744D01*
X130064956Y-75306976D01*
X130091400Y-75293307D01*
X130198052Y-75253325D01*
X130213649Y-75244786D01*
X130315724Y-75168285D01*
X130328285Y-75155724D01*
X130404786Y-75053649D01*
X130413324Y-75038054D01*
X130458478Y-74917606D01*
X130462105Y-74902351D01*
X130467631Y-74851486D01*
X130468000Y-74844672D01*
X130468000Y-74222115D01*
X130463525Y-74206876D01*
X130462135Y-74205671D01*
X130454452Y-74204000D01*
X127770116Y-74204000D01*
X127754877Y-74208475D01*
X127753672Y-74209865D01*
X127752001Y-74217548D01*
X127752001Y-74844669D01*
X127752371Y-74851490D01*
X127757895Y-74902352D01*
X127761521Y-74917604D01*
X127806676Y-75038054D01*
X127815214Y-75053649D01*
X127891715Y-75155724D01*
X127904276Y-75168285D01*
X128006351Y-75244786D01*
X128021946Y-75253324D01*
X128130827Y-75294142D01*
X128187591Y-75336784D01*
X128212291Y-75403345D01*
X128197083Y-75472694D01*
X128177691Y-75499175D01*
X128059628Y-75622721D01*
X128050629Y-75632138D01*
X127924743Y-75816680D01*
X127909003Y-75850590D01*
X127836602Y-76006565D01*
X127830688Y-76019305D01*
X127770989Y-76234570D01*
X127747251Y-76456695D01*
X127747548Y-76461848D01*
X127747548Y-76461851D01*
X127753011Y-76556590D01*
X127760110Y-76679715D01*
X127761247Y-76684761D01*
X127761248Y-76684767D01*
X127781119Y-76772939D01*
X127809222Y-76897639D01*
X127893266Y-77104616D01*
X128009987Y-77295088D01*
X128156250Y-77463938D01*
X128328126Y-77606632D01*
X128398595Y-77647811D01*
X128401445Y-77649476D01*
X128450169Y-77701114D01*
X128463240Y-77770897D01*
X128436509Y-77836669D01*
X128396055Y-77870027D01*
X128383607Y-77876507D01*
X128379474Y-77879610D01*
X128379471Y-77879612D01*
X128291843Y-77945405D01*
X128204965Y-78010635D01*
X128050629Y-78172138D01*
X128047715Y-78176410D01*
X128047714Y-78176411D01*
X128004552Y-78239684D01*
X127924743Y-78356680D01*
X127830688Y-78559305D01*
X127770989Y-78774570D01*
X127747251Y-78996695D01*
X127747548Y-79001848D01*
X127747548Y-79001851D01*
X127753011Y-79096590D01*
X127760110Y-79219715D01*
X127761247Y-79224761D01*
X127761248Y-79224767D01*
X127781119Y-79312939D01*
X127809222Y-79437639D01*
X127893266Y-79644616D01*
X128009987Y-79835088D01*
X128156250Y-80003938D01*
X128328126Y-80146632D01*
X128398595Y-80187811D01*
X128401445Y-80189476D01*
X128450169Y-80241114D01*
X128463240Y-80310897D01*
X128436509Y-80376669D01*
X128396055Y-80410027D01*
X128383607Y-80416507D01*
X128379474Y-80419610D01*
X128379471Y-80419612D01*
X128355247Y-80437800D01*
X128204965Y-80550635D01*
X128050629Y-80712138D01*
X127924743Y-80896680D01*
X127903676Y-80942065D01*
X127835798Y-81088297D01*
X127830688Y-81099305D01*
X127770989Y-81314570D01*
X127747251Y-81536695D01*
X127747548Y-81541848D01*
X127747548Y-81541851D01*
X127753011Y-81636590D01*
X127760110Y-81759715D01*
X127761247Y-81764761D01*
X127761248Y-81764767D01*
X127772503Y-81814706D01*
X127809222Y-81977639D01*
X127893266Y-82184616D01*
X128009987Y-82375088D01*
X128156250Y-82543938D01*
X128328126Y-82686632D01*
X128398595Y-82727811D01*
X128401445Y-82729476D01*
X128450169Y-82781114D01*
X128463240Y-82850897D01*
X128436509Y-82916669D01*
X128396055Y-82950027D01*
X128383607Y-82956507D01*
X128379474Y-82959610D01*
X128379471Y-82959612D01*
X128355247Y-82977800D01*
X128204965Y-83090635D01*
X128050629Y-83252138D01*
X127924743Y-83436680D01*
X127897930Y-83494444D01*
X127848273Y-83601422D01*
X127830688Y-83639305D01*
X127770989Y-83854570D01*
X127747251Y-84076695D01*
X127747548Y-84081848D01*
X127747548Y-84081851D01*
X127753011Y-84176590D01*
X127760110Y-84299715D01*
X127761247Y-84304761D01*
X127761248Y-84304767D01*
X127780073Y-84388297D01*
X127809222Y-84517639D01*
X127893266Y-84724616D01*
X127940952Y-84802432D01*
X128007291Y-84910688D01*
X128009987Y-84915088D01*
X128156250Y-85083938D01*
X128160230Y-85087242D01*
X128164981Y-85091187D01*
X128204616Y-85150090D01*
X128206113Y-85221071D01*
X128168997Y-85281593D01*
X128128725Y-85306112D01*
X128110253Y-85313037D01*
X128013295Y-85349385D01*
X127896739Y-85436739D01*
X127809385Y-85553295D01*
X127758255Y-85689684D01*
X127751500Y-85751866D01*
X127751500Y-87548134D01*
X127758255Y-87610316D01*
X127809385Y-87746705D01*
X127896739Y-87863261D01*
X128013295Y-87950615D01*
X128021704Y-87953767D01*
X128021705Y-87953768D01*
X128130451Y-87994535D01*
X128187216Y-88037176D01*
X128211916Y-88103738D01*
X128196709Y-88173087D01*
X128177316Y-88199568D01*
X128050629Y-88332138D01*
X127924743Y-88516680D01*
X127909003Y-88550590D01*
X127847371Y-88683365D01*
X127830688Y-88719305D01*
X127770989Y-88934570D01*
X127747251Y-89156695D01*
X127747548Y-89161848D01*
X127747548Y-89161851D01*
X127756231Y-89312444D01*
X127760110Y-89379715D01*
X127761247Y-89384761D01*
X127761248Y-89384767D01*
X127776704Y-89453349D01*
X127809222Y-89597639D01*
X127893266Y-89804616D01*
X127910516Y-89832766D01*
X127983501Y-89951866D01*
X128009987Y-89995088D01*
X128156250Y-90163938D01*
X128328126Y-90306632D01*
X128356472Y-90323196D01*
X128401445Y-90349476D01*
X128450169Y-90401114D01*
X128463240Y-90470897D01*
X128436509Y-90536669D01*
X128396055Y-90570027D01*
X128383607Y-90576507D01*
X128379474Y-90579610D01*
X128379471Y-90579612D01*
X128209100Y-90707530D01*
X128204965Y-90710635D01*
X128139346Y-90779301D01*
X128093061Y-90827736D01*
X128050629Y-90872138D01*
X128047715Y-90876410D01*
X128047714Y-90876411D01*
X128032798Y-90898277D01*
X127924743Y-91056680D01*
X127900806Y-91108249D01*
X127850503Y-91216618D01*
X127830688Y-91259305D01*
X127770989Y-91474570D01*
X127747251Y-91696695D01*
X127747548Y-91701848D01*
X127747548Y-91701851D01*
X127759812Y-91914547D01*
X127760110Y-91919715D01*
X127761247Y-91924761D01*
X127761248Y-91924767D01*
X127776372Y-91991873D01*
X127809222Y-92137639D01*
X127860255Y-92263319D01*
X127881795Y-92316365D01*
X127893266Y-92344616D01*
X128009987Y-92535088D01*
X128156250Y-92703938D01*
X128328126Y-92846632D01*
X128398595Y-92887811D01*
X128401445Y-92889476D01*
X128450169Y-92941114D01*
X128463240Y-93010897D01*
X128436509Y-93076669D01*
X128396055Y-93110027D01*
X128383607Y-93116507D01*
X128379474Y-93119610D01*
X128379471Y-93119612D01*
X128209100Y-93247530D01*
X128204965Y-93250635D01*
X128050629Y-93412138D01*
X127924743Y-93596680D01*
X127830688Y-93799305D01*
X127770989Y-94014570D01*
X127747251Y-94236695D01*
X127747548Y-94241848D01*
X127747548Y-94241851D01*
X127753011Y-94336590D01*
X127760110Y-94459715D01*
X127761247Y-94464761D01*
X127761248Y-94464767D01*
X127776026Y-94530341D01*
X127809222Y-94677639D01*
X127853637Y-94787021D01*
X127889067Y-94874274D01*
X127893266Y-94884616D01*
X128009987Y-95075088D01*
X128156250Y-95243938D01*
X128328126Y-95386632D01*
X128387667Y-95421425D01*
X128401445Y-95429476D01*
X128450169Y-95481114D01*
X128463240Y-95550897D01*
X128436509Y-95616669D01*
X128396055Y-95650027D01*
X128383607Y-95656507D01*
X128379474Y-95659610D01*
X128379471Y-95659612D01*
X128210154Y-95786739D01*
X128204965Y-95790635D01*
X128201393Y-95794373D01*
X128055203Y-95947352D01*
X128050629Y-95952138D01*
X127924743Y-96136680D01*
X127877716Y-96237992D01*
X127833150Y-96334002D01*
X127830688Y-96339305D01*
X127770989Y-96554570D01*
X127747251Y-96776695D01*
X127747548Y-96781848D01*
X127747548Y-96781851D01*
X127756719Y-96940905D01*
X127760110Y-96999715D01*
X127761247Y-97004761D01*
X127761248Y-97004767D01*
X127772478Y-97054595D01*
X127809222Y-97217639D01*
X127893266Y-97424616D01*
X127916822Y-97463056D01*
X127954634Y-97524759D01*
X128009987Y-97615088D01*
X128156250Y-97783938D01*
X128160225Y-97787238D01*
X128160231Y-97787244D01*
X128165425Y-97791556D01*
X128205059Y-97850460D01*
X128206555Y-97921441D01*
X128169439Y-97981962D01*
X128129168Y-98006480D01*
X128021946Y-98046676D01*
X128006351Y-98055214D01*
X127904276Y-98131715D01*
X127891715Y-98144276D01*
X127815214Y-98246351D01*
X127806676Y-98261946D01*
X127761522Y-98382394D01*
X127757895Y-98397649D01*
X127752369Y-98448514D01*
X127752000Y-98455328D01*
X127752000Y-99077885D01*
X127756475Y-99093124D01*
X127757865Y-99094329D01*
X127765548Y-99096000D01*
X129238000Y-99096000D01*
X129306121Y-99116002D01*
X129352614Y-99169658D01*
X129364000Y-99222000D01*
X129364000Y-99478000D01*
X129343998Y-99546121D01*
X129290342Y-99592614D01*
X129238000Y-99604000D01*
X127770116Y-99604000D01*
X127754877Y-99608475D01*
X127753672Y-99609865D01*
X127752001Y-99617548D01*
X127752001Y-100244669D01*
X127752371Y-100251490D01*
X127757895Y-100302352D01*
X127761521Y-100317604D01*
X127806676Y-100438054D01*
X127815214Y-100453649D01*
X127891715Y-100555724D01*
X127904276Y-100568285D01*
X128006351Y-100644786D01*
X128021946Y-100653324D01*
X128130827Y-100694142D01*
X128187591Y-100736784D01*
X128212291Y-100803345D01*
X128197083Y-100872694D01*
X128177691Y-100899175D01*
X128054200Y-101028401D01*
X128050629Y-101032138D01*
X128047715Y-101036410D01*
X128047714Y-101036411D01*
X127983985Y-101129834D01*
X127924743Y-101216680D01*
X127909003Y-101250590D01*
X127842149Y-101394615D01*
X127830688Y-101419305D01*
X127770989Y-101634570D01*
X127747251Y-101856695D01*
X127747548Y-101861848D01*
X127747548Y-101861851D01*
X127753011Y-101956590D01*
X127760110Y-102079715D01*
X127761247Y-102084761D01*
X127761248Y-102084767D01*
X127781119Y-102172939D01*
X127809222Y-102297639D01*
X127893266Y-102504616D01*
X127916084Y-102541852D01*
X128002426Y-102682749D01*
X128009987Y-102695088D01*
X128156250Y-102863938D01*
X128328126Y-103006632D01*
X128390500Y-103043080D01*
X128401445Y-103049476D01*
X128450169Y-103101114D01*
X128463240Y-103170897D01*
X128436509Y-103236669D01*
X128396055Y-103270027D01*
X128383607Y-103276507D01*
X128379474Y-103279610D01*
X128379471Y-103279612D01*
X128209100Y-103407530D01*
X128204965Y-103410635D01*
X128050629Y-103572138D01*
X127924743Y-103756680D01*
X127830688Y-103959305D01*
X127770989Y-104174570D01*
X127747251Y-104396695D01*
X127747548Y-104401848D01*
X127747548Y-104401851D01*
X127753011Y-104496590D01*
X127760110Y-104619715D01*
X127761247Y-104624761D01*
X127761248Y-104624767D01*
X127781119Y-104712939D01*
X127809222Y-104837639D01*
X127893266Y-105044616D01*
X127895965Y-105049020D01*
X127967898Y-105166404D01*
X128009987Y-105235088D01*
X128156250Y-105403938D01*
X128328126Y-105546632D01*
X128398595Y-105587811D01*
X128401445Y-105589476D01*
X128450169Y-105641114D01*
X128463240Y-105710897D01*
X128436509Y-105776669D01*
X128396055Y-105810027D01*
X128383607Y-105816507D01*
X128379474Y-105819610D01*
X128379471Y-105819612D01*
X128209100Y-105947530D01*
X128204965Y-105950635D01*
X128050629Y-106112138D01*
X127924743Y-106296680D01*
X127830688Y-106499305D01*
X127770989Y-106714570D01*
X127747251Y-106936695D01*
X127747548Y-106941848D01*
X127747548Y-106941851D01*
X127756857Y-107103295D01*
X127760110Y-107159715D01*
X127761247Y-107164761D01*
X127761248Y-107164767D01*
X127781119Y-107252939D01*
X127809222Y-107377639D01*
X127893266Y-107584616D01*
X128009987Y-107775088D01*
X128156250Y-107943938D01*
X128328126Y-108086632D01*
X128398595Y-108127811D01*
X128401445Y-108129476D01*
X128450169Y-108181114D01*
X128463240Y-108250897D01*
X128436509Y-108316669D01*
X128396055Y-108350027D01*
X128383607Y-108356507D01*
X128379474Y-108359610D01*
X128379471Y-108359612D01*
X128285839Y-108429913D01*
X128204965Y-108490635D01*
X128050629Y-108652138D01*
X127924743Y-108836680D01*
X127830688Y-109039305D01*
X127770989Y-109254570D01*
X127747251Y-109476695D01*
X127747548Y-109481848D01*
X127747548Y-109481851D01*
X127753011Y-109576590D01*
X127760110Y-109699715D01*
X127761247Y-109704761D01*
X127761248Y-109704767D01*
X127781119Y-109792939D01*
X127809222Y-109917639D01*
X127847461Y-110011811D01*
X127881933Y-110096705D01*
X127893266Y-110124616D01*
X127895965Y-110129020D01*
X128007068Y-110310324D01*
X128009987Y-110315088D01*
X128156250Y-110483938D01*
X128160230Y-110487242D01*
X128164981Y-110491187D01*
X128204616Y-110550090D01*
X128206113Y-110621071D01*
X128168997Y-110681593D01*
X128128725Y-110706112D01*
X128040213Y-110739294D01*
X128013295Y-110749385D01*
X127896739Y-110836739D01*
X127809385Y-110953295D01*
X127758255Y-111089684D01*
X127751500Y-111151866D01*
X127751500Y-112948134D01*
X127758255Y-113010316D01*
X127809385Y-113146705D01*
X127896739Y-113263261D01*
X128013295Y-113350615D01*
X128021704Y-113353767D01*
X128021705Y-113353768D01*
X128130451Y-113394535D01*
X128187216Y-113437176D01*
X128211916Y-113503738D01*
X128196709Y-113573087D01*
X128177316Y-113599568D01*
X128050629Y-113732138D01*
X128047715Y-113736410D01*
X128047714Y-113736411D01*
X127992569Y-113817251D01*
X127924743Y-113916680D01*
X127830688Y-114119305D01*
X127770989Y-114334570D01*
X127747251Y-114556695D01*
X127747548Y-114561848D01*
X127747548Y-114561851D01*
X127754933Y-114689928D01*
X127760110Y-114779715D01*
X127761247Y-114784761D01*
X127761248Y-114784767D01*
X127781119Y-114872939D01*
X127809222Y-114997639D01*
X127893266Y-115204616D01*
X127895965Y-115209020D01*
X127992229Y-115366109D01*
X128009987Y-115395088D01*
X128156250Y-115563938D01*
X128328126Y-115706632D01*
X128392276Y-115744118D01*
X128401445Y-115749476D01*
X128450169Y-115801114D01*
X128463240Y-115870897D01*
X128436509Y-115936669D01*
X128396055Y-115970027D01*
X128383607Y-115976507D01*
X128379474Y-115979610D01*
X128379471Y-115979612D01*
X128259127Y-116069969D01*
X128204965Y-116110635D01*
X128201393Y-116114373D01*
X128061665Y-116260590D01*
X128050629Y-116272138D01*
X127924743Y-116456680D01*
X127898524Y-116513165D01*
X127837528Y-116644570D01*
X127830688Y-116659305D01*
X127770989Y-116874570D01*
X127747251Y-117096695D01*
X125575567Y-117096695D01*
X125966336Y-71376695D01*
X127747251Y-71376695D01*
X127747548Y-71381848D01*
X127747548Y-71381851D01*
X127754645Y-71504930D01*
X127760110Y-71599715D01*
X127761247Y-71604761D01*
X127761248Y-71604767D01*
X127781119Y-71692939D01*
X127809222Y-71817639D01*
X127893266Y-72024616D01*
X128009987Y-72215088D01*
X128156250Y-72383938D01*
X128160225Y-72387238D01*
X128160231Y-72387244D01*
X128165425Y-72391556D01*
X128205059Y-72450460D01*
X128206555Y-72521441D01*
X128169439Y-72581962D01*
X128129168Y-72606480D01*
X128021946Y-72646676D01*
X128006351Y-72655214D01*
X127904276Y-72731715D01*
X127891715Y-72744276D01*
X127815214Y-72846351D01*
X127806676Y-72861946D01*
X127761522Y-72982394D01*
X127757895Y-72997649D01*
X127752369Y-73048514D01*
X127752000Y-73055328D01*
X127752000Y-73677885D01*
X127756475Y-73693124D01*
X127757865Y-73694329D01*
X127765548Y-73696000D01*
X130449884Y-73696000D01*
X130465123Y-73691525D01*
X130466328Y-73690135D01*
X130467999Y-73682452D01*
X130467999Y-73055331D01*
X130467629Y-73048510D01*
X130462105Y-72997648D01*
X130458479Y-72982396D01*
X130413324Y-72861946D01*
X130404786Y-72846351D01*
X130328285Y-72744276D01*
X130315724Y-72731715D01*
X130213649Y-72655214D01*
X130198054Y-72646676D01*
X130087813Y-72605348D01*
X130031049Y-72562706D01*
X130006349Y-72496145D01*
X130021557Y-72426796D01*
X130043104Y-72398115D01*
X130144430Y-72297144D01*
X130144440Y-72297132D01*
X130148096Y-72293489D01*
X130183734Y-72243894D01*
X130275435Y-72116277D01*
X130278453Y-72112077D01*
X130319018Y-72030000D01*
X134311693Y-72030000D01*
X134330885Y-72249371D01*
X134387880Y-72462076D01*
X134390205Y-72467061D01*
X134478618Y-72656666D01*
X134478621Y-72656671D01*
X134480944Y-72661653D01*
X134484100Y-72666160D01*
X134484101Y-72666162D01*
X134511946Y-72705928D01*
X134607251Y-72842038D01*
X134762962Y-72997749D01*
X134943346Y-73124056D01*
X135142924Y-73217120D01*
X135355629Y-73274115D01*
X135575000Y-73293307D01*
X135794371Y-73274115D01*
X136007076Y-73217120D01*
X136206654Y-73124056D01*
X136387038Y-72997749D01*
X136542749Y-72842038D01*
X136638055Y-72705928D01*
X136665899Y-72666162D01*
X136665900Y-72666160D01*
X136669056Y-72661653D01*
X136671379Y-72656671D01*
X136671382Y-72656666D01*
X136759795Y-72467061D01*
X136762120Y-72462076D01*
X136819115Y-72249371D01*
X136838307Y-72030000D01*
X139161693Y-72030000D01*
X139180885Y-72249371D01*
X139237880Y-72462076D01*
X139240205Y-72467061D01*
X139328618Y-72656666D01*
X139328621Y-72656671D01*
X139330944Y-72661653D01*
X139334100Y-72666160D01*
X139334101Y-72666162D01*
X139361946Y-72705928D01*
X139457251Y-72842038D01*
X139612962Y-72997749D01*
X139793346Y-73124056D01*
X139992924Y-73217120D01*
X140205629Y-73274115D01*
X140425000Y-73293307D01*
X140644371Y-73274115D01*
X140857076Y-73217120D01*
X141056654Y-73124056D01*
X141237038Y-72997749D01*
X141392749Y-72842038D01*
X141488055Y-72705928D01*
X141515899Y-72666162D01*
X141515900Y-72666160D01*
X141519056Y-72661653D01*
X141521379Y-72656671D01*
X141521382Y-72656666D01*
X141609795Y-72467061D01*
X141612120Y-72462076D01*
X141669115Y-72249371D01*
X141688307Y-72030000D01*
X141669115Y-71810629D01*
X141612120Y-71597924D01*
X141566458Y-71500000D01*
X142036835Y-71500000D01*
X142055465Y-71736711D01*
X142110895Y-71967594D01*
X142201760Y-72186963D01*
X142204346Y-72191183D01*
X142323241Y-72385202D01*
X142323245Y-72385208D01*
X142325824Y-72389416D01*
X142480031Y-72569969D01*
X142483787Y-72573177D01*
X142642526Y-72708753D01*
X142676402Y-72754686D01*
X142685878Y-72776668D01*
X143537188Y-73627978D01*
X143551132Y-73635592D01*
X143552965Y-73635461D01*
X143559580Y-73631210D01*
X144411080Y-72779710D01*
X144432026Y-72741352D01*
X144460782Y-72705928D01*
X144616213Y-72573177D01*
X144619969Y-72569969D01*
X144774176Y-72389416D01*
X144776755Y-72385208D01*
X144776759Y-72385202D01*
X144895654Y-72191183D01*
X144898240Y-72186963D01*
X144989105Y-71967594D01*
X145044535Y-71736711D01*
X145063165Y-71500000D01*
X145053460Y-71376695D01*
X145527251Y-71376695D01*
X145527548Y-71381848D01*
X145527548Y-71381851D01*
X145534645Y-71504930D01*
X145540110Y-71599715D01*
X145541247Y-71604761D01*
X145541248Y-71604767D01*
X145561119Y-71692939D01*
X145589222Y-71817639D01*
X145673266Y-72024616D01*
X145789987Y-72215088D01*
X145936250Y-72383938D01*
X145940225Y-72387238D01*
X145940231Y-72387244D01*
X145945425Y-72391556D01*
X145985059Y-72450460D01*
X145986555Y-72521441D01*
X145949439Y-72581962D01*
X145909168Y-72606480D01*
X145801946Y-72646676D01*
X145786351Y-72655214D01*
X145684276Y-72731715D01*
X145671715Y-72744276D01*
X145595214Y-72846351D01*
X145586676Y-72861946D01*
X145541522Y-72982394D01*
X145537895Y-72997649D01*
X145532369Y-73048514D01*
X145532000Y-73055328D01*
X145532000Y-73677885D01*
X145536475Y-73693124D01*
X145537865Y-73694329D01*
X145545548Y-73696000D01*
X148229884Y-73696000D01*
X148245123Y-73691525D01*
X148246328Y-73690135D01*
X148247999Y-73682452D01*
X148247999Y-73055331D01*
X148247629Y-73048510D01*
X148242105Y-72997648D01*
X148238479Y-72982396D01*
X148193324Y-72861946D01*
X148184786Y-72846351D01*
X148108285Y-72744276D01*
X148095724Y-72731715D01*
X147993649Y-72655214D01*
X147978054Y-72646676D01*
X147867813Y-72605348D01*
X147811049Y-72562706D01*
X147786349Y-72496145D01*
X147801557Y-72426796D01*
X147823104Y-72398115D01*
X147924430Y-72297144D01*
X147924440Y-72297132D01*
X147928096Y-72293489D01*
X147963734Y-72243894D01*
X148055435Y-72116277D01*
X148058453Y-72112077D01*
X148127601Y-71972167D01*
X148155136Y-71916453D01*
X148155137Y-71916451D01*
X148157430Y-71911811D01*
X148222370Y-71698069D01*
X148251529Y-71476590D01*
X148253156Y-71410000D01*
X148234852Y-71187361D01*
X148180431Y-70970702D01*
X148091354Y-70765840D01*
X147993641Y-70614798D01*
X147972822Y-70582617D01*
X147972820Y-70582614D01*
X147970014Y-70578277D01*
X147819670Y-70413051D01*
X147815619Y-70409852D01*
X147815615Y-70409848D01*
X147648414Y-70277800D01*
X147648410Y-70277798D01*
X147644359Y-70274598D01*
X147603053Y-70251796D01*
X147553084Y-70201364D01*
X147538312Y-70131921D01*
X147563428Y-70065516D01*
X147590780Y-70038909D01*
X147638211Y-70005077D01*
X147769860Y-69911173D01*
X147777168Y-69903891D01*
X147924435Y-69757137D01*
X147928096Y-69753489D01*
X147960928Y-69707799D01*
X148055435Y-69576277D01*
X148058453Y-69572077D01*
X148081759Y-69524922D01*
X148155136Y-69376453D01*
X148155137Y-69376451D01*
X148157430Y-69371811D01*
X148222370Y-69158069D01*
X148251529Y-68936590D01*
X148253156Y-68870000D01*
X148234852Y-68647361D01*
X148180431Y-68430702D01*
X148091354Y-68225840D01*
X147970014Y-68038277D01*
X147819670Y-67873051D01*
X147815619Y-67869852D01*
X147815615Y-67869848D01*
X147648414Y-67737800D01*
X147648410Y-67737798D01*
X147644359Y-67734598D01*
X147601387Y-67710876D01*
X147592136Y-67705769D01*
X147448789Y-67626638D01*
X147443920Y-67624914D01*
X147443916Y-67624912D01*
X147243087Y-67553795D01*
X147243083Y-67553794D01*
X147238212Y-67552069D01*
X147233119Y-67551162D01*
X147233116Y-67551161D01*
X147023373Y-67513800D01*
X147023367Y-67513799D01*
X147018284Y-67512894D01*
X146944452Y-67511992D01*
X146800081Y-67510228D01*
X146800079Y-67510228D01*
X146794911Y-67510165D01*
X146574091Y-67543955D01*
X146361756Y-67613357D01*
X146336015Y-67626757D01*
X146177740Y-67709150D01*
X146163607Y-67716507D01*
X146159474Y-67719610D01*
X146159471Y-67719612D01*
X146022024Y-67822810D01*
X145984965Y-67850635D01*
X145830629Y-68012138D01*
X145827715Y-68016410D01*
X145827714Y-68016411D01*
X145747611Y-68133838D01*
X145704743Y-68196680D01*
X145610688Y-68399305D01*
X145550989Y-68614570D01*
X145527251Y-68836695D01*
X145527548Y-68841848D01*
X145527548Y-68841851D01*
X145536667Y-69000000D01*
X145540110Y-69059715D01*
X145541247Y-69064761D01*
X145541248Y-69064767D01*
X145542959Y-69072359D01*
X145589222Y-69277639D01*
X145673266Y-69484616D01*
X145724019Y-69567438D01*
X145769493Y-69641644D01*
X145789987Y-69675088D01*
X145936250Y-69843938D01*
X146108126Y-69986632D01*
X146139691Y-70005077D01*
X146181445Y-70029476D01*
X146230169Y-70081114D01*
X146243240Y-70150897D01*
X146216509Y-70216669D01*
X146176055Y-70250027D01*
X146163607Y-70256507D01*
X146159474Y-70259610D01*
X146159471Y-70259612D01*
X146029484Y-70357209D01*
X145984965Y-70390635D01*
X145830629Y-70552138D01*
X145704743Y-70736680D01*
X145671258Y-70808817D01*
X145613328Y-70933618D01*
X145610688Y-70939305D01*
X145550989Y-71154570D01*
X145527251Y-71376695D01*
X145053460Y-71376695D01*
X145044535Y-71263289D01*
X145032718Y-71214065D01*
X144990260Y-71037218D01*
X144989105Y-71032406D01*
X144961580Y-70965954D01*
X144900135Y-70817611D01*
X144900133Y-70817607D01*
X144898240Y-70813037D01*
X144869840Y-70766693D01*
X144776759Y-70614798D01*
X144776755Y-70614792D01*
X144774176Y-70610584D01*
X144619969Y-70430031D01*
X144604560Y-70416870D01*
X144565019Y-70383099D01*
X144439416Y-70275824D01*
X144435208Y-70273245D01*
X144435202Y-70273241D01*
X144241183Y-70154346D01*
X144236963Y-70151760D01*
X144232393Y-70149867D01*
X144232389Y-70149865D01*
X144022167Y-70062789D01*
X144022165Y-70062788D01*
X144017594Y-70060895D01*
X143926016Y-70038909D01*
X143791524Y-70006620D01*
X143791518Y-70006619D01*
X143786711Y-70005465D01*
X143550000Y-69986835D01*
X143313289Y-70005465D01*
X143308482Y-70006619D01*
X143308476Y-70006620D01*
X143173984Y-70038909D01*
X143082406Y-70060895D01*
X143077835Y-70062788D01*
X143077833Y-70062789D01*
X142867611Y-70149865D01*
X142867607Y-70149867D01*
X142863037Y-70151760D01*
X142858817Y-70154346D01*
X142664798Y-70273241D01*
X142664792Y-70273245D01*
X142660584Y-70275824D01*
X142534981Y-70383099D01*
X142495441Y-70416870D01*
X142480031Y-70430031D01*
X142325824Y-70610584D01*
X142323245Y-70614792D01*
X142323241Y-70614798D01*
X142230160Y-70766693D01*
X142201760Y-70813037D01*
X142199867Y-70817607D01*
X142199865Y-70817611D01*
X142138420Y-70965954D01*
X142110895Y-71032406D01*
X142109740Y-71037218D01*
X142067283Y-71214065D01*
X142055465Y-71263289D01*
X142036835Y-71500000D01*
X141566458Y-71500000D01*
X141564159Y-71495070D01*
X141521382Y-71403334D01*
X141521379Y-71403329D01*
X141519056Y-71398347D01*
X141515899Y-71393838D01*
X141395908Y-71222473D01*
X141395906Y-71222470D01*
X141392749Y-71217962D01*
X141237038Y-71062251D01*
X141201288Y-71037218D01*
X141157759Y-71006739D01*
X141056654Y-70935944D01*
X140857076Y-70842880D01*
X140644371Y-70785885D01*
X140425000Y-70766693D01*
X140205629Y-70785885D01*
X139992924Y-70842880D01*
X139899562Y-70886415D01*
X139798334Y-70933618D01*
X139798329Y-70933621D01*
X139793347Y-70935944D01*
X139788840Y-70939100D01*
X139788838Y-70939101D01*
X139617473Y-71059092D01*
X139617470Y-71059094D01*
X139612962Y-71062251D01*
X139457251Y-71217962D01*
X139454094Y-71222470D01*
X139454092Y-71222473D01*
X139334101Y-71393838D01*
X139330944Y-71398347D01*
X139328621Y-71403329D01*
X139328618Y-71403334D01*
X139285841Y-71495070D01*
X139237880Y-71597924D01*
X139180885Y-71810629D01*
X139161693Y-72030000D01*
X136838307Y-72030000D01*
X136819115Y-71810629D01*
X136762120Y-71597924D01*
X136714159Y-71495070D01*
X136671382Y-71403334D01*
X136671379Y-71403329D01*
X136669056Y-71398347D01*
X136665899Y-71393838D01*
X136545908Y-71222473D01*
X136545906Y-71222470D01*
X136542749Y-71217962D01*
X136387038Y-71062251D01*
X136351288Y-71037218D01*
X136307759Y-71006739D01*
X136206654Y-70935944D01*
X136007076Y-70842880D01*
X135794371Y-70785885D01*
X135575000Y-70766693D01*
X135355629Y-70785885D01*
X135142924Y-70842880D01*
X135049562Y-70886415D01*
X134948334Y-70933618D01*
X134948329Y-70933621D01*
X134943347Y-70935944D01*
X134938840Y-70939100D01*
X134938838Y-70939101D01*
X134767473Y-71059092D01*
X134767470Y-71059094D01*
X134762962Y-71062251D01*
X134607251Y-71217962D01*
X134604094Y-71222470D01*
X134604092Y-71222473D01*
X134484101Y-71393838D01*
X134480944Y-71398347D01*
X134478621Y-71403329D01*
X134478618Y-71403334D01*
X134435841Y-71495070D01*
X134387880Y-71597924D01*
X134330885Y-71810629D01*
X134311693Y-72030000D01*
X130319018Y-72030000D01*
X130347601Y-71972167D01*
X130375136Y-71916453D01*
X130375137Y-71916451D01*
X130377430Y-71911811D01*
X130442370Y-71698069D01*
X130471529Y-71476590D01*
X130473156Y-71410000D01*
X130454852Y-71187361D01*
X130400431Y-70970702D01*
X130311354Y-70765840D01*
X130213641Y-70614798D01*
X130192822Y-70582617D01*
X130192820Y-70582614D01*
X130190014Y-70578277D01*
X130039670Y-70413051D01*
X130035619Y-70409852D01*
X130035615Y-70409848D01*
X129868414Y-70277800D01*
X129868410Y-70277798D01*
X129864359Y-70274598D01*
X129823053Y-70251796D01*
X129773084Y-70201364D01*
X129758312Y-70131921D01*
X129783428Y-70065516D01*
X129810780Y-70038909D01*
X129858211Y-70005077D01*
X129989860Y-69911173D01*
X129997168Y-69903891D01*
X130144435Y-69757137D01*
X130148096Y-69753489D01*
X130180928Y-69707799D01*
X130275435Y-69576277D01*
X130278453Y-69572077D01*
X130301759Y-69524922D01*
X130375136Y-69376453D01*
X130375137Y-69376451D01*
X130377430Y-69371811D01*
X130442370Y-69158069D01*
X130471529Y-68936590D01*
X130473156Y-68870000D01*
X130454852Y-68647361D01*
X130400431Y-68430702D01*
X130311354Y-68225840D01*
X130190014Y-68038277D01*
X130039670Y-67873051D01*
X130035619Y-67869852D01*
X130035615Y-67869848D01*
X129868414Y-67737800D01*
X129868410Y-67737798D01*
X129864359Y-67734598D01*
X129821387Y-67710876D01*
X129812136Y-67705769D01*
X129668789Y-67626638D01*
X129663920Y-67624914D01*
X129663916Y-67624912D01*
X129463087Y-67553795D01*
X129463083Y-67553794D01*
X129458212Y-67552069D01*
X129453119Y-67551162D01*
X129453116Y-67551161D01*
X129243373Y-67513800D01*
X129243367Y-67513799D01*
X129238284Y-67512894D01*
X129164452Y-67511992D01*
X129020081Y-67510228D01*
X129020079Y-67510228D01*
X129014911Y-67510165D01*
X128794091Y-67543955D01*
X128581756Y-67613357D01*
X128556015Y-67626757D01*
X128397740Y-67709150D01*
X128383607Y-67716507D01*
X128379474Y-67719610D01*
X128379471Y-67719612D01*
X128242024Y-67822810D01*
X128204965Y-67850635D01*
X128050629Y-68012138D01*
X128047715Y-68016410D01*
X128047714Y-68016411D01*
X127967611Y-68133838D01*
X127924743Y-68196680D01*
X127830688Y-68399305D01*
X127770989Y-68614570D01*
X127747251Y-68836695D01*
X127747548Y-68841848D01*
X127747548Y-68841851D01*
X127756667Y-69000000D01*
X127760110Y-69059715D01*
X127761247Y-69064761D01*
X127761248Y-69064767D01*
X127762959Y-69072359D01*
X127809222Y-69277639D01*
X127893266Y-69484616D01*
X127944019Y-69567438D01*
X127989493Y-69641644D01*
X128009987Y-69675088D01*
X128156250Y-69843938D01*
X128328126Y-69986632D01*
X128359691Y-70005077D01*
X128401445Y-70029476D01*
X128450169Y-70081114D01*
X128463240Y-70150897D01*
X128436509Y-70216669D01*
X128396055Y-70250027D01*
X128383607Y-70256507D01*
X128379474Y-70259610D01*
X128379471Y-70259612D01*
X128249484Y-70357209D01*
X128204965Y-70390635D01*
X128050629Y-70552138D01*
X127924743Y-70736680D01*
X127891258Y-70808817D01*
X127833328Y-70933618D01*
X127830688Y-70939305D01*
X127770989Y-71154570D01*
X127747251Y-71376695D01*
X125966336Y-71376695D01*
X126002608Y-67132922D01*
X126023191Y-67064976D01*
X126077242Y-67018943D01*
X126128603Y-67008000D01*
X133915500Y-67008000D01*
X133983621Y-67028002D01*
G37*
G04 #@! TD.AperFunction*
G04 #@! TA.AperFunction,Conductor*
G36*
X140544034Y-105956039D02*
G01*
X140589096Y-105985000D01*
X141820854Y-107216758D01*
X141828398Y-107225048D01*
X141832511Y-107231529D01*
X141838288Y-107236954D01*
X141882178Y-107278169D01*
X141885020Y-107280924D01*
X141904741Y-107300645D01*
X141907936Y-107303123D01*
X141916958Y-107310829D01*
X141949190Y-107341097D01*
X141956139Y-107344917D01*
X141966943Y-107350857D01*
X141983467Y-107361710D01*
X141999470Y-107374124D01*
X142040054Y-107391687D01*
X142050684Y-107396894D01*
X142089451Y-107418206D01*
X142097128Y-107420177D01*
X142097133Y-107420179D01*
X142109069Y-107423243D01*
X142127777Y-107429648D01*
X142146366Y-107437692D01*
X142154194Y-107438932D01*
X142154201Y-107438934D01*
X142190035Y-107444610D01*
X142201655Y-107447016D01*
X142236800Y-107456039D01*
X142244481Y-107458011D01*
X142264735Y-107458011D01*
X142284445Y-107459562D01*
X142304454Y-107462731D01*
X142312346Y-107461985D01*
X142348472Y-107458570D01*
X142360330Y-107458011D01*
X144564522Y-107458011D01*
X144632643Y-107478013D01*
X144679136Y-107531669D01*
X144690522Y-107584011D01*
X144690522Y-108861383D01*
X144670520Y-108929504D01*
X144653617Y-108950479D01*
X144274499Y-109329596D01*
X144212187Y-109363621D01*
X144185404Y-109366500D01*
X140952787Y-109366500D01*
X140941604Y-109365973D01*
X140934111Y-109364298D01*
X140926185Y-109364547D01*
X140926184Y-109364547D01*
X140866034Y-109366438D01*
X140862075Y-109366500D01*
X140834164Y-109366500D01*
X140830230Y-109366997D01*
X140830229Y-109366997D01*
X140830164Y-109367005D01*
X140818327Y-109367938D01*
X140786510Y-109368938D01*
X140782049Y-109369078D01*
X140774130Y-109369327D01*
X140756774Y-109374369D01*
X140754678Y-109374978D01*
X140735326Y-109378986D01*
X140728255Y-109379880D01*
X140715223Y-109381526D01*
X140707854Y-109384443D01*
X140707852Y-109384444D01*
X140674117Y-109397800D01*
X140662889Y-109401645D01*
X140620427Y-109413982D01*
X140613605Y-109418016D01*
X140613599Y-109418019D01*
X140602988Y-109424294D01*
X140585238Y-109432990D01*
X140573776Y-109437528D01*
X140573771Y-109437531D01*
X140566403Y-109440448D01*
X140559990Y-109445107D01*
X140553044Y-109448926D01*
X140551375Y-109445891D01*
X140490954Y-109465520D01*
X140404513Y-109465520D01*
X140398060Y-109466892D01*
X140398047Y-109466893D01*
X140292992Y-109489224D01*
X140222202Y-109483823D01*
X140165569Y-109441006D01*
X140141075Y-109374369D01*
X140140795Y-109365978D01*
X140140795Y-106307300D01*
X140160797Y-106239179D01*
X140177700Y-106218204D01*
X140410906Y-105984999D01*
X140473218Y-105950974D01*
X140544034Y-105956039D01*
G37*
G04 #@! TD.AperFunction*
G04 #@! TA.AperFunction,Conductor*
G36*
X138267012Y-97712937D02*
G01*
X138304333Y-97769225D01*
X138340453Y-97880390D01*
X138435940Y-98045778D01*
X138440358Y-98050685D01*
X138440359Y-98050686D01*
X138544311Y-98166136D01*
X138563727Y-98187700D01*
X138718228Y-98299952D01*
X138724256Y-98302636D01*
X138724258Y-98302637D01*
X138879054Y-98371556D01*
X138892692Y-98377628D01*
X138986093Y-98397481D01*
X139073036Y-98415962D01*
X139073041Y-98415962D01*
X139079493Y-98417334D01*
X139135386Y-98417334D01*
X139203507Y-98437336D01*
X139224481Y-98454239D01*
X140386990Y-99616748D01*
X140394534Y-99625038D01*
X140398647Y-99631519D01*
X140404424Y-99636944D01*
X140448314Y-99678159D01*
X140451156Y-99680914D01*
X140470878Y-99700636D01*
X140474002Y-99703059D01*
X140474006Y-99703063D01*
X140474071Y-99703113D01*
X140483092Y-99710818D01*
X140515326Y-99741087D01*
X140522274Y-99744906D01*
X140522276Y-99744908D01*
X140533079Y-99750847D01*
X140549606Y-99761703D01*
X140559345Y-99769258D01*
X140559347Y-99769259D01*
X140565607Y-99774115D01*
X140606187Y-99791675D01*
X140616835Y-99796892D01*
X140655587Y-99818196D01*
X140663263Y-99820167D01*
X140663266Y-99820168D01*
X140675209Y-99823234D01*
X140693914Y-99829638D01*
X140712502Y-99837682D01*
X140720325Y-99838921D01*
X140720335Y-99838924D01*
X140756171Y-99844600D01*
X140767791Y-99847006D01*
X140802936Y-99856029D01*
X140810617Y-99858001D01*
X140830871Y-99858001D01*
X140850581Y-99859552D01*
X140870590Y-99862721D01*
X140878482Y-99861975D01*
X140914608Y-99858560D01*
X140926466Y-99858001D01*
X141959907Y-99858001D01*
X142028028Y-99878003D01*
X142049002Y-99894906D01*
X142075636Y-99921540D01*
X142109662Y-99983852D01*
X142109060Y-100040049D01*
X142058298Y-100251490D01*
X142055465Y-100263289D01*
X142036835Y-100500000D01*
X142055465Y-100736711D01*
X142056619Y-100741518D01*
X142056620Y-100741524D01*
X142069592Y-100795556D01*
X142110895Y-100967594D01*
X142112788Y-100972165D01*
X142112789Y-100972167D01*
X142192096Y-101163631D01*
X142201760Y-101186963D01*
X142204346Y-101191183D01*
X142323241Y-101385202D01*
X142323245Y-101385208D01*
X142325824Y-101389416D01*
X142480031Y-101569969D01*
X142483787Y-101573177D01*
X142642526Y-101708753D01*
X142676402Y-101754686D01*
X142685878Y-101776668D01*
X143820115Y-102910905D01*
X143854141Y-102973217D01*
X143849076Y-103044032D01*
X143820115Y-103089095D01*
X143639095Y-103270115D01*
X143576783Y-103304141D01*
X143505968Y-103299076D01*
X143460905Y-103270115D01*
X142329710Y-102138920D01*
X142317330Y-102132160D01*
X142309680Y-102137887D01*
X142204795Y-102309042D01*
X142200313Y-102317837D01*
X142113266Y-102527988D01*
X142110217Y-102537373D01*
X142057115Y-102758554D01*
X142055572Y-102768301D01*
X142037725Y-102995070D01*
X142037725Y-103004932D01*
X142040727Y-103043080D01*
X142026130Y-103112560D01*
X141976287Y-103163119D01*
X141907023Y-103178705D01*
X141895408Y-103177415D01*
X141883863Y-103175586D01*
X141875971Y-103176332D01*
X141839845Y-103179747D01*
X141827987Y-103180306D01*
X139764104Y-103180306D01*
X139695983Y-103160304D01*
X139675009Y-103143401D01*
X138659021Y-102127412D01*
X138624995Y-102065100D01*
X138622116Y-102038317D01*
X138622116Y-100690168D01*
X138642118Y-100622047D01*
X138654474Y-100605865D01*
X138727656Y-100524588D01*
X138823143Y-100359200D01*
X138882158Y-100177572D01*
X138902120Y-99987644D01*
X138892373Y-99894906D01*
X138882848Y-99804279D01*
X138882848Y-99804277D01*
X138882158Y-99797716D01*
X138823143Y-99616088D01*
X138817825Y-99606876D01*
X138777449Y-99536944D01*
X138727656Y-99450700D01*
X138715104Y-99436759D01*
X138604291Y-99313689D01*
X138604290Y-99313688D01*
X138599869Y-99308778D01*
X138445368Y-99196526D01*
X138439340Y-99193842D01*
X138439338Y-99193841D01*
X138276935Y-99121535D01*
X138276934Y-99121535D01*
X138270904Y-99118850D01*
X138084197Y-99079164D01*
X138021724Y-99045435D01*
X137987402Y-98983286D01*
X137992130Y-98912447D01*
X137997234Y-98901216D01*
X138000615Y-98896705D01*
X138003767Y-98888298D01*
X138003768Y-98888296D01*
X138047793Y-98770858D01*
X138051745Y-98760316D01*
X138058500Y-98698134D01*
X138058500Y-97808161D01*
X138078502Y-97740040D01*
X138132158Y-97693547D01*
X138202432Y-97683443D01*
X138267012Y-97712937D01*
G37*
G04 #@! TD.AperFunction*
G04 #@! TA.AperFunction,Conductor*
G36*
X144202824Y-96862164D02*
G01*
X144237736Y-96923984D01*
X144241011Y-96952524D01*
X144241011Y-98964865D01*
X144221009Y-99032986D01*
X144167353Y-99079479D01*
X144097079Y-99089583D01*
X144066795Y-99081274D01*
X144017594Y-99060895D01*
X143937391Y-99041640D01*
X143791524Y-99006620D01*
X143791518Y-99006619D01*
X143786711Y-99005465D01*
X143550000Y-98986835D01*
X143313289Y-99005465D01*
X143308482Y-99006619D01*
X143308476Y-99006620D01*
X143146802Y-99045435D01*
X143090049Y-99059060D01*
X143019142Y-99055513D01*
X142971541Y-99025636D01*
X142778153Y-98832248D01*
X142770613Y-98823962D01*
X142766501Y-98817483D01*
X142716849Y-98770857D01*
X142714008Y-98768103D01*
X142702206Y-98756301D01*
X142668180Y-98693989D01*
X142673245Y-98623174D01*
X142697663Y-98582898D01*
X142739040Y-98536944D01*
X142830245Y-98378973D01*
X142831223Y-98377279D01*
X142831224Y-98377278D01*
X142834527Y-98371556D01*
X142893542Y-98189928D01*
X142894293Y-98182789D01*
X142908598Y-98046676D01*
X142910907Y-98024706D01*
X142937920Y-97959050D01*
X142947122Y-97948782D01*
X143892247Y-97003657D01*
X143900537Y-96996113D01*
X143907018Y-96992000D01*
X143953659Y-96942332D01*
X143956413Y-96939491D01*
X143976134Y-96919770D01*
X143978612Y-96916575D01*
X143986318Y-96907553D01*
X144011161Y-96881098D01*
X144015100Y-96876903D01*
X144015103Y-96876901D01*
X144016586Y-96875321D01*
X144016841Y-96875560D01*
X144069295Y-96835110D01*
X144140032Y-96829033D01*
X144202824Y-96862164D01*
G37*
G04 #@! TD.AperFunction*
G04 #@! TA.AperFunction,Conductor*
G36*
X130677747Y-96404449D02*
G01*
X130686617Y-96406726D01*
X130695469Y-96408999D01*
X130715730Y-96408999D01*
X130735439Y-96410550D01*
X130755442Y-96413718D01*
X130763334Y-96412972D01*
X130768561Y-96412478D01*
X130799453Y-96409558D01*
X130811310Y-96408999D01*
X131585068Y-96408999D01*
X131653189Y-96429001D01*
X131699682Y-96482657D01*
X131709786Y-96552931D01*
X131680292Y-96617511D01*
X131649211Y-96643451D01*
X131640173Y-96648795D01*
X131622427Y-96657489D01*
X131603586Y-96664949D01*
X131597170Y-96669611D01*
X131597169Y-96669611D01*
X131567816Y-96690937D01*
X131557896Y-96697453D01*
X131526668Y-96715921D01*
X131526665Y-96715923D01*
X131519841Y-96719959D01*
X131505520Y-96734280D01*
X131490487Y-96747120D01*
X131474096Y-96759029D01*
X131469046Y-96765133D01*
X131469041Y-96765138D01*
X131445910Y-96793099D01*
X131437920Y-96801880D01*
X130557253Y-97682546D01*
X130548974Y-97690080D01*
X130542493Y-97694193D01*
X130499440Y-97740040D01*
X130495868Y-97743844D01*
X130493113Y-97746686D01*
X130473376Y-97766423D01*
X130470896Y-97769620D01*
X130463193Y-97778640D01*
X130432925Y-97810872D01*
X130429106Y-97817818D01*
X130429104Y-97817821D01*
X130423163Y-97828627D01*
X130412312Y-97845146D01*
X130399897Y-97861152D01*
X130396752Y-97868421D01*
X130396749Y-97868425D01*
X130382337Y-97901730D01*
X130377120Y-97912380D01*
X130355816Y-97951133D01*
X130353845Y-97958809D01*
X130350927Y-97966180D01*
X130349060Y-97965441D01*
X130318173Y-98017338D01*
X130254643Y-98049031D01*
X130188209Y-98042985D01*
X130087813Y-98005348D01*
X130031049Y-97962706D01*
X130006349Y-97896145D01*
X130021557Y-97826796D01*
X130043104Y-97798115D01*
X130144430Y-97697144D01*
X130144440Y-97697132D01*
X130148096Y-97693489D01*
X130151476Y-97688786D01*
X130275435Y-97516277D01*
X130278453Y-97512077D01*
X130285540Y-97497739D01*
X130375136Y-97316453D01*
X130375137Y-97316451D01*
X130377430Y-97311811D01*
X130430457Y-97137278D01*
X130440865Y-97103023D01*
X130440865Y-97103021D01*
X130442370Y-97098069D01*
X130471529Y-96876590D01*
X130471611Y-96873240D01*
X130473074Y-96813365D01*
X130473074Y-96813361D01*
X130473156Y-96810000D01*
X130454852Y-96587361D01*
X130453592Y-96582346D01*
X130453590Y-96582332D01*
X130449285Y-96565193D01*
X130452090Y-96494252D01*
X130492804Y-96436089D01*
X130558500Y-96409171D01*
X130571489Y-96408500D01*
X130595487Y-96408500D01*
X130602417Y-96407027D01*
X130620215Y-96403244D01*
X130677747Y-96404449D01*
G37*
G04 #@! TD.AperFunction*
G04 #@! TA.AperFunction,Conductor*
G36*
X144343823Y-92528502D02*
G01*
X144390316Y-92582158D01*
X144400420Y-92652432D01*
X144370926Y-92717012D01*
X144364797Y-92723595D01*
X144158233Y-92930159D01*
X144149953Y-92937694D01*
X144143473Y-92941807D01*
X144096848Y-92991458D01*
X144094093Y-92994300D01*
X144074356Y-93014037D01*
X144071876Y-93017234D01*
X144064173Y-93026254D01*
X144033905Y-93058486D01*
X144030086Y-93065432D01*
X144030084Y-93065435D01*
X144024143Y-93076241D01*
X144013292Y-93092760D01*
X144000877Y-93108766D01*
X143997732Y-93116035D01*
X143997729Y-93116039D01*
X143983317Y-93149344D01*
X143978100Y-93159994D01*
X143956796Y-93198747D01*
X143954825Y-93206422D01*
X143954825Y-93206423D01*
X143951758Y-93218369D01*
X143945354Y-93237073D01*
X143937310Y-93255662D01*
X143936071Y-93263485D01*
X143936068Y-93263495D01*
X143930392Y-93299331D01*
X143927986Y-93310951D01*
X143920908Y-93338522D01*
X143916991Y-93353777D01*
X143916991Y-93374031D01*
X143915440Y-93393741D01*
X143912271Y-93413750D01*
X143913017Y-93421642D01*
X143916432Y-93457768D01*
X143916991Y-93469626D01*
X143916991Y-93727428D01*
X143916464Y-93738611D01*
X143914789Y-93746104D01*
X143915038Y-93754030D01*
X143915038Y-93754031D01*
X143916929Y-93814181D01*
X143916991Y-93818140D01*
X143916991Y-93846051D01*
X143917488Y-93849985D01*
X143917488Y-93849986D01*
X143917496Y-93850051D01*
X143918429Y-93861888D01*
X143919818Y-93906084D01*
X143925469Y-93925534D01*
X143929478Y-93944895D01*
X143931022Y-93957121D01*
X143931023Y-93957126D01*
X143932017Y-93964992D01*
X143934937Y-93972366D01*
X143936531Y-93978575D01*
X143934098Y-94049530D01*
X143893690Y-94107906D01*
X143828137Y-94135169D01*
X143782448Y-94130454D01*
X143782288Y-94131206D01*
X143601944Y-94092872D01*
X143601939Y-94092872D01*
X143595487Y-94091500D01*
X143404513Y-94091500D01*
X143398061Y-94092872D01*
X143398056Y-94092872D01*
X143327329Y-94107906D01*
X143217712Y-94131206D01*
X143211682Y-94133891D01*
X143211681Y-94133891D01*
X143049278Y-94206197D01*
X143049276Y-94206198D01*
X143043248Y-94208882D01*
X143037907Y-94212762D01*
X143037906Y-94212763D01*
X143004967Y-94236695D01*
X142888747Y-94321134D01*
X142884326Y-94326044D01*
X142884325Y-94326045D01*
X142768622Y-94454547D01*
X142760960Y-94463056D01*
X142722113Y-94530341D01*
X142670730Y-94579334D01*
X142600394Y-94592543D01*
X142595487Y-94591500D01*
X142404513Y-94591500D01*
X142398061Y-94592872D01*
X142398056Y-94592872D01*
X142311113Y-94611353D01*
X142217712Y-94631206D01*
X142211682Y-94633891D01*
X142211681Y-94633891D01*
X142049278Y-94706197D01*
X142049276Y-94706198D01*
X142043248Y-94708882D01*
X142037907Y-94712762D01*
X142037906Y-94712763D01*
X142017960Y-94727255D01*
X141888747Y-94821134D01*
X141884326Y-94826044D01*
X141884325Y-94826045D01*
X141821300Y-94896042D01*
X141760960Y-94963056D01*
X141665473Y-95128444D01*
X141606458Y-95310072D01*
X141605769Y-95316631D01*
X141605768Y-95316634D01*
X141597432Y-95395949D01*
X141570419Y-95461605D01*
X141512197Y-95502235D01*
X141472122Y-95508778D01*
X140099901Y-95508778D01*
X140031780Y-95488776D01*
X140010806Y-95471873D01*
X139995650Y-95456717D01*
X139961624Y-95394405D01*
X139959435Y-95380792D01*
X139942760Y-95222135D01*
X139942760Y-95222133D01*
X139942070Y-95215572D01*
X139883055Y-95033944D01*
X139787568Y-94868556D01*
X139664877Y-94732293D01*
X139664203Y-94731545D01*
X139664202Y-94731544D01*
X139659781Y-94726634D01*
X139505280Y-94614382D01*
X139499252Y-94611698D01*
X139499250Y-94611697D01*
X139336847Y-94539391D01*
X139336846Y-94539391D01*
X139330816Y-94536706D01*
X139237416Y-94516853D01*
X139150472Y-94498372D01*
X139150467Y-94498372D01*
X139144015Y-94497000D01*
X138953041Y-94497000D01*
X138946589Y-94498372D01*
X138946584Y-94498372D01*
X138859640Y-94516853D01*
X138766240Y-94536706D01*
X138760210Y-94539391D01*
X138760209Y-94539391D01*
X138597806Y-94611697D01*
X138597804Y-94611698D01*
X138591776Y-94614382D01*
X138437275Y-94726634D01*
X138432854Y-94731544D01*
X138432853Y-94731545D01*
X138432180Y-94732293D01*
X138309488Y-94868556D01*
X138306187Y-94874274D01*
X138293619Y-94896042D01*
X138242237Y-94945035D01*
X138172523Y-94958471D01*
X138106612Y-94932085D01*
X138065430Y-94874253D01*
X138058500Y-94833042D01*
X138058500Y-93209010D01*
X138078502Y-93140889D01*
X138132158Y-93094396D01*
X138184500Y-93083010D01*
X138668912Y-93083010D01*
X138737033Y-93103012D01*
X138758007Y-93119915D01*
X139692118Y-94054026D01*
X139699662Y-94062316D01*
X139703775Y-94068797D01*
X139709552Y-94074222D01*
X139753442Y-94115437D01*
X139756284Y-94118192D01*
X139776005Y-94137913D01*
X139779200Y-94140391D01*
X139788222Y-94148097D01*
X139820454Y-94178365D01*
X139827403Y-94182185D01*
X139838207Y-94188125D01*
X139854731Y-94198978D01*
X139870734Y-94211392D01*
X139911318Y-94228955D01*
X139921948Y-94234162D01*
X139960715Y-94255474D01*
X139968392Y-94257445D01*
X139968397Y-94257447D01*
X139980333Y-94260511D01*
X139999041Y-94266916D01*
X140017630Y-94274960D01*
X140025458Y-94276200D01*
X140025465Y-94276202D01*
X140061299Y-94281878D01*
X140072919Y-94284284D01*
X140104734Y-94292452D01*
X140115745Y-94295279D01*
X140135999Y-94295279D01*
X140155709Y-94296830D01*
X140175718Y-94299999D01*
X140183610Y-94299253D01*
X140202451Y-94297472D01*
X140219737Y-94295838D01*
X140231594Y-94295279D01*
X140809454Y-94295279D01*
X140820637Y-94295806D01*
X140828130Y-94297481D01*
X140836056Y-94297232D01*
X140836057Y-94297232D01*
X140896207Y-94295341D01*
X140900166Y-94295279D01*
X140928077Y-94295279D01*
X140932012Y-94294782D01*
X140932077Y-94294774D01*
X140943914Y-94293841D01*
X140976172Y-94292827D01*
X140980191Y-94292701D01*
X140988110Y-94292452D01*
X141007564Y-94286800D01*
X141026921Y-94282792D01*
X141039151Y-94281247D01*
X141039152Y-94281247D01*
X141047018Y-94280253D01*
X141054389Y-94277334D01*
X141054391Y-94277334D01*
X141088133Y-94263975D01*
X141099363Y-94260130D01*
X141134204Y-94250008D01*
X141134205Y-94250008D01*
X141141814Y-94247797D01*
X141148633Y-94243764D01*
X141148638Y-94243762D01*
X141159249Y-94237486D01*
X141176997Y-94228791D01*
X141195838Y-94221331D01*
X141216208Y-94206532D01*
X141231608Y-94195343D01*
X141241528Y-94188827D01*
X141272756Y-94170359D01*
X141272759Y-94170357D01*
X141279583Y-94166321D01*
X141293904Y-94152000D01*
X141308938Y-94139159D01*
X141314430Y-94135169D01*
X141325328Y-94127251D01*
X141353519Y-94093174D01*
X141361509Y-94084395D01*
X142900500Y-92545405D01*
X142962812Y-92511379D01*
X142989595Y-92508500D01*
X144275702Y-92508500D01*
X144343823Y-92528502D01*
G37*
G04 #@! TD.AperFunction*
G04 #@! TA.AperFunction,Conductor*
G36*
X143099016Y-78678991D02*
G01*
X143119990Y-78695894D01*
X145539778Y-81115682D01*
X145573804Y-81177994D01*
X145572100Y-81238448D01*
X145550989Y-81314570D01*
X145550441Y-81319700D01*
X145550440Y-81319704D01*
X145546933Y-81352522D01*
X145527251Y-81536695D01*
X145527548Y-81541848D01*
X145527548Y-81541851D01*
X145533011Y-81636590D01*
X145540110Y-81759715D01*
X145541247Y-81764761D01*
X145541248Y-81764767D01*
X145552503Y-81814706D01*
X145589222Y-81977639D01*
X145673266Y-82184616D01*
X145789987Y-82375088D01*
X145936250Y-82543938D01*
X146108126Y-82686632D01*
X146178595Y-82727811D01*
X146181445Y-82729476D01*
X146230169Y-82781114D01*
X146243240Y-82850897D01*
X146216509Y-82916669D01*
X146176055Y-82950027D01*
X146163607Y-82956507D01*
X146159474Y-82959610D01*
X146159471Y-82959612D01*
X146135247Y-82977800D01*
X145984965Y-83090635D01*
X145830629Y-83252138D01*
X145827715Y-83256410D01*
X145827714Y-83256411D01*
X145715095Y-83421504D01*
X145660184Y-83466507D01*
X145611007Y-83476500D01*
X141188763Y-83476500D01*
X141177579Y-83475973D01*
X141170091Y-83474299D01*
X141162168Y-83474548D01*
X141102033Y-83476438D01*
X141098075Y-83476500D01*
X141070144Y-83476500D01*
X141066229Y-83476995D01*
X141066225Y-83476995D01*
X141066167Y-83477003D01*
X141066138Y-83477006D01*
X141054296Y-83477939D01*
X141010110Y-83479327D01*
X140992744Y-83484372D01*
X140990658Y-83484978D01*
X140971306Y-83488986D01*
X140959068Y-83490532D01*
X140959066Y-83490533D01*
X140951203Y-83491526D01*
X140910086Y-83507806D01*
X140898885Y-83511641D01*
X140856406Y-83523982D01*
X140849587Y-83528015D01*
X140849582Y-83528017D01*
X140838971Y-83534293D01*
X140821221Y-83542990D01*
X140802383Y-83550448D01*
X140795967Y-83555109D01*
X140795966Y-83555110D01*
X140766625Y-83576428D01*
X140756701Y-83582947D01*
X140725460Y-83601422D01*
X140725455Y-83601426D01*
X140718637Y-83605458D01*
X140704313Y-83619782D01*
X140689281Y-83632621D01*
X140672893Y-83644528D01*
X140655168Y-83665954D01*
X140644712Y-83678593D01*
X140636722Y-83687373D01*
X140519989Y-83804106D01*
X140457677Y-83838132D01*
X140430894Y-83841011D01*
X138184500Y-83841011D01*
X138116379Y-83821009D01*
X138069886Y-83767353D01*
X138058500Y-83715011D01*
X138058500Y-81601866D01*
X138051745Y-81539684D01*
X138000615Y-81403295D01*
X137994881Y-81395644D01*
X137942360Y-81325565D01*
X137917512Y-81259058D01*
X137932565Y-81189676D01*
X137942360Y-81174435D01*
X137995229Y-81103892D01*
X137995230Y-81103890D01*
X138000615Y-81096705D01*
X138051745Y-80960316D01*
X138058500Y-80898134D01*
X138058500Y-78784989D01*
X138078502Y-78716868D01*
X138132158Y-78670375D01*
X138184500Y-78658989D01*
X143030895Y-78658989D01*
X143099016Y-78678991D01*
G37*
G04 #@! TD.AperFunction*
M02*
