G04 #@! TF.GenerationSoftware,KiCad,Pcbnew,(6.0.1)*
G04 #@! TF.CreationDate,2022-01-27T16:12:39+01:00*
G04 #@! TF.ProjectId,mico,6d69636f-2e6b-4696-9361-645f70636258,rev?*
G04 #@! TF.SameCoordinates,Original*
G04 #@! TF.FileFunction,Copper,L2,Bot*
G04 #@! TF.FilePolarity,Positive*
%FSLAX46Y46*%
G04 Gerber Fmt 4.6, Leading zero omitted, Abs format (unit mm)*
G04 Created by KiCad (PCBNEW (6.0.1)) date 2022-01-27 16:12:39*
%MOMM*%
%LPD*%
G01*
G04 APERTURE LIST*
G04 Aperture macros list*
%AMRoundRect*
0 Rectangle with rounded corners*
0 $1 Rounding radius*
0 $2 $3 $4 $5 $6 $7 $8 $9 X,Y pos of 4 corners*
0 Add a 4 corners polygon primitive as box body*
4,1,4,$2,$3,$4,$5,$6,$7,$8,$9,$2,$3,0*
0 Add four circle primitives for the rounded corners*
1,1,$1+$1,$2,$3*
1,1,$1+$1,$4,$5*
1,1,$1+$1,$6,$7*
1,1,$1+$1,$8,$9*
0 Add four rect primitives between the rounded corners*
20,1,$1+$1,$2,$3,$4,$5,0*
20,1,$1+$1,$4,$5,$6,$7,0*
20,1,$1+$1,$6,$7,$8,$9,0*
20,1,$1+$1,$8,$9,$2,$3,0*%
G04 Aperture macros list end*
G04 #@! TA.AperFunction,ComponentPad*
%ADD10R,2.000000X2.000000*%
G04 #@! TD*
G04 #@! TA.AperFunction,ComponentPad*
%ADD11C,2.000000*%
G04 #@! TD*
G04 #@! TA.AperFunction,ComponentPad*
%ADD12R,3.000000X2.500000*%
G04 #@! TD*
G04 #@! TA.AperFunction,SMDPad,CuDef*
%ADD13RoundRect,0.225000X-0.225000X-0.250000X0.225000X-0.250000X0.225000X0.250000X-0.225000X0.250000X0*%
G04 #@! TD*
G04 #@! TA.AperFunction,SMDPad,CuDef*
%ADD14RoundRect,0.200000X-0.200000X-0.275000X0.200000X-0.275000X0.200000X0.275000X-0.200000X0.275000X0*%
G04 #@! TD*
G04 #@! TA.AperFunction,SMDPad,CuDef*
%ADD15R,3.500000X1.700000*%
G04 #@! TD*
G04 #@! TA.AperFunction,ComponentPad*
%ADD16O,1.700000X1.700000*%
G04 #@! TD*
G04 #@! TA.AperFunction,ComponentPad*
%ADD17R,1.700000X1.700000*%
G04 #@! TD*
G04 #@! TA.AperFunction,SMDPad,CuDef*
%ADD18R,1.700000X3.500000*%
G04 #@! TD*
G04 #@! TA.AperFunction,ViaPad*
%ADD19C,0.800000*%
G04 #@! TD*
G04 #@! TA.AperFunction,Conductor*
%ADD20C,0.250000*%
G04 #@! TD*
G04 APERTURE END LIST*
D10*
X143550000Y-76500000D03*
D11*
X143550000Y-71500000D03*
X143550000Y-74000000D03*
D12*
X136050000Y-68400000D03*
X136050000Y-79600000D03*
D10*
X143550000Y-91000000D03*
D11*
X143550000Y-86000000D03*
X143550000Y-88500000D03*
D12*
X136050000Y-82900000D03*
X136050000Y-94100000D03*
D10*
X143550000Y-120000000D03*
D11*
X143550000Y-115000000D03*
X143550000Y-117500000D03*
D12*
X136050000Y-111900000D03*
X136050000Y-123100000D03*
D10*
X143550000Y-105500000D03*
D11*
X143550000Y-100500000D03*
X143550000Y-103000000D03*
D12*
X136050000Y-97400000D03*
X136050000Y-108600000D03*
D13*
X139395000Y-108850000D03*
X140945000Y-108850000D03*
X131725000Y-87030000D03*
X133275000Y-87030000D03*
X131725000Y-82010000D03*
X133275000Y-82010000D03*
D14*
X131505000Y-105670000D03*
X133155000Y-105670000D03*
X131675000Y-79500000D03*
X133325000Y-79500000D03*
D13*
X131555000Y-95140000D03*
X133105000Y-95140000D03*
D14*
X139175000Y-96480000D03*
X140825000Y-96480000D03*
D13*
X139225000Y-88990000D03*
X140775000Y-88990000D03*
D14*
X139175000Y-98990000D03*
X140825000Y-98990000D03*
X131505000Y-97650000D03*
X133155000Y-97650000D03*
D13*
X139395000Y-103830000D03*
X140945000Y-103830000D03*
D14*
X139175000Y-111480000D03*
X140825000Y-111480000D03*
X131675000Y-84520000D03*
X133325000Y-84520000D03*
X139345000Y-101320000D03*
X140995000Y-101320000D03*
X139175000Y-113990000D03*
X140825000Y-113990000D03*
X139345000Y-106340000D03*
X140995000Y-106340000D03*
D13*
X139225000Y-94010000D03*
X140775000Y-94010000D03*
D15*
X147790000Y-68870000D03*
D16*
X146890000Y-68870000D03*
X146890000Y-71410000D03*
D15*
X147790000Y-71410000D03*
D17*
X146890000Y-73950000D03*
D15*
X147790000Y-73950000D03*
D16*
X146890000Y-76490000D03*
D15*
X147790000Y-76490000D03*
X147790000Y-79030000D03*
D16*
X146890000Y-79030000D03*
X146890000Y-81570000D03*
D15*
X147790000Y-81570000D03*
X147790000Y-84110000D03*
D16*
X146890000Y-84110000D03*
D17*
X146890000Y-86650000D03*
D15*
X147790000Y-86650000D03*
X147790000Y-89190000D03*
D16*
X146890000Y-89190000D03*
D15*
X147790000Y-91730000D03*
D16*
X146890000Y-91730000D03*
D15*
X147790000Y-94270000D03*
D16*
X146890000Y-94270000D03*
D15*
X147790000Y-96810000D03*
D16*
X146890000Y-96810000D03*
D17*
X146890000Y-99350000D03*
D15*
X147790000Y-99350000D03*
D16*
X146890000Y-101890000D03*
D15*
X147790000Y-101890000D03*
D16*
X146890000Y-104430000D03*
D15*
X147790000Y-104430000D03*
D16*
X146890000Y-106970000D03*
D15*
X147790000Y-106970000D03*
D16*
X146890000Y-109510000D03*
D15*
X147790000Y-109510000D03*
D17*
X146890000Y-112050000D03*
D15*
X147790000Y-112050000D03*
X147790000Y-114590000D03*
D16*
X146890000Y-114590000D03*
X146890000Y-117130000D03*
D15*
X147790000Y-117130000D03*
X128210000Y-117130000D03*
D16*
X129110000Y-117130000D03*
D15*
X128210000Y-114590000D03*
D16*
X129110000Y-114590000D03*
D17*
X129110000Y-112050000D03*
D15*
X128210000Y-112050000D03*
D16*
X129110000Y-109510000D03*
D15*
X128210000Y-109510000D03*
D16*
X129110000Y-106970000D03*
D15*
X128210000Y-106970000D03*
X128210000Y-104430000D03*
D16*
X129110000Y-104430000D03*
D15*
X128210000Y-101890000D03*
D16*
X129110000Y-101890000D03*
D15*
X128210000Y-99350000D03*
D17*
X129110000Y-99350000D03*
D15*
X128210000Y-96810000D03*
D16*
X129110000Y-96810000D03*
X129110000Y-94270000D03*
D15*
X128210000Y-94270000D03*
X128210000Y-91730000D03*
D16*
X129110000Y-91730000D03*
X129110000Y-89190000D03*
D15*
X128210000Y-89190000D03*
X128210000Y-86650000D03*
D17*
X129110000Y-86650000D03*
D15*
X128210000Y-84110000D03*
D16*
X129110000Y-84110000D03*
X129110000Y-81570000D03*
D15*
X128210000Y-81570000D03*
D16*
X129110000Y-79030000D03*
D15*
X128210000Y-79030000D03*
X128210000Y-76490000D03*
D16*
X129110000Y-76490000D03*
D15*
X128210000Y-73950000D03*
D17*
X129110000Y-73950000D03*
D16*
X129110000Y-71410000D03*
D15*
X128210000Y-71410000D03*
D16*
X129110000Y-68870000D03*
D15*
X128210000Y-68870000D03*
D18*
X140540000Y-117800000D03*
D16*
X140540000Y-116900000D03*
D17*
X138000000Y-116900000D03*
D18*
X138000000Y-117800000D03*
D16*
X135460000Y-116900000D03*
D18*
X135460000Y-117800000D03*
D14*
X131505000Y-77170000D03*
X133155000Y-77170000D03*
X131505000Y-74660000D03*
X133155000Y-74660000D03*
X139175000Y-91500000D03*
X140825000Y-91500000D03*
D13*
X131555000Y-100160000D03*
X133105000Y-100160000D03*
D14*
X139175000Y-86480000D03*
X140825000Y-86480000D03*
X131505000Y-103160000D03*
X133155000Y-103160000D03*
X131505000Y-92630000D03*
X133155000Y-92630000D03*
D19*
X134000000Y-77000000D03*
X144500000Y-122500000D03*
X144000000Y-69000000D03*
X140071848Y-102500000D03*
X138000000Y-74500000D03*
X145000000Y-83000000D03*
X144000000Y-98000000D03*
X131500000Y-115500000D03*
X135500000Y-85000000D03*
X134500000Y-100657030D03*
X132000000Y-69000000D03*
X135500000Y-104500000D03*
X131500000Y-112000000D03*
X132000000Y-96500000D03*
X140485422Y-95417777D03*
X144000000Y-68000000D03*
X143500000Y-108500000D03*
X131500000Y-80935500D03*
X132000000Y-88500000D03*
X139507295Y-112543479D03*
X140500000Y-105000000D03*
X140500000Y-110374020D03*
X142000000Y-98000000D03*
X143500000Y-95000000D03*
X138291597Y-89708403D03*
X141000000Y-90425500D03*
X142500000Y-95500000D03*
X139048528Y-95405500D03*
X140495874Y-92937278D03*
X137000000Y-88000000D03*
X135000000Y-88775500D03*
X131224500Y-94017388D03*
X130500000Y-95500000D03*
X131000000Y-91500000D03*
X131500000Y-99000000D03*
X134000000Y-89775500D03*
X133500000Y-76000000D03*
X144000000Y-112000000D03*
X134000000Y-114500000D03*
X137000000Y-102000000D03*
X138500000Y-107500000D03*
X137988616Y-99987644D03*
X139174980Y-97508834D03*
X132949001Y-98774414D03*
X134500008Y-91499992D03*
X132050426Y-90700475D03*
X131500000Y-101500000D03*
D20*
X133155000Y-77170000D02*
X132399520Y-77925480D01*
X132399520Y-77925480D02*
X132399520Y-80308072D01*
X131956004Y-82010000D02*
X131725000Y-82010000D01*
X132728627Y-81237377D02*
X131956004Y-82010000D01*
X132399520Y-80308072D02*
X132728627Y-80637179D01*
X134000000Y-77000000D02*
X133325000Y-77000000D01*
X132728627Y-80637179D02*
X132728627Y-81237377D01*
X133325000Y-77000000D02*
X133155000Y-77170000D01*
X145715489Y-115334511D02*
X145715489Y-113224511D01*
X133470000Y-87030000D02*
X133275000Y-87030000D01*
X141265000Y-88500000D02*
X143550000Y-88500000D01*
X143550000Y-88500000D02*
X145040000Y-88500000D01*
X140775000Y-95128199D02*
X140485422Y-95417777D01*
X140945000Y-103830000D02*
X140071848Y-102956848D01*
X133602030Y-100657030D02*
X133105000Y-100160000D01*
X140775000Y-88990000D02*
X141265000Y-88500000D01*
X143550000Y-117500000D02*
X145715489Y-115334511D01*
X146840000Y-74000000D02*
X146890000Y-73950000D01*
X140071848Y-102956848D02*
X140071848Y-102500000D01*
X146890000Y-99660000D02*
X146890000Y-99350000D01*
X135500000Y-85000000D02*
X134750978Y-85000000D01*
X135500000Y-85000000D02*
X133470000Y-87030000D01*
X141295000Y-108500000D02*
X140945000Y-108850000D01*
X134500000Y-100657030D02*
X133602030Y-100657030D01*
X143550000Y-103000000D02*
X146890000Y-99660000D01*
X134750978Y-85000000D02*
X134225489Y-84474511D01*
X143550000Y-74000000D02*
X146840000Y-74000000D01*
X143500000Y-108500000D02*
X141295000Y-108500000D01*
X134225489Y-84474511D02*
X134225489Y-82960489D01*
X134225489Y-82960489D02*
X133275000Y-82010000D01*
X145715489Y-113224511D02*
X146890000Y-112050000D01*
X145040000Y-88500000D02*
X146890000Y-86650000D01*
X140775000Y-94010000D02*
X140775000Y-95128199D01*
X131500000Y-79675000D02*
X131675000Y-79500000D01*
X131725000Y-88225000D02*
X132000000Y-88500000D01*
X131725000Y-87030000D02*
X131725000Y-88225000D01*
X131500000Y-80935500D02*
X131500000Y-79675000D01*
X140500000Y-105000000D02*
X140500000Y-104935000D01*
X140500000Y-104935000D02*
X139395000Y-103830000D01*
X140825000Y-113990000D02*
X140825000Y-113861184D01*
X140825000Y-113861184D02*
X139507295Y-112543479D01*
X139395000Y-108850000D02*
X139720970Y-109175970D01*
X140306189Y-110180209D02*
X140500000Y-110374020D01*
X139720970Y-109175970D02*
X139720970Y-109513812D01*
X139720970Y-109513812D02*
X140306189Y-110099031D01*
X138620480Y-104398697D02*
X138620480Y-102044520D01*
X140069520Y-105847737D02*
X138620480Y-104398697D01*
X140069520Y-107837638D02*
X140069520Y-105847737D01*
X138620480Y-102044520D02*
X139345000Y-101320000D01*
X139395000Y-108850000D02*
X139395000Y-108512158D01*
X139395000Y-108512158D02*
X140069520Y-107837638D01*
X140306189Y-110099031D02*
X140306189Y-110180209D01*
X141549520Y-90975020D02*
X141000000Y-90425500D01*
X143500000Y-95000000D02*
X143500000Y-93599022D01*
X141549520Y-91648542D02*
X141549520Y-90975020D01*
X144170978Y-94270000D02*
X143450489Y-93549511D01*
X138506597Y-89708403D02*
X138291597Y-89708403D01*
X139225000Y-88990000D02*
X138506597Y-89708403D01*
X146890000Y-94270000D02*
X144170978Y-94270000D01*
X141010000Y-98990000D02*
X142000000Y-98000000D01*
X140825000Y-98990000D02*
X141010000Y-98990000D01*
X143450489Y-93549511D02*
X141549520Y-91648542D01*
X143500000Y-93599022D02*
X143450489Y-93549511D01*
X140495874Y-92937278D02*
X140297722Y-92937278D01*
X146890000Y-96810000D02*
X143810000Y-96810000D01*
X143810000Y-96810000D02*
X142500000Y-95500000D01*
X138520000Y-86480000D02*
X137000000Y-88000000D01*
X139048528Y-94186472D02*
X139225000Y-94010000D01*
X140297722Y-92937278D02*
X139225000Y-94010000D01*
X139048528Y-95405500D02*
X139048528Y-94186472D01*
X139175000Y-86480000D02*
X138520000Y-86480000D01*
X130284511Y-105666294D02*
X130284511Y-96740089D01*
X135000000Y-88380000D02*
X135000000Y-88775500D01*
X132229520Y-106162263D02*
X131891783Y-106500000D01*
X133155000Y-105670000D02*
X132229520Y-105670000D01*
X131891783Y-106500000D02*
X131118217Y-106500000D01*
X146890000Y-76490000D02*
X135000000Y-88380000D01*
X131555000Y-95469600D02*
X131555000Y-95140000D01*
X130284511Y-96740089D02*
X131555000Y-95469600D01*
X131118217Y-106500000D02*
X130284511Y-105666294D01*
X131224500Y-94809500D02*
X131224500Y-94017388D01*
X132229520Y-105670000D02*
X132229520Y-106162263D01*
X131555000Y-95140000D02*
X131224500Y-94809500D01*
X139899520Y-86972263D02*
X137096283Y-89775500D01*
X131555000Y-100160000D02*
X131555000Y-99055000D01*
X131555000Y-99055000D02*
X131500000Y-99000000D01*
X137096283Y-89775500D02*
X134000000Y-89775500D01*
X131000000Y-92125000D02*
X131505000Y-92630000D01*
X131000000Y-91500000D02*
X131000000Y-92500000D01*
X146890000Y-79030000D02*
X139899520Y-86020480D01*
X131000000Y-91500000D02*
X130500000Y-92000000D01*
X139899520Y-86020480D02*
X139899520Y-86972263D01*
X130500000Y-92000000D02*
X130500000Y-95500000D01*
X131000000Y-91500000D02*
X131000000Y-92125000D01*
X130775499Y-80635401D02*
X130775499Y-83620499D01*
X131505000Y-77170000D02*
X131505000Y-78453217D01*
X130775499Y-83620499D02*
X131675000Y-84520000D01*
X133500000Y-76000000D02*
X132675000Y-76000000D01*
X132675000Y-76000000D02*
X131505000Y-77170000D01*
X131505000Y-78453217D02*
X130950480Y-79007737D01*
X130950480Y-80460420D02*
X130775499Y-80635401D01*
X130950480Y-79007737D02*
X130950480Y-80460420D01*
X130780480Y-77359520D02*
X130780480Y-76219520D01*
X133775978Y-114275978D02*
X134000000Y-114500000D01*
X132500480Y-87507618D02*
X133275499Y-88282637D01*
X133155000Y-97650000D02*
X134225489Y-98720489D01*
X140170480Y-109327618D02*
X140170480Y-108372382D01*
X133155000Y-103160000D02*
X134000000Y-104005000D01*
X134225489Y-98974511D02*
X135500000Y-100249022D01*
X140825000Y-91559726D02*
X140825000Y-91500000D01*
X135500000Y-100815000D02*
X133155000Y-103160000D01*
X133775978Y-106839296D02*
X133775978Y-114275978D01*
X141504600Y-96480000D02*
X140825000Y-96480000D01*
X135500000Y-100249022D02*
X135500000Y-100815000D01*
X142225489Y-105109511D02*
X142225489Y-99299111D01*
X135224511Y-91199897D02*
X135224511Y-91800103D01*
X130325988Y-80245988D02*
X130325988Y-84387771D01*
X134049520Y-92371198D02*
X134049520Y-96755480D01*
X133275499Y-90500000D02*
X134524614Y-90500000D01*
X144000000Y-112000000D02*
X141345000Y-112000000D01*
X133325000Y-84520000D02*
X132500480Y-85344520D01*
X129110000Y-79030000D02*
X130325988Y-80245988D01*
X141549520Y-95755480D02*
X141549520Y-92284246D01*
X140170480Y-108372382D02*
X140995000Y-107547862D01*
X141345000Y-112000000D02*
X140825000Y-111480000D01*
X131595480Y-76219520D02*
X133155000Y-74660000D01*
X134000000Y-106615274D02*
X133775978Y-106839296D01*
X130325988Y-84387771D02*
X131257737Y-85319520D01*
X130780480Y-76219520D02*
X131595480Y-76219520D01*
X134000000Y-104005000D02*
X134000000Y-106615274D01*
X129110000Y-79030000D02*
X130780480Y-77359520D01*
X142225489Y-99299111D02*
X142724501Y-98800099D01*
X142724501Y-98800099D02*
X142724501Y-97699901D01*
X134225489Y-98720489D02*
X134225489Y-98974511D01*
X134653416Y-92371198D02*
X134049520Y-92371198D01*
X141549520Y-92284246D02*
X140825000Y-91559726D01*
X134524614Y-90500000D02*
X135224511Y-91199897D01*
X132500480Y-85344520D02*
X132500480Y-87507618D01*
X140492382Y-109649520D02*
X140170480Y-109327618D01*
X133275499Y-88282637D02*
X133275499Y-90500000D01*
X140995000Y-107547862D02*
X140995000Y-106340000D01*
X140825000Y-111480000D02*
X141397618Y-110907382D01*
X141397618Y-110907382D02*
X141397618Y-109649520D01*
X134049520Y-96755480D02*
X133155000Y-97650000D01*
X135224511Y-91800103D02*
X134653416Y-92371198D01*
X140825000Y-96480000D02*
X141549520Y-95755480D01*
X140995000Y-106340000D02*
X142225489Y-105109511D01*
X142724501Y-97699901D02*
X141504600Y-96480000D01*
X141397618Y-109649520D02*
X140492382Y-109649520D01*
X132525480Y-85319520D02*
X133325000Y-84520000D01*
X131257737Y-85319520D02*
X132525480Y-85319520D01*
X141895479Y-73154521D02*
X134654521Y-73154521D01*
X133010479Y-73154521D02*
X131505000Y-74660000D01*
X134654521Y-73154521D02*
X133010479Y-73154521D01*
X134724501Y-73224501D02*
X134654521Y-73154521D01*
X133325000Y-78699600D02*
X134724501Y-77300099D01*
X133325000Y-79500000D02*
X133325000Y-78699600D01*
X134724501Y-77300099D02*
X134724501Y-73224501D01*
X143550000Y-71500000D02*
X141895479Y-73154521D01*
X142225489Y-116236467D02*
X140778542Y-114789520D01*
X137874511Y-110174511D02*
X134225489Y-110174511D01*
X139175000Y-113990000D02*
X137874511Y-112689511D01*
X134910978Y-106340000D02*
X139345000Y-106340000D01*
X140778542Y-114789520D02*
X139974520Y-114789520D01*
X143550000Y-120000000D02*
X142225489Y-118675489D01*
X134225489Y-107025489D02*
X134910978Y-106340000D01*
X134225489Y-110174511D02*
X134225489Y-107025489D01*
X139974520Y-114789520D02*
X139175000Y-113990000D01*
X142225489Y-118675489D02*
X142225489Y-116236467D01*
X137874511Y-112689511D02*
X137874511Y-110174511D01*
X143550000Y-115000000D02*
X143128217Y-115000000D01*
X143128217Y-115000000D02*
X139608217Y-111480000D01*
X138479520Y-100520480D02*
X140195480Y-100520480D01*
X138500000Y-110805000D02*
X138500000Y-107500000D01*
X137000000Y-102000000D02*
X138479520Y-100520480D01*
X139608217Y-111480000D02*
X139175000Y-111480000D01*
X140195480Y-100520480D02*
X140995000Y-101320000D01*
X139175000Y-111480000D02*
X138500000Y-110805000D01*
X138000970Y-92674030D02*
X138000970Y-94744226D01*
X137874511Y-94870685D02*
X137874511Y-95940315D01*
X138177356Y-99987644D02*
X137988616Y-99987644D01*
X137874511Y-95940315D02*
X138000970Y-96066774D01*
X138000970Y-97815970D02*
X139175000Y-98990000D01*
X138000970Y-96066774D02*
X138000970Y-97815970D01*
X139175000Y-91500000D02*
X138000970Y-92674030D01*
X139175000Y-98990000D02*
X138177356Y-99987644D01*
X138000970Y-94744226D02*
X137874511Y-94870685D01*
X138450480Y-93532382D02*
X140000480Y-91982382D01*
X138324022Y-95056878D02*
X138450481Y-94930419D01*
X140825000Y-86682487D02*
X140825000Y-86480000D01*
X139049900Y-96480000D02*
X138324022Y-95754122D01*
X138324022Y-95754122D02*
X138324022Y-95056878D01*
X140000480Y-91982382D02*
X140000480Y-87507007D01*
X140000480Y-87507007D02*
X140825000Y-86682487D01*
X139174980Y-96480020D02*
X139174980Y-97508834D01*
X139175000Y-96480000D02*
X139174980Y-96480020D01*
X138450481Y-94930419D02*
X138450480Y-93532382D01*
X139175000Y-96480000D02*
X139049900Y-96480000D01*
X131505000Y-97650000D02*
X132629414Y-98774414D01*
X132330480Y-99392935D02*
X132949001Y-98774414D01*
X132629414Y-98774414D02*
X132949001Y-98774414D01*
X131505000Y-105670000D02*
X132330480Y-104844520D01*
X132330480Y-104844520D02*
X132330480Y-99392935D01*
X131505000Y-103160000D02*
X131505000Y-101505000D01*
X132050426Y-91525426D02*
X132050426Y-90700475D01*
X133155000Y-92630000D02*
X132050426Y-91525426D01*
X134285008Y-91499992D02*
X134500008Y-91499992D01*
X133155000Y-92630000D02*
X134285008Y-91499992D01*
X131505000Y-101505000D02*
X131500000Y-101500000D01*
G04 #@! TA.AperFunction,Conductor*
G36*
X143497700Y-97365477D02*
G01*
X143506077Y-97368753D01*
X143525537Y-97377174D01*
X143536187Y-97382391D01*
X143574940Y-97403695D01*
X143582615Y-97405666D01*
X143582616Y-97405666D01*
X143594562Y-97408733D01*
X143613267Y-97415137D01*
X143631855Y-97423181D01*
X143639678Y-97424420D01*
X143639688Y-97424423D01*
X143675524Y-97430099D01*
X143687144Y-97432505D01*
X143722289Y-97441528D01*
X143729970Y-97443500D01*
X143750224Y-97443500D01*
X143769934Y-97445051D01*
X143789943Y-97448220D01*
X143797835Y-97447474D01*
X143833961Y-97444059D01*
X143845819Y-97443500D01*
X145405500Y-97443500D01*
X145473621Y-97463502D01*
X145520114Y-97517158D01*
X145531500Y-97569500D01*
X145531500Y-97708134D01*
X145538255Y-97770316D01*
X145589385Y-97906705D01*
X145594771Y-97913891D01*
X145662942Y-98004852D01*
X145687790Y-98071358D01*
X145672737Y-98140741D01*
X145662942Y-98155982D01*
X145595214Y-98246351D01*
X145586676Y-98261946D01*
X145541522Y-98382394D01*
X145537895Y-98397649D01*
X145532369Y-98448514D01*
X145532000Y-98455328D01*
X145532000Y-99077885D01*
X145536475Y-99093124D01*
X145537865Y-99094329D01*
X145545548Y-99096000D01*
X148162000Y-99096000D01*
X148230121Y-99116002D01*
X148276614Y-99169658D01*
X148288000Y-99222000D01*
X148288000Y-99478000D01*
X148267998Y-99546121D01*
X148214342Y-99592614D01*
X148162000Y-99604000D01*
X145550116Y-99604000D01*
X145534877Y-99608475D01*
X145533672Y-99609865D01*
X145532001Y-99617548D01*
X145532001Y-100244669D01*
X145532371Y-100251490D01*
X145537895Y-100302352D01*
X145541521Y-100317604D01*
X145586676Y-100438054D01*
X145595214Y-100453649D01*
X145662942Y-100544018D01*
X145687790Y-100610525D01*
X145672737Y-100679907D01*
X145662942Y-100695148D01*
X145589385Y-100793295D01*
X145538255Y-100929684D01*
X145531500Y-100991866D01*
X145531500Y-101810219D01*
X145530787Y-101823607D01*
X145527251Y-101856695D01*
X145527548Y-101861848D01*
X145527548Y-101861851D01*
X145531291Y-101926763D01*
X145531500Y-101934016D01*
X145531500Y-102788134D01*
X145538255Y-102850316D01*
X145589385Y-102986705D01*
X145662630Y-103084435D01*
X145687478Y-103150941D01*
X145672425Y-103220324D01*
X145662632Y-103235562D01*
X145589385Y-103333295D01*
X145538255Y-103469684D01*
X145531500Y-103531866D01*
X145531500Y-104350219D01*
X145530787Y-104363607D01*
X145527251Y-104396695D01*
X145527548Y-104401848D01*
X145527548Y-104401851D01*
X145531291Y-104466763D01*
X145531500Y-104474016D01*
X145531500Y-105328134D01*
X145538255Y-105390316D01*
X145589385Y-105526705D01*
X145662630Y-105624435D01*
X145687478Y-105690941D01*
X145672425Y-105760324D01*
X145662632Y-105775562D01*
X145589385Y-105873295D01*
X145538255Y-106009684D01*
X145531500Y-106071866D01*
X145531500Y-106890219D01*
X145530787Y-106903607D01*
X145527251Y-106936695D01*
X145527548Y-106941848D01*
X145527548Y-106941851D01*
X145531291Y-107006763D01*
X145531500Y-107014016D01*
X145531500Y-107868134D01*
X145538255Y-107930316D01*
X145589385Y-108066705D01*
X145594771Y-108073891D01*
X145662630Y-108164435D01*
X145687478Y-108230941D01*
X145672425Y-108300324D01*
X145662632Y-108315562D01*
X145589385Y-108413295D01*
X145538255Y-108549684D01*
X145531500Y-108611866D01*
X145531500Y-109430219D01*
X145530787Y-109443607D01*
X145527251Y-109476695D01*
X145527548Y-109481848D01*
X145527548Y-109481851D01*
X145531291Y-109546763D01*
X145531500Y-109554016D01*
X145531500Y-110408134D01*
X145538255Y-110470316D01*
X145589385Y-110606705D01*
X145594771Y-110613891D01*
X145662942Y-110704852D01*
X145687790Y-110771358D01*
X145672737Y-110840741D01*
X145662942Y-110855982D01*
X145595214Y-110946351D01*
X145586676Y-110961946D01*
X145541522Y-111082394D01*
X145537895Y-111097649D01*
X145532369Y-111148514D01*
X145532000Y-111155328D01*
X145532000Y-111777885D01*
X145536475Y-111793124D01*
X145537865Y-111794329D01*
X145545548Y-111796000D01*
X148162000Y-111796000D01*
X148230121Y-111816002D01*
X148276614Y-111869658D01*
X148288000Y-111922000D01*
X148288000Y-112178000D01*
X148267998Y-112246121D01*
X148214342Y-112292614D01*
X148162000Y-112304000D01*
X145550116Y-112304000D01*
X145534877Y-112308475D01*
X145533672Y-112309865D01*
X145532001Y-112317548D01*
X145532001Y-112944669D01*
X145532371Y-112951490D01*
X145537895Y-113002352D01*
X145541521Y-113017604D01*
X145586676Y-113138054D01*
X145595214Y-113153649D01*
X145662942Y-113244018D01*
X145687790Y-113310525D01*
X145672737Y-113379907D01*
X145662942Y-113395148D01*
X145639578Y-113426323D01*
X145589385Y-113493295D01*
X145538255Y-113629684D01*
X145531500Y-113691866D01*
X145531500Y-114510219D01*
X145530787Y-114523607D01*
X145527251Y-114556695D01*
X145527548Y-114561848D01*
X145527548Y-114561851D01*
X145531291Y-114626763D01*
X145531500Y-114634016D01*
X145531500Y-115488134D01*
X145538255Y-115550316D01*
X145589385Y-115686705D01*
X145594771Y-115693891D01*
X145662630Y-115784435D01*
X145687478Y-115850941D01*
X145672425Y-115920324D01*
X145662632Y-115935562D01*
X145589385Y-116033295D01*
X145538255Y-116169684D01*
X145531500Y-116231866D01*
X145531500Y-117050219D01*
X145530787Y-117063607D01*
X145527251Y-117096695D01*
X145527548Y-117101848D01*
X145527548Y-117101851D01*
X145531291Y-117166763D01*
X145531500Y-117174016D01*
X145531500Y-118028134D01*
X145538255Y-118090316D01*
X145589385Y-118226705D01*
X145676739Y-118343261D01*
X145793295Y-118430615D01*
X145929684Y-118481745D01*
X145991866Y-118488500D01*
X146860826Y-118488500D01*
X146865443Y-118488585D01*
X146946673Y-118491564D01*
X146946677Y-118491564D01*
X146951837Y-118491753D01*
X146956957Y-118491097D01*
X146956959Y-118491097D01*
X146969261Y-118489521D01*
X146985271Y-118488500D01*
X149366000Y-118488500D01*
X149434121Y-118508502D01*
X149480614Y-118562158D01*
X149492000Y-118614500D01*
X149492000Y-124366000D01*
X149471998Y-124434121D01*
X149418342Y-124480614D01*
X149366000Y-124492000D01*
X138184500Y-124492000D01*
X138116379Y-124471998D01*
X138069886Y-124418342D01*
X138058500Y-124366000D01*
X138058500Y-121801866D01*
X138051745Y-121739684D01*
X138000615Y-121603295D01*
X137913261Y-121486739D01*
X137796705Y-121399385D01*
X137660316Y-121348255D01*
X137598134Y-121341500D01*
X134501866Y-121341500D01*
X134439684Y-121348255D01*
X134303295Y-121399385D01*
X134186739Y-121486739D01*
X134099385Y-121603295D01*
X134048255Y-121739684D01*
X134041500Y-121801866D01*
X134041500Y-124366000D01*
X134021498Y-124434121D01*
X133967842Y-124480614D01*
X133915500Y-124492000D01*
X125639441Y-124492000D01*
X125571320Y-124471998D01*
X125524827Y-124418342D01*
X125513446Y-124364923D01*
X125538747Y-121404771D01*
X125699505Y-102596064D01*
X125720088Y-102528117D01*
X125774139Y-102482084D01*
X125844497Y-102472581D01*
X125908823Y-102502625D01*
X125946695Y-102562677D01*
X125951500Y-102597141D01*
X125951500Y-102788134D01*
X125958255Y-102850316D01*
X126009385Y-102986705D01*
X126082630Y-103084435D01*
X126107478Y-103150941D01*
X126092425Y-103220324D01*
X126082632Y-103235562D01*
X126009385Y-103333295D01*
X125958255Y-103469684D01*
X125951500Y-103531866D01*
X125951500Y-105328134D01*
X125958255Y-105390316D01*
X126009385Y-105526705D01*
X126082630Y-105624435D01*
X126107478Y-105690941D01*
X126092425Y-105760324D01*
X126082632Y-105775562D01*
X126009385Y-105873295D01*
X125958255Y-106009684D01*
X125951500Y-106071866D01*
X125951500Y-107868134D01*
X125958255Y-107930316D01*
X126009385Y-108066705D01*
X126014771Y-108073891D01*
X126082630Y-108164435D01*
X126107478Y-108230941D01*
X126092425Y-108300324D01*
X126082632Y-108315562D01*
X126009385Y-108413295D01*
X125958255Y-108549684D01*
X125951500Y-108611866D01*
X125951500Y-110408134D01*
X125958255Y-110470316D01*
X126009385Y-110606705D01*
X126014771Y-110613891D01*
X126082630Y-110704435D01*
X126107478Y-110770941D01*
X126092425Y-110840324D01*
X126082632Y-110855562D01*
X126009385Y-110953295D01*
X125958255Y-111089684D01*
X125951500Y-111151866D01*
X125951500Y-112948134D01*
X125958255Y-113010316D01*
X126009385Y-113146705D01*
X126077998Y-113238255D01*
X126082630Y-113244435D01*
X126107478Y-113310941D01*
X126092425Y-113380324D01*
X126082632Y-113395562D01*
X126009385Y-113493295D01*
X125958255Y-113629684D01*
X125951500Y-113691866D01*
X125951500Y-115488134D01*
X125958255Y-115550316D01*
X126009385Y-115686705D01*
X126014771Y-115693891D01*
X126082630Y-115784435D01*
X126107478Y-115850941D01*
X126092425Y-115920324D01*
X126082632Y-115935562D01*
X126009385Y-116033295D01*
X125958255Y-116169684D01*
X125951500Y-116231866D01*
X125951500Y-118028134D01*
X125958255Y-118090316D01*
X126009385Y-118226705D01*
X126096739Y-118343261D01*
X126213295Y-118430615D01*
X126349684Y-118481745D01*
X126411866Y-118488500D01*
X129080826Y-118488500D01*
X129085443Y-118488585D01*
X129166673Y-118491564D01*
X129166677Y-118491564D01*
X129171837Y-118491753D01*
X129176957Y-118491097D01*
X129176959Y-118491097D01*
X129189261Y-118489521D01*
X129205271Y-118488500D01*
X130008134Y-118488500D01*
X130070316Y-118481745D01*
X130206705Y-118430615D01*
X130323261Y-118343261D01*
X130410615Y-118226705D01*
X130461745Y-118090316D01*
X130468500Y-118028134D01*
X130468500Y-117227856D01*
X130469578Y-117211409D01*
X130471092Y-117199908D01*
X130471529Y-117196590D01*
X130473156Y-117130000D01*
X130468924Y-117078524D01*
X130468500Y-117068200D01*
X130468500Y-116866695D01*
X134097251Y-116866695D01*
X134097548Y-116871848D01*
X134097548Y-116871851D01*
X134101291Y-116936763D01*
X134101500Y-116944016D01*
X134101500Y-119598134D01*
X134108255Y-119660316D01*
X134159385Y-119796705D01*
X134246739Y-119913261D01*
X134363295Y-120000615D01*
X134499684Y-120051745D01*
X134561866Y-120058500D01*
X136358134Y-120058500D01*
X136420316Y-120051745D01*
X136556705Y-120000615D01*
X136654851Y-119927058D01*
X136721358Y-119902210D01*
X136790741Y-119917263D01*
X136805982Y-119927058D01*
X136896351Y-119994786D01*
X136911946Y-120003324D01*
X137032394Y-120048478D01*
X137047649Y-120052105D01*
X137098514Y-120057631D01*
X137105328Y-120058000D01*
X137727885Y-120058000D01*
X137743124Y-120053525D01*
X137744329Y-120052135D01*
X137746000Y-120044452D01*
X137746000Y-115560116D01*
X137741525Y-115544877D01*
X137740135Y-115543672D01*
X137732452Y-115542001D01*
X137105331Y-115542001D01*
X137098510Y-115542371D01*
X137047648Y-115547895D01*
X137032396Y-115551521D01*
X136911946Y-115596676D01*
X136896351Y-115605214D01*
X136805982Y-115672942D01*
X136739475Y-115697790D01*
X136670093Y-115682737D01*
X136654852Y-115672942D01*
X136623677Y-115649578D01*
X136556705Y-115599385D01*
X136420316Y-115548255D01*
X136358134Y-115541500D01*
X135474985Y-115541500D01*
X135473446Y-115541491D01*
X135370081Y-115540228D01*
X135370079Y-115540228D01*
X135364911Y-115540165D01*
X135359797Y-115540948D01*
X135356289Y-115541193D01*
X135347496Y-115541500D01*
X134561866Y-115541500D01*
X134499684Y-115548255D01*
X134492283Y-115551030D01*
X134492277Y-115551031D01*
X134490398Y-115551735D01*
X134488833Y-115551849D01*
X134484600Y-115552856D01*
X134484437Y-115552171D01*
X134419591Y-115556915D01*
X134405791Y-115549408D01*
X134404318Y-115556027D01*
X134362228Y-115597962D01*
X134363295Y-115599385D01*
X134246739Y-115686739D01*
X134159385Y-115803295D01*
X134108255Y-115939684D01*
X134101500Y-116001866D01*
X134101500Y-116820219D01*
X134100787Y-116833607D01*
X134097251Y-116866695D01*
X130468500Y-116866695D01*
X130468500Y-116231866D01*
X130461745Y-116169684D01*
X130410615Y-116033295D01*
X130337370Y-115935564D01*
X130312522Y-115869059D01*
X130327575Y-115799676D01*
X130337370Y-115784435D01*
X130405229Y-115693891D01*
X130410615Y-115686705D01*
X130461745Y-115550316D01*
X130468500Y-115488134D01*
X130468500Y-114687856D01*
X130469578Y-114671409D01*
X130471092Y-114659908D01*
X130471529Y-114656590D01*
X130473156Y-114590000D01*
X130468924Y-114538524D01*
X130468500Y-114528200D01*
X130468500Y-113691866D01*
X130461745Y-113629684D01*
X130410615Y-113493295D01*
X130337370Y-113395564D01*
X130312522Y-113329059D01*
X130327575Y-113259676D01*
X130337370Y-113244435D01*
X130342002Y-113238255D01*
X130410615Y-113146705D01*
X130461745Y-113010316D01*
X130468500Y-112948134D01*
X130468500Y-111151866D01*
X130461745Y-111089684D01*
X130410615Y-110953295D01*
X130337370Y-110855564D01*
X130312522Y-110789059D01*
X130327575Y-110719676D01*
X130337370Y-110704435D01*
X130405229Y-110613891D01*
X130410615Y-110606705D01*
X130461745Y-110470316D01*
X130468500Y-110408134D01*
X130468500Y-109607856D01*
X130469578Y-109591409D01*
X130471092Y-109579908D01*
X130471529Y-109576590D01*
X130473156Y-109510000D01*
X130468924Y-109458524D01*
X130468500Y-109448200D01*
X130468500Y-108611866D01*
X130461745Y-108549684D01*
X130410615Y-108413295D01*
X130337370Y-108315564D01*
X130312522Y-108249059D01*
X130327575Y-108179676D01*
X130337370Y-108164435D01*
X130405229Y-108073891D01*
X130410615Y-108066705D01*
X130461745Y-107930316D01*
X130468500Y-107868134D01*
X130468500Y-107067856D01*
X130469578Y-107051409D01*
X130471529Y-107036590D01*
X130473099Y-107036797D01*
X130496085Y-106976271D01*
X130553173Y-106934063D01*
X130624018Y-106929420D01*
X130685597Y-106963284D01*
X130698447Y-106976134D01*
X130701642Y-106978612D01*
X130710664Y-106986318D01*
X130742896Y-107016586D01*
X130749845Y-107020406D01*
X130760649Y-107026346D01*
X130777173Y-107037199D01*
X130793176Y-107049613D01*
X130833760Y-107067176D01*
X130844390Y-107072383D01*
X130883157Y-107093695D01*
X130890834Y-107095666D01*
X130890839Y-107095668D01*
X130902775Y-107098732D01*
X130921483Y-107105137D01*
X130940072Y-107113181D01*
X130947897Y-107114420D01*
X130947899Y-107114421D01*
X130983736Y-107120097D01*
X130995357Y-107122504D01*
X131027176Y-107130673D01*
X131038187Y-107133500D01*
X131058448Y-107133500D01*
X131078157Y-107135051D01*
X131098160Y-107138219D01*
X131106052Y-107137473D01*
X131111279Y-107136979D01*
X131142171Y-107134059D01*
X131154028Y-107133500D01*
X131813016Y-107133500D01*
X131824199Y-107134027D01*
X131831692Y-107135702D01*
X131839618Y-107135453D01*
X131839619Y-107135453D01*
X131899769Y-107133562D01*
X131903728Y-107133500D01*
X131931639Y-107133500D01*
X131935574Y-107133003D01*
X131935639Y-107132995D01*
X131947476Y-107132062D01*
X131979734Y-107131048D01*
X131983753Y-107130922D01*
X131991672Y-107130673D01*
X132011126Y-107125021D01*
X132030483Y-107121013D01*
X132042713Y-107119468D01*
X132042714Y-107119468D01*
X132050580Y-107118474D01*
X132057951Y-107115555D01*
X132057953Y-107115555D01*
X132091695Y-107102196D01*
X132102925Y-107098351D01*
X132137766Y-107088229D01*
X132137767Y-107088229D01*
X132145376Y-107086018D01*
X132152195Y-107081985D01*
X132152200Y-107081983D01*
X132162811Y-107075707D01*
X132180559Y-107067012D01*
X132199400Y-107059552D01*
X132219770Y-107044753D01*
X132235170Y-107033564D01*
X132245090Y-107027048D01*
X132276318Y-107008580D01*
X132276321Y-107008578D01*
X132283145Y-107004542D01*
X132297466Y-106990221D01*
X132312500Y-106977380D01*
X132328890Y-106965472D01*
X132357081Y-106931395D01*
X132365071Y-106922616D01*
X132621767Y-106665920D01*
X132630054Y-106658378D01*
X132636538Y-106654263D01*
X132641385Y-106649102D01*
X132706274Y-106621240D01*
X132759035Y-106626100D01*
X132818555Y-106644753D01*
X132818558Y-106644754D01*
X132824938Y-106646753D01*
X132898365Y-106653500D01*
X133016478Y-106653500D01*
X133084599Y-106673502D01*
X133131092Y-106727158D01*
X133142478Y-106779500D01*
X133142478Y-106779520D01*
X133140927Y-106799230D01*
X133137758Y-106819239D01*
X133138504Y-106827131D01*
X133141919Y-106863257D01*
X133142478Y-106875115D01*
X133142478Y-114179258D01*
X133136311Y-114218195D01*
X133106458Y-114310072D01*
X133105768Y-114316635D01*
X133105767Y-114316642D01*
X133097525Y-114395062D01*
X133086496Y-114500000D01*
X133087186Y-114506565D01*
X133104512Y-114671409D01*
X133106458Y-114689928D01*
X133165473Y-114871556D01*
X133260960Y-115036944D01*
X133388747Y-115178866D01*
X133543248Y-115291118D01*
X133549276Y-115293802D01*
X133549278Y-115293803D01*
X133609558Y-115320641D01*
X133717712Y-115368794D01*
X133811112Y-115388647D01*
X133898056Y-115407128D01*
X133898061Y-115407128D01*
X133904513Y-115408500D01*
X134095487Y-115408500D01*
X134101939Y-115407128D01*
X134101944Y-115407128D01*
X134267822Y-115371869D01*
X134337539Y-115377189D01*
X134370503Y-115333005D01*
X134394927Y-115318644D01*
X134414511Y-115309925D01*
X134456752Y-115291118D01*
X134611253Y-115178866D01*
X134739040Y-115036944D01*
X134834527Y-114871556D01*
X134893542Y-114689928D01*
X134895489Y-114671409D01*
X134912814Y-114506565D01*
X134913504Y-114500000D01*
X134894454Y-114318751D01*
X134894232Y-114316635D01*
X134894232Y-114316633D01*
X134893542Y-114310072D01*
X134834527Y-114128444D01*
X134826649Y-114114798D01*
X134777456Y-114029594D01*
X134739040Y-113963056D01*
X134654181Y-113868810D01*
X134623463Y-113804803D01*
X134632228Y-113734349D01*
X134677691Y-113679818D01*
X134747817Y-113658500D01*
X137598134Y-113658500D01*
X137660316Y-113651745D01*
X137788391Y-113603732D01*
X137859198Y-113598549D01*
X137921715Y-113632619D01*
X138229595Y-113940499D01*
X138263621Y-114002811D01*
X138266500Y-114029594D01*
X138266501Y-114321634D01*
X138273247Y-114395062D01*
X138275246Y-114401440D01*
X138275246Y-114401441D01*
X138318206Y-114538524D01*
X138324528Y-114558699D01*
X138413361Y-114705381D01*
X138534619Y-114826639D01*
X138681301Y-114915472D01*
X138688548Y-114917743D01*
X138688550Y-114917744D01*
X138754836Y-114938517D01*
X138844938Y-114966753D01*
X138918365Y-114973500D01*
X138936473Y-114973500D01*
X139210405Y-114973499D01*
X139278524Y-114993501D01*
X139299500Y-115010404D01*
X139470873Y-115181778D01*
X139478407Y-115190057D01*
X139482520Y-115196538D01*
X139520046Y-115231777D01*
X139532171Y-115243163D01*
X139535013Y-115245918D01*
X139554750Y-115265655D01*
X139557947Y-115268135D01*
X139566967Y-115275838D01*
X139599199Y-115306106D01*
X139606144Y-115309924D01*
X139606145Y-115309925D01*
X139615744Y-115315202D01*
X139665801Y-115365548D01*
X139680694Y-115434965D01*
X139655692Y-115501414D01*
X139598734Y-115543798D01*
X139586420Y-115547523D01*
X139579684Y-115548255D01*
X139572289Y-115551027D01*
X139572286Y-115551028D01*
X139457978Y-115593880D01*
X139443295Y-115599385D01*
X139376323Y-115649578D01*
X139345148Y-115672942D01*
X139278642Y-115697790D01*
X139209259Y-115682737D01*
X139194018Y-115672942D01*
X139103649Y-115605214D01*
X139088054Y-115596676D01*
X138967606Y-115551522D01*
X138952351Y-115547895D01*
X138901486Y-115542369D01*
X138894672Y-115542000D01*
X138272115Y-115542000D01*
X138256876Y-115546475D01*
X138255671Y-115547865D01*
X138254000Y-115555548D01*
X138254000Y-120039884D01*
X138258475Y-120055123D01*
X138259865Y-120056328D01*
X138267548Y-120057999D01*
X138894669Y-120057999D01*
X138901490Y-120057629D01*
X138952352Y-120052105D01*
X138967604Y-120048479D01*
X139088054Y-120003324D01*
X139103649Y-119994786D01*
X139194018Y-119927058D01*
X139260525Y-119902210D01*
X139329907Y-119917263D01*
X139345148Y-119927058D01*
X139443295Y-120000615D01*
X139579684Y-120051745D01*
X139641866Y-120058500D01*
X141438134Y-120058500D01*
X141500316Y-120051745D01*
X141636705Y-120000615D01*
X141753261Y-119913261D01*
X141814674Y-119831318D01*
X141871533Y-119788803D01*
X141942352Y-119783777D01*
X142004645Y-119817837D01*
X142038635Y-119880168D01*
X142041500Y-119906883D01*
X142041500Y-121048134D01*
X142048255Y-121110316D01*
X142099385Y-121246705D01*
X142186739Y-121363261D01*
X142303295Y-121450615D01*
X142439684Y-121501745D01*
X142501866Y-121508500D01*
X144598134Y-121508500D01*
X144660316Y-121501745D01*
X144796705Y-121450615D01*
X144913261Y-121363261D01*
X145000615Y-121246705D01*
X145051745Y-121110316D01*
X145058500Y-121048134D01*
X145058500Y-118951866D01*
X145051745Y-118889684D01*
X145000615Y-118753295D01*
X144913261Y-118636739D01*
X144805497Y-118555974D01*
X144762982Y-118499115D01*
X144757956Y-118428296D01*
X144775176Y-118389983D01*
X144773770Y-118389121D01*
X144895205Y-118190958D01*
X144899687Y-118182163D01*
X144986734Y-117972012D01*
X144989783Y-117962627D01*
X145042885Y-117741446D01*
X145044428Y-117731699D01*
X145062275Y-117504930D01*
X145062275Y-117495070D01*
X145044428Y-117268301D01*
X145042885Y-117258554D01*
X144989783Y-117037373D01*
X144986734Y-117027988D01*
X144899687Y-116817837D01*
X144895205Y-116809042D01*
X144792568Y-116641555D01*
X144782110Y-116632093D01*
X144773334Y-116635876D01*
X143639095Y-117770115D01*
X143576783Y-117804141D01*
X143505968Y-117799076D01*
X143460905Y-117770115D01*
X143279885Y-117589095D01*
X143245859Y-117526783D01*
X143250924Y-117455968D01*
X143279885Y-117410905D01*
X144411080Y-116279710D01*
X144432026Y-116241352D01*
X144460782Y-116205928D01*
X144616213Y-116073177D01*
X144619969Y-116069969D01*
X144774176Y-115889416D01*
X144776755Y-115885208D01*
X144776759Y-115885202D01*
X144895654Y-115691183D01*
X144898240Y-115686963D01*
X144932102Y-115605214D01*
X144987211Y-115472167D01*
X144987212Y-115472165D01*
X144989105Y-115467594D01*
X145010809Y-115377189D01*
X145043380Y-115241524D01*
X145043381Y-115241518D01*
X145044535Y-115236711D01*
X145063165Y-115000000D01*
X145044535Y-114763289D01*
X145031924Y-114710757D01*
X144990260Y-114537218D01*
X144989105Y-114532406D01*
X144979915Y-114510219D01*
X144900135Y-114317611D01*
X144900133Y-114317607D01*
X144898240Y-114313037D01*
X144892573Y-114303789D01*
X144776759Y-114114798D01*
X144776755Y-114114792D01*
X144774176Y-114110584D01*
X144619969Y-113930031D01*
X144439416Y-113775824D01*
X144435208Y-113773245D01*
X144435202Y-113773241D01*
X144241183Y-113654346D01*
X144236963Y-113651760D01*
X144232393Y-113649867D01*
X144232389Y-113649865D01*
X144022167Y-113562789D01*
X144022165Y-113562788D01*
X144017594Y-113560895D01*
X143937391Y-113541640D01*
X143791524Y-113506620D01*
X143791518Y-113506619D01*
X143786711Y-113505465D01*
X143550000Y-113486835D01*
X143313289Y-113505465D01*
X143308482Y-113506619D01*
X143308476Y-113506620D01*
X143162609Y-113541640D01*
X143082406Y-113560895D01*
X143077835Y-113562788D01*
X143077833Y-113562789D01*
X142867611Y-113649865D01*
X142867607Y-113649867D01*
X142863037Y-113651760D01*
X142858823Y-113654342D01*
X142858804Y-113654352D01*
X142831683Y-113670972D01*
X142763150Y-113689510D01*
X142695473Y-113668053D01*
X142676760Y-113652639D01*
X141872715Y-112848593D01*
X141838691Y-112786283D01*
X141843756Y-112715467D01*
X141886303Y-112658632D01*
X141952823Y-112633821D01*
X141961812Y-112633500D01*
X143291800Y-112633500D01*
X143359921Y-112653502D01*
X143379147Y-112669843D01*
X143379420Y-112669540D01*
X143384332Y-112673963D01*
X143388747Y-112678866D01*
X143543248Y-112791118D01*
X143549276Y-112793802D01*
X143549278Y-112793803D01*
X143672344Y-112848595D01*
X143717712Y-112868794D01*
X143811113Y-112888647D01*
X143898056Y-112907128D01*
X143898061Y-112907128D01*
X143904513Y-112908500D01*
X144095487Y-112908500D01*
X144101939Y-112907128D01*
X144101944Y-112907128D01*
X144188887Y-112888647D01*
X144282288Y-112868794D01*
X144327656Y-112848595D01*
X144450722Y-112793803D01*
X144450724Y-112793802D01*
X144456752Y-112791118D01*
X144611253Y-112678866D01*
X144739040Y-112536944D01*
X144834527Y-112371556D01*
X144893542Y-112189928D01*
X144913504Y-112000000D01*
X144893542Y-111810072D01*
X144834527Y-111628444D01*
X144739040Y-111463056D01*
X144611253Y-111321134D01*
X144456752Y-111208882D01*
X144450724Y-111206198D01*
X144450722Y-111206197D01*
X144288319Y-111133891D01*
X144288318Y-111133891D01*
X144282288Y-111131206D01*
X144188888Y-111111353D01*
X144101944Y-111092872D01*
X144101939Y-111092872D01*
X144095487Y-111091500D01*
X143904513Y-111091500D01*
X143898061Y-111092872D01*
X143898056Y-111092872D01*
X143811112Y-111111353D01*
X143717712Y-111131206D01*
X143711682Y-111133891D01*
X143711681Y-111133891D01*
X143549278Y-111206197D01*
X143549276Y-111206198D01*
X143543248Y-111208882D01*
X143537907Y-111212762D01*
X143537906Y-111212763D01*
X143427687Y-111292842D01*
X143388747Y-111321134D01*
X143384332Y-111326037D01*
X143379420Y-111330460D01*
X143378295Y-111329211D01*
X143324986Y-111362051D01*
X143291800Y-111366500D01*
X142081191Y-111366500D01*
X142013070Y-111346498D01*
X141966577Y-111292842D01*
X141956473Y-111222568D01*
X141970775Y-111179801D01*
X141984229Y-111155328D01*
X141991313Y-111142442D01*
X141993284Y-111134765D01*
X141993286Y-111134760D01*
X141996350Y-111122824D01*
X142002756Y-111104112D01*
X142007651Y-111092801D01*
X142010799Y-111085527D01*
X142012039Y-111077699D01*
X142012041Y-111077692D01*
X142017717Y-111041858D01*
X142020123Y-111030238D01*
X142029146Y-110995093D01*
X142029146Y-110995092D01*
X142031118Y-110987412D01*
X142031118Y-110967158D01*
X142032669Y-110947447D01*
X142034598Y-110935268D01*
X142035838Y-110927439D01*
X142031677Y-110883420D01*
X142031118Y-110871563D01*
X142031118Y-109721313D01*
X142033350Y-109697704D01*
X142033408Y-109697401D01*
X142033408Y-109697397D01*
X142034893Y-109689614D01*
X142031367Y-109633569D01*
X142031118Y-109625658D01*
X142031118Y-109609664D01*
X142029112Y-109593790D01*
X142028369Y-109585922D01*
X142025341Y-109537783D01*
X142025341Y-109537782D01*
X142024843Y-109529870D01*
X142022297Y-109522033D01*
X142017124Y-109498889D01*
X142017086Y-109498585D01*
X142017085Y-109498580D01*
X142016092Y-109490723D01*
X142013176Y-109483358D01*
X142013175Y-109483354D01*
X141995419Y-109438509D01*
X141992747Y-109431090D01*
X141975382Y-109377645D01*
X141971132Y-109370948D01*
X141970968Y-109370689D01*
X141960203Y-109349562D01*
X141960089Y-109349274D01*
X141960086Y-109349269D01*
X141957170Y-109341903D01*
X141952513Y-109335493D01*
X141952510Y-109335488D01*
X141924164Y-109296474D01*
X141919710Y-109289920D01*
X141916274Y-109284505D01*
X141896665Y-109216270D01*
X141897319Y-109204155D01*
X141902672Y-109151904D01*
X141903000Y-109145487D01*
X141903000Y-109122115D01*
X141898525Y-109106876D01*
X141897135Y-109105671D01*
X141889452Y-109104000D01*
X141754352Y-109104000D01*
X141700702Y-109092007D01*
X141688940Y-109086472D01*
X141681910Y-109082891D01*
X141632678Y-109055825D01*
X141625003Y-109053855D01*
X141624997Y-109053852D01*
X141624699Y-109053776D01*
X141602390Y-109045744D01*
X141602115Y-109045614D01*
X141602107Y-109045611D01*
X141594936Y-109042237D01*
X141539769Y-109031714D01*
X141532060Y-109029991D01*
X141498067Y-109021263D01*
X141485325Y-109017991D01*
X141485324Y-109017991D01*
X141477648Y-109016020D01*
X141469411Y-109016020D01*
X141445802Y-109013788D01*
X141445499Y-109013730D01*
X141445495Y-109013730D01*
X141437712Y-109012245D01*
X141381667Y-109015771D01*
X141373756Y-109016020D01*
X140929980Y-109016020D01*
X140861859Y-108996018D01*
X140815366Y-108942362D01*
X140803980Y-108890020D01*
X140803980Y-108722000D01*
X140823982Y-108653879D01*
X140877638Y-108607386D01*
X140929980Y-108596000D01*
X141884885Y-108596000D01*
X141900124Y-108591525D01*
X141901329Y-108590135D01*
X141903000Y-108582452D01*
X141903000Y-108554562D01*
X141902663Y-108548047D01*
X141893106Y-108455943D01*
X141890212Y-108442544D01*
X141840619Y-108293893D01*
X141834445Y-108280714D01*
X141752212Y-108147827D01*
X141743176Y-108136426D01*
X141632571Y-108026014D01*
X141621160Y-108017002D01*
X141604335Y-108006631D01*
X141556842Y-107953859D01*
X141545418Y-107883787D01*
X141554813Y-107849333D01*
X141555095Y-107848681D01*
X141562172Y-107832327D01*
X141567383Y-107821689D01*
X141588695Y-107782922D01*
X141590666Y-107775245D01*
X141590668Y-107775240D01*
X141593732Y-107763304D01*
X141600138Y-107744592D01*
X141605034Y-107733279D01*
X141608181Y-107726007D01*
X141615097Y-107682343D01*
X141617504Y-107670722D01*
X141626528Y-107635573D01*
X141626528Y-107635572D01*
X141628500Y-107627892D01*
X141628500Y-107607631D01*
X141630051Y-107587920D01*
X141631979Y-107575747D01*
X141633219Y-107567919D01*
X141629059Y-107523908D01*
X141628500Y-107512051D01*
X141628500Y-107235710D01*
X141648502Y-107167589D01*
X141665405Y-107146615D01*
X141756639Y-107055381D01*
X141845472Y-106908699D01*
X141849159Y-106896936D01*
X141873507Y-106819239D01*
X141882585Y-106790273D01*
X141922041Y-106731252D01*
X141987145Y-106702932D01*
X142057225Y-106714305D01*
X142103644Y-106752388D01*
X142132038Y-106790274D01*
X142186739Y-106863261D01*
X142303295Y-106950615D01*
X142439684Y-107001745D01*
X142501866Y-107008500D01*
X144598134Y-107008500D01*
X144660316Y-107001745D01*
X144796705Y-106950615D01*
X144913261Y-106863261D01*
X145000615Y-106746705D01*
X145051745Y-106610316D01*
X145058500Y-106548134D01*
X145058500Y-104451866D01*
X145051745Y-104389684D01*
X145000615Y-104253295D01*
X144913261Y-104136739D01*
X144906080Y-104131357D01*
X144805497Y-104055974D01*
X144762982Y-103999115D01*
X144757956Y-103928296D01*
X144775176Y-103889983D01*
X144773770Y-103889121D01*
X144895205Y-103690958D01*
X144899687Y-103682163D01*
X144986734Y-103472012D01*
X144989783Y-103462627D01*
X145042885Y-103241446D01*
X145044428Y-103231699D01*
X145062275Y-103004930D01*
X145062275Y-102995070D01*
X145044428Y-102768301D01*
X145042885Y-102758554D01*
X144989783Y-102537373D01*
X144986734Y-102527988D01*
X144899687Y-102317837D01*
X144895205Y-102309042D01*
X144792568Y-102141555D01*
X144782110Y-102132093D01*
X144773334Y-102135876D01*
X143639095Y-103270115D01*
X143576783Y-103304141D01*
X143505968Y-103299076D01*
X143460905Y-103270115D01*
X143279885Y-103089095D01*
X143245859Y-103026783D01*
X143250924Y-102955968D01*
X143279885Y-102910905D01*
X144411080Y-101779710D01*
X144432026Y-101741352D01*
X144460782Y-101705928D01*
X144616213Y-101573177D01*
X144619969Y-101569969D01*
X144774176Y-101389416D01*
X144776755Y-101385208D01*
X144776759Y-101385202D01*
X144895654Y-101191183D01*
X144898240Y-101186963D01*
X144904204Y-101172566D01*
X144987211Y-100972167D01*
X144987212Y-100972165D01*
X144989105Y-100967594D01*
X145013770Y-100864858D01*
X145043380Y-100741524D01*
X145043381Y-100741518D01*
X145044535Y-100736711D01*
X145063165Y-100500000D01*
X145044535Y-100263289D01*
X145041703Y-100251490D01*
X144990260Y-100037218D01*
X144989105Y-100032406D01*
X144973789Y-99995429D01*
X144900135Y-99817611D01*
X144900133Y-99817607D01*
X144898240Y-99813037D01*
X144832268Y-99705381D01*
X144776759Y-99614798D01*
X144776755Y-99614792D01*
X144774176Y-99610584D01*
X144619969Y-99430031D01*
X144439416Y-99275824D01*
X144435208Y-99273245D01*
X144435202Y-99273241D01*
X144241183Y-99154346D01*
X144236963Y-99151760D01*
X144232393Y-99149867D01*
X144232389Y-99149865D01*
X144022167Y-99062789D01*
X144022165Y-99062788D01*
X144017594Y-99060895D01*
X143937391Y-99041640D01*
X143791524Y-99006620D01*
X143791518Y-99006619D01*
X143786711Y-99005465D01*
X143550000Y-98986835D01*
X143545070Y-98987223D01*
X143545069Y-98987223D01*
X143493886Y-98991251D01*
X143424406Y-98976655D01*
X143373847Y-98926812D01*
X143358001Y-98865639D01*
X143358001Y-98859875D01*
X143359552Y-98840164D01*
X143361481Y-98827985D01*
X143362721Y-98820156D01*
X143358560Y-98776137D01*
X143358001Y-98764280D01*
X143358001Y-97778669D01*
X143358528Y-97767486D01*
X143360203Y-97759993D01*
X143358063Y-97691902D01*
X143358001Y-97687945D01*
X143358001Y-97660045D01*
X143357497Y-97656054D01*
X143356564Y-97644212D01*
X143356069Y-97628444D01*
X143355175Y-97600012D01*
X143349522Y-97580553D01*
X143345513Y-97561194D01*
X143345347Y-97559884D01*
X143342975Y-97541104D01*
X143338885Y-97530774D01*
X143338656Y-97528277D01*
X143338085Y-97526052D01*
X143338444Y-97525960D01*
X143332406Y-97460074D01*
X143365178Y-97397094D01*
X143426797Y-97361830D01*
X143497700Y-97365477D01*
G37*
G04 #@! TD.AperFunction*
G04 #@! TA.AperFunction,Conductor*
G36*
X137297795Y-99178502D02*
G01*
X137344288Y-99232158D01*
X137354392Y-99302432D01*
X137323310Y-99368810D01*
X137255980Y-99443588D01*
X137249576Y-99450700D01*
X137154089Y-99616088D01*
X137095074Y-99797716D01*
X137094384Y-99804277D01*
X137094384Y-99804279D01*
X137092034Y-99826639D01*
X137075112Y-99987644D01*
X137075802Y-99994209D01*
X137090041Y-100129681D01*
X137095074Y-100177572D01*
X137154089Y-100359200D01*
X137157392Y-100364922D01*
X137157393Y-100364923D01*
X137189114Y-100419865D01*
X137249576Y-100524588D01*
X137325890Y-100609344D01*
X137356606Y-100673349D01*
X137347842Y-100743803D01*
X137321348Y-100782747D01*
X137049500Y-101054595D01*
X136987188Y-101088621D01*
X136960405Y-101091500D01*
X136904513Y-101091500D01*
X136898061Y-101092872D01*
X136898056Y-101092872D01*
X136811112Y-101111353D01*
X136717712Y-101131206D01*
X136711682Y-101133891D01*
X136711681Y-101133891D01*
X136549278Y-101206197D01*
X136549276Y-101206198D01*
X136543248Y-101208882D01*
X136537907Y-101212762D01*
X136537906Y-101212763D01*
X136511919Y-101231644D01*
X136388747Y-101321134D01*
X136260960Y-101463056D01*
X136165473Y-101628444D01*
X136106458Y-101810072D01*
X136105768Y-101816633D01*
X136105768Y-101816635D01*
X136105035Y-101823608D01*
X136086496Y-102000000D01*
X136087186Y-102006565D01*
X136105047Y-102176500D01*
X136106458Y-102189928D01*
X136165473Y-102371556D01*
X136260960Y-102536944D01*
X136265378Y-102541851D01*
X136265379Y-102541852D01*
X136384325Y-102673955D01*
X136388747Y-102678866D01*
X136543248Y-102791118D01*
X136549276Y-102793802D01*
X136549278Y-102793803D01*
X136711681Y-102866109D01*
X136717712Y-102868794D01*
X136806864Y-102887744D01*
X136898056Y-102907128D01*
X136898061Y-102907128D01*
X136904513Y-102908500D01*
X137095487Y-102908500D01*
X137101939Y-102907128D01*
X137101944Y-102907128D01*
X137193136Y-102887744D01*
X137282288Y-102868794D01*
X137288319Y-102866109D01*
X137450722Y-102793803D01*
X137450724Y-102793802D01*
X137456752Y-102791118D01*
X137611253Y-102678866D01*
X137615675Y-102673955D01*
X137734621Y-102541852D01*
X137734622Y-102541851D01*
X137739040Y-102536944D01*
X137751861Y-102514737D01*
X137803243Y-102465744D01*
X137872956Y-102452307D01*
X137938867Y-102478694D01*
X137980050Y-102536526D01*
X137986980Y-102577737D01*
X137986980Y-104319930D01*
X137986453Y-104331113D01*
X137984778Y-104338606D01*
X137985027Y-104346532D01*
X137985027Y-104346533D01*
X137986918Y-104406683D01*
X137986980Y-104410642D01*
X137986980Y-104438553D01*
X137987477Y-104442487D01*
X137987477Y-104442488D01*
X137987485Y-104442553D01*
X137988418Y-104454390D01*
X137989807Y-104498586D01*
X137995458Y-104518036D01*
X137999467Y-104537397D01*
X138002006Y-104557494D01*
X138004925Y-104564865D01*
X138004925Y-104564867D01*
X138018284Y-104598609D01*
X138022129Y-104609839D01*
X138034462Y-104652290D01*
X138038495Y-104659109D01*
X138038497Y-104659114D01*
X138044773Y-104669725D01*
X138053468Y-104687473D01*
X138060928Y-104706314D01*
X138065590Y-104712730D01*
X138065590Y-104712731D01*
X138086916Y-104742084D01*
X138093432Y-104752004D01*
X138115938Y-104790059D01*
X138130259Y-104804380D01*
X138143099Y-104819413D01*
X138155008Y-104835804D01*
X138161112Y-104840854D01*
X138161117Y-104840859D01*
X138189078Y-104863990D01*
X138197858Y-104871980D01*
X138677834Y-105351956D01*
X138711860Y-105414268D01*
X138706795Y-105485083D01*
X138677834Y-105530146D01*
X138583361Y-105624619D01*
X138579424Y-105631120D01*
X138570551Y-105645771D01*
X138518154Y-105693678D01*
X138462775Y-105706500D01*
X134989745Y-105706500D01*
X134978562Y-105705973D01*
X134971069Y-105704298D01*
X134963143Y-105704547D01*
X134963142Y-105704547D01*
X134902979Y-105706438D01*
X134899021Y-105706500D01*
X134871122Y-105706500D01*
X134867132Y-105707004D01*
X134855298Y-105707936D01*
X134811089Y-105709326D01*
X134803476Y-105711538D01*
X134803475Y-105711538D01*
X134794654Y-105714101D01*
X134723658Y-105713899D01*
X134664041Y-105675345D01*
X134634732Y-105610681D01*
X134633500Y-105593104D01*
X134633500Y-104083763D01*
X134634027Y-104072579D01*
X134635701Y-104065091D01*
X134633562Y-103997032D01*
X134633500Y-103993075D01*
X134633500Y-103965144D01*
X134632994Y-103961138D01*
X134632061Y-103949292D01*
X134631402Y-103928296D01*
X134630673Y-103905110D01*
X134625022Y-103885658D01*
X134621014Y-103866306D01*
X134619468Y-103854068D01*
X134619467Y-103854066D01*
X134618474Y-103846203D01*
X134602194Y-103805086D01*
X134598359Y-103793885D01*
X134586018Y-103751406D01*
X134581985Y-103744587D01*
X134581983Y-103744582D01*
X134575707Y-103733971D01*
X134567010Y-103716221D01*
X134559552Y-103697383D01*
X134533571Y-103661623D01*
X134527053Y-103651701D01*
X134508578Y-103620460D01*
X134508574Y-103620455D01*
X134504542Y-103613637D01*
X134490218Y-103599313D01*
X134477376Y-103584278D01*
X134465472Y-103567893D01*
X134431406Y-103539711D01*
X134422627Y-103531722D01*
X134140000Y-103249095D01*
X134105974Y-103186783D01*
X134111039Y-103115968D01*
X134140000Y-103070905D01*
X135892253Y-101318652D01*
X135900539Y-101311112D01*
X135907018Y-101307000D01*
X135953644Y-101257348D01*
X135956398Y-101254507D01*
X135976135Y-101234770D01*
X135978615Y-101231573D01*
X135986320Y-101222551D01*
X136016586Y-101190321D01*
X136020405Y-101183375D01*
X136020407Y-101183372D01*
X136026348Y-101172566D01*
X136037199Y-101156047D01*
X136044758Y-101146301D01*
X136049614Y-101140041D01*
X136052759Y-101132772D01*
X136052762Y-101132768D01*
X136067174Y-101099463D01*
X136072391Y-101088813D01*
X136093695Y-101050060D01*
X136098733Y-101030437D01*
X136105137Y-101011734D01*
X136110033Y-101000420D01*
X136110033Y-101000419D01*
X136113181Y-100993145D01*
X136114420Y-100985322D01*
X136114423Y-100985312D01*
X136120099Y-100949476D01*
X136122505Y-100937856D01*
X136131528Y-100902711D01*
X136131528Y-100902710D01*
X136133500Y-100895030D01*
X136133500Y-100874776D01*
X136135051Y-100855065D01*
X136136980Y-100842886D01*
X136138220Y-100835057D01*
X136134059Y-100791038D01*
X136133500Y-100779181D01*
X136133500Y-100327790D01*
X136134027Y-100316607D01*
X136135702Y-100309114D01*
X136133562Y-100241023D01*
X136133500Y-100237066D01*
X136133500Y-100209166D01*
X136132996Y-100205175D01*
X136132063Y-100193333D01*
X136131362Y-100171009D01*
X136130674Y-100149133D01*
X136128462Y-100141519D01*
X136128461Y-100141514D01*
X136125023Y-100129681D01*
X136121012Y-100110317D01*
X136119467Y-100098086D01*
X136118474Y-100090225D01*
X136115557Y-100082858D01*
X136115556Y-100082853D01*
X136102198Y-100049114D01*
X136098354Y-100037887D01*
X136088230Y-100003044D01*
X136086018Y-99995429D01*
X136075707Y-99977994D01*
X136067012Y-99960246D01*
X136059552Y-99941405D01*
X136047131Y-99924308D01*
X136033564Y-99905635D01*
X136027048Y-99895715D01*
X136008580Y-99864487D01*
X136008578Y-99864484D01*
X136004542Y-99857660D01*
X135990221Y-99843339D01*
X135977380Y-99828305D01*
X135970131Y-99818328D01*
X135965472Y-99811915D01*
X135959368Y-99806865D01*
X135959363Y-99806860D01*
X135931402Y-99783729D01*
X135922621Y-99775739D01*
X135520478Y-99373595D01*
X135486453Y-99311283D01*
X135491518Y-99240467D01*
X135534065Y-99183632D01*
X135600585Y-99158821D01*
X135609574Y-99158500D01*
X137229674Y-99158500D01*
X137297795Y-99178502D01*
G37*
G04 #@! TD.AperFunction*
G04 #@! TA.AperFunction,Conductor*
G36*
X140214032Y-102032154D02*
G01*
X140259095Y-102061115D01*
X140354619Y-102156639D01*
X140501301Y-102245472D01*
X140508548Y-102247743D01*
X140508550Y-102247744D01*
X140557593Y-102263113D01*
X140664938Y-102296753D01*
X140738365Y-102303500D01*
X140741263Y-102303500D01*
X140995665Y-102303499D01*
X141251634Y-102303499D01*
X141254492Y-102303236D01*
X141254501Y-102303236D01*
X141290004Y-102299974D01*
X141325062Y-102296753D01*
X141428310Y-102264397D01*
X141499295Y-102263113D01*
X141559705Y-102300410D01*
X141590362Y-102364446D01*
X141591989Y-102384631D01*
X141591989Y-102773130D01*
X141571987Y-102841251D01*
X141518331Y-102887744D01*
X141448057Y-102897848D01*
X141426321Y-102892723D01*
X141326186Y-102859509D01*
X141312810Y-102856642D01*
X141221903Y-102847328D01*
X141216874Y-102847071D01*
X141201876Y-102851475D01*
X141200671Y-102852865D01*
X141199000Y-102860548D01*
X141199000Y-103958000D01*
X141178998Y-104026121D01*
X141125342Y-104072614D01*
X141073000Y-104084000D01*
X140817000Y-104084000D01*
X140748879Y-104063998D01*
X140702386Y-104010342D01*
X140691000Y-103958000D01*
X140691000Y-102865115D01*
X140686525Y-102849876D01*
X140685135Y-102848671D01*
X140677452Y-102847000D01*
X140674562Y-102847000D01*
X140668047Y-102847337D01*
X140575943Y-102856894D01*
X140562544Y-102859788D01*
X140413893Y-102909381D01*
X140400714Y-102915555D01*
X140267827Y-102997788D01*
X140250689Y-103011371D01*
X140249159Y-103009441D01*
X140197120Y-103037903D01*
X140126301Y-103032887D01*
X140089383Y-103009201D01*
X140088628Y-103010157D01*
X140082882Y-103005619D01*
X140077702Y-103000448D01*
X140071471Y-102996607D01*
X139938331Y-102914538D01*
X139938329Y-102914537D01*
X139932101Y-102910698D01*
X139769757Y-102856851D01*
X139762920Y-102856151D01*
X139762918Y-102856150D01*
X139721599Y-102851917D01*
X139668732Y-102846500D01*
X139379980Y-102846500D01*
X139311859Y-102826498D01*
X139265366Y-102772842D01*
X139253980Y-102720500D01*
X139253980Y-102429500D01*
X139273982Y-102361379D01*
X139327638Y-102314886D01*
X139379979Y-102303500D01*
X139593721Y-102303499D01*
X139601634Y-102303499D01*
X139604492Y-102303236D01*
X139604501Y-102303236D01*
X139640004Y-102299974D01*
X139675062Y-102296753D01*
X139782407Y-102263113D01*
X139831450Y-102247744D01*
X139831452Y-102247743D01*
X139838699Y-102245472D01*
X139985381Y-102156639D01*
X140080905Y-102061115D01*
X140143217Y-102027089D01*
X140214032Y-102032154D01*
G37*
G04 #@! TD.AperFunction*
G04 #@! TA.AperFunction,Conductor*
G36*
X134247030Y-99891958D02*
G01*
X134797989Y-100442917D01*
X134832015Y-100505229D01*
X134826950Y-100576044D01*
X134797989Y-100621107D01*
X133279500Y-102139595D01*
X133217188Y-102173621D01*
X133190406Y-102176500D01*
X133160993Y-102176500D01*
X133089979Y-102176501D01*
X133021860Y-102156500D01*
X132975367Y-102102844D01*
X132963980Y-102050501D01*
X132963980Y-101124885D01*
X133359000Y-101124885D01*
X133363475Y-101140124D01*
X133364865Y-101141329D01*
X133372548Y-101143000D01*
X133375438Y-101143000D01*
X133381953Y-101142663D01*
X133474057Y-101133106D01*
X133487456Y-101130212D01*
X133636107Y-101080619D01*
X133649286Y-101074445D01*
X133782173Y-100992212D01*
X133793574Y-100983176D01*
X133903986Y-100872571D01*
X133912998Y-100861160D01*
X133995004Y-100728120D01*
X134001151Y-100714939D01*
X134050491Y-100566186D01*
X134053358Y-100552810D01*
X134062672Y-100461903D01*
X134063000Y-100455487D01*
X134063000Y-100432115D01*
X134058525Y-100416876D01*
X134057135Y-100415671D01*
X134049452Y-100414000D01*
X133377115Y-100414000D01*
X133361876Y-100418475D01*
X133360671Y-100419865D01*
X133359000Y-100427548D01*
X133359000Y-101124885D01*
X132963980Y-101124885D01*
X132963980Y-100032000D01*
X132983982Y-99963879D01*
X133037638Y-99917386D01*
X133089980Y-99906000D01*
X134044885Y-99906000D01*
X134060125Y-99901525D01*
X134062711Y-99898541D01*
X134122437Y-99860157D01*
X134193433Y-99860157D01*
X134247030Y-99891958D01*
G37*
G04 #@! TD.AperFunction*
G04 #@! TA.AperFunction,Conductor*
G36*
X129306121Y-99116002D02*
G01*
X129352614Y-99169658D01*
X129364000Y-99222000D01*
X129364000Y-99478000D01*
X129343998Y-99546121D01*
X129290342Y-99592614D01*
X129238000Y-99604000D01*
X127838000Y-99604000D01*
X127769879Y-99583998D01*
X127723386Y-99530342D01*
X127712000Y-99478000D01*
X127712000Y-99222000D01*
X127732002Y-99153879D01*
X127785658Y-99107386D01*
X127838000Y-99096000D01*
X129238000Y-99096000D01*
X129306121Y-99116002D01*
G37*
G04 #@! TD.AperFunction*
G04 #@! TA.AperFunction,Conductor*
G36*
X132374032Y-93342154D02*
G01*
X132419095Y-93371115D01*
X132514619Y-93466639D01*
X132661301Y-93555472D01*
X132668548Y-93557743D01*
X132668550Y-93557744D01*
X132731133Y-93577356D01*
X132824938Y-93606753D01*
X132898365Y-93613500D01*
X132910311Y-93613500D01*
X133290021Y-93613499D01*
X133358140Y-93633501D01*
X133404633Y-93687156D01*
X133416020Y-93739499D01*
X133416020Y-94051993D01*
X133396018Y-94120114D01*
X133385245Y-94134505D01*
X133360671Y-94162865D01*
X133359000Y-94170548D01*
X133359000Y-96104885D01*
X133363475Y-96120124D01*
X133372532Y-96127972D01*
X133410916Y-96187698D01*
X133416020Y-96223197D01*
X133416020Y-96440885D01*
X133396018Y-96509006D01*
X133379115Y-96529980D01*
X133279500Y-96629595D01*
X133217188Y-96663621D01*
X133190405Y-96666500D01*
X132916386Y-96666501D01*
X132898366Y-96666501D01*
X132895508Y-96666764D01*
X132895499Y-96666764D01*
X132859996Y-96670026D01*
X132824938Y-96673247D01*
X132818560Y-96675246D01*
X132818559Y-96675246D01*
X132668550Y-96722256D01*
X132668548Y-96722257D01*
X132661301Y-96724528D01*
X132514619Y-96813361D01*
X132419095Y-96908885D01*
X132356783Y-96942911D01*
X132285968Y-96937846D01*
X132240905Y-96908885D01*
X132145381Y-96813361D01*
X131998699Y-96724528D01*
X131991452Y-96722257D01*
X131991450Y-96722256D01*
X131925164Y-96701483D01*
X131835062Y-96673247D01*
X131761635Y-96666500D01*
X131558195Y-96666500D01*
X131490074Y-96646498D01*
X131443581Y-96592842D01*
X131433477Y-96522568D01*
X131462971Y-96457988D01*
X131469100Y-96451405D01*
X131761715Y-96158790D01*
X131824027Y-96124764D01*
X131837800Y-96122559D01*
X131876681Y-96118525D01*
X131924162Y-96113599D01*
X131924167Y-96113598D01*
X131931019Y-96112887D01*
X131965737Y-96101304D01*
X132086324Y-96061073D01*
X132086326Y-96061072D01*
X132093268Y-96058756D01*
X132238713Y-95968752D01*
X132243886Y-95963570D01*
X132249623Y-95959023D01*
X132251055Y-95960830D01*
X132303575Y-95932098D01*
X132374395Y-95937108D01*
X132410853Y-95960499D01*
X132411683Y-95959448D01*
X132428840Y-95972998D01*
X132561880Y-96055004D01*
X132575061Y-96061151D01*
X132723814Y-96110491D01*
X132737190Y-96113358D01*
X132828097Y-96122672D01*
X132833126Y-96122929D01*
X132848124Y-96118525D01*
X132849329Y-96117135D01*
X132851000Y-96109452D01*
X132851000Y-94175115D01*
X132846525Y-94159876D01*
X132845135Y-94158671D01*
X132837452Y-94157000D01*
X132834562Y-94157000D01*
X132828047Y-94157337D01*
X132735943Y-94166894D01*
X132722544Y-94169788D01*
X132573893Y-94219381D01*
X132560714Y-94225555D01*
X132427827Y-94307788D01*
X132410689Y-94321371D01*
X132409159Y-94319441D01*
X132357120Y-94347903D01*
X132286301Y-94342887D01*
X132249383Y-94319201D01*
X132248628Y-94320157D01*
X132242882Y-94315619D01*
X132237702Y-94310448D01*
X132182622Y-94276496D01*
X132135129Y-94223723D01*
X132123428Y-94156067D01*
X132138004Y-94017388D01*
X132132263Y-93962767D01*
X132118732Y-93834023D01*
X132118732Y-93834021D01*
X132118042Y-93827460D01*
X132059027Y-93645832D01*
X132058810Y-93645456D01*
X132049681Y-93577356D01*
X132079790Y-93513060D01*
X132108950Y-93488702D01*
X132138883Y-93470574D01*
X132145381Y-93466639D01*
X132240905Y-93371115D01*
X132303217Y-93337089D01*
X132374032Y-93342154D01*
G37*
G04 #@! TD.AperFunction*
G04 #@! TA.AperFunction,Conductor*
G36*
X140834614Y-93814522D02*
G01*
X140891246Y-93857339D01*
X140915740Y-93923976D01*
X140916020Y-93932367D01*
X140916020Y-95370500D01*
X140896018Y-95438621D01*
X140842362Y-95485114D01*
X140790021Y-95496500D01*
X140576279Y-95496501D01*
X140568366Y-95496501D01*
X140565508Y-95496764D01*
X140565499Y-95496764D01*
X140529996Y-95500026D01*
X140494938Y-95503247D01*
X140488560Y-95505246D01*
X140488559Y-95505246D01*
X140338550Y-95552256D01*
X140338548Y-95552257D01*
X140331301Y-95554528D01*
X140184619Y-95643361D01*
X140159551Y-95668429D01*
X140097239Y-95702455D01*
X140026424Y-95697390D01*
X139969588Y-95654843D01*
X139944777Y-95588323D01*
X139945146Y-95566164D01*
X139961342Y-95412065D01*
X139962032Y-95405500D01*
X139956247Y-95350459D01*
X139942760Y-95222135D01*
X139942760Y-95222133D01*
X139942070Y-95215572D01*
X139883055Y-95033944D01*
X139867747Y-95007430D01*
X139851009Y-94938435D01*
X139874229Y-94871343D01*
X139898602Y-94845684D01*
X139902487Y-94842605D01*
X139908713Y-94838752D01*
X139913885Y-94833571D01*
X139919622Y-94829024D01*
X139921054Y-94830830D01*
X139973575Y-94802098D01*
X140044395Y-94807108D01*
X140080853Y-94830499D01*
X140081683Y-94829448D01*
X140098840Y-94842998D01*
X140231880Y-94925004D01*
X140245061Y-94931151D01*
X140393814Y-94980491D01*
X140407190Y-94983358D01*
X140498097Y-94992672D01*
X140503126Y-94992929D01*
X140518124Y-94988525D01*
X140519329Y-94987135D01*
X140521000Y-94979452D01*
X140521000Y-93962767D01*
X140541002Y-93894646D01*
X140594658Y-93848153D01*
X140620803Y-93839520D01*
X140763823Y-93809120D01*
X140834614Y-93814522D01*
G37*
G04 #@! TD.AperFunction*
G04 #@! TA.AperFunction,Conductor*
G36*
X145448146Y-81471924D02*
G01*
X145504982Y-81514471D01*
X145529905Y-81582726D01*
X145531291Y-81606762D01*
X145531500Y-81614016D01*
X145531500Y-82468134D01*
X145538255Y-82530316D01*
X145589385Y-82666705D01*
X145662630Y-82764435D01*
X145687478Y-82830941D01*
X145672425Y-82900324D01*
X145662632Y-82915562D01*
X145589385Y-83013295D01*
X145538255Y-83149684D01*
X145531500Y-83211866D01*
X145531500Y-84030219D01*
X145530787Y-84043607D01*
X145527251Y-84076695D01*
X145527548Y-84081848D01*
X145527548Y-84081851D01*
X145531291Y-84146763D01*
X145531500Y-84154016D01*
X145531500Y-85008134D01*
X145538255Y-85070316D01*
X145589385Y-85206705D01*
X145610877Y-85235381D01*
X145662942Y-85304852D01*
X145687790Y-85371358D01*
X145672737Y-85440741D01*
X145662942Y-85455982D01*
X145595214Y-85546351D01*
X145586676Y-85561946D01*
X145541522Y-85682394D01*
X145537895Y-85697649D01*
X145532369Y-85748514D01*
X145532000Y-85755328D01*
X145532000Y-86377885D01*
X145536475Y-86393124D01*
X145537865Y-86394329D01*
X145545548Y-86396000D01*
X148162000Y-86396000D01*
X148230121Y-86416002D01*
X148276614Y-86469658D01*
X148288000Y-86522000D01*
X148288000Y-86778000D01*
X148267998Y-86846121D01*
X148214342Y-86892614D01*
X148162000Y-86904000D01*
X145550116Y-86904000D01*
X145534877Y-86908475D01*
X145533672Y-86909865D01*
X145532001Y-86917548D01*
X145532001Y-87544669D01*
X145532371Y-87551490D01*
X145537895Y-87602352D01*
X145541521Y-87617604D01*
X145586676Y-87738054D01*
X145595214Y-87753649D01*
X145662942Y-87844018D01*
X145687790Y-87910525D01*
X145672737Y-87979907D01*
X145662942Y-87995148D01*
X145662629Y-87995566D01*
X145589385Y-88093295D01*
X145538255Y-88229684D01*
X145531500Y-88291866D01*
X145531500Y-89110219D01*
X145530787Y-89123607D01*
X145527251Y-89156695D01*
X145527548Y-89161848D01*
X145527548Y-89161851D01*
X145531291Y-89226763D01*
X145531500Y-89234016D01*
X145531500Y-90088134D01*
X145538255Y-90150316D01*
X145589385Y-90286705D01*
X145655941Y-90375510D01*
X145662630Y-90384435D01*
X145687478Y-90450941D01*
X145672425Y-90520324D01*
X145662632Y-90535562D01*
X145589385Y-90633295D01*
X145538255Y-90769684D01*
X145531500Y-90831866D01*
X145531500Y-91650219D01*
X145530787Y-91663607D01*
X145527251Y-91696695D01*
X145527548Y-91701848D01*
X145527548Y-91701851D01*
X145531291Y-91766763D01*
X145531500Y-91774016D01*
X145531500Y-92628134D01*
X145538255Y-92690316D01*
X145589385Y-92826705D01*
X145662630Y-92924435D01*
X145687478Y-92990941D01*
X145672425Y-93060324D01*
X145662632Y-93075562D01*
X145589385Y-93173295D01*
X145538255Y-93309684D01*
X145531500Y-93371866D01*
X145531500Y-93510500D01*
X145511498Y-93578621D01*
X145457842Y-93625114D01*
X145405500Y-93636500D01*
X144485573Y-93636500D01*
X144417452Y-93616498D01*
X144396478Y-93599595D01*
X143990218Y-93193335D01*
X143977376Y-93178300D01*
X143972552Y-93171660D01*
X143965472Y-93161915D01*
X143931406Y-93133733D01*
X143922627Y-93125744D01*
X143870259Y-93073376D01*
X143870255Y-93073373D01*
X143520477Y-92723595D01*
X143486451Y-92661283D01*
X143491516Y-92590468D01*
X143534063Y-92533632D01*
X143600583Y-92508821D01*
X143609572Y-92508500D01*
X144598134Y-92508500D01*
X144660316Y-92501745D01*
X144796705Y-92450615D01*
X144913261Y-92363261D01*
X145000615Y-92246705D01*
X145051745Y-92110316D01*
X145058500Y-92048134D01*
X145058500Y-89951866D01*
X145051745Y-89889684D01*
X145000615Y-89753295D01*
X144913261Y-89636739D01*
X144808360Y-89558120D01*
X144805497Y-89555974D01*
X144762982Y-89499115D01*
X144757956Y-89428296D01*
X144775176Y-89389983D01*
X144773770Y-89389121D01*
X144895205Y-89190958D01*
X144899687Y-89182163D01*
X144986734Y-88972012D01*
X144989783Y-88962627D01*
X145042885Y-88741446D01*
X145044428Y-88731699D01*
X145062275Y-88504930D01*
X145062275Y-88495070D01*
X145044428Y-88268301D01*
X145042885Y-88258554D01*
X144989783Y-88037373D01*
X144986734Y-88027988D01*
X144899687Y-87817837D01*
X144895205Y-87809042D01*
X144792568Y-87641555D01*
X144782110Y-87632093D01*
X144773334Y-87635876D01*
X143639095Y-88770115D01*
X143576783Y-88804141D01*
X143505968Y-88799076D01*
X143460905Y-88770115D01*
X142329710Y-87638920D01*
X142317330Y-87632160D01*
X142309680Y-87637887D01*
X142204795Y-87809042D01*
X142200313Y-87817837D01*
X142113266Y-88027988D01*
X142110217Y-88037373D01*
X142057115Y-88258554D01*
X142055572Y-88268301D01*
X142037725Y-88495070D01*
X142037725Y-88504930D01*
X142055572Y-88731699D01*
X142057115Y-88741446D01*
X142110217Y-88962627D01*
X142113266Y-88972012D01*
X142200313Y-89182163D01*
X142204795Y-89190958D01*
X142326230Y-89389121D01*
X142324149Y-89390396D01*
X142344720Y-89447739D01*
X142328758Y-89516918D01*
X142294503Y-89555974D01*
X142291640Y-89558120D01*
X142186739Y-89636739D01*
X142099385Y-89753295D01*
X142048255Y-89889684D01*
X142041500Y-89951866D01*
X142041093Y-89951822D01*
X142018139Y-90016775D01*
X141962048Y-90060299D01*
X141891331Y-90066589D01*
X141828439Y-90033647D01*
X141806860Y-90006023D01*
X141774595Y-89950139D01*
X141739040Y-89888556D01*
X141637309Y-89775573D01*
X141606594Y-89711568D01*
X141615357Y-89641115D01*
X141623687Y-89625149D01*
X141665004Y-89558120D01*
X141671151Y-89544939D01*
X141720491Y-89396186D01*
X141723358Y-89382810D01*
X141732672Y-89291903D01*
X141733000Y-89285487D01*
X141733000Y-89262115D01*
X141728525Y-89246876D01*
X141727135Y-89245671D01*
X141719452Y-89244000D01*
X140759980Y-89244000D01*
X140691859Y-89223998D01*
X140645366Y-89170342D01*
X140633980Y-89118000D01*
X140633980Y-88717885D01*
X141029000Y-88717885D01*
X141033475Y-88733124D01*
X141034865Y-88734329D01*
X141042548Y-88736000D01*
X141714885Y-88736000D01*
X141730124Y-88731525D01*
X141731329Y-88730135D01*
X141733000Y-88722452D01*
X141733000Y-88694562D01*
X141732663Y-88688047D01*
X141723106Y-88595943D01*
X141720212Y-88582544D01*
X141670619Y-88433893D01*
X141664445Y-88420714D01*
X141582212Y-88287827D01*
X141573176Y-88276426D01*
X141462571Y-88166014D01*
X141451160Y-88157002D01*
X141318120Y-88074996D01*
X141304939Y-88068849D01*
X141156186Y-88019509D01*
X141142810Y-88016642D01*
X141051903Y-88007328D01*
X141046874Y-88007071D01*
X141031876Y-88011475D01*
X141030671Y-88012865D01*
X141029000Y-88020548D01*
X141029000Y-88717885D01*
X140633980Y-88717885D01*
X140633980Y-87821601D01*
X140653982Y-87753480D01*
X140670885Y-87732506D01*
X140902987Y-87500404D01*
X140965299Y-87466378D01*
X140992082Y-87463499D01*
X141081634Y-87463499D01*
X141084492Y-87463236D01*
X141084501Y-87463236D01*
X141120004Y-87459974D01*
X141155062Y-87456753D01*
X141216310Y-87437559D01*
X141311450Y-87407744D01*
X141311452Y-87407743D01*
X141318699Y-87405472D01*
X141465381Y-87316639D01*
X141586639Y-87195381D01*
X141675472Y-87048699D01*
X141726753Y-86885062D01*
X141733500Y-86811635D01*
X141733499Y-86148366D01*
X141726753Y-86074938D01*
X141724754Y-86068559D01*
X141703269Y-86000000D01*
X142036835Y-86000000D01*
X142055465Y-86236711D01*
X142056619Y-86241518D01*
X142056620Y-86241524D01*
X142089358Y-86377885D01*
X142110895Y-86467594D01*
X142112788Y-86472165D01*
X142112789Y-86472167D01*
X142181099Y-86637082D01*
X142201760Y-86686963D01*
X142204346Y-86691183D01*
X142323241Y-86885202D01*
X142323245Y-86885208D01*
X142325824Y-86889416D01*
X142480031Y-87069969D01*
X142483787Y-87073177D01*
X142642526Y-87208753D01*
X142676402Y-87254686D01*
X142685878Y-87276668D01*
X143537188Y-88127978D01*
X143551132Y-88135592D01*
X143552965Y-88135461D01*
X143559580Y-88131210D01*
X144411080Y-87279710D01*
X144432026Y-87241352D01*
X144460782Y-87205928D01*
X144616213Y-87073177D01*
X144619969Y-87069969D01*
X144774176Y-86889416D01*
X144776755Y-86885208D01*
X144776759Y-86885202D01*
X144895654Y-86691183D01*
X144898240Y-86686963D01*
X144918902Y-86637082D01*
X144987211Y-86472167D01*
X144987212Y-86472165D01*
X144989105Y-86467594D01*
X145010642Y-86377885D01*
X145043380Y-86241524D01*
X145043381Y-86241518D01*
X145044535Y-86236711D01*
X145063165Y-86000000D01*
X145044535Y-85763289D01*
X145039472Y-85742197D01*
X144990260Y-85537218D01*
X144989105Y-85532406D01*
X144980001Y-85510427D01*
X144900135Y-85317611D01*
X144900133Y-85317607D01*
X144898240Y-85313037D01*
X144885570Y-85292362D01*
X144776759Y-85114798D01*
X144776755Y-85114792D01*
X144774176Y-85110584D01*
X144619969Y-84930031D01*
X144439416Y-84775824D01*
X144435208Y-84773245D01*
X144435202Y-84773241D01*
X144241183Y-84654346D01*
X144236963Y-84651760D01*
X144232393Y-84649867D01*
X144232389Y-84649865D01*
X144022167Y-84562789D01*
X144022165Y-84562788D01*
X144017594Y-84560895D01*
X143937391Y-84541640D01*
X143791524Y-84506620D01*
X143791518Y-84506619D01*
X143786711Y-84505465D01*
X143550000Y-84486835D01*
X143313289Y-84505465D01*
X143308482Y-84506619D01*
X143308476Y-84506620D01*
X143162609Y-84541640D01*
X143082406Y-84560895D01*
X143077835Y-84562788D01*
X143077833Y-84562789D01*
X142867611Y-84649865D01*
X142867607Y-84649867D01*
X142863037Y-84651760D01*
X142858817Y-84654346D01*
X142664798Y-84773241D01*
X142664792Y-84773245D01*
X142660584Y-84775824D01*
X142480031Y-84930031D01*
X142325824Y-85110584D01*
X142323245Y-85114792D01*
X142323241Y-85114798D01*
X142214430Y-85292362D01*
X142201760Y-85313037D01*
X142199867Y-85317607D01*
X142199865Y-85317611D01*
X142119999Y-85510427D01*
X142110895Y-85532406D01*
X142109740Y-85537218D01*
X142060529Y-85742197D01*
X142055465Y-85763289D01*
X142036835Y-86000000D01*
X141703269Y-86000000D01*
X141677744Y-85918550D01*
X141677743Y-85918548D01*
X141675472Y-85911301D01*
X141586639Y-85764619D01*
X141465381Y-85643361D01*
X141420448Y-85616149D01*
X141372543Y-85563754D01*
X141360569Y-85493774D01*
X141388329Y-85428430D01*
X141396625Y-85419279D01*
X145315019Y-81500885D01*
X145377331Y-81466859D01*
X145448146Y-81471924D01*
G37*
G04 #@! TD.AperFunction*
G04 #@! TA.AperFunction,Conductor*
G36*
X134403724Y-84638264D02*
G01*
X134439684Y-84651745D01*
X134501866Y-84658500D01*
X137521405Y-84658500D01*
X137589526Y-84678502D01*
X137636019Y-84732158D01*
X137646123Y-84802432D01*
X137616629Y-84867012D01*
X137610500Y-84873595D01*
X134607747Y-87876348D01*
X134599461Y-87883888D01*
X134592982Y-87888000D01*
X134587557Y-87893777D01*
X134546357Y-87937651D01*
X134543602Y-87940493D01*
X134523865Y-87960230D01*
X134521385Y-87963427D01*
X134513682Y-87972447D01*
X134483414Y-88004679D01*
X134479595Y-88011626D01*
X134475764Y-88018593D01*
X134439414Y-88059821D01*
X134403233Y-88086109D01*
X134388747Y-88096634D01*
X134384326Y-88101544D01*
X134384325Y-88101545D01*
X134311211Y-88182747D01*
X134260960Y-88238556D01*
X134165473Y-88403944D01*
X134163432Y-88410226D01*
X134154832Y-88436694D01*
X134114758Y-88495299D01*
X134049361Y-88522936D01*
X133979405Y-88510829D01*
X133927099Y-88462822D01*
X133908999Y-88397757D01*
X133908999Y-88361400D01*
X133909526Y-88350216D01*
X133911200Y-88342728D01*
X133909061Y-88274669D01*
X133908999Y-88270712D01*
X133908999Y-88242781D01*
X133908493Y-88238775D01*
X133907560Y-88226929D01*
X133906421Y-88190674D01*
X133906172Y-88182747D01*
X133900521Y-88163295D01*
X133896513Y-88143943D01*
X133894967Y-88131705D01*
X133894966Y-88131703D01*
X133893973Y-88123840D01*
X133877693Y-88082723D01*
X133873858Y-88071522D01*
X133861517Y-88029043D01*
X133861516Y-88029042D01*
X133864385Y-88028209D01*
X133857396Y-87971700D01*
X133888159Y-87907714D01*
X133915432Y-87884948D01*
X133952173Y-87862212D01*
X133963574Y-87853176D01*
X134073986Y-87742571D01*
X134082998Y-87731160D01*
X134165004Y-87598120D01*
X134171151Y-87584939D01*
X134220491Y-87436186D01*
X134223358Y-87422810D01*
X134232672Y-87331903D01*
X134233000Y-87325487D01*
X134233000Y-87302115D01*
X134228525Y-87286876D01*
X134227135Y-87285671D01*
X134219452Y-87284000D01*
X133259980Y-87284000D01*
X133191859Y-87263998D01*
X133145366Y-87210342D01*
X133133980Y-87158000D01*
X133133980Y-86757885D01*
X133529000Y-86757885D01*
X133533475Y-86773124D01*
X133534865Y-86774329D01*
X133542548Y-86776000D01*
X134214885Y-86776000D01*
X134230124Y-86771525D01*
X134231329Y-86770135D01*
X134233000Y-86762452D01*
X134233000Y-86734562D01*
X134232663Y-86728047D01*
X134223106Y-86635943D01*
X134220212Y-86622544D01*
X134170619Y-86473893D01*
X134164445Y-86460714D01*
X134082212Y-86327827D01*
X134073176Y-86316426D01*
X133962571Y-86206014D01*
X133951160Y-86197002D01*
X133818120Y-86114996D01*
X133804939Y-86108849D01*
X133656186Y-86059509D01*
X133642810Y-86056642D01*
X133551903Y-86047328D01*
X133546874Y-86047071D01*
X133531876Y-86051475D01*
X133530671Y-86052865D01*
X133529000Y-86060548D01*
X133529000Y-86757885D01*
X133133980Y-86757885D01*
X133133980Y-85659114D01*
X133153982Y-85590993D01*
X133170885Y-85570019D01*
X133200499Y-85540405D01*
X133262811Y-85506379D01*
X133289594Y-85503500D01*
X133563614Y-85503499D01*
X133581634Y-85503499D01*
X133584492Y-85503236D01*
X133584501Y-85503236D01*
X133620004Y-85499974D01*
X133655062Y-85496753D01*
X133664568Y-85493774D01*
X133811450Y-85447744D01*
X133811452Y-85447743D01*
X133818699Y-85445472D01*
X133965381Y-85356639D01*
X134086639Y-85235381D01*
X134175472Y-85088699D01*
X134226753Y-84925062D01*
X134233500Y-84851635D01*
X134233500Y-84756248D01*
X134253502Y-84688127D01*
X134307158Y-84641634D01*
X134377432Y-84631530D01*
X134403724Y-84638264D01*
G37*
G04 #@! TD.AperFunction*
G04 #@! TA.AperFunction,Conductor*
G36*
X141827895Y-73788548D02*
G01*
X141835388Y-73790223D01*
X141843314Y-73789974D01*
X141843315Y-73789974D01*
X141903465Y-73788083D01*
X141907424Y-73788021D01*
X141917713Y-73788021D01*
X141985834Y-73808023D01*
X142032327Y-73861679D01*
X142043325Y-73923906D01*
X142037725Y-73995068D01*
X142037725Y-74004930D01*
X142055572Y-74231699D01*
X142057115Y-74241446D01*
X142110217Y-74462627D01*
X142113266Y-74472012D01*
X142200313Y-74682163D01*
X142204795Y-74690958D01*
X142326230Y-74889121D01*
X142324149Y-74890396D01*
X142344720Y-74947739D01*
X142328758Y-75016918D01*
X142294503Y-75055974D01*
X142193920Y-75131357D01*
X142186739Y-75136739D01*
X142099385Y-75253295D01*
X142048255Y-75389684D01*
X142041500Y-75451866D01*
X142041500Y-77548134D01*
X142048255Y-77610316D01*
X142099385Y-77746705D01*
X142186739Y-77863261D01*
X142303295Y-77950615D01*
X142439684Y-78001745D01*
X142501866Y-78008500D01*
X144171405Y-78008500D01*
X144239526Y-78028502D01*
X144286019Y-78082158D01*
X144296123Y-78152432D01*
X144266629Y-78217012D01*
X144260500Y-78223595D01*
X138273595Y-84210500D01*
X138211283Y-84244526D01*
X138140468Y-84239461D01*
X138083632Y-84196914D01*
X138058821Y-84130394D01*
X138058500Y-84121405D01*
X138058500Y-81601866D01*
X138051745Y-81539684D01*
X138000615Y-81403295D01*
X137942360Y-81325565D01*
X137917512Y-81259058D01*
X137932565Y-81189676D01*
X137942360Y-81174435D01*
X137995229Y-81103892D01*
X137995230Y-81103890D01*
X138000615Y-81096705D01*
X138051745Y-80960316D01*
X138058500Y-80898134D01*
X138058500Y-78301866D01*
X138051745Y-78239684D01*
X138000615Y-78103295D01*
X137913261Y-77986739D01*
X137796705Y-77899385D01*
X137660316Y-77848255D01*
X137598134Y-77841500D01*
X135363486Y-77841500D01*
X135295365Y-77821498D01*
X135248872Y-77767842D01*
X135238768Y-77697568D01*
X135263926Y-77638274D01*
X135269254Y-77631405D01*
X135274114Y-77625140D01*
X135291677Y-77584556D01*
X135296884Y-77573926D01*
X135318196Y-77535159D01*
X135320167Y-77527482D01*
X135320169Y-77527477D01*
X135323233Y-77515541D01*
X135329639Y-77496829D01*
X135334534Y-77485518D01*
X135337682Y-77478244D01*
X135338922Y-77470416D01*
X135338924Y-77470409D01*
X135344600Y-77434575D01*
X135347006Y-77422955D01*
X135356029Y-77387810D01*
X135356029Y-77387809D01*
X135358001Y-77380129D01*
X135358001Y-77359875D01*
X135359552Y-77340164D01*
X135361481Y-77327985D01*
X135362721Y-77320156D01*
X135358560Y-77276137D01*
X135358001Y-77264280D01*
X135358001Y-73914021D01*
X135378003Y-73845900D01*
X135431659Y-73799407D01*
X135484001Y-73788021D01*
X141816712Y-73788021D01*
X141827895Y-73788548D01*
G37*
G04 #@! TD.AperFunction*
G04 #@! TA.AperFunction,Conductor*
G36*
X133471121Y-81776002D02*
G01*
X133517614Y-81829658D01*
X133529000Y-81882000D01*
X133529000Y-82974885D01*
X133533475Y-82990124D01*
X133534865Y-82991329D01*
X133542548Y-82993000D01*
X133545438Y-82993000D01*
X133551953Y-82992663D01*
X133644057Y-82983106D01*
X133657456Y-82980212D01*
X133806107Y-82930619D01*
X133819283Y-82924446D01*
X133849198Y-82905935D01*
X133917650Y-82887098D01*
X133985419Y-82908260D01*
X134030990Y-82962701D01*
X134041500Y-83013080D01*
X134041500Y-83505847D01*
X134021498Y-83573968D01*
X133967842Y-83620461D01*
X133897568Y-83630565D01*
X133850229Y-83613623D01*
X133825197Y-83598463D01*
X133825195Y-83598462D01*
X133818699Y-83594528D01*
X133811452Y-83592257D01*
X133811450Y-83592256D01*
X133745164Y-83571483D01*
X133655062Y-83543247D01*
X133581635Y-83536500D01*
X133578737Y-83536500D01*
X133324335Y-83536501D01*
X133068366Y-83536501D01*
X133065508Y-83536764D01*
X133065499Y-83536764D01*
X133029996Y-83540026D01*
X132994938Y-83543247D01*
X132988560Y-83545246D01*
X132988559Y-83545246D01*
X132838550Y-83592256D01*
X132838548Y-83592257D01*
X132831301Y-83594528D01*
X132684619Y-83683361D01*
X132589095Y-83778885D01*
X132526783Y-83812911D01*
X132455968Y-83807846D01*
X132410905Y-83778885D01*
X132315381Y-83683361D01*
X132168699Y-83594528D01*
X132161452Y-83592257D01*
X132161450Y-83592256D01*
X132095164Y-83571483D01*
X132005062Y-83543247D01*
X131931635Y-83536500D01*
X131913527Y-83536500D01*
X131639595Y-83536501D01*
X131571476Y-83516499D01*
X131550500Y-83499596D01*
X131445903Y-83394998D01*
X131411878Y-83332686D01*
X131408999Y-83305903D01*
X131408999Y-83119500D01*
X131429001Y-83051379D01*
X131482657Y-83004886D01*
X131534999Y-82993500D01*
X131998732Y-82993500D01*
X132001978Y-82993163D01*
X132001982Y-82993163D01*
X132036083Y-82989625D01*
X132101019Y-82982887D01*
X132161523Y-82962701D01*
X132256324Y-82931073D01*
X132256326Y-82931072D01*
X132263268Y-82928756D01*
X132284585Y-82915565D01*
X132402485Y-82842606D01*
X132408713Y-82838752D01*
X132413886Y-82833570D01*
X132419623Y-82829023D01*
X132421055Y-82830830D01*
X132473575Y-82802098D01*
X132544395Y-82807108D01*
X132580853Y-82830499D01*
X132581683Y-82829448D01*
X132598840Y-82842998D01*
X132731880Y-82925004D01*
X132745061Y-82931151D01*
X132893814Y-82980491D01*
X132907190Y-82983358D01*
X132998097Y-82992672D01*
X133003126Y-82992929D01*
X133018124Y-82988525D01*
X133019329Y-82987135D01*
X133021000Y-82979452D01*
X133021000Y-81893099D01*
X133041002Y-81824978D01*
X133057905Y-81804004D01*
X133069004Y-81792905D01*
X133131316Y-81758879D01*
X133158099Y-81756000D01*
X133403000Y-81756000D01*
X133471121Y-81776002D01*
G37*
G04 #@! TD.AperFunction*
G04 #@! TA.AperFunction,Conductor*
G36*
X133983621Y-67028002D02*
G01*
X134030114Y-67081658D01*
X134041500Y-67134000D01*
X134041500Y-68284032D01*
X134029789Y-68337080D01*
X133948602Y-68511981D01*
X133886707Y-68735169D01*
X133862095Y-68965469D01*
X133862392Y-68970622D01*
X133862392Y-68970625D01*
X133868067Y-69069041D01*
X133875427Y-69196697D01*
X133876564Y-69201743D01*
X133876565Y-69201749D01*
X133908741Y-69344523D01*
X133926346Y-69422642D01*
X133928288Y-69427424D01*
X133928289Y-69427428D01*
X134011540Y-69632450D01*
X134013484Y-69637237D01*
X134016181Y-69641638D01*
X134016184Y-69641644D01*
X134024719Y-69655571D01*
X134042550Y-69707799D01*
X134048255Y-69760316D01*
X134099385Y-69896705D01*
X134186739Y-70013261D01*
X134303295Y-70100615D01*
X134439684Y-70151745D01*
X134444917Y-70152314D01*
X134477262Y-70165276D01*
X134659860Y-70271977D01*
X134659863Y-70271979D01*
X134664322Y-70274584D01*
X134880694Y-70357209D01*
X134885760Y-70358240D01*
X134885761Y-70358240D01*
X134938846Y-70369040D01*
X135107656Y-70403385D01*
X135238324Y-70408176D01*
X135333949Y-70411683D01*
X135333953Y-70411683D01*
X135339113Y-70411872D01*
X135344233Y-70411216D01*
X135344235Y-70411216D01*
X135417270Y-70401860D01*
X135568847Y-70382442D01*
X135573795Y-70380957D01*
X135573802Y-70380956D01*
X135785747Y-70317369D01*
X135790690Y-70315886D01*
X135795979Y-70313295D01*
X135994049Y-70216262D01*
X135994052Y-70216260D01*
X135998684Y-70213991D01*
X136002882Y-70210996D01*
X136002888Y-70210993D01*
X136043645Y-70181921D01*
X136116813Y-70158500D01*
X137598134Y-70158500D01*
X137660316Y-70151745D01*
X137796705Y-70100615D01*
X137913261Y-70013261D01*
X138000615Y-69896705D01*
X138051745Y-69760316D01*
X138058500Y-69698134D01*
X138058500Y-68965469D01*
X139312095Y-68965469D01*
X139312392Y-68970622D01*
X139312392Y-68970625D01*
X139318067Y-69069041D01*
X139325427Y-69196697D01*
X139326564Y-69201743D01*
X139326565Y-69201749D01*
X139358741Y-69344523D01*
X139376346Y-69422642D01*
X139378288Y-69427424D01*
X139378289Y-69427428D01*
X139461540Y-69632450D01*
X139463484Y-69637237D01*
X139584501Y-69834719D01*
X139736147Y-70009784D01*
X139824651Y-70083261D01*
X139904876Y-70149865D01*
X139914349Y-70157730D01*
X140114322Y-70274584D01*
X140330694Y-70357209D01*
X140335760Y-70358240D01*
X140335761Y-70358240D01*
X140388846Y-70369040D01*
X140557656Y-70403385D01*
X140688324Y-70408176D01*
X140783949Y-70411683D01*
X140783953Y-70411683D01*
X140789113Y-70411872D01*
X140794233Y-70411216D01*
X140794235Y-70411216D01*
X140867270Y-70401860D01*
X141018847Y-70382442D01*
X141023795Y-70380957D01*
X141023802Y-70380956D01*
X141235747Y-70317369D01*
X141240690Y-70315886D01*
X141245979Y-70313295D01*
X141444049Y-70216262D01*
X141444052Y-70216260D01*
X141448684Y-70213991D01*
X141637243Y-70079494D01*
X141801303Y-69916005D01*
X141815172Y-69896705D01*
X141907860Y-69767715D01*
X141936458Y-69727917D01*
X141952867Y-69694717D01*
X142036784Y-69524922D01*
X142036785Y-69524920D01*
X142039078Y-69520280D01*
X142106408Y-69298671D01*
X142136640Y-69069041D01*
X142138327Y-69000000D01*
X142130960Y-68910388D01*
X142119773Y-68774318D01*
X142119772Y-68774312D01*
X142119349Y-68769167D01*
X142062925Y-68544533D01*
X142050934Y-68516955D01*
X141972630Y-68336868D01*
X141972628Y-68336865D01*
X141970570Y-68332131D01*
X141844764Y-68137665D01*
X141688887Y-67966358D01*
X141684836Y-67963159D01*
X141684832Y-67963155D01*
X141511177Y-67826011D01*
X141511172Y-67826008D01*
X141507123Y-67822810D01*
X141502607Y-67820317D01*
X141502604Y-67820315D01*
X141308879Y-67713373D01*
X141308875Y-67713371D01*
X141304355Y-67710876D01*
X141299486Y-67709152D01*
X141299482Y-67709150D01*
X141090903Y-67635288D01*
X141090899Y-67635287D01*
X141086028Y-67633562D01*
X141080935Y-67632655D01*
X141080932Y-67632654D01*
X140863095Y-67593851D01*
X140863089Y-67593850D01*
X140858006Y-67592945D01*
X140785096Y-67592054D01*
X140631581Y-67590179D01*
X140631579Y-67590179D01*
X140626411Y-67590116D01*
X140397464Y-67625150D01*
X140177314Y-67697106D01*
X140172726Y-67699494D01*
X140172722Y-67699496D01*
X140014804Y-67781703D01*
X139971872Y-67804052D01*
X139967739Y-67807155D01*
X139967736Y-67807157D01*
X139820720Y-67917540D01*
X139786655Y-67943117D01*
X139626639Y-68110564D01*
X139623725Y-68114836D01*
X139623724Y-68114837D01*
X139608152Y-68137665D01*
X139496119Y-68301899D01*
X139398602Y-68511981D01*
X139336707Y-68735169D01*
X139312095Y-68965469D01*
X138058500Y-68965469D01*
X138058500Y-67134000D01*
X138078502Y-67065879D01*
X138132158Y-67019386D01*
X138184500Y-67008000D01*
X149366000Y-67008000D01*
X149434121Y-67028002D01*
X149480614Y-67081658D01*
X149492000Y-67134000D01*
X149492000Y-67385500D01*
X149471998Y-67453621D01*
X149418342Y-67500114D01*
X149366000Y-67511500D01*
X146904985Y-67511500D01*
X146903446Y-67511491D01*
X146800081Y-67510228D01*
X146800079Y-67510228D01*
X146794911Y-67510165D01*
X146789797Y-67510948D01*
X146786289Y-67511193D01*
X146777496Y-67511500D01*
X145991866Y-67511500D01*
X145929684Y-67518255D01*
X145793295Y-67569385D01*
X145676739Y-67656739D01*
X145589385Y-67773295D01*
X145538255Y-67909684D01*
X145531500Y-67971866D01*
X145531500Y-68790219D01*
X145530787Y-68803607D01*
X145527251Y-68836695D01*
X145527548Y-68841848D01*
X145527548Y-68841851D01*
X145531291Y-68906763D01*
X145531500Y-68914016D01*
X145531500Y-69768134D01*
X145538255Y-69830316D01*
X145589385Y-69966705D01*
X145618434Y-70005465D01*
X145662630Y-70064435D01*
X145687478Y-70130941D01*
X145672425Y-70200324D01*
X145662632Y-70215562D01*
X145589385Y-70313295D01*
X145538255Y-70449684D01*
X145531500Y-70511866D01*
X145531500Y-71330219D01*
X145530787Y-71343607D01*
X145527251Y-71376695D01*
X145527548Y-71381848D01*
X145527548Y-71381851D01*
X145531291Y-71446763D01*
X145531500Y-71454016D01*
X145531500Y-72308134D01*
X145538255Y-72370316D01*
X145589385Y-72506705D01*
X145611376Y-72536047D01*
X145662942Y-72604852D01*
X145687790Y-72671358D01*
X145672737Y-72740741D01*
X145662942Y-72755982D01*
X145595214Y-72846351D01*
X145586676Y-72861946D01*
X145541522Y-72982394D01*
X145537895Y-72997649D01*
X145532369Y-73048514D01*
X145532000Y-73055328D01*
X145532000Y-73677885D01*
X145536475Y-73693124D01*
X145537865Y-73694329D01*
X145545548Y-73696000D01*
X148162000Y-73696000D01*
X148230121Y-73716002D01*
X148276614Y-73769658D01*
X148288000Y-73822000D01*
X148288000Y-74078000D01*
X148267998Y-74146121D01*
X148214342Y-74192614D01*
X148162000Y-74204000D01*
X145550116Y-74204000D01*
X145534877Y-74208475D01*
X145533672Y-74209865D01*
X145532001Y-74217548D01*
X145532001Y-74844669D01*
X145532371Y-74851490D01*
X145537895Y-74902352D01*
X145541521Y-74917604D01*
X145586676Y-75038054D01*
X145595214Y-75053649D01*
X145662942Y-75144018D01*
X145687790Y-75210525D01*
X145672737Y-75279907D01*
X145662942Y-75295148D01*
X145589385Y-75393295D01*
X145538255Y-75529684D01*
X145531500Y-75591866D01*
X145531500Y-76410219D01*
X145530787Y-76423607D01*
X145527251Y-76456695D01*
X145527548Y-76461848D01*
X145527548Y-76461851D01*
X145531291Y-76526763D01*
X145531500Y-76534016D01*
X145531500Y-76900405D01*
X145511498Y-76968526D01*
X145494595Y-76989500D01*
X145273595Y-77210500D01*
X145211283Y-77244526D01*
X145140468Y-77239461D01*
X145083632Y-77196914D01*
X145058821Y-77130394D01*
X145058500Y-77121405D01*
X145058500Y-75451866D01*
X145051745Y-75389684D01*
X145000615Y-75253295D01*
X144913261Y-75136739D01*
X144906080Y-75131357D01*
X144805497Y-75055974D01*
X144762982Y-74999115D01*
X144757956Y-74928296D01*
X144775176Y-74889983D01*
X144773770Y-74889121D01*
X144895205Y-74690958D01*
X144899687Y-74682163D01*
X144986734Y-74472012D01*
X144989783Y-74462627D01*
X145042885Y-74241446D01*
X145044428Y-74231699D01*
X145062275Y-74004930D01*
X145062275Y-73995070D01*
X145044428Y-73768301D01*
X145042885Y-73758554D01*
X144989783Y-73537373D01*
X144986734Y-73527988D01*
X144899687Y-73317837D01*
X144895205Y-73309042D01*
X144792568Y-73141555D01*
X144782110Y-73132093D01*
X144773334Y-73135876D01*
X143639095Y-74270115D01*
X143576783Y-74304141D01*
X143505968Y-74299076D01*
X143460905Y-74270115D01*
X143279885Y-74089095D01*
X143245859Y-74026783D01*
X143250924Y-73955968D01*
X143279885Y-73910905D01*
X144411080Y-72779710D01*
X144432026Y-72741352D01*
X144460782Y-72705928D01*
X144616213Y-72573177D01*
X144619969Y-72569969D01*
X144774176Y-72389416D01*
X144776755Y-72385208D01*
X144776759Y-72385202D01*
X144895654Y-72191183D01*
X144898240Y-72186963D01*
X144962901Y-72030858D01*
X144987211Y-71972167D01*
X144987212Y-71972165D01*
X144989105Y-71967594D01*
X145044535Y-71736711D01*
X145063165Y-71500000D01*
X145044535Y-71263289D01*
X145032718Y-71214065D01*
X144990260Y-71037218D01*
X144989105Y-71032406D01*
X144950457Y-70939101D01*
X144900135Y-70817611D01*
X144900133Y-70817607D01*
X144898240Y-70813037D01*
X144869840Y-70766693D01*
X144776759Y-70614798D01*
X144776755Y-70614792D01*
X144774176Y-70610584D01*
X144619969Y-70430031D01*
X144439416Y-70275824D01*
X144435208Y-70273245D01*
X144435202Y-70273241D01*
X144241183Y-70154346D01*
X144236963Y-70151760D01*
X144232393Y-70149867D01*
X144232389Y-70149865D01*
X144022167Y-70062789D01*
X144022165Y-70062788D01*
X144017594Y-70060895D01*
X143937391Y-70041640D01*
X143791524Y-70006620D01*
X143791518Y-70006619D01*
X143786711Y-70005465D01*
X143550000Y-69986835D01*
X143313289Y-70005465D01*
X143308482Y-70006619D01*
X143308476Y-70006620D01*
X143162609Y-70041640D01*
X143082406Y-70060895D01*
X143077835Y-70062788D01*
X143077833Y-70062789D01*
X142867611Y-70149865D01*
X142867607Y-70149867D01*
X142863037Y-70151760D01*
X142858817Y-70154346D01*
X142664798Y-70273241D01*
X142664792Y-70273245D01*
X142660584Y-70275824D01*
X142480031Y-70430031D01*
X142325824Y-70610584D01*
X142323245Y-70614792D01*
X142323241Y-70614798D01*
X142230160Y-70766693D01*
X142201760Y-70813037D01*
X142199867Y-70817607D01*
X142199865Y-70817611D01*
X142149543Y-70939101D01*
X142110895Y-71032406D01*
X142109740Y-71037218D01*
X142067283Y-71214065D01*
X142055465Y-71263289D01*
X142036835Y-71500000D01*
X142055465Y-71736711D01*
X142056619Y-71741518D01*
X142056620Y-71741524D01*
X142109060Y-71959950D01*
X142105513Y-72030858D01*
X142075636Y-72078459D01*
X141891313Y-72262782D01*
X141829001Y-72296808D01*
X141758186Y-72291743D01*
X141701350Y-72249196D01*
X141676539Y-72182676D01*
X141676697Y-72162706D01*
X141687828Y-72035475D01*
X141688307Y-72030000D01*
X141669115Y-71810629D01*
X141612120Y-71597924D01*
X141562451Y-71491409D01*
X141521382Y-71403334D01*
X141521379Y-71403329D01*
X141519056Y-71398347D01*
X141515899Y-71393838D01*
X141395908Y-71222473D01*
X141395906Y-71222470D01*
X141392749Y-71217962D01*
X141237038Y-71062251D01*
X141201288Y-71037218D01*
X141157759Y-71006739D01*
X141056654Y-70935944D01*
X140857076Y-70842880D01*
X140644371Y-70785885D01*
X140425000Y-70766693D01*
X140205629Y-70785885D01*
X139992924Y-70842880D01*
X139899562Y-70886415D01*
X139798334Y-70933618D01*
X139798329Y-70933621D01*
X139793347Y-70935944D01*
X139788840Y-70939100D01*
X139788838Y-70939101D01*
X139617473Y-71059092D01*
X139617470Y-71059094D01*
X139612962Y-71062251D01*
X139457251Y-71217962D01*
X139454094Y-71222470D01*
X139454092Y-71222473D01*
X139334101Y-71393838D01*
X139330944Y-71398347D01*
X139328621Y-71403329D01*
X139328618Y-71403334D01*
X139287549Y-71491409D01*
X139237880Y-71597924D01*
X139180885Y-71810629D01*
X139161693Y-72030000D01*
X139180885Y-72249371D01*
X139182308Y-72254681D01*
X139211174Y-72362409D01*
X139209484Y-72433386D01*
X139169690Y-72492182D01*
X139104426Y-72520130D01*
X139089467Y-72521021D01*
X136910533Y-72521021D01*
X136842412Y-72501019D01*
X136795919Y-72447363D01*
X136785815Y-72377089D01*
X136788826Y-72362409D01*
X136817692Y-72254681D01*
X136819115Y-72249371D01*
X136838307Y-72030000D01*
X136819115Y-71810629D01*
X136762120Y-71597924D01*
X136712451Y-71491409D01*
X136671382Y-71403334D01*
X136671379Y-71403329D01*
X136669056Y-71398347D01*
X136665899Y-71393838D01*
X136545908Y-71222473D01*
X136545906Y-71222470D01*
X136542749Y-71217962D01*
X136387038Y-71062251D01*
X136351288Y-71037218D01*
X136307759Y-71006739D01*
X136206654Y-70935944D01*
X136007076Y-70842880D01*
X135794371Y-70785885D01*
X135575000Y-70766693D01*
X135355629Y-70785885D01*
X135142924Y-70842880D01*
X135049562Y-70886415D01*
X134948334Y-70933618D01*
X134948329Y-70933621D01*
X134943347Y-70935944D01*
X134938840Y-70939100D01*
X134938838Y-70939101D01*
X134767473Y-71059092D01*
X134767470Y-71059094D01*
X134762962Y-71062251D01*
X134607251Y-71217962D01*
X134604094Y-71222470D01*
X134604092Y-71222473D01*
X134484101Y-71393838D01*
X134480944Y-71398347D01*
X134478621Y-71403329D01*
X134478618Y-71403334D01*
X134437549Y-71491409D01*
X134387880Y-71597924D01*
X134330885Y-71810629D01*
X134311693Y-72030000D01*
X134330885Y-72249371D01*
X134332308Y-72254681D01*
X134361174Y-72362409D01*
X134359484Y-72433386D01*
X134319690Y-72492182D01*
X134254426Y-72520130D01*
X134239467Y-72521021D01*
X133089246Y-72521021D01*
X133078063Y-72520494D01*
X133070570Y-72518819D01*
X133062644Y-72519068D01*
X133062643Y-72519068D01*
X133002480Y-72520959D01*
X132998522Y-72521021D01*
X132970623Y-72521021D01*
X132966633Y-72521525D01*
X132954799Y-72522457D01*
X132910590Y-72523847D01*
X132902976Y-72526059D01*
X132902971Y-72526060D01*
X132891138Y-72529498D01*
X132871775Y-72533509D01*
X132851682Y-72536047D01*
X132844315Y-72538964D01*
X132844310Y-72538965D01*
X132810571Y-72552323D01*
X132799344Y-72556167D01*
X132756886Y-72568503D01*
X132750060Y-72572540D01*
X132739451Y-72578814D01*
X132721703Y-72587509D01*
X132702862Y-72594969D01*
X132696446Y-72599631D01*
X132696445Y-72599631D01*
X132667092Y-72620957D01*
X132657172Y-72627473D01*
X132625944Y-72645941D01*
X132625941Y-72645943D01*
X132619117Y-72649979D01*
X132604796Y-72664300D01*
X132589763Y-72677140D01*
X132573372Y-72689049D01*
X132568322Y-72695153D01*
X132568317Y-72695158D01*
X132545186Y-72723119D01*
X132537196Y-72731900D01*
X131629499Y-73639596D01*
X131567187Y-73673621D01*
X131540404Y-73676500D01*
X131266386Y-73676501D01*
X131248366Y-73676501D01*
X131245508Y-73676764D01*
X131245499Y-73676764D01*
X131209996Y-73680026D01*
X131174938Y-73683247D01*
X131168560Y-73685246D01*
X131168559Y-73685246D01*
X131018550Y-73732256D01*
X131018548Y-73732257D01*
X131011301Y-73734528D01*
X130864619Y-73823361D01*
X130743361Y-73944619D01*
X130654528Y-74091301D01*
X130652257Y-74098548D01*
X130642734Y-74128936D01*
X130603276Y-74187958D01*
X130538172Y-74216278D01*
X130494288Y-74209156D01*
X130493559Y-74212507D01*
X130454452Y-74204000D01*
X127838000Y-74204000D01*
X127769879Y-74183998D01*
X127723386Y-74130342D01*
X127712000Y-74078000D01*
X127712000Y-73822000D01*
X127732002Y-73753879D01*
X127785658Y-73707386D01*
X127838000Y-73696000D01*
X130449884Y-73696000D01*
X130465123Y-73691525D01*
X130466328Y-73690135D01*
X130467999Y-73682452D01*
X130467999Y-73055331D01*
X130467629Y-73048510D01*
X130462105Y-72997648D01*
X130458479Y-72982396D01*
X130413324Y-72861946D01*
X130404786Y-72846351D01*
X130337058Y-72755982D01*
X130312210Y-72689475D01*
X130327263Y-72620093D01*
X130337058Y-72604852D01*
X130388624Y-72536047D01*
X130410615Y-72506705D01*
X130461745Y-72370316D01*
X130468500Y-72308134D01*
X130468500Y-71507856D01*
X130469578Y-71491409D01*
X130471092Y-71479908D01*
X130471529Y-71476590D01*
X130473156Y-71410000D01*
X130468924Y-71358524D01*
X130468500Y-71348200D01*
X130468500Y-70511866D01*
X130461745Y-70449684D01*
X130410615Y-70313295D01*
X130337370Y-70215564D01*
X130312522Y-70149059D01*
X130327575Y-70079676D01*
X130337370Y-70064435D01*
X130381566Y-70005465D01*
X130410615Y-69966705D01*
X130461745Y-69830316D01*
X130468500Y-69768134D01*
X130468500Y-68967856D01*
X130469578Y-68951409D01*
X130471092Y-68939908D01*
X130471529Y-68936590D01*
X130473156Y-68870000D01*
X130468924Y-68818524D01*
X130468500Y-68808200D01*
X130468500Y-67971866D01*
X130461745Y-67909684D01*
X130410615Y-67773295D01*
X130323261Y-67656739D01*
X130206705Y-67569385D01*
X130070316Y-67518255D01*
X130008134Y-67511500D01*
X129124985Y-67511500D01*
X129123446Y-67511491D01*
X129020081Y-67510228D01*
X129020079Y-67510228D01*
X129014911Y-67510165D01*
X129009797Y-67510948D01*
X129006289Y-67511193D01*
X128997496Y-67511500D01*
X126411866Y-67511500D01*
X126349684Y-67518255D01*
X126213295Y-67569385D01*
X126201232Y-67578426D01*
X126134727Y-67603274D01*
X126065345Y-67588222D01*
X126015114Y-67538049D01*
X125999672Y-67476523D01*
X126002608Y-67132923D01*
X126023191Y-67064976D01*
X126077242Y-67018943D01*
X126128603Y-67008000D01*
X133915500Y-67008000D01*
X133983621Y-67028002D01*
G37*
G04 #@! TD.AperFunction*
M02*
