M48
; DRILL file {KiCad (6.0.1)} date Thu 27 Jan 2022 16:11:52 CET
; FORMAT={-:-/ absolute / inch / decimal}
; #@! TF.CreationDate,2022-01-27T16:11:52+01:00
; #@! TF.GenerationSoftware,Kicad,Pcbnew,(6.0.1)
; #@! TF.FileFunction,Plated,1,2,PTH
FMAT,2
INCH
; #@! TA.AperFunction,Plated,PTH,ViaDrill
T1C0.0157
; #@! TA.AperFunction,Plated,PTH,ComponentDrill
T2C0.0394
; #@! TA.AperFunction,Plated,PTH,ComponentDrill
T3C0.0402
; #@! TA.AperFunction,Plated,PTH,ComponentDrill
T4C0.0787
%
G90
G05
T1
X5.1378Y-3.7598
X5.1575Y-3.6024
X5.1663Y-3.7015
X5.1772Y-3.1864
X5.1772Y-3.8976
X5.1772Y-3.9961
X5.1772Y-4.4094
X5.1772Y-4.5472
X5.1969Y-2.7165
X5.1969Y-3.4843
X5.1969Y-3.7992
X5.1988Y-3.5709
X5.2342Y-3.8888
X5.2559Y-2.9921
X5.2756Y-3.0315
X5.2756Y-3.5345
X5.2756Y-4.5079
X5.2953Y-3.9629
X5.2953Y-3.6024
X5.315Y-3.4951
X5.3346Y-3.3465
X5.3346Y-4.1142
X5.3937Y-3.4646
X5.3937Y-4.0157
X5.4326Y-3.9365
X5.4331Y-2.9331
X5.4446Y-3.5318
X5.4528Y-4.2323
X5.4744Y-3.7561
X5.4793Y-3.8389
X5.4924Y-4.4308
X5.5146Y-4.0354
X5.5309Y-3.7566
X5.5313Y-3.6589
X5.5315Y-4.1339
X5.5315Y-4.3454
X5.5512Y-3.5601
X5.5906Y-3.8583
X5.6102Y-3.7598
X5.6496Y-3.7402
X5.6496Y-4.2717
X5.6693Y-2.6772
X5.6693Y-2.7165
X5.6693Y-3.8583
X5.6693Y-4.4094
X5.689Y-4.8228
X5.7087Y-3.2677
T2
X5.6516Y-2.815
X5.6516Y-2.9134
X5.6516Y-3.0118
X5.6516Y-3.3858
X5.6516Y-3.4843
X5.6516Y-3.5827
X5.6516Y-3.9567
X5.6516Y-4.0551
X5.6516Y-4.1535
X5.6516Y-4.5276
X5.6516Y-4.626
X5.6516Y-4.7244
T3
X5.0831Y-2.7114
X5.0831Y-2.8114
X5.0831Y-2.9114
X5.0831Y-3.0114
X5.0831Y-3.1114
X5.0831Y-3.2114
X5.0831Y-3.3114
X5.0831Y-3.4114
X5.0831Y-3.5114
X5.0831Y-3.6114
X5.0831Y-3.7114
X5.0831Y-3.8114
X5.0831Y-3.9114
X5.0831Y-4.0114
X5.0831Y-4.1114
X5.0831Y-4.2114
X5.0831Y-4.3114
X5.0831Y-4.4114
X5.0831Y-4.5114
X5.0831Y-4.6114
X5.3331Y-4.6024
X5.4331Y-4.6024
X5.5331Y-4.6024
X5.7831Y-2.7114
X5.7831Y-2.8114
X5.7831Y-2.9114
X5.7831Y-3.0114
X5.7831Y-3.1114
X5.7831Y-3.2114
X5.7831Y-3.3114
X5.7831Y-3.4114
X5.7831Y-3.5114
X5.7831Y-3.6114
X5.7831Y-3.7114
X5.7831Y-3.8114
X5.7831Y-3.9114
X5.7831Y-4.0114
X5.7831Y-4.1114
X5.7831Y-4.2114
X5.7831Y-4.3114
X5.7831Y-4.4114
X5.7831Y-4.5114
X5.7831Y-4.6114
T4
G00X5.3661Y-2.6929
M15
G01X5.3465Y-2.6929
M16
G05
G00X5.3661Y-3.1339
M15
G01X5.3465Y-3.1339
M16
G05
G00X5.3661Y-3.2638
M15
G01X5.3465Y-3.2638
M16
G05
G00X5.3661Y-3.7047
M15
G01X5.3465Y-3.7047
M16
G05
G00X5.3661Y-3.8346
M15
G01X5.3465Y-3.8346
M16
G05
G00X5.3661Y-4.2756
M15
G01X5.3465Y-4.2756
M16
G05
G00X5.3661Y-4.4055
M15
G01X5.3465Y-4.4055
M16
G05
G00X5.3661Y-4.8465
M15
G01X5.3465Y-4.8465
M16
G05
T0
M30
