G04 #@! TF.GenerationSoftware,KiCad,Pcbnew,(6.0.1)*
G04 #@! TF.CreationDate,2022-01-27T16:12:40+01:00*
G04 #@! TF.ProjectId,mico,6d69636f-2e6b-4696-9361-645f70636258,rev?*
G04 #@! TF.SameCoordinates,Original*
G04 #@! TF.FileFunction,Legend,Bot*
G04 #@! TF.FilePolarity,Positive*
%FSLAX46Y46*%
G04 Gerber Fmt 4.6, Leading zero omitted, Abs format (unit mm)*
G04 Created by KiCad (PCBNEW (6.0.1)) date 2022-01-27 16:12:40*
%MOMM*%
%LPD*%
G01*
G04 APERTURE LIST*
G04 Aperture macros list*
%AMRoundRect*
0 Rectangle with rounded corners*
0 $1 Rounding radius*
0 $2 $3 $4 $5 $6 $7 $8 $9 X,Y pos of 4 corners*
0 Add a 4 corners polygon primitive as box body*
4,1,4,$2,$3,$4,$5,$6,$7,$8,$9,$2,$3,0*
0 Add four circle primitives for the rounded corners*
1,1,$1+$1,$2,$3*
1,1,$1+$1,$4,$5*
1,1,$1+$1,$6,$7*
1,1,$1+$1,$8,$9*
0 Add four rect primitives between the rounded corners*
20,1,$1+$1,$2,$3,$4,$5,0*
20,1,$1+$1,$4,$5,$6,$7,0*
20,1,$1+$1,$6,$7,$8,$9,0*
20,1,$1+$1,$8,$9,$2,$3,0*%
G04 Aperture macros list end*
%ADD10C,0.150000*%
%ADD11C,0.120000*%
%ADD12R,2.000000X2.000000*%
%ADD13C,2.000000*%
%ADD14R,3.000000X2.500000*%
%ADD15RoundRect,0.225000X-0.225000X-0.250000X0.225000X-0.250000X0.225000X0.250000X-0.225000X0.250000X0*%
%ADD16RoundRect,0.200000X-0.200000X-0.275000X0.200000X-0.275000X0.200000X0.275000X-0.200000X0.275000X0*%
%ADD17O,1.500000X1.500000*%
%ADD18O,1.800000X1.800000*%
%ADD19R,3.500000X1.700000*%
%ADD20O,1.700000X1.700000*%
%ADD21R,1.700000X1.700000*%
%ADD22R,1.700000X3.500000*%
G04 APERTURE END LIST*
D10*
X140336666Y-110637142D02*
X140384285Y-110684761D01*
X140527142Y-110732380D01*
X140622380Y-110732380D01*
X140765238Y-110684761D01*
X140860476Y-110589523D01*
X140908095Y-110494285D01*
X140955714Y-110303809D01*
X140955714Y-110160952D01*
X140908095Y-109970476D01*
X140860476Y-109875238D01*
X140765238Y-109780000D01*
X140622380Y-109732380D01*
X140527142Y-109732380D01*
X140384285Y-109780000D01*
X140336666Y-109827619D01*
X139479523Y-110065714D02*
X139479523Y-110732380D01*
X139717619Y-109684761D02*
X139955714Y-110399047D01*
X139336666Y-110399047D01*
X132666666Y-88817142D02*
X132714285Y-88864761D01*
X132857142Y-88912380D01*
X132952380Y-88912380D01*
X133095238Y-88864761D01*
X133190476Y-88769523D01*
X133238095Y-88674285D01*
X133285714Y-88483809D01*
X133285714Y-88340952D01*
X133238095Y-88150476D01*
X133190476Y-88055238D01*
X133095238Y-87960000D01*
X132952380Y-87912380D01*
X132857142Y-87912380D01*
X132714285Y-87960000D01*
X132666666Y-88007619D01*
X132285714Y-88007619D02*
X132238095Y-87960000D01*
X132142857Y-87912380D01*
X131904761Y-87912380D01*
X131809523Y-87960000D01*
X131761904Y-88007619D01*
X131714285Y-88102857D01*
X131714285Y-88198095D01*
X131761904Y-88340952D01*
X132333333Y-88912380D01*
X131714285Y-88912380D01*
X132666666Y-83797142D02*
X132714285Y-83844761D01*
X132857142Y-83892380D01*
X132952380Y-83892380D01*
X133095238Y-83844761D01*
X133190476Y-83749523D01*
X133238095Y-83654285D01*
X133285714Y-83463809D01*
X133285714Y-83320952D01*
X133238095Y-83130476D01*
X133190476Y-83035238D01*
X133095238Y-82940000D01*
X132952380Y-82892380D01*
X132857142Y-82892380D01*
X132714285Y-82940000D01*
X132666666Y-82987619D01*
X131714285Y-83892380D02*
X132285714Y-83892380D01*
X132000000Y-83892380D02*
X132000000Y-82892380D01*
X132095238Y-83035238D01*
X132190476Y-83130476D01*
X132285714Y-83178095D01*
X132972857Y-107552380D02*
X133306190Y-107076190D01*
X133544285Y-107552380D02*
X133544285Y-106552380D01*
X133163333Y-106552380D01*
X133068095Y-106600000D01*
X133020476Y-106647619D01*
X132972857Y-106742857D01*
X132972857Y-106885714D01*
X133020476Y-106980952D01*
X133068095Y-107028571D01*
X133163333Y-107076190D01*
X133544285Y-107076190D01*
X132115714Y-106552380D02*
X132306190Y-106552380D01*
X132401428Y-106600000D01*
X132449047Y-106647619D01*
X132544285Y-106790476D01*
X132591904Y-106980952D01*
X132591904Y-107361904D01*
X132544285Y-107457142D01*
X132496666Y-107504761D01*
X132401428Y-107552380D01*
X132210952Y-107552380D01*
X132115714Y-107504761D01*
X132068095Y-107457142D01*
X132020476Y-107361904D01*
X132020476Y-107123809D01*
X132068095Y-107028571D01*
X132115714Y-106980952D01*
X132210952Y-106933333D01*
X132401428Y-106933333D01*
X132496666Y-106980952D01*
X132544285Y-107028571D01*
X132591904Y-107123809D01*
X131687142Y-106552380D02*
X131020476Y-106552380D01*
X131449047Y-107552380D01*
X132666666Y-81382380D02*
X133000000Y-80906190D01*
X133238095Y-81382380D02*
X133238095Y-80382380D01*
X132857142Y-80382380D01*
X132761904Y-80430000D01*
X132714285Y-80477619D01*
X132666666Y-80572857D01*
X132666666Y-80715714D01*
X132714285Y-80810952D01*
X132761904Y-80858571D01*
X132857142Y-80906190D01*
X133238095Y-80906190D01*
X131809523Y-80715714D02*
X131809523Y-81382380D01*
X132047619Y-80334761D02*
X132285714Y-81049047D01*
X131666666Y-81049047D01*
X132972857Y-96927142D02*
X133020476Y-96974761D01*
X133163333Y-97022380D01*
X133258571Y-97022380D01*
X133401428Y-96974761D01*
X133496666Y-96879523D01*
X133544285Y-96784285D01*
X133591904Y-96593809D01*
X133591904Y-96450952D01*
X133544285Y-96260476D01*
X133496666Y-96165238D01*
X133401428Y-96070000D01*
X133258571Y-96022380D01*
X133163333Y-96022380D01*
X133020476Y-96070000D01*
X132972857Y-96117619D01*
X132639523Y-96022380D02*
X132020476Y-96022380D01*
X132353809Y-96403333D01*
X132210952Y-96403333D01*
X132115714Y-96450952D01*
X132068095Y-96498571D01*
X132020476Y-96593809D01*
X132020476Y-96831904D01*
X132068095Y-96927142D01*
X132115714Y-96974761D01*
X132210952Y-97022380D01*
X132496666Y-97022380D01*
X132591904Y-96974761D01*
X132639523Y-96927142D01*
X131115714Y-96022380D02*
X131591904Y-96022380D01*
X131639523Y-96498571D01*
X131591904Y-96450952D01*
X131496666Y-96403333D01*
X131258571Y-96403333D01*
X131163333Y-96450952D01*
X131115714Y-96498571D01*
X131068095Y-96593809D01*
X131068095Y-96831904D01*
X131115714Y-96927142D01*
X131163333Y-96974761D01*
X131258571Y-97022380D01*
X131496666Y-97022380D01*
X131591904Y-96974761D01*
X131639523Y-96927142D01*
X140642857Y-98362380D02*
X140976190Y-97886190D01*
X141214285Y-98362380D02*
X141214285Y-97362380D01*
X140833333Y-97362380D01*
X140738095Y-97410000D01*
X140690476Y-97457619D01*
X140642857Y-97552857D01*
X140642857Y-97695714D01*
X140690476Y-97790952D01*
X140738095Y-97838571D01*
X140833333Y-97886190D01*
X141214285Y-97886190D01*
X139690476Y-98362380D02*
X140261904Y-98362380D01*
X139976190Y-98362380D02*
X139976190Y-97362380D01*
X140071428Y-97505238D01*
X140166666Y-97600476D01*
X140261904Y-97648095D01*
X138738095Y-98362380D02*
X139309523Y-98362380D01*
X139023809Y-98362380D02*
X139023809Y-97362380D01*
X139119047Y-97505238D01*
X139214285Y-97600476D01*
X139309523Y-97648095D01*
X140166666Y-90777142D02*
X140214285Y-90824761D01*
X140357142Y-90872380D01*
X140452380Y-90872380D01*
X140595238Y-90824761D01*
X140690476Y-90729523D01*
X140738095Y-90634285D01*
X140785714Y-90443809D01*
X140785714Y-90300952D01*
X140738095Y-90110476D01*
X140690476Y-90015238D01*
X140595238Y-89920000D01*
X140452380Y-89872380D01*
X140357142Y-89872380D01*
X140214285Y-89920000D01*
X140166666Y-89967619D01*
X139261904Y-89872380D02*
X139738095Y-89872380D01*
X139785714Y-90348571D01*
X139738095Y-90300952D01*
X139642857Y-90253333D01*
X139404761Y-90253333D01*
X139309523Y-90300952D01*
X139261904Y-90348571D01*
X139214285Y-90443809D01*
X139214285Y-90681904D01*
X139261904Y-90777142D01*
X139309523Y-90824761D01*
X139404761Y-90872380D01*
X139642857Y-90872380D01*
X139738095Y-90824761D01*
X139785714Y-90777142D01*
X140166666Y-100872380D02*
X140500000Y-100396190D01*
X140738095Y-100872380D02*
X140738095Y-99872380D01*
X140357142Y-99872380D01*
X140261904Y-99920000D01*
X140214285Y-99967619D01*
X140166666Y-100062857D01*
X140166666Y-100205714D01*
X140214285Y-100300952D01*
X140261904Y-100348571D01*
X140357142Y-100396190D01*
X140738095Y-100396190D01*
X139690476Y-100872380D02*
X139500000Y-100872380D01*
X139404761Y-100824761D01*
X139357142Y-100777142D01*
X139261904Y-100634285D01*
X139214285Y-100443809D01*
X139214285Y-100062857D01*
X139261904Y-99967619D01*
X139309523Y-99920000D01*
X139404761Y-99872380D01*
X139595238Y-99872380D01*
X139690476Y-99920000D01*
X139738095Y-99967619D01*
X139785714Y-100062857D01*
X139785714Y-100300952D01*
X139738095Y-100396190D01*
X139690476Y-100443809D01*
X139595238Y-100491428D01*
X139404761Y-100491428D01*
X139309523Y-100443809D01*
X139261904Y-100396190D01*
X139214285Y-100300952D01*
X132972857Y-99532380D02*
X133306190Y-99056190D01*
X133544285Y-99532380D02*
X133544285Y-98532380D01*
X133163333Y-98532380D01*
X133068095Y-98580000D01*
X133020476Y-98627619D01*
X132972857Y-98722857D01*
X132972857Y-98865714D01*
X133020476Y-98960952D01*
X133068095Y-99008571D01*
X133163333Y-99056190D01*
X133544285Y-99056190D01*
X132115714Y-98532380D02*
X132306190Y-98532380D01*
X132401428Y-98580000D01*
X132449047Y-98627619D01*
X132544285Y-98770476D01*
X132591904Y-98960952D01*
X132591904Y-99341904D01*
X132544285Y-99437142D01*
X132496666Y-99484761D01*
X132401428Y-99532380D01*
X132210952Y-99532380D01*
X132115714Y-99484761D01*
X132068095Y-99437142D01*
X132020476Y-99341904D01*
X132020476Y-99103809D01*
X132068095Y-99008571D01*
X132115714Y-98960952D01*
X132210952Y-98913333D01*
X132401428Y-98913333D01*
X132496666Y-98960952D01*
X132544285Y-99008571D01*
X132591904Y-99103809D01*
X131449047Y-98960952D02*
X131544285Y-98913333D01*
X131591904Y-98865714D01*
X131639523Y-98770476D01*
X131639523Y-98722857D01*
X131591904Y-98627619D01*
X131544285Y-98580000D01*
X131449047Y-98532380D01*
X131258571Y-98532380D01*
X131163333Y-98580000D01*
X131115714Y-98627619D01*
X131068095Y-98722857D01*
X131068095Y-98770476D01*
X131115714Y-98865714D01*
X131163333Y-98913333D01*
X131258571Y-98960952D01*
X131449047Y-98960952D01*
X131544285Y-99008571D01*
X131591904Y-99056190D01*
X131639523Y-99151428D01*
X131639523Y-99341904D01*
X131591904Y-99437142D01*
X131544285Y-99484761D01*
X131449047Y-99532380D01*
X131258571Y-99532380D01*
X131163333Y-99484761D01*
X131115714Y-99437142D01*
X131068095Y-99341904D01*
X131068095Y-99151428D01*
X131115714Y-99056190D01*
X131163333Y-99008571D01*
X131258571Y-98960952D01*
X140336666Y-105617142D02*
X140384285Y-105664761D01*
X140527142Y-105712380D01*
X140622380Y-105712380D01*
X140765238Y-105664761D01*
X140860476Y-105569523D01*
X140908095Y-105474285D01*
X140955714Y-105283809D01*
X140955714Y-105140952D01*
X140908095Y-104950476D01*
X140860476Y-104855238D01*
X140765238Y-104760000D01*
X140622380Y-104712380D01*
X140527142Y-104712380D01*
X140384285Y-104760000D01*
X140336666Y-104807619D01*
X140003333Y-104712380D02*
X139384285Y-104712380D01*
X139717619Y-105093333D01*
X139574761Y-105093333D01*
X139479523Y-105140952D01*
X139431904Y-105188571D01*
X139384285Y-105283809D01*
X139384285Y-105521904D01*
X139431904Y-105617142D01*
X139479523Y-105664761D01*
X139574761Y-105712380D01*
X139860476Y-105712380D01*
X139955714Y-105664761D01*
X140003333Y-105617142D01*
X140166666Y-113362380D02*
X140500000Y-112886190D01*
X140738095Y-113362380D02*
X140738095Y-112362380D01*
X140357142Y-112362380D01*
X140261904Y-112410000D01*
X140214285Y-112457619D01*
X140166666Y-112552857D01*
X140166666Y-112695714D01*
X140214285Y-112790952D01*
X140261904Y-112838571D01*
X140357142Y-112886190D01*
X140738095Y-112886190D01*
X139833333Y-112362380D02*
X139166666Y-112362380D01*
X139595238Y-113362380D01*
X132666666Y-86402380D02*
X133000000Y-85926190D01*
X133238095Y-86402380D02*
X133238095Y-85402380D01*
X132857142Y-85402380D01*
X132761904Y-85450000D01*
X132714285Y-85497619D01*
X132666666Y-85592857D01*
X132666666Y-85735714D01*
X132714285Y-85830952D01*
X132761904Y-85878571D01*
X132857142Y-85926190D01*
X133238095Y-85926190D01*
X132285714Y-85497619D02*
X132238095Y-85450000D01*
X132142857Y-85402380D01*
X131904761Y-85402380D01*
X131809523Y-85450000D01*
X131761904Y-85497619D01*
X131714285Y-85592857D01*
X131714285Y-85688095D01*
X131761904Y-85830952D01*
X132333333Y-86402380D01*
X131714285Y-86402380D01*
X140336666Y-103202380D02*
X140670000Y-102726190D01*
X140908095Y-103202380D02*
X140908095Y-102202380D01*
X140527142Y-102202380D01*
X140431904Y-102250000D01*
X140384285Y-102297619D01*
X140336666Y-102392857D01*
X140336666Y-102535714D01*
X140384285Y-102630952D01*
X140431904Y-102678571D01*
X140527142Y-102726190D01*
X140908095Y-102726190D01*
X139765238Y-102630952D02*
X139860476Y-102583333D01*
X139908095Y-102535714D01*
X139955714Y-102440476D01*
X139955714Y-102392857D01*
X139908095Y-102297619D01*
X139860476Y-102250000D01*
X139765238Y-102202380D01*
X139574761Y-102202380D01*
X139479523Y-102250000D01*
X139431904Y-102297619D01*
X139384285Y-102392857D01*
X139384285Y-102440476D01*
X139431904Y-102535714D01*
X139479523Y-102583333D01*
X139574761Y-102630952D01*
X139765238Y-102630952D01*
X139860476Y-102678571D01*
X139908095Y-102726190D01*
X139955714Y-102821428D01*
X139955714Y-103011904D01*
X139908095Y-103107142D01*
X139860476Y-103154761D01*
X139765238Y-103202380D01*
X139574761Y-103202380D01*
X139479523Y-103154761D01*
X139431904Y-103107142D01*
X139384285Y-103011904D01*
X139384285Y-102821428D01*
X139431904Y-102726190D01*
X139479523Y-102678571D01*
X139574761Y-102630952D01*
X140166666Y-115872380D02*
X140500000Y-115396190D01*
X140738095Y-115872380D02*
X140738095Y-114872380D01*
X140357142Y-114872380D01*
X140261904Y-114920000D01*
X140214285Y-114967619D01*
X140166666Y-115062857D01*
X140166666Y-115205714D01*
X140214285Y-115300952D01*
X140261904Y-115348571D01*
X140357142Y-115396190D01*
X140738095Y-115396190D01*
X139261904Y-114872380D02*
X139738095Y-114872380D01*
X139785714Y-115348571D01*
X139738095Y-115300952D01*
X139642857Y-115253333D01*
X139404761Y-115253333D01*
X139309523Y-115300952D01*
X139261904Y-115348571D01*
X139214285Y-115443809D01*
X139214285Y-115681904D01*
X139261904Y-115777142D01*
X139309523Y-115824761D01*
X139404761Y-115872380D01*
X139642857Y-115872380D01*
X139738095Y-115824761D01*
X139785714Y-115777142D01*
X140336666Y-108222380D02*
X140670000Y-107746190D01*
X140908095Y-108222380D02*
X140908095Y-107222380D01*
X140527142Y-107222380D01*
X140431904Y-107270000D01*
X140384285Y-107317619D01*
X140336666Y-107412857D01*
X140336666Y-107555714D01*
X140384285Y-107650952D01*
X140431904Y-107698571D01*
X140527142Y-107746190D01*
X140908095Y-107746190D01*
X139479523Y-107222380D02*
X139670000Y-107222380D01*
X139765238Y-107270000D01*
X139812857Y-107317619D01*
X139908095Y-107460476D01*
X139955714Y-107650952D01*
X139955714Y-108031904D01*
X139908095Y-108127142D01*
X139860476Y-108174761D01*
X139765238Y-108222380D01*
X139574761Y-108222380D01*
X139479523Y-108174761D01*
X139431904Y-108127142D01*
X139384285Y-108031904D01*
X139384285Y-107793809D01*
X139431904Y-107698571D01*
X139479523Y-107650952D01*
X139574761Y-107603333D01*
X139765238Y-107603333D01*
X139860476Y-107650952D01*
X139908095Y-107698571D01*
X139955714Y-107793809D01*
X140166666Y-95797142D02*
X140214285Y-95844761D01*
X140357142Y-95892380D01*
X140452380Y-95892380D01*
X140595238Y-95844761D01*
X140690476Y-95749523D01*
X140738095Y-95654285D01*
X140785714Y-95463809D01*
X140785714Y-95320952D01*
X140738095Y-95130476D01*
X140690476Y-95035238D01*
X140595238Y-94940000D01*
X140452380Y-94892380D01*
X140357142Y-94892380D01*
X140214285Y-94940000D01*
X140166666Y-94987619D01*
X139309523Y-94892380D02*
X139500000Y-94892380D01*
X139595238Y-94940000D01*
X139642857Y-94987619D01*
X139738095Y-95130476D01*
X139785714Y-95320952D01*
X139785714Y-95701904D01*
X139738095Y-95797142D01*
X139690476Y-95844761D01*
X139595238Y-95892380D01*
X139404761Y-95892380D01*
X139309523Y-95844761D01*
X139261904Y-95797142D01*
X139214285Y-95701904D01*
X139214285Y-95463809D01*
X139261904Y-95368571D01*
X139309523Y-95320952D01*
X139404761Y-95273333D01*
X139595238Y-95273333D01*
X139690476Y-95320952D01*
X139738095Y-95368571D01*
X139785714Y-95463809D01*
X138761904Y-92452380D02*
X138761904Y-93261904D01*
X138714285Y-93357142D01*
X138666666Y-93404761D01*
X138571428Y-93452380D01*
X138380952Y-93452380D01*
X138285714Y-93404761D01*
X138238095Y-93357142D01*
X138190476Y-93261904D01*
X138190476Y-92452380D01*
X137190476Y-93452380D02*
X137761904Y-93452380D01*
X137476190Y-93452380D02*
X137476190Y-92452380D01*
X137571428Y-92595238D01*
X137666666Y-92690476D01*
X137761904Y-92738095D01*
X124838375Y-93596564D02*
X124380439Y-93677377D01*
X124515126Y-93273316D02*
X123949441Y-93839001D01*
X124164940Y-94054500D01*
X124245752Y-94081438D01*
X124299627Y-94081438D01*
X124380439Y-94054500D01*
X124461251Y-93973688D01*
X124488189Y-93892876D01*
X124488189Y-93839001D01*
X124461251Y-93758189D01*
X124245752Y-93542690D01*
X124515126Y-94404687D02*
X124973062Y-93946751D01*
X125053874Y-93919813D01*
X125107749Y-93919813D01*
X125188561Y-93946751D01*
X125296311Y-94054500D01*
X125323248Y-94135312D01*
X125323248Y-94189187D01*
X125296311Y-94270000D01*
X124838375Y-94727935D01*
X125673435Y-94431624D02*
X125107749Y-94997309D01*
X125996683Y-94754873D01*
X125430998Y-95320558D01*
X123989722Y-96419407D02*
X123908910Y-96392470D01*
X123828097Y-96311658D01*
X123774223Y-96203908D01*
X123774223Y-96096158D01*
X123801160Y-96015346D01*
X123881972Y-95880659D01*
X123962784Y-95799847D01*
X124097471Y-95719035D01*
X124178284Y-95692097D01*
X124286033Y-95692097D01*
X124393783Y-95745972D01*
X124447658Y-95799847D01*
X124501532Y-95907597D01*
X124501532Y-95961471D01*
X124312971Y-96150033D01*
X124205221Y-96042284D01*
X124797844Y-96150033D02*
X124232158Y-96715719D01*
X124447658Y-96931218D01*
X124528470Y-96958155D01*
X124582345Y-96958155D01*
X124663157Y-96931218D01*
X124743969Y-96850406D01*
X124770906Y-96769593D01*
X124770906Y-96715719D01*
X124743969Y-96634906D01*
X124528470Y-96419407D01*
X124824781Y-97200592D02*
X124824781Y-97254467D01*
X124851719Y-97335279D01*
X124986406Y-97469966D01*
X125067218Y-97496903D01*
X125121093Y-97496903D01*
X125201905Y-97469966D01*
X125255780Y-97416091D01*
X125309654Y-97308341D01*
X125309654Y-96661844D01*
X125659841Y-97012030D01*
X125363529Y-97739340D02*
X125363529Y-97793215D01*
X125390467Y-97874027D01*
X125525154Y-98008714D01*
X125605966Y-98035651D01*
X125659841Y-98035651D01*
X125740653Y-98008714D01*
X125794528Y-97954839D01*
X125848402Y-97847089D01*
X125848402Y-97200592D01*
X126198589Y-97550778D01*
X150097722Y-116739407D02*
X150016910Y-116712470D01*
X149936097Y-116631658D01*
X149882223Y-116523908D01*
X149882223Y-116416158D01*
X149909160Y-116335346D01*
X149989972Y-116200659D01*
X150070784Y-116119847D01*
X150205471Y-116039035D01*
X150286284Y-116012097D01*
X150394033Y-116012097D01*
X150501783Y-116065972D01*
X150555658Y-116119847D01*
X150609532Y-116227597D01*
X150609532Y-116281471D01*
X150420971Y-116470033D01*
X150313221Y-116362284D01*
X150905844Y-116470033D02*
X150340158Y-117035719D01*
X150555658Y-117251218D01*
X150636470Y-117278155D01*
X150690345Y-117278155D01*
X150771157Y-117251218D01*
X150851969Y-117170406D01*
X150878906Y-117089593D01*
X150878906Y-117035719D01*
X150851969Y-116954906D01*
X150636470Y-116739407D01*
X151767841Y-117332030D02*
X151444592Y-117008781D01*
X151606216Y-117170406D02*
X151040531Y-117736091D01*
X151067468Y-117601404D01*
X151067468Y-117493654D01*
X151040531Y-117412842D01*
X151713966Y-118409526D02*
X151444592Y-118140152D01*
X151687028Y-117843841D01*
X151687028Y-117897715D01*
X151713966Y-117978528D01*
X151848653Y-118113215D01*
X151929465Y-118140152D01*
X151983340Y-118140152D01*
X152064152Y-118113215D01*
X152198839Y-117978528D01*
X152225776Y-117897715D01*
X152225776Y-117843841D01*
X152198839Y-117763028D01*
X152064152Y-117628341D01*
X151983340Y-117601404D01*
X151929465Y-117601404D01*
X123353129Y-68072690D02*
X124107377Y-67695566D01*
X123730253Y-68449813D01*
X124376751Y-68557563D02*
X124484500Y-68611438D01*
X124538375Y-68611438D01*
X124619187Y-68584500D01*
X124700000Y-68503688D01*
X124726937Y-68422876D01*
X124726937Y-68369001D01*
X124700000Y-68288189D01*
X124484500Y-68072690D01*
X123918815Y-68638375D01*
X124107377Y-68826937D01*
X124188189Y-68853874D01*
X124242064Y-68853874D01*
X124322876Y-68826937D01*
X124376751Y-68773062D01*
X124403688Y-68692250D01*
X124403688Y-68638375D01*
X124376751Y-68557563D01*
X124188189Y-68369001D01*
X124484500Y-69204061D02*
X124942436Y-68746125D01*
X125023248Y-68719187D01*
X125077123Y-68719187D01*
X125157935Y-68746125D01*
X125265685Y-68853874D01*
X125292622Y-68934687D01*
X125292622Y-68988561D01*
X125265685Y-69069374D01*
X124807749Y-69527309D01*
X125588934Y-69230998D02*
X125696683Y-69284873D01*
X125831370Y-69419560D01*
X125858308Y-69500372D01*
X125858308Y-69554247D01*
X125831370Y-69635059D01*
X125777496Y-69688934D01*
X125696683Y-69715871D01*
X125642809Y-69715871D01*
X125561996Y-69688934D01*
X125427309Y-69608122D01*
X125346497Y-69581184D01*
X125292622Y-69581184D01*
X125211810Y-69608122D01*
X125157935Y-69661996D01*
X125130998Y-69742809D01*
X125130998Y-69796683D01*
X125157935Y-69877496D01*
X125292622Y-70012183D01*
X125400372Y-70066057D01*
X150143722Y-114199407D02*
X150062910Y-114172470D01*
X149982097Y-114091658D01*
X149928223Y-113983908D01*
X149928223Y-113876158D01*
X149955160Y-113795346D01*
X150035972Y-113660659D01*
X150116784Y-113579847D01*
X150251471Y-113499035D01*
X150332284Y-113472097D01*
X150440033Y-113472097D01*
X150547783Y-113525972D01*
X150601658Y-113579847D01*
X150655532Y-113687597D01*
X150655532Y-113741471D01*
X150466971Y-113930033D01*
X150359221Y-113822284D01*
X150951844Y-113930033D02*
X150386158Y-114495719D01*
X150601658Y-114711218D01*
X150682470Y-114738155D01*
X150736345Y-114738155D01*
X150817157Y-114711218D01*
X150897969Y-114630406D01*
X150924906Y-114549593D01*
X150924906Y-114495719D01*
X150897969Y-114414906D01*
X150682470Y-114199407D01*
X151813841Y-114792030D02*
X151490592Y-114468781D01*
X151652216Y-114630406D02*
X151086531Y-115196091D01*
X151113468Y-115061404D01*
X151113468Y-114953654D01*
X151086531Y-114872842D01*
X151921590Y-115654027D02*
X152298714Y-115276903D01*
X151571404Y-115734839D02*
X151840778Y-115196091D01*
X152190964Y-115546277D01*
X123989722Y-104039407D02*
X123908910Y-104012470D01*
X123828097Y-103931658D01*
X123774223Y-103823908D01*
X123774223Y-103716158D01*
X123801160Y-103635346D01*
X123881972Y-103500659D01*
X123962784Y-103419847D01*
X124097471Y-103339035D01*
X124178284Y-103312097D01*
X124286033Y-103312097D01*
X124393783Y-103365972D01*
X124447658Y-103419847D01*
X124501532Y-103527597D01*
X124501532Y-103581471D01*
X124312971Y-103770033D01*
X124205221Y-103662284D01*
X124797844Y-103770033D02*
X124232158Y-104335719D01*
X124447658Y-104551218D01*
X124528470Y-104578155D01*
X124582345Y-104578155D01*
X124663157Y-104551218D01*
X124743969Y-104470406D01*
X124770906Y-104389593D01*
X124770906Y-104335719D01*
X124743969Y-104254906D01*
X124528470Y-104039407D01*
X124824781Y-104820592D02*
X124824781Y-104874467D01*
X124851719Y-104955279D01*
X124986406Y-105089966D01*
X125067218Y-105116903D01*
X125121093Y-105116903D01*
X125201905Y-105089966D01*
X125255780Y-105036091D01*
X125309654Y-104928341D01*
X125309654Y-104281844D01*
X125659841Y-104632030D01*
X125444341Y-105547902D02*
X125498216Y-105601776D01*
X125579028Y-105628714D01*
X125632903Y-105628714D01*
X125713715Y-105601776D01*
X125848402Y-105520964D01*
X125983089Y-105386277D01*
X126063902Y-105251590D01*
X126090839Y-105170778D01*
X126090839Y-105116903D01*
X126063902Y-105036091D01*
X126010027Y-104982216D01*
X125929215Y-104955279D01*
X125875340Y-104955279D01*
X125794528Y-104982216D01*
X125659841Y-105063028D01*
X125525154Y-105197715D01*
X125444341Y-105332402D01*
X125417404Y-105413215D01*
X125417404Y-105467089D01*
X125444341Y-105547902D01*
X150113096Y-96688781D02*
X150032284Y-96661844D01*
X149951471Y-96581032D01*
X149897597Y-96473282D01*
X149897597Y-96365532D01*
X149924534Y-96284720D01*
X150005346Y-96150033D01*
X150086158Y-96069221D01*
X150220845Y-95988409D01*
X150301658Y-95961471D01*
X150409407Y-95961471D01*
X150517157Y-96015346D01*
X150571032Y-96069221D01*
X150624906Y-96176971D01*
X150624906Y-96230845D01*
X150436345Y-96419407D01*
X150328595Y-96311658D01*
X150921218Y-96419407D02*
X150355532Y-96985093D01*
X150571032Y-97200592D01*
X150651844Y-97227529D01*
X150705719Y-97227529D01*
X150786531Y-97200592D01*
X150867343Y-97119780D01*
X150894280Y-97038967D01*
X150894280Y-96985093D01*
X150867343Y-96904280D01*
X150651844Y-96688781D01*
X151513841Y-97012030D02*
X151621590Y-97119780D01*
X151648528Y-97200592D01*
X151648528Y-97254467D01*
X151621590Y-97389154D01*
X151540778Y-97523841D01*
X151325279Y-97739340D01*
X151244467Y-97766277D01*
X151190592Y-97766277D01*
X151109780Y-97739340D01*
X151002030Y-97631590D01*
X150975093Y-97550778D01*
X150975093Y-97496903D01*
X151002030Y-97416091D01*
X151136717Y-97281404D01*
X151217529Y-97254467D01*
X151271404Y-97254467D01*
X151352216Y-97281404D01*
X151459966Y-97389154D01*
X151486903Y-97469966D01*
X151486903Y-97523841D01*
X151459966Y-97604653D01*
X122154788Y-78466226D02*
X122424162Y-78735600D01*
X122262537Y-78250727D02*
X121885414Y-79004974D01*
X122639661Y-78627850D01*
X122828223Y-78816412D02*
X122262537Y-79382097D01*
X122397224Y-79516784D01*
X122504974Y-79570659D01*
X122612723Y-79570659D01*
X122693536Y-79543722D01*
X122828223Y-79462910D01*
X122909035Y-79382097D01*
X122989847Y-79247410D01*
X123016784Y-79166598D01*
X123016784Y-79058849D01*
X122962910Y-78951099D01*
X122828223Y-78816412D01*
X123663282Y-79759221D02*
X123663282Y-79705346D01*
X123609407Y-79597597D01*
X123555532Y-79543722D01*
X123447783Y-79489847D01*
X123340033Y-79489847D01*
X123259221Y-79516784D01*
X123124534Y-79597597D01*
X123043722Y-79678409D01*
X122962910Y-79813096D01*
X122935972Y-79893908D01*
X122935972Y-80001658D01*
X122989847Y-80109407D01*
X123043722Y-80163282D01*
X123151471Y-80217157D01*
X123205346Y-80217157D01*
X123878781Y-79759221D02*
X124309780Y-80190219D01*
X123744094Y-80863654D02*
X124498341Y-80486531D01*
X124121218Y-81240778D01*
X125198714Y-81186903D02*
X124740778Y-81267715D01*
X124875465Y-80863654D02*
X124309780Y-81429340D01*
X124525279Y-81644839D01*
X124606091Y-81671776D01*
X124659966Y-81671776D01*
X124740778Y-81644839D01*
X124821590Y-81564027D01*
X124848528Y-81483215D01*
X124848528Y-81429340D01*
X124821590Y-81348528D01*
X124606091Y-81133028D01*
X125144839Y-81725651D02*
X125333401Y-81914213D01*
X125710524Y-81698714D02*
X125441150Y-81429340D01*
X124875465Y-81995025D01*
X125144839Y-82264399D01*
X125845211Y-82426024D02*
X125656650Y-82237462D01*
X125952961Y-81941150D02*
X125387276Y-82506836D01*
X125656650Y-82776210D01*
X150086158Y-86501844D02*
X150005346Y-86474906D01*
X149924534Y-86394094D01*
X149870659Y-86286345D01*
X149870659Y-86178595D01*
X149897597Y-86097783D01*
X149978409Y-85963096D01*
X150059221Y-85882284D01*
X150193908Y-85801471D01*
X150274720Y-85774534D01*
X150382470Y-85774534D01*
X150490219Y-85828409D01*
X150544094Y-85882284D01*
X150597969Y-85990033D01*
X150597969Y-86043908D01*
X150409407Y-86232470D01*
X150301658Y-86124720D01*
X150894280Y-86232470D02*
X150328595Y-86798155D01*
X151217529Y-86555719D01*
X150651844Y-87121404D01*
X151486903Y-86825093D02*
X150921218Y-87390778D01*
X151055905Y-87525465D01*
X151163654Y-87579340D01*
X151271404Y-87579340D01*
X151352216Y-87552402D01*
X151486903Y-87471590D01*
X151567715Y-87390778D01*
X151648528Y-87256091D01*
X151675465Y-87175279D01*
X151675465Y-87067529D01*
X151621590Y-86959780D01*
X151486903Y-86825093D01*
X123989722Y-83465407D02*
X123908910Y-83438470D01*
X123828097Y-83357658D01*
X123774223Y-83249908D01*
X123774223Y-83142158D01*
X123801160Y-83061346D01*
X123881972Y-82926659D01*
X123962784Y-82845847D01*
X124097471Y-82765035D01*
X124178284Y-82738097D01*
X124286033Y-82738097D01*
X124393783Y-82791972D01*
X124447658Y-82845847D01*
X124501532Y-82953597D01*
X124501532Y-83007471D01*
X124312971Y-83196033D01*
X124205221Y-83088284D01*
X124797844Y-83196033D02*
X124232158Y-83761719D01*
X124447658Y-83977218D01*
X124528470Y-84004155D01*
X124582345Y-84004155D01*
X124663157Y-83977218D01*
X124743969Y-83896406D01*
X124770906Y-83815593D01*
X124770906Y-83761719D01*
X124743969Y-83680906D01*
X124528470Y-83465407D01*
X124824781Y-84246592D02*
X124824781Y-84300467D01*
X124851719Y-84381279D01*
X124986406Y-84515966D01*
X125067218Y-84542903D01*
X125121093Y-84542903D01*
X125201905Y-84515966D01*
X125255780Y-84462091D01*
X125309654Y-84354341D01*
X125309654Y-83707844D01*
X125659841Y-84058030D01*
X125659841Y-84704528D02*
X125579028Y-84677590D01*
X125525154Y-84677590D01*
X125444341Y-84704528D01*
X125417404Y-84731465D01*
X125390467Y-84812277D01*
X125390467Y-84866152D01*
X125417404Y-84946964D01*
X125525154Y-85054714D01*
X125605966Y-85081651D01*
X125659841Y-85081651D01*
X125740653Y-85054714D01*
X125767590Y-85027776D01*
X125794528Y-84946964D01*
X125794528Y-84893089D01*
X125767590Y-84812277D01*
X125659841Y-84704528D01*
X125632903Y-84623715D01*
X125632903Y-84569841D01*
X125659841Y-84489028D01*
X125767590Y-84381279D01*
X125848402Y-84354341D01*
X125902277Y-84354341D01*
X125983089Y-84381279D01*
X126090839Y-84489028D01*
X126117776Y-84569841D01*
X126117776Y-84623715D01*
X126090839Y-84704528D01*
X125983089Y-84812277D01*
X125902277Y-84839215D01*
X125848402Y-84839215D01*
X125767590Y-84812277D01*
X134095238Y-119523809D02*
X133980952Y-119561904D01*
X133790476Y-119561904D01*
X133714285Y-119523809D01*
X133676190Y-119485714D01*
X133638095Y-119409523D01*
X133638095Y-119333333D01*
X133676190Y-119257142D01*
X133714285Y-119219047D01*
X133790476Y-119180952D01*
X133942857Y-119142857D01*
X134019047Y-119104761D01*
X134057142Y-119066666D01*
X134095238Y-118990476D01*
X134095238Y-118914285D01*
X134057142Y-118838095D01*
X134019047Y-118800000D01*
X133942857Y-118761904D01*
X133752380Y-118761904D01*
X133638095Y-118800000D01*
X133371428Y-118761904D02*
X133180952Y-119561904D01*
X133028571Y-118990476D01*
X132876190Y-119561904D01*
X132685714Y-118761904D01*
X132380952Y-119561904D02*
X132380952Y-118761904D01*
X132190476Y-118761904D01*
X132076190Y-118800000D01*
X132000000Y-118876190D01*
X131961904Y-118952380D01*
X131923809Y-119104761D01*
X131923809Y-119219047D01*
X131961904Y-119371428D01*
X132000000Y-119447619D01*
X132076190Y-119523809D01*
X132190476Y-119561904D01*
X132380952Y-119561904D01*
X131580952Y-119561904D02*
X131580952Y-118761904D01*
X131047619Y-118761904D02*
X130895238Y-118761904D01*
X130819047Y-118800000D01*
X130742857Y-118876190D01*
X130704761Y-119028571D01*
X130704761Y-119295238D01*
X130742857Y-119447619D01*
X130819047Y-119523809D01*
X130895238Y-119561904D01*
X131047619Y-119561904D01*
X131123809Y-119523809D01*
X131200000Y-119447619D01*
X131238095Y-119295238D01*
X131238095Y-119028571D01*
X131200000Y-118876190D01*
X131123809Y-118800000D01*
X131047619Y-118761904D01*
X124486158Y-111901844D02*
X124405346Y-111874906D01*
X124324534Y-111794094D01*
X124270659Y-111686345D01*
X124270659Y-111578595D01*
X124297597Y-111497783D01*
X124378409Y-111363096D01*
X124459221Y-111282284D01*
X124593908Y-111201471D01*
X124674720Y-111174534D01*
X124782470Y-111174534D01*
X124890219Y-111228409D01*
X124944094Y-111282284D01*
X124997969Y-111390033D01*
X124997969Y-111443908D01*
X124809407Y-111632470D01*
X124701658Y-111524720D01*
X125294280Y-111632470D02*
X124728595Y-112198155D01*
X125617529Y-111955719D01*
X125051844Y-112521404D01*
X125886903Y-112225093D02*
X125321218Y-112790778D01*
X125455905Y-112925465D01*
X125563654Y-112979340D01*
X125671404Y-112979340D01*
X125752216Y-112952402D01*
X125886903Y-112871590D01*
X125967715Y-112790778D01*
X126048528Y-112656091D01*
X126075465Y-112575279D01*
X126075465Y-112467529D01*
X126021590Y-112359780D01*
X125886903Y-112225093D01*
X150213096Y-76368781D02*
X150132284Y-76341844D01*
X150051471Y-76261032D01*
X149997597Y-76153282D01*
X149997597Y-76045532D01*
X150024534Y-75964720D01*
X150105346Y-75830033D01*
X150186158Y-75749221D01*
X150320845Y-75668409D01*
X150401658Y-75641471D01*
X150509407Y-75641471D01*
X150617157Y-75695346D01*
X150671032Y-75749221D01*
X150724906Y-75856971D01*
X150724906Y-75910845D01*
X150536345Y-76099407D01*
X150428595Y-75991658D01*
X151021218Y-76099407D02*
X150455532Y-76665093D01*
X150671032Y-76880592D01*
X150751844Y-76907529D01*
X150805719Y-76907529D01*
X150886531Y-76880592D01*
X150967343Y-76799780D01*
X150994280Y-76718967D01*
X150994280Y-76665093D01*
X150967343Y-76584280D01*
X150751844Y-76368781D01*
X151048155Y-77149966D02*
X151048155Y-77203841D01*
X151075093Y-77284653D01*
X151209780Y-77419340D01*
X151290592Y-77446277D01*
X151344467Y-77446277D01*
X151425279Y-77419340D01*
X151479154Y-77365465D01*
X151533028Y-77257715D01*
X151533028Y-76611218D01*
X151883215Y-76961404D01*
X150113096Y-78908781D02*
X150032284Y-78881844D01*
X149951471Y-78801032D01*
X149897597Y-78693282D01*
X149897597Y-78585532D01*
X149924534Y-78504720D01*
X150005346Y-78370033D01*
X150086158Y-78289221D01*
X150220845Y-78208409D01*
X150301658Y-78181471D01*
X150409407Y-78181471D01*
X150517157Y-78235346D01*
X150571032Y-78289221D01*
X150624906Y-78396971D01*
X150624906Y-78450845D01*
X150436345Y-78639407D01*
X150328595Y-78531658D01*
X150921218Y-78639407D02*
X150355532Y-79205093D01*
X150571032Y-79420592D01*
X150651844Y-79447529D01*
X150705719Y-79447529D01*
X150786531Y-79420592D01*
X150867343Y-79339780D01*
X150894280Y-79258967D01*
X150894280Y-79205093D01*
X150867343Y-79124280D01*
X150651844Y-78908781D01*
X150867343Y-79716903D02*
X151217529Y-80067089D01*
X151244467Y-79663028D01*
X151325279Y-79743841D01*
X151406091Y-79770778D01*
X151459966Y-79770778D01*
X151540778Y-79743841D01*
X151675465Y-79609154D01*
X151702402Y-79528341D01*
X151702402Y-79474467D01*
X151675465Y-79393654D01*
X151513841Y-79232030D01*
X151433028Y-79205093D01*
X151379154Y-79205093D01*
X150097722Y-101499407D02*
X150016910Y-101472470D01*
X149936097Y-101391658D01*
X149882223Y-101283908D01*
X149882223Y-101176158D01*
X149909160Y-101095346D01*
X149989972Y-100960659D01*
X150070784Y-100879847D01*
X150205471Y-100799035D01*
X150286284Y-100772097D01*
X150394033Y-100772097D01*
X150501783Y-100825972D01*
X150555658Y-100879847D01*
X150609532Y-100987597D01*
X150609532Y-101041471D01*
X150420971Y-101230033D01*
X150313221Y-101122284D01*
X150905844Y-101230033D02*
X150340158Y-101795719D01*
X150555658Y-102011218D01*
X150636470Y-102038155D01*
X150690345Y-102038155D01*
X150771157Y-102011218D01*
X150851969Y-101930406D01*
X150878906Y-101849593D01*
X150878906Y-101795719D01*
X150851969Y-101714906D01*
X150636470Y-101499407D01*
X151767841Y-102092030D02*
X151444592Y-101768781D01*
X151606216Y-101930406D02*
X151040531Y-102496091D01*
X151067468Y-102361404D01*
X151067468Y-102253654D01*
X151040531Y-102172842D01*
X151552341Y-103007902D02*
X151606216Y-103061776D01*
X151687028Y-103088714D01*
X151740903Y-103088714D01*
X151821715Y-103061776D01*
X151956402Y-102980964D01*
X152091089Y-102846277D01*
X152171902Y-102711590D01*
X152198839Y-102630778D01*
X152198839Y-102576903D01*
X152171902Y-102496091D01*
X152118027Y-102442216D01*
X152037215Y-102415279D01*
X151983340Y-102415279D01*
X151902528Y-102442216D01*
X151767841Y-102523028D01*
X151633154Y-102657715D01*
X151552341Y-102792402D01*
X151525404Y-102873215D01*
X151525404Y-102927089D01*
X151552341Y-103007902D01*
X150213096Y-71278781D02*
X150132284Y-71251844D01*
X150051471Y-71171032D01*
X149997597Y-71063282D01*
X149997597Y-70955532D01*
X150024534Y-70874720D01*
X150105346Y-70740033D01*
X150186158Y-70659221D01*
X150320845Y-70578409D01*
X150401658Y-70551471D01*
X150509407Y-70551471D01*
X150617157Y-70605346D01*
X150671032Y-70659221D01*
X150724906Y-70766971D01*
X150724906Y-70820845D01*
X150536345Y-71009407D01*
X150428595Y-70901658D01*
X151021218Y-71009407D02*
X150455532Y-71575093D01*
X150671032Y-71790592D01*
X150751844Y-71817529D01*
X150805719Y-71817529D01*
X150886531Y-71790592D01*
X150967343Y-71709780D01*
X150994280Y-71628967D01*
X150994280Y-71575093D01*
X150967343Y-71494280D01*
X150751844Y-71278781D01*
X151883215Y-71871404D02*
X151559966Y-71548155D01*
X151721590Y-71709780D02*
X151155905Y-72275465D01*
X151182842Y-72140778D01*
X151182842Y-72033028D01*
X151155905Y-71952216D01*
X123989722Y-106579407D02*
X123908910Y-106552470D01*
X123828097Y-106471658D01*
X123774223Y-106363908D01*
X123774223Y-106256158D01*
X123801160Y-106175346D01*
X123881972Y-106040659D01*
X123962784Y-105959847D01*
X124097471Y-105879035D01*
X124178284Y-105852097D01*
X124286033Y-105852097D01*
X124393783Y-105905972D01*
X124447658Y-105959847D01*
X124501532Y-106067597D01*
X124501532Y-106121471D01*
X124312971Y-106310033D01*
X124205221Y-106202284D01*
X124797844Y-106310033D02*
X124232158Y-106875719D01*
X124447658Y-107091218D01*
X124528470Y-107118155D01*
X124582345Y-107118155D01*
X124663157Y-107091218D01*
X124743969Y-107010406D01*
X124770906Y-106929593D01*
X124770906Y-106875719D01*
X124743969Y-106794906D01*
X124528470Y-106579407D01*
X125659841Y-107172030D02*
X125336592Y-106848781D01*
X125498216Y-107010406D02*
X124932531Y-107576091D01*
X124959468Y-107441404D01*
X124959468Y-107333654D01*
X124932531Y-107252842D01*
X125929215Y-107441404D02*
X126036964Y-107549154D01*
X126063902Y-107629966D01*
X126063902Y-107683841D01*
X126036964Y-107818528D01*
X125956152Y-107953215D01*
X125740653Y-108168714D01*
X125659841Y-108195651D01*
X125605966Y-108195651D01*
X125525154Y-108168714D01*
X125417404Y-108060964D01*
X125390467Y-107980152D01*
X125390467Y-107926277D01*
X125417404Y-107845465D01*
X125552091Y-107710778D01*
X125632903Y-107683841D01*
X125686778Y-107683841D01*
X125767590Y-107710778D01*
X125875340Y-107818528D01*
X125902277Y-107899340D01*
X125902277Y-107953215D01*
X125875340Y-108034027D01*
X123989722Y-88809407D02*
X123908910Y-88782470D01*
X123828097Y-88701658D01*
X123774223Y-88593908D01*
X123774223Y-88486158D01*
X123801160Y-88405346D01*
X123881972Y-88270659D01*
X123962784Y-88189847D01*
X124097471Y-88109035D01*
X124178284Y-88082097D01*
X124286033Y-88082097D01*
X124393783Y-88135972D01*
X124447658Y-88189847D01*
X124501532Y-88297597D01*
X124501532Y-88351471D01*
X124312971Y-88540033D01*
X124205221Y-88432284D01*
X124797844Y-88540033D02*
X124232158Y-89105719D01*
X124447658Y-89321218D01*
X124528470Y-89348155D01*
X124582345Y-89348155D01*
X124663157Y-89321218D01*
X124743969Y-89240406D01*
X124770906Y-89159593D01*
X124770906Y-89105719D01*
X124743969Y-89024906D01*
X124528470Y-88809407D01*
X124824781Y-89590592D02*
X124824781Y-89644467D01*
X124851719Y-89725279D01*
X124986406Y-89859966D01*
X125067218Y-89886903D01*
X125121093Y-89886903D01*
X125201905Y-89859966D01*
X125255780Y-89806091D01*
X125309654Y-89698341D01*
X125309654Y-89051844D01*
X125659841Y-89402030D01*
X125282717Y-90156277D02*
X125659841Y-90533401D01*
X125983089Y-89725279D01*
X123520473Y-70750033D02*
X124274720Y-70372910D01*
X123897597Y-71127157D01*
X124597969Y-70750033D02*
X124705719Y-70803908D01*
X124840406Y-70938595D01*
X124867343Y-71019407D01*
X124867343Y-71073282D01*
X124840406Y-71154094D01*
X124786531Y-71207969D01*
X124705719Y-71234906D01*
X124651844Y-71234906D01*
X124571032Y-71207969D01*
X124436345Y-71127157D01*
X124355532Y-71100219D01*
X124301658Y-71100219D01*
X124220845Y-71127157D01*
X124166971Y-71181032D01*
X124140033Y-71261844D01*
X124140033Y-71315719D01*
X124166971Y-71396531D01*
X124301658Y-71531218D01*
X124409407Y-71585093D01*
X125028967Y-71665905D02*
X125298341Y-71396531D01*
X124544094Y-71773654D02*
X125028967Y-71665905D01*
X124921218Y-72150778D01*
X125621590Y-71773654D02*
X125729340Y-71827529D01*
X125864027Y-71962216D01*
X125890964Y-72043028D01*
X125890964Y-72096903D01*
X125864027Y-72177715D01*
X125810152Y-72231590D01*
X125729340Y-72258528D01*
X125675465Y-72258528D01*
X125594653Y-72231590D01*
X125459966Y-72150778D01*
X125379154Y-72123841D01*
X125325279Y-72123841D01*
X125244467Y-72150778D01*
X125190592Y-72204653D01*
X125163654Y-72285465D01*
X125163654Y-72339340D01*
X125190592Y-72420152D01*
X125325279Y-72554839D01*
X125433028Y-72608714D01*
X150113096Y-81448781D02*
X150032284Y-81421844D01*
X149951471Y-81341032D01*
X149897597Y-81233282D01*
X149897597Y-81125532D01*
X149924534Y-81044720D01*
X150005346Y-80910033D01*
X150086158Y-80829221D01*
X150220845Y-80748409D01*
X150301658Y-80721471D01*
X150409407Y-80721471D01*
X150517157Y-80775346D01*
X150571032Y-80829221D01*
X150624906Y-80936971D01*
X150624906Y-80990845D01*
X150436345Y-81179407D01*
X150328595Y-81071658D01*
X150921218Y-81179407D02*
X150355532Y-81745093D01*
X150571032Y-81960592D01*
X150651844Y-81987529D01*
X150705719Y-81987529D01*
X150786531Y-81960592D01*
X150867343Y-81879780D01*
X150894280Y-81798967D01*
X150894280Y-81745093D01*
X150867343Y-81664280D01*
X150651844Y-81448781D01*
X151352216Y-82364653D02*
X151729340Y-81987529D01*
X151002030Y-82445465D02*
X151271404Y-81906717D01*
X151621590Y-82256903D01*
X150113096Y-89068781D02*
X150032284Y-89041844D01*
X149951471Y-88961032D01*
X149897597Y-88853282D01*
X149897597Y-88745532D01*
X149924534Y-88664720D01*
X150005346Y-88530033D01*
X150086158Y-88449221D01*
X150220845Y-88368409D01*
X150301658Y-88341471D01*
X150409407Y-88341471D01*
X150517157Y-88395346D01*
X150571032Y-88449221D01*
X150624906Y-88556971D01*
X150624906Y-88610845D01*
X150436345Y-88799407D01*
X150328595Y-88691658D01*
X150921218Y-88799407D02*
X150355532Y-89365093D01*
X150571032Y-89580592D01*
X150651844Y-89607529D01*
X150705719Y-89607529D01*
X150786531Y-89580592D01*
X150867343Y-89499780D01*
X150894280Y-89418967D01*
X150894280Y-89365093D01*
X150867343Y-89284280D01*
X150651844Y-89068781D01*
X151163654Y-90173215D02*
X151055905Y-90065465D01*
X151028967Y-89984653D01*
X151028967Y-89930778D01*
X151055905Y-89796091D01*
X151136717Y-89661404D01*
X151352216Y-89445905D01*
X151433028Y-89418967D01*
X151486903Y-89418967D01*
X151567715Y-89445905D01*
X151675465Y-89553654D01*
X151702402Y-89634467D01*
X151702402Y-89688341D01*
X151675465Y-89769154D01*
X151540778Y-89903841D01*
X151459966Y-89930778D01*
X151406091Y-89930778D01*
X151325279Y-89903841D01*
X151217529Y-89796091D01*
X151190592Y-89715279D01*
X151190592Y-89661404D01*
X151217529Y-89580592D01*
X124486158Y-73801844D02*
X124405346Y-73774906D01*
X124324534Y-73694094D01*
X124270659Y-73586345D01*
X124270659Y-73478595D01*
X124297597Y-73397783D01*
X124378409Y-73263096D01*
X124459221Y-73182284D01*
X124593908Y-73101471D01*
X124674720Y-73074534D01*
X124782470Y-73074534D01*
X124890219Y-73128409D01*
X124944094Y-73182284D01*
X124997969Y-73290033D01*
X124997969Y-73343908D01*
X124809407Y-73532470D01*
X124701658Y-73424720D01*
X125294280Y-73532470D02*
X124728595Y-74098155D01*
X125617529Y-73855719D01*
X125051844Y-74421404D01*
X125886903Y-74125093D02*
X125321218Y-74690778D01*
X125455905Y-74825465D01*
X125563654Y-74879340D01*
X125671404Y-74879340D01*
X125752216Y-74852402D01*
X125886903Y-74771590D01*
X125967715Y-74690778D01*
X126048528Y-74556091D01*
X126075465Y-74475279D01*
X126075465Y-74367529D01*
X126021590Y-74259780D01*
X125886903Y-74125093D01*
X145509523Y-119523809D02*
X145395238Y-119561904D01*
X145204761Y-119561904D01*
X145128571Y-119523809D01*
X145090476Y-119485714D01*
X145052380Y-119409523D01*
X145052380Y-119333333D01*
X145090476Y-119257142D01*
X145128571Y-119219047D01*
X145204761Y-119180952D01*
X145357142Y-119142857D01*
X145433333Y-119104761D01*
X145471428Y-119066666D01*
X145509523Y-118990476D01*
X145509523Y-118914285D01*
X145471428Y-118838095D01*
X145433333Y-118800000D01*
X145357142Y-118761904D01*
X145166666Y-118761904D01*
X145052380Y-118800000D01*
X144785714Y-118761904D02*
X144595238Y-119561904D01*
X144442857Y-118990476D01*
X144290476Y-119561904D01*
X144100000Y-118761904D01*
X143338095Y-119485714D02*
X143376190Y-119523809D01*
X143490476Y-119561904D01*
X143566666Y-119561904D01*
X143680952Y-119523809D01*
X143757142Y-119447619D01*
X143795238Y-119371428D01*
X143833333Y-119219047D01*
X143833333Y-119104761D01*
X143795238Y-118952380D01*
X143757142Y-118876190D01*
X143680952Y-118800000D01*
X143566666Y-118761904D01*
X143490476Y-118761904D01*
X143376190Y-118800000D01*
X143338095Y-118838095D01*
X142614285Y-119561904D02*
X142995238Y-119561904D01*
X142995238Y-118761904D01*
X142347619Y-119561904D02*
X142347619Y-118761904D01*
X141890476Y-119561904D02*
X142233333Y-119104761D01*
X141890476Y-118761904D02*
X142347619Y-119219047D01*
X150086158Y-111901844D02*
X150005346Y-111874906D01*
X149924534Y-111794094D01*
X149870659Y-111686345D01*
X149870659Y-111578595D01*
X149897597Y-111497783D01*
X149978409Y-111363096D01*
X150059221Y-111282284D01*
X150193908Y-111201471D01*
X150274720Y-111174534D01*
X150382470Y-111174534D01*
X150490219Y-111228409D01*
X150544094Y-111282284D01*
X150597969Y-111390033D01*
X150597969Y-111443908D01*
X150409407Y-111632470D01*
X150301658Y-111524720D01*
X150894280Y-111632470D02*
X150328595Y-112198155D01*
X151217529Y-111955719D01*
X150651844Y-112521404D01*
X151486903Y-112225093D02*
X150921218Y-112790778D01*
X151055905Y-112925465D01*
X151163654Y-112979340D01*
X151271404Y-112979340D01*
X151352216Y-112952402D01*
X151486903Y-112871590D01*
X151567715Y-112790778D01*
X151648528Y-112656091D01*
X151675465Y-112575279D01*
X151675465Y-112467529D01*
X151621590Y-112359780D01*
X151486903Y-112225093D01*
X150097722Y-109119407D02*
X150016910Y-109092470D01*
X149936097Y-109011658D01*
X149882223Y-108903908D01*
X149882223Y-108796158D01*
X149909160Y-108715346D01*
X149989972Y-108580659D01*
X150070784Y-108499847D01*
X150205471Y-108419035D01*
X150286284Y-108392097D01*
X150394033Y-108392097D01*
X150501783Y-108445972D01*
X150555658Y-108499847D01*
X150609532Y-108607597D01*
X150609532Y-108661471D01*
X150420971Y-108850033D01*
X150313221Y-108742284D01*
X150905844Y-108850033D02*
X150340158Y-109415719D01*
X150555658Y-109631218D01*
X150636470Y-109658155D01*
X150690345Y-109658155D01*
X150771157Y-109631218D01*
X150851969Y-109550406D01*
X150878906Y-109469593D01*
X150878906Y-109415719D01*
X150851969Y-109334906D01*
X150636470Y-109119407D01*
X151767841Y-109712030D02*
X151444592Y-109388781D01*
X151606216Y-109550406D02*
X151040531Y-110116091D01*
X151067468Y-109981404D01*
X151067468Y-109873654D01*
X151040531Y-109792842D01*
X151390717Y-110466277D02*
X151740903Y-110816463D01*
X151767841Y-110412402D01*
X151848653Y-110493215D01*
X151929465Y-110520152D01*
X151983340Y-110520152D01*
X152064152Y-110493215D01*
X152198839Y-110358528D01*
X152225776Y-110277715D01*
X152225776Y-110223841D01*
X152198839Y-110143028D01*
X152037215Y-109981404D01*
X151956402Y-109954467D01*
X151902528Y-109954467D01*
X123989722Y-91339407D02*
X123908910Y-91312470D01*
X123828097Y-91231658D01*
X123774223Y-91123908D01*
X123774223Y-91016158D01*
X123801160Y-90935346D01*
X123881972Y-90800659D01*
X123962784Y-90719847D01*
X124097471Y-90639035D01*
X124178284Y-90612097D01*
X124286033Y-90612097D01*
X124393783Y-90665972D01*
X124447658Y-90719847D01*
X124501532Y-90827597D01*
X124501532Y-90881471D01*
X124312971Y-91070033D01*
X124205221Y-90962284D01*
X124797844Y-91070033D02*
X124232158Y-91635719D01*
X124447658Y-91851218D01*
X124528470Y-91878155D01*
X124582345Y-91878155D01*
X124663157Y-91851218D01*
X124743969Y-91770406D01*
X124770906Y-91689593D01*
X124770906Y-91635719D01*
X124743969Y-91554906D01*
X124528470Y-91339407D01*
X124824781Y-92120592D02*
X124824781Y-92174467D01*
X124851719Y-92255279D01*
X124986406Y-92389966D01*
X125067218Y-92416903D01*
X125121093Y-92416903D01*
X125201905Y-92389966D01*
X125255780Y-92336091D01*
X125309654Y-92228341D01*
X125309654Y-91581844D01*
X125659841Y-91932030D01*
X125579028Y-92982589D02*
X125471279Y-92874839D01*
X125444341Y-92794027D01*
X125444341Y-92740152D01*
X125471279Y-92605465D01*
X125552091Y-92470778D01*
X125767590Y-92255279D01*
X125848402Y-92228341D01*
X125902277Y-92228341D01*
X125983089Y-92255279D01*
X126090839Y-92363028D01*
X126117776Y-92443841D01*
X126117776Y-92497715D01*
X126090839Y-92578528D01*
X125956152Y-92713215D01*
X125875340Y-92740152D01*
X125821465Y-92740152D01*
X125740653Y-92713215D01*
X125632903Y-92605465D01*
X125605966Y-92524653D01*
X125605966Y-92470778D01*
X125632903Y-92389966D01*
X123989722Y-109119407D02*
X123908910Y-109092470D01*
X123828097Y-109011658D01*
X123774223Y-108903908D01*
X123774223Y-108796158D01*
X123801160Y-108715346D01*
X123881972Y-108580659D01*
X123962784Y-108499847D01*
X124097471Y-108419035D01*
X124178284Y-108392097D01*
X124286033Y-108392097D01*
X124393783Y-108445972D01*
X124447658Y-108499847D01*
X124501532Y-108607597D01*
X124501532Y-108661471D01*
X124312971Y-108850033D01*
X124205221Y-108742284D01*
X124797844Y-108850033D02*
X124232158Y-109415719D01*
X124447658Y-109631218D01*
X124528470Y-109658155D01*
X124582345Y-109658155D01*
X124663157Y-109631218D01*
X124743969Y-109550406D01*
X124770906Y-109469593D01*
X124770906Y-109415719D01*
X124743969Y-109334906D01*
X124528470Y-109119407D01*
X125659841Y-109712030D02*
X125336592Y-109388781D01*
X125498216Y-109550406D02*
X124932531Y-110116091D01*
X124959468Y-109981404D01*
X124959468Y-109873654D01*
X124932531Y-109792842D01*
X125659841Y-110358528D02*
X125579028Y-110331590D01*
X125525154Y-110331590D01*
X125444341Y-110358528D01*
X125417404Y-110385465D01*
X125390467Y-110466277D01*
X125390467Y-110520152D01*
X125417404Y-110600964D01*
X125525154Y-110708714D01*
X125605966Y-110735651D01*
X125659841Y-110735651D01*
X125740653Y-110708714D01*
X125767590Y-110681776D01*
X125794528Y-110600964D01*
X125794528Y-110547089D01*
X125767590Y-110466277D01*
X125659841Y-110358528D01*
X125632903Y-110277715D01*
X125632903Y-110223841D01*
X125659841Y-110143028D01*
X125767590Y-110035279D01*
X125848402Y-110008341D01*
X125902277Y-110008341D01*
X125983089Y-110035279D01*
X126090839Y-110143028D01*
X126117776Y-110223841D01*
X126117776Y-110277715D01*
X126090839Y-110358528D01*
X125983089Y-110466277D01*
X125902277Y-110493215D01*
X125848402Y-110493215D01*
X125767590Y-110466277D01*
X124043597Y-85559035D02*
X124312971Y-85828409D01*
X124151346Y-85343536D02*
X123774223Y-86097783D01*
X124528470Y-85720659D01*
X124474595Y-86744280D02*
X124393783Y-86717343D01*
X124312971Y-86636531D01*
X124259096Y-86528781D01*
X124259096Y-86421032D01*
X124286033Y-86340219D01*
X124366845Y-86205532D01*
X124447658Y-86124720D01*
X124582345Y-86043908D01*
X124663157Y-86016971D01*
X124770906Y-86016971D01*
X124878656Y-86070845D01*
X124932531Y-86124720D01*
X124986406Y-86232470D01*
X124986406Y-86286345D01*
X124797844Y-86474906D01*
X124690094Y-86367157D01*
X125282717Y-86474906D02*
X124717032Y-87040592D01*
X125605966Y-86798155D01*
X125040280Y-87363841D01*
X125875340Y-87067529D02*
X125309654Y-87633215D01*
X125444341Y-87767902D01*
X125552091Y-87821776D01*
X125659841Y-87821776D01*
X125740653Y-87794839D01*
X125875340Y-87714027D01*
X125956152Y-87633215D01*
X126036964Y-87498528D01*
X126063902Y-87417715D01*
X126063902Y-87309966D01*
X126010027Y-87202216D01*
X125875340Y-87067529D01*
X150013096Y-91578781D02*
X149932284Y-91551844D01*
X149851471Y-91471032D01*
X149797597Y-91363282D01*
X149797597Y-91255532D01*
X149824534Y-91174720D01*
X149905346Y-91040033D01*
X149986158Y-90959221D01*
X150120845Y-90878409D01*
X150201658Y-90851471D01*
X150309407Y-90851471D01*
X150417157Y-90905346D01*
X150471032Y-90959221D01*
X150524906Y-91066971D01*
X150524906Y-91120845D01*
X150336345Y-91309407D01*
X150228595Y-91201658D01*
X150821218Y-91309407D02*
X150255532Y-91875093D01*
X150471032Y-92090592D01*
X150551844Y-92117529D01*
X150605719Y-92117529D01*
X150686531Y-92090592D01*
X150767343Y-92009780D01*
X150794280Y-91928967D01*
X150794280Y-91875093D01*
X150767343Y-91794280D01*
X150551844Y-91578781D01*
X150767343Y-92386903D02*
X151144467Y-92764027D01*
X151467715Y-91955905D01*
X150086158Y-73801844D02*
X150005346Y-73774906D01*
X149924534Y-73694094D01*
X149870659Y-73586345D01*
X149870659Y-73478595D01*
X149897597Y-73397783D01*
X149978409Y-73263096D01*
X150059221Y-73182284D01*
X150193908Y-73101471D01*
X150274720Y-73074534D01*
X150382470Y-73074534D01*
X150490219Y-73128409D01*
X150544094Y-73182284D01*
X150597969Y-73290033D01*
X150597969Y-73343908D01*
X150409407Y-73532470D01*
X150301658Y-73424720D01*
X150894280Y-73532470D02*
X150328595Y-74098155D01*
X151217529Y-73855719D01*
X150651844Y-74421404D01*
X151486903Y-74125093D02*
X150921218Y-74690778D01*
X151055905Y-74825465D01*
X151163654Y-74879340D01*
X151271404Y-74879340D01*
X151352216Y-74852402D01*
X151486903Y-74771590D01*
X151567715Y-74690778D01*
X151648528Y-74556091D01*
X151675465Y-74475279D01*
X151675465Y-74367529D01*
X151621590Y-74259780D01*
X151486903Y-74125093D01*
X150243722Y-106579407D02*
X150162910Y-106552470D01*
X150082097Y-106471658D01*
X150028223Y-106363908D01*
X150028223Y-106256158D01*
X150055160Y-106175346D01*
X150135972Y-106040659D01*
X150216784Y-105959847D01*
X150351471Y-105879035D01*
X150432284Y-105852097D01*
X150540033Y-105852097D01*
X150647783Y-105905972D01*
X150701658Y-105959847D01*
X150755532Y-106067597D01*
X150755532Y-106121471D01*
X150566971Y-106310033D01*
X150459221Y-106202284D01*
X151051844Y-106310033D02*
X150486158Y-106875719D01*
X150701658Y-107091218D01*
X150782470Y-107118155D01*
X150836345Y-107118155D01*
X150917157Y-107091218D01*
X150997969Y-107010406D01*
X151024906Y-106929593D01*
X151024906Y-106875719D01*
X150997969Y-106794906D01*
X150782470Y-106579407D01*
X151913841Y-107172030D02*
X151590592Y-106848781D01*
X151752216Y-107010406D02*
X151186531Y-107576091D01*
X151213468Y-107441404D01*
X151213468Y-107333654D01*
X151186531Y-107252842D01*
X151617529Y-107899340D02*
X151617529Y-107953215D01*
X151644467Y-108034027D01*
X151779154Y-108168714D01*
X151859966Y-108195651D01*
X151913841Y-108195651D01*
X151994653Y-108168714D01*
X152048528Y-108114839D01*
X152102402Y-108007089D01*
X152102402Y-107360592D01*
X152452589Y-107710778D01*
X123989722Y-101509407D02*
X123908910Y-101482470D01*
X123828097Y-101401658D01*
X123774223Y-101293908D01*
X123774223Y-101186158D01*
X123801160Y-101105346D01*
X123881972Y-100970659D01*
X123962784Y-100889847D01*
X124097471Y-100809035D01*
X124178284Y-100782097D01*
X124286033Y-100782097D01*
X124393783Y-100835972D01*
X124447658Y-100889847D01*
X124501532Y-100997597D01*
X124501532Y-101051471D01*
X124312971Y-101240033D01*
X124205221Y-101132284D01*
X124797844Y-101240033D02*
X124232158Y-101805719D01*
X124447658Y-102021218D01*
X124528470Y-102048155D01*
X124582345Y-102048155D01*
X124663157Y-102021218D01*
X124743969Y-101940406D01*
X124770906Y-101859593D01*
X124770906Y-101805719D01*
X124743969Y-101724906D01*
X124528470Y-101509407D01*
X124824781Y-102290592D02*
X124824781Y-102344467D01*
X124851719Y-102425279D01*
X124986406Y-102559966D01*
X125067218Y-102586903D01*
X125121093Y-102586903D01*
X125201905Y-102559966D01*
X125255780Y-102506091D01*
X125309654Y-102398341D01*
X125309654Y-101751844D01*
X125659841Y-102102030D01*
X126198589Y-102640778D02*
X125875340Y-102317529D01*
X126036964Y-102479154D02*
X125471279Y-103044839D01*
X125498216Y-102910152D01*
X125498216Y-102802402D01*
X125471279Y-102721590D01*
X150113096Y-94148781D02*
X150032284Y-94121844D01*
X149951471Y-94041032D01*
X149897597Y-93933282D01*
X149897597Y-93825532D01*
X149924534Y-93744720D01*
X150005346Y-93610033D01*
X150086158Y-93529221D01*
X150220845Y-93448409D01*
X150301658Y-93421471D01*
X150409407Y-93421471D01*
X150517157Y-93475346D01*
X150571032Y-93529221D01*
X150624906Y-93636971D01*
X150624906Y-93690845D01*
X150436345Y-93879407D01*
X150328595Y-93771658D01*
X150921218Y-93879407D02*
X150355532Y-94445093D01*
X150571032Y-94660592D01*
X150651844Y-94687529D01*
X150705719Y-94687529D01*
X150786531Y-94660592D01*
X150867343Y-94579780D01*
X150894280Y-94498967D01*
X150894280Y-94445093D01*
X150867343Y-94364280D01*
X150651844Y-94148781D01*
X151244467Y-94849154D02*
X151163654Y-94822216D01*
X151109780Y-94822216D01*
X151028967Y-94849154D01*
X151002030Y-94876091D01*
X150975093Y-94956903D01*
X150975093Y-95010778D01*
X151002030Y-95091590D01*
X151109780Y-95199340D01*
X151190592Y-95226277D01*
X151244467Y-95226277D01*
X151325279Y-95199340D01*
X151352216Y-95172402D01*
X151379154Y-95091590D01*
X151379154Y-95037715D01*
X151352216Y-94956903D01*
X151244467Y-94849154D01*
X151217529Y-94768341D01*
X151217529Y-94714467D01*
X151244467Y-94633654D01*
X151352216Y-94525905D01*
X151433028Y-94498967D01*
X151486903Y-94498967D01*
X151567715Y-94525905D01*
X151675465Y-94633654D01*
X151702402Y-94714467D01*
X151702402Y-94768341D01*
X151675465Y-94849154D01*
X151567715Y-94956903D01*
X151486903Y-94983841D01*
X151433028Y-94983841D01*
X151352216Y-94956903D01*
X122522131Y-74641691D02*
X122872317Y-74991877D01*
X122899255Y-74587816D01*
X122980067Y-74668629D01*
X123060879Y-74695566D01*
X123114754Y-74695566D01*
X123195566Y-74668629D01*
X123330253Y-74533942D01*
X123357190Y-74453129D01*
X123357190Y-74399255D01*
X123330253Y-74318442D01*
X123168629Y-74156818D01*
X123087816Y-74129881D01*
X123033942Y-74129881D01*
X123033942Y-75153502D02*
X123788189Y-74776378D01*
X123411065Y-75530625D01*
X123545752Y-75665312D02*
X123895938Y-76015499D01*
X123922876Y-75611438D01*
X124003688Y-75692250D01*
X124084500Y-75719187D01*
X124138375Y-75719187D01*
X124219187Y-75692250D01*
X124353874Y-75557563D01*
X124380812Y-75476751D01*
X124380812Y-75422876D01*
X124353874Y-75342064D01*
X124192250Y-75180439D01*
X124111438Y-75153502D01*
X124057563Y-75153502D01*
X124623248Y-75503688D02*
X125054247Y-75934687D01*
X124838748Y-76419560D02*
X125027309Y-76608122D01*
X125404433Y-76392622D02*
X125135059Y-76123248D01*
X124569374Y-76688934D01*
X124838748Y-76958308D01*
X125646870Y-76635059D02*
X125081184Y-77200744D01*
X125970118Y-76958308D01*
X125404433Y-77523993D01*
X150086158Y-99201844D02*
X150005346Y-99174906D01*
X149924534Y-99094094D01*
X149870659Y-98986345D01*
X149870659Y-98878595D01*
X149897597Y-98797783D01*
X149978409Y-98663096D01*
X150059221Y-98582284D01*
X150193908Y-98501471D01*
X150274720Y-98474534D01*
X150382470Y-98474534D01*
X150490219Y-98528409D01*
X150544094Y-98582284D01*
X150597969Y-98690033D01*
X150597969Y-98743908D01*
X150409407Y-98932470D01*
X150301658Y-98824720D01*
X150894280Y-98932470D02*
X150328595Y-99498155D01*
X151217529Y-99255719D01*
X150651844Y-99821404D01*
X151486903Y-99525093D02*
X150921218Y-100090778D01*
X151055905Y-100225465D01*
X151163654Y-100279340D01*
X151271404Y-100279340D01*
X151352216Y-100252402D01*
X151486903Y-100171590D01*
X151567715Y-100090778D01*
X151648528Y-99956091D01*
X151675465Y-99875279D01*
X151675465Y-99767529D01*
X151621590Y-99659780D01*
X151486903Y-99525093D01*
X124486158Y-99201844D02*
X124405346Y-99174906D01*
X124324534Y-99094094D01*
X124270659Y-98986345D01*
X124270659Y-98878595D01*
X124297597Y-98797783D01*
X124378409Y-98663096D01*
X124459221Y-98582284D01*
X124593908Y-98501471D01*
X124674720Y-98474534D01*
X124782470Y-98474534D01*
X124890219Y-98528409D01*
X124944094Y-98582284D01*
X124997969Y-98690033D01*
X124997969Y-98743908D01*
X124809407Y-98932470D01*
X124701658Y-98824720D01*
X125294280Y-98932470D02*
X124728595Y-99498155D01*
X125617529Y-99255719D01*
X125051844Y-99821404D01*
X125886903Y-99525093D02*
X125321218Y-100090778D01*
X125455905Y-100225465D01*
X125563654Y-100279340D01*
X125671404Y-100279340D01*
X125752216Y-100252402D01*
X125886903Y-100171590D01*
X125967715Y-100090778D01*
X126048528Y-99956091D01*
X126075465Y-99875279D01*
X126075465Y-99767529D01*
X126021590Y-99659780D01*
X125886903Y-99525093D01*
X150243722Y-104039407D02*
X150162910Y-104012470D01*
X150082097Y-103931658D01*
X150028223Y-103823908D01*
X150028223Y-103716158D01*
X150055160Y-103635346D01*
X150135972Y-103500659D01*
X150216784Y-103419847D01*
X150351471Y-103339035D01*
X150432284Y-103312097D01*
X150540033Y-103312097D01*
X150647783Y-103365972D01*
X150701658Y-103419847D01*
X150755532Y-103527597D01*
X150755532Y-103581471D01*
X150566971Y-103770033D01*
X150459221Y-103662284D01*
X151051844Y-103770033D02*
X150486158Y-104335719D01*
X150701658Y-104551218D01*
X150782470Y-104578155D01*
X150836345Y-104578155D01*
X150917157Y-104551218D01*
X150997969Y-104470406D01*
X151024906Y-104389593D01*
X151024906Y-104335719D01*
X150997969Y-104254906D01*
X150782470Y-104039407D01*
X151913841Y-104632030D02*
X151590592Y-104308781D01*
X151752216Y-104470406D02*
X151186531Y-105036091D01*
X151213468Y-104901404D01*
X151213468Y-104793654D01*
X151186531Y-104712842D01*
X152452589Y-105170778D02*
X152129340Y-104847529D01*
X152290964Y-105009154D02*
X151725279Y-105574839D01*
X151752216Y-105440152D01*
X151752216Y-105332402D01*
X151725279Y-105251590D01*
X150113096Y-68748781D02*
X150032284Y-68721844D01*
X149951471Y-68641032D01*
X149897597Y-68533282D01*
X149897597Y-68425532D01*
X149924534Y-68344720D01*
X150005346Y-68210033D01*
X150086158Y-68129221D01*
X150220845Y-68048409D01*
X150301658Y-68021471D01*
X150409407Y-68021471D01*
X150517157Y-68075346D01*
X150571032Y-68129221D01*
X150624906Y-68236971D01*
X150624906Y-68290845D01*
X150436345Y-68479407D01*
X150328595Y-68371658D01*
X150921218Y-68479407D02*
X150355532Y-69045093D01*
X150571032Y-69260592D01*
X150651844Y-69287529D01*
X150705719Y-69287529D01*
X150786531Y-69260592D01*
X150867343Y-69179780D01*
X150894280Y-69098967D01*
X150894280Y-69045093D01*
X150867343Y-68964280D01*
X150651844Y-68748781D01*
X151028967Y-69718528D02*
X151082842Y-69772402D01*
X151163654Y-69799340D01*
X151217529Y-69799340D01*
X151298341Y-69772402D01*
X151433028Y-69691590D01*
X151567715Y-69556903D01*
X151648528Y-69422216D01*
X151675465Y-69341404D01*
X151675465Y-69287529D01*
X151648528Y-69206717D01*
X151594653Y-69152842D01*
X151513841Y-69125905D01*
X151459966Y-69125905D01*
X151379154Y-69152842D01*
X151244467Y-69233654D01*
X151109780Y-69368341D01*
X151028967Y-69503028D01*
X151002030Y-69583841D01*
X151002030Y-69637715D01*
X151028967Y-69718528D01*
X124089847Y-78709407D02*
X124440033Y-79059593D01*
X124466971Y-78655532D01*
X124547783Y-78736345D01*
X124628595Y-78763282D01*
X124682470Y-78763282D01*
X124763282Y-78736345D01*
X124897969Y-78601658D01*
X124924906Y-78520845D01*
X124924906Y-78466971D01*
X124897969Y-78386158D01*
X124736345Y-78224534D01*
X124655532Y-78197597D01*
X124601658Y-78197597D01*
X124601658Y-79221218D02*
X125355905Y-78844094D01*
X124978781Y-79598341D01*
X125113468Y-79733028D02*
X125463654Y-80083215D01*
X125490592Y-79679154D01*
X125571404Y-79759966D01*
X125652216Y-79786903D01*
X125706091Y-79786903D01*
X125786903Y-79759966D01*
X125921590Y-79625279D01*
X125948528Y-79544467D01*
X125948528Y-79490592D01*
X125921590Y-79409780D01*
X125759966Y-79248155D01*
X125679154Y-79221218D01*
X125625279Y-79221218D01*
X123989722Y-114199407D02*
X123908910Y-114172470D01*
X123828097Y-114091658D01*
X123774223Y-113983908D01*
X123774223Y-113876158D01*
X123801160Y-113795346D01*
X123881972Y-113660659D01*
X123962784Y-113579847D01*
X124097471Y-113499035D01*
X124178284Y-113472097D01*
X124286033Y-113472097D01*
X124393783Y-113525972D01*
X124447658Y-113579847D01*
X124501532Y-113687597D01*
X124501532Y-113741471D01*
X124312971Y-113930033D01*
X124205221Y-113822284D01*
X124797844Y-113930033D02*
X124232158Y-114495719D01*
X124447658Y-114711218D01*
X124528470Y-114738155D01*
X124582345Y-114738155D01*
X124663157Y-114711218D01*
X124743969Y-114630406D01*
X124770906Y-114549593D01*
X124770906Y-114495719D01*
X124743969Y-114414906D01*
X124528470Y-114199407D01*
X125659841Y-114792030D02*
X125336592Y-114468781D01*
X125498216Y-114630406D02*
X124932531Y-115196091D01*
X124959468Y-115061404D01*
X124959468Y-114953654D01*
X124932531Y-114872842D01*
X125282717Y-115546277D02*
X125659841Y-115923401D01*
X125983089Y-115115279D01*
X123989722Y-116739407D02*
X123908910Y-116712470D01*
X123828097Y-116631658D01*
X123774223Y-116523908D01*
X123774223Y-116416158D01*
X123801160Y-116335346D01*
X123881972Y-116200659D01*
X123962784Y-116119847D01*
X124097471Y-116039035D01*
X124178284Y-116012097D01*
X124286033Y-116012097D01*
X124393783Y-116065972D01*
X124447658Y-116119847D01*
X124501532Y-116227597D01*
X124501532Y-116281471D01*
X124312971Y-116470033D01*
X124205221Y-116362284D01*
X124797844Y-116470033D02*
X124232158Y-117035719D01*
X124447658Y-117251218D01*
X124528470Y-117278155D01*
X124582345Y-117278155D01*
X124663157Y-117251218D01*
X124743969Y-117170406D01*
X124770906Y-117089593D01*
X124770906Y-117035719D01*
X124743969Y-116954906D01*
X124528470Y-116739407D01*
X125659841Y-117332030D02*
X125336592Y-117008781D01*
X125498216Y-117170406D02*
X124932531Y-117736091D01*
X124959468Y-117601404D01*
X124959468Y-117493654D01*
X124932531Y-117412842D01*
X125579028Y-118382589D02*
X125471279Y-118274839D01*
X125444341Y-118194027D01*
X125444341Y-118140152D01*
X125471279Y-118005465D01*
X125552091Y-117870778D01*
X125767590Y-117655279D01*
X125848402Y-117628341D01*
X125902277Y-117628341D01*
X125983089Y-117655279D01*
X126090839Y-117763028D01*
X126117776Y-117843841D01*
X126117776Y-117897715D01*
X126090839Y-117978528D01*
X125956152Y-118113215D01*
X125875340Y-118140152D01*
X125821465Y-118140152D01*
X125740653Y-118113215D01*
X125632903Y-118005465D01*
X125605966Y-117924653D01*
X125605966Y-117870778D01*
X125632903Y-117789966D01*
X150113096Y-83988781D02*
X150032284Y-83961844D01*
X149951471Y-83881032D01*
X149897597Y-83773282D01*
X149897597Y-83665532D01*
X149924534Y-83584720D01*
X150005346Y-83450033D01*
X150086158Y-83369221D01*
X150220845Y-83288409D01*
X150301658Y-83261471D01*
X150409407Y-83261471D01*
X150517157Y-83315346D01*
X150571032Y-83369221D01*
X150624906Y-83476971D01*
X150624906Y-83530845D01*
X150436345Y-83719407D01*
X150328595Y-83611658D01*
X150921218Y-83719407D02*
X150355532Y-84285093D01*
X150571032Y-84500592D01*
X150651844Y-84527529D01*
X150705719Y-84527529D01*
X150786531Y-84500592D01*
X150867343Y-84419780D01*
X150894280Y-84338967D01*
X150894280Y-84285093D01*
X150867343Y-84204280D01*
X150651844Y-83988781D01*
X151190592Y-85120152D02*
X150921218Y-84850778D01*
X151163654Y-84554467D01*
X151163654Y-84608341D01*
X151190592Y-84689154D01*
X151325279Y-84823841D01*
X151406091Y-84850778D01*
X151459966Y-84850778D01*
X151540778Y-84823841D01*
X151675465Y-84689154D01*
X151702402Y-84608341D01*
X151702402Y-84554467D01*
X151675465Y-84473654D01*
X151540778Y-84338967D01*
X151459966Y-84312030D01*
X151406091Y-84312030D01*
X132496666Y-79052380D02*
X132830000Y-78576190D01*
X133068095Y-79052380D02*
X133068095Y-78052380D01*
X132687142Y-78052380D01*
X132591904Y-78100000D01*
X132544285Y-78147619D01*
X132496666Y-78242857D01*
X132496666Y-78385714D01*
X132544285Y-78480952D01*
X132591904Y-78528571D01*
X132687142Y-78576190D01*
X133068095Y-78576190D01*
X131544285Y-79052380D02*
X132115714Y-79052380D01*
X131830000Y-79052380D02*
X131830000Y-78052380D01*
X131925238Y-78195238D01*
X132020476Y-78290476D01*
X132115714Y-78338095D01*
X132496666Y-76542380D02*
X132830000Y-76066190D01*
X133068095Y-76542380D02*
X133068095Y-75542380D01*
X132687142Y-75542380D01*
X132591904Y-75590000D01*
X132544285Y-75637619D01*
X132496666Y-75732857D01*
X132496666Y-75875714D01*
X132544285Y-75970952D01*
X132591904Y-76018571D01*
X132687142Y-76066190D01*
X133068095Y-76066190D01*
X132163333Y-75542380D02*
X131544285Y-75542380D01*
X131877619Y-75923333D01*
X131734761Y-75923333D01*
X131639523Y-75970952D01*
X131591904Y-76018571D01*
X131544285Y-76113809D01*
X131544285Y-76351904D01*
X131591904Y-76447142D01*
X131639523Y-76494761D01*
X131734761Y-76542380D01*
X132020476Y-76542380D01*
X132115714Y-76494761D01*
X132163333Y-76447142D01*
X140642857Y-93382380D02*
X140976190Y-92906190D01*
X141214285Y-93382380D02*
X141214285Y-92382380D01*
X140833333Y-92382380D01*
X140738095Y-92430000D01*
X140690476Y-92477619D01*
X140642857Y-92572857D01*
X140642857Y-92715714D01*
X140690476Y-92810952D01*
X140738095Y-92858571D01*
X140833333Y-92906190D01*
X141214285Y-92906190D01*
X139690476Y-93382380D02*
X140261904Y-93382380D01*
X139976190Y-93382380D02*
X139976190Y-92382380D01*
X140071428Y-92525238D01*
X140166666Y-92620476D01*
X140261904Y-92668095D01*
X139071428Y-92382380D02*
X138976190Y-92382380D01*
X138880952Y-92430000D01*
X138833333Y-92477619D01*
X138785714Y-92572857D01*
X138738095Y-92763333D01*
X138738095Y-93001428D01*
X138785714Y-93191904D01*
X138833333Y-93287142D01*
X138880952Y-93334761D01*
X138976190Y-93382380D01*
X139071428Y-93382380D01*
X139166666Y-93334761D01*
X139214285Y-93287142D01*
X139261904Y-93191904D01*
X139309523Y-93001428D01*
X139309523Y-92763333D01*
X139261904Y-92572857D01*
X139214285Y-92477619D01*
X139166666Y-92430000D01*
X139071428Y-92382380D01*
X132972857Y-101947142D02*
X133020476Y-101994761D01*
X133163333Y-102042380D01*
X133258571Y-102042380D01*
X133401428Y-101994761D01*
X133496666Y-101899523D01*
X133544285Y-101804285D01*
X133591904Y-101613809D01*
X133591904Y-101470952D01*
X133544285Y-101280476D01*
X133496666Y-101185238D01*
X133401428Y-101090000D01*
X133258571Y-101042380D01*
X133163333Y-101042380D01*
X133020476Y-101090000D01*
X132972857Y-101137619D01*
X132639523Y-101042380D02*
X132020476Y-101042380D01*
X132353809Y-101423333D01*
X132210952Y-101423333D01*
X132115714Y-101470952D01*
X132068095Y-101518571D01*
X132020476Y-101613809D01*
X132020476Y-101851904D01*
X132068095Y-101947142D01*
X132115714Y-101994761D01*
X132210952Y-102042380D01*
X132496666Y-102042380D01*
X132591904Y-101994761D01*
X132639523Y-101947142D01*
X131163333Y-101042380D02*
X131353809Y-101042380D01*
X131449047Y-101090000D01*
X131496666Y-101137619D01*
X131591904Y-101280476D01*
X131639523Y-101470952D01*
X131639523Y-101851904D01*
X131591904Y-101947142D01*
X131544285Y-101994761D01*
X131449047Y-102042380D01*
X131258571Y-102042380D01*
X131163333Y-101994761D01*
X131115714Y-101947142D01*
X131068095Y-101851904D01*
X131068095Y-101613809D01*
X131115714Y-101518571D01*
X131163333Y-101470952D01*
X131258571Y-101423333D01*
X131449047Y-101423333D01*
X131544285Y-101470952D01*
X131591904Y-101518571D01*
X131639523Y-101613809D01*
X140642857Y-88362380D02*
X140976190Y-87886190D01*
X141214285Y-88362380D02*
X141214285Y-87362380D01*
X140833333Y-87362380D01*
X140738095Y-87410000D01*
X140690476Y-87457619D01*
X140642857Y-87552857D01*
X140642857Y-87695714D01*
X140690476Y-87790952D01*
X140738095Y-87838571D01*
X140833333Y-87886190D01*
X141214285Y-87886190D01*
X139690476Y-88362380D02*
X140261904Y-88362380D01*
X139976190Y-88362380D02*
X139976190Y-87362380D01*
X140071428Y-87505238D01*
X140166666Y-87600476D01*
X140261904Y-87648095D01*
X139309523Y-87457619D02*
X139261904Y-87410000D01*
X139166666Y-87362380D01*
X138928571Y-87362380D01*
X138833333Y-87410000D01*
X138785714Y-87457619D01*
X138738095Y-87552857D01*
X138738095Y-87648095D01*
X138785714Y-87790952D01*
X139357142Y-88362380D01*
X138738095Y-88362380D01*
X132972857Y-105042380D02*
X133306190Y-104566190D01*
X133544285Y-105042380D02*
X133544285Y-104042380D01*
X133163333Y-104042380D01*
X133068095Y-104090000D01*
X133020476Y-104137619D01*
X132972857Y-104232857D01*
X132972857Y-104375714D01*
X133020476Y-104470952D01*
X133068095Y-104518571D01*
X133163333Y-104566190D01*
X133544285Y-104566190D01*
X132115714Y-104042380D02*
X132306190Y-104042380D01*
X132401428Y-104090000D01*
X132449047Y-104137619D01*
X132544285Y-104280476D01*
X132591904Y-104470952D01*
X132591904Y-104851904D01*
X132544285Y-104947142D01*
X132496666Y-104994761D01*
X132401428Y-105042380D01*
X132210952Y-105042380D01*
X132115714Y-104994761D01*
X132068095Y-104947142D01*
X132020476Y-104851904D01*
X132020476Y-104613809D01*
X132068095Y-104518571D01*
X132115714Y-104470952D01*
X132210952Y-104423333D01*
X132401428Y-104423333D01*
X132496666Y-104470952D01*
X132544285Y-104518571D01*
X132591904Y-104613809D01*
X131544285Y-105042380D02*
X131353809Y-105042380D01*
X131258571Y-104994761D01*
X131210952Y-104947142D01*
X131115714Y-104804285D01*
X131068095Y-104613809D01*
X131068095Y-104232857D01*
X131115714Y-104137619D01*
X131163333Y-104090000D01*
X131258571Y-104042380D01*
X131449047Y-104042380D01*
X131544285Y-104090000D01*
X131591904Y-104137619D01*
X131639523Y-104232857D01*
X131639523Y-104470952D01*
X131591904Y-104566190D01*
X131544285Y-104613809D01*
X131449047Y-104661428D01*
X131258571Y-104661428D01*
X131163333Y-104613809D01*
X131115714Y-104566190D01*
X131068095Y-104470952D01*
X132972857Y-94512380D02*
X133306190Y-94036190D01*
X133544285Y-94512380D02*
X133544285Y-93512380D01*
X133163333Y-93512380D01*
X133068095Y-93560000D01*
X133020476Y-93607619D01*
X132972857Y-93702857D01*
X132972857Y-93845714D01*
X133020476Y-93940952D01*
X133068095Y-93988571D01*
X133163333Y-94036190D01*
X133544285Y-94036190D01*
X132639523Y-93512380D02*
X131972857Y-93512380D01*
X132401428Y-94512380D01*
X131401428Y-93512380D02*
X131306190Y-93512380D01*
X131210952Y-93560000D01*
X131163333Y-93607619D01*
X131115714Y-93702857D01*
X131068095Y-93893333D01*
X131068095Y-94131428D01*
X131115714Y-94321904D01*
X131163333Y-94417142D01*
X131210952Y-94464761D01*
X131306190Y-94512380D01*
X131401428Y-94512380D01*
X131496666Y-94464761D01*
X131544285Y-94417142D01*
X131591904Y-94321904D01*
X131639523Y-94131428D01*
X131639523Y-93893333D01*
X131591904Y-93702857D01*
X131544285Y-93607619D01*
X131496666Y-93560000D01*
X131401428Y-93512380D01*
D11*
X140029420Y-109360000D02*
X140310580Y-109360000D01*
X140029420Y-108340000D02*
X140310580Y-108340000D01*
X132359420Y-87540000D02*
X132640580Y-87540000D01*
X132359420Y-86520000D02*
X132640580Y-86520000D01*
X132359420Y-82520000D02*
X132640580Y-82520000D01*
X132359420Y-81500000D02*
X132640580Y-81500000D01*
X132092742Y-106192500D02*
X132567258Y-106192500D01*
X132092742Y-105147500D02*
X132567258Y-105147500D01*
X132262742Y-80022500D02*
X132737258Y-80022500D01*
X132262742Y-78977500D02*
X132737258Y-78977500D01*
X132189420Y-95650000D02*
X132470580Y-95650000D01*
X132189420Y-94630000D02*
X132470580Y-94630000D01*
X139762742Y-95957500D02*
X140237258Y-95957500D01*
X139762742Y-97002500D02*
X140237258Y-97002500D01*
X139859420Y-89500000D02*
X140140580Y-89500000D01*
X139859420Y-88480000D02*
X140140580Y-88480000D01*
X139762742Y-99512500D02*
X140237258Y-99512500D01*
X139762742Y-98467500D02*
X140237258Y-98467500D01*
X132092742Y-97127500D02*
X132567258Y-97127500D01*
X132092742Y-98172500D02*
X132567258Y-98172500D01*
X140029420Y-103320000D02*
X140310580Y-103320000D01*
X140029420Y-104340000D02*
X140310580Y-104340000D01*
X139762742Y-112002500D02*
X140237258Y-112002500D01*
X139762742Y-110957500D02*
X140237258Y-110957500D01*
X132262742Y-83997500D02*
X132737258Y-83997500D01*
X132262742Y-85042500D02*
X132737258Y-85042500D01*
X139932742Y-101842500D02*
X140407258Y-101842500D01*
X139932742Y-100797500D02*
X140407258Y-100797500D01*
X139762742Y-114512500D02*
X140237258Y-114512500D01*
X139762742Y-113467500D02*
X140237258Y-113467500D01*
X139932742Y-106862500D02*
X140407258Y-106862500D01*
X139932742Y-105817500D02*
X140407258Y-105817500D01*
X139859420Y-94520000D02*
X140140580Y-94520000D01*
X139859420Y-93500000D02*
X140140580Y-93500000D01*
X148500000Y-85200000D02*
X148500000Y-85600000D01*
X127500000Y-100400000D02*
X127500000Y-100800000D01*
X145493000Y-70167000D02*
X145493000Y-67500000D01*
X148500000Y-75000000D02*
X148500000Y-75400000D01*
X148500000Y-97900000D02*
X148500000Y-98300000D01*
X148500000Y-110600000D02*
X148500000Y-111000000D01*
X127500000Y-103000000D02*
X127500000Y-103400000D01*
X148500000Y-103000000D02*
X148500000Y-103400000D01*
X127500000Y-110600000D02*
X127500000Y-111000000D01*
X148500000Y-90300000D02*
X148500000Y-90700000D01*
X148500000Y-72500000D02*
X148500000Y-72900000D01*
X148500000Y-69900000D02*
X148500000Y-70300000D01*
X148500000Y-113100000D02*
X148500000Y-113500000D01*
X148500000Y-82600000D02*
X148500000Y-83000000D01*
X127500000Y-118500000D02*
X134300000Y-118500000D01*
X127500000Y-115700000D02*
X127500000Y-116100000D01*
X127500000Y-80100000D02*
X127500000Y-80500000D01*
X148500000Y-80100000D02*
X148500000Y-80500000D01*
X141700000Y-118500000D02*
X148500000Y-118500000D01*
X148500000Y-100400000D02*
X148500000Y-100800000D01*
X148500000Y-95300000D02*
X148500000Y-95700000D01*
X127500000Y-97900000D02*
X127500000Y-98300000D01*
X127500000Y-87700000D02*
X127500000Y-88100000D01*
X127500000Y-77600000D02*
X127500000Y-78000000D01*
X148500000Y-67500000D02*
X148500000Y-67800000D01*
X127500000Y-92800000D02*
X127500000Y-93200000D01*
X127500000Y-105500000D02*
X127500000Y-105900000D01*
X127500000Y-72500000D02*
X127500000Y-72900000D01*
X148500000Y-105500000D02*
X148500000Y-105900000D01*
X127500000Y-113100000D02*
X127500000Y-113500000D01*
X148500000Y-70167000D02*
X145493000Y-70167000D01*
X127500000Y-95300000D02*
X127500000Y-95700000D01*
X148500000Y-77600000D02*
X148500000Y-78000000D01*
X148500000Y-87700000D02*
X148500000Y-88100000D01*
X127500000Y-90300000D02*
X127500000Y-90700000D01*
X127500000Y-75000000D02*
X127500000Y-75400000D01*
X148500000Y-108100000D02*
X148500000Y-108500000D01*
X139500000Y-118500000D02*
X139100000Y-118500000D01*
X127500000Y-108100000D02*
X127500000Y-108500000D01*
X148500000Y-67500000D02*
X127500000Y-67500000D01*
X127500000Y-69900000D02*
X127500000Y-70300000D01*
X127500000Y-82600000D02*
X127500000Y-83000000D01*
X127500000Y-85200000D02*
X127500000Y-85600000D01*
X127500000Y-67500000D02*
X127500000Y-67800000D01*
X148500000Y-115700000D02*
X148500000Y-116100000D01*
X136900000Y-118500000D02*
X136500000Y-118500000D01*
X148500000Y-92800000D02*
X148500000Y-93200000D01*
X132092742Y-77692500D02*
X132567258Y-77692500D01*
X132092742Y-76647500D02*
X132567258Y-76647500D01*
X132092742Y-74137500D02*
X132567258Y-74137500D01*
X132092742Y-75182500D02*
X132567258Y-75182500D01*
X139762742Y-90977500D02*
X140237258Y-90977500D01*
X139762742Y-92022500D02*
X140237258Y-92022500D01*
X132189420Y-99650000D02*
X132470580Y-99650000D01*
X132189420Y-100670000D02*
X132470580Y-100670000D01*
X139762742Y-85957500D02*
X140237258Y-85957500D01*
X139762742Y-87002500D02*
X140237258Y-87002500D01*
X132092742Y-102637500D02*
X132567258Y-102637500D01*
X132092742Y-103682500D02*
X132567258Y-103682500D01*
X132092742Y-93152500D02*
X132567258Y-93152500D01*
X132092742Y-92107500D02*
X132567258Y-92107500D01*
%LPC*%
D12*
X143550000Y-76500000D03*
D13*
X143550000Y-71500000D03*
X143550000Y-74000000D03*
D14*
X136050000Y-68400000D03*
X136050000Y-79600000D03*
D12*
X143550000Y-91000000D03*
D13*
X143550000Y-86000000D03*
X143550000Y-88500000D03*
D14*
X136050000Y-82900000D03*
X136050000Y-94100000D03*
D12*
X143550000Y-120000000D03*
D13*
X143550000Y-115000000D03*
X143550000Y-117500000D03*
D14*
X136050000Y-111900000D03*
X136050000Y-123100000D03*
D12*
X143550000Y-105500000D03*
D13*
X143550000Y-100500000D03*
X143550000Y-103000000D03*
D14*
X136050000Y-97400000D03*
X136050000Y-108600000D03*
D15*
X139395000Y-108850000D03*
X140945000Y-108850000D03*
X131725000Y-87030000D03*
X133275000Y-87030000D03*
X131725000Y-82010000D03*
X133275000Y-82010000D03*
D16*
X131505000Y-105670000D03*
X133155000Y-105670000D03*
X131675000Y-79500000D03*
X133325000Y-79500000D03*
D15*
X131555000Y-95140000D03*
X133105000Y-95140000D03*
D16*
X139175000Y-96480000D03*
X140825000Y-96480000D03*
D15*
X139225000Y-88990000D03*
X140775000Y-88990000D03*
D16*
X139175000Y-98990000D03*
X140825000Y-98990000D03*
X131505000Y-97650000D03*
X133155000Y-97650000D03*
D15*
X139395000Y-103830000D03*
X140945000Y-103830000D03*
D16*
X139175000Y-111480000D03*
X140825000Y-111480000D03*
X131675000Y-84520000D03*
X133325000Y-84520000D03*
X139345000Y-101320000D03*
X140995000Y-101320000D03*
X139175000Y-113990000D03*
X140825000Y-113990000D03*
X139345000Y-106340000D03*
X140995000Y-106340000D03*
D15*
X139225000Y-94010000D03*
X140775000Y-94010000D03*
D17*
X140425000Y-72030000D03*
D18*
X135275000Y-69000000D03*
X140725000Y-69000000D03*
D17*
X135575000Y-72030000D03*
D19*
X147790000Y-68870000D03*
D20*
X146890000Y-68870000D03*
X146890000Y-71410000D03*
D19*
X147790000Y-71410000D03*
D21*
X146890000Y-73950000D03*
D19*
X147790000Y-73950000D03*
D20*
X146890000Y-76490000D03*
D19*
X147790000Y-76490000D03*
X147790000Y-79030000D03*
D20*
X146890000Y-79030000D03*
X146890000Y-81570000D03*
D19*
X147790000Y-81570000D03*
X147790000Y-84110000D03*
D20*
X146890000Y-84110000D03*
D21*
X146890000Y-86650000D03*
D19*
X147790000Y-86650000D03*
X147790000Y-89190000D03*
D20*
X146890000Y-89190000D03*
D19*
X147790000Y-91730000D03*
D20*
X146890000Y-91730000D03*
D19*
X147790000Y-94270000D03*
D20*
X146890000Y-94270000D03*
D19*
X147790000Y-96810000D03*
D20*
X146890000Y-96810000D03*
D21*
X146890000Y-99350000D03*
D19*
X147790000Y-99350000D03*
D20*
X146890000Y-101890000D03*
D19*
X147790000Y-101890000D03*
D20*
X146890000Y-104430000D03*
D19*
X147790000Y-104430000D03*
D20*
X146890000Y-106970000D03*
D19*
X147790000Y-106970000D03*
D20*
X146890000Y-109510000D03*
D19*
X147790000Y-109510000D03*
D21*
X146890000Y-112050000D03*
D19*
X147790000Y-112050000D03*
X147790000Y-114590000D03*
D20*
X146890000Y-114590000D03*
X146890000Y-117130000D03*
D19*
X147790000Y-117130000D03*
X128210000Y-117130000D03*
D20*
X129110000Y-117130000D03*
D19*
X128210000Y-114590000D03*
D20*
X129110000Y-114590000D03*
D21*
X129110000Y-112050000D03*
D19*
X128210000Y-112050000D03*
D20*
X129110000Y-109510000D03*
D19*
X128210000Y-109510000D03*
D20*
X129110000Y-106970000D03*
D19*
X128210000Y-106970000D03*
X128210000Y-104430000D03*
D20*
X129110000Y-104430000D03*
D19*
X128210000Y-101890000D03*
D20*
X129110000Y-101890000D03*
D19*
X128210000Y-99350000D03*
D21*
X129110000Y-99350000D03*
D19*
X128210000Y-96810000D03*
D20*
X129110000Y-96810000D03*
X129110000Y-94270000D03*
D19*
X128210000Y-94270000D03*
X128210000Y-91730000D03*
D20*
X129110000Y-91730000D03*
X129110000Y-89190000D03*
D19*
X128210000Y-89190000D03*
X128210000Y-86650000D03*
D21*
X129110000Y-86650000D03*
D19*
X128210000Y-84110000D03*
D20*
X129110000Y-84110000D03*
X129110000Y-81570000D03*
D19*
X128210000Y-81570000D03*
D20*
X129110000Y-79030000D03*
D19*
X128210000Y-79030000D03*
X128210000Y-76490000D03*
D20*
X129110000Y-76490000D03*
D19*
X128210000Y-73950000D03*
D21*
X129110000Y-73950000D03*
D20*
X129110000Y-71410000D03*
D19*
X128210000Y-71410000D03*
D20*
X129110000Y-68870000D03*
D19*
X128210000Y-68870000D03*
D22*
X140540000Y-117800000D03*
D20*
X140540000Y-116900000D03*
D21*
X138000000Y-116900000D03*
D22*
X138000000Y-117800000D03*
D20*
X135460000Y-116900000D03*
D22*
X135460000Y-117800000D03*
D16*
X131505000Y-77170000D03*
X133155000Y-77170000D03*
X131505000Y-74660000D03*
X133155000Y-74660000D03*
X139175000Y-91500000D03*
X140825000Y-91500000D03*
D15*
X131555000Y-100160000D03*
X133105000Y-100160000D03*
D16*
X139175000Y-86480000D03*
X140825000Y-86480000D03*
X131505000Y-103160000D03*
X133155000Y-103160000D03*
X131505000Y-92630000D03*
X133155000Y-92630000D03*
M02*
