G04 #@! TF.GenerationSoftware,KiCad,Pcbnew,(6.0.1)*
G04 #@! TF.CreationDate,2022-01-27T16:12:40+01:00*
G04 #@! TF.ProjectId,mico,6d69636f-2e6b-4696-9361-645f70636258,rev?*
G04 #@! TF.SameCoordinates,Original*
G04 #@! TF.FileFunction,Paste,Bot*
G04 #@! TF.FilePolarity,Positive*
%FSLAX46Y46*%
G04 Gerber Fmt 4.6, Leading zero omitted, Abs format (unit mm)*
G04 Created by KiCad (PCBNEW (6.0.1)) date 2022-01-27 16:12:40*
%MOMM*%
%LPD*%
G01*
G04 APERTURE LIST*
G04 Aperture macros list*
%AMRoundRect*
0 Rectangle with rounded corners*
0 $1 Rounding radius*
0 $2 $3 $4 $5 $6 $7 $8 $9 X,Y pos of 4 corners*
0 Add a 4 corners polygon primitive as box body*
4,1,4,$2,$3,$4,$5,$6,$7,$8,$9,$2,$3,0*
0 Add four circle primitives for the rounded corners*
1,1,$1+$1,$2,$3*
1,1,$1+$1,$4,$5*
1,1,$1+$1,$6,$7*
1,1,$1+$1,$8,$9*
0 Add four rect primitives between the rounded corners*
20,1,$1+$1,$2,$3,$4,$5,0*
20,1,$1+$1,$4,$5,$6,$7,0*
20,1,$1+$1,$6,$7,$8,$9,0*
20,1,$1+$1,$8,$9,$2,$3,0*%
G04 Aperture macros list end*
%ADD10RoundRect,0.225000X-0.225000X-0.250000X0.225000X-0.250000X0.225000X0.250000X-0.225000X0.250000X0*%
%ADD11RoundRect,0.200000X-0.200000X-0.275000X0.200000X-0.275000X0.200000X0.275000X-0.200000X0.275000X0*%
G04 APERTURE END LIST*
D10*
X139395000Y-108850000D03*
X140945000Y-108850000D03*
X131725000Y-87030000D03*
X133275000Y-87030000D03*
X131725000Y-82010000D03*
X133275000Y-82010000D03*
D11*
X131505000Y-105670000D03*
X133155000Y-105670000D03*
X131675000Y-79500000D03*
X133325000Y-79500000D03*
D10*
X131555000Y-95140000D03*
X133105000Y-95140000D03*
D11*
X139175000Y-96480000D03*
X140825000Y-96480000D03*
D10*
X139225000Y-88990000D03*
X140775000Y-88990000D03*
D11*
X139175000Y-98990000D03*
X140825000Y-98990000D03*
X131505000Y-97650000D03*
X133155000Y-97650000D03*
D10*
X139395000Y-103830000D03*
X140945000Y-103830000D03*
D11*
X139175000Y-111480000D03*
X140825000Y-111480000D03*
X131675000Y-84520000D03*
X133325000Y-84520000D03*
X139345000Y-101320000D03*
X140995000Y-101320000D03*
X139175000Y-113990000D03*
X140825000Y-113990000D03*
X139345000Y-106340000D03*
X140995000Y-106340000D03*
D10*
X139225000Y-94010000D03*
X140775000Y-94010000D03*
D11*
X131505000Y-77170000D03*
X133155000Y-77170000D03*
X131505000Y-74660000D03*
X133155000Y-74660000D03*
X139175000Y-91500000D03*
X140825000Y-91500000D03*
D10*
X131555000Y-100160000D03*
X133105000Y-100160000D03*
D11*
X139175000Y-86480000D03*
X140825000Y-86480000D03*
X131505000Y-103160000D03*
X133155000Y-103160000D03*
X131505000Y-92630000D03*
X133155000Y-92630000D03*
M02*
